<svg width="48" height="48" viewBox="0 0 48 48" fill="none" xmlns="http://www.w3.org/2000/svg">
<rect x="0.5" y="0.5" width="47" height="47" rx="7.5" fill="#FEFEFE"/>
<rect x="0.5" y="0.5" width="47" height="47" rx="7.5" stroke="#F0ECFF"/>
<path d="M22.08 19.897C23.157 17.966 23.695 17 24.5 17C25.305 17 25.843 17.966 26.92 19.897L27.198 20.397C27.504 20.946 27.658 21.22 27.896 21.401C28.134 21.582 28.431 21.649 29.026 21.784L29.566 21.906C31.657 22.379 32.703 22.616 32.951 23.416C33.2 24.216 32.487 25.049 31.061 26.716L30.693 27.146C30.288 27.62 30.086 27.857 29.994 28.15C29.904 28.443 29.934 28.759 29.995 29.39L30.051 29.966C30.267 32.19 30.374 33.302 29.723 33.796C29.072 34.29 28.093 33.84 26.136 32.939L25.629 32.705C25.073 32.449 24.795 32.321 24.5 32.321C24.205 32.321 23.927 32.449 23.37 32.705L22.864 32.939C20.907 33.839 19.928 34.291 19.277 33.796C18.626 33.302 18.734 32.19 18.949 29.966L19.005 29.391C19.066 28.759 19.097 28.443 19.005 28.151C18.915 27.857 18.712 27.621 18.307 27.147L17.938 26.715C16.513 25.049 15.8 24.215 16.048 23.415C16.298 22.615 17.343 22.379 19.434 21.906L19.974 21.784C20.569 21.649 20.866 21.582 21.104 21.401C21.343 21.221 21.496 20.946 21.802 20.397L22.08 19.897Z" stroke="#654ADA" stroke-width="1.5"/>
<path d="M16.99 14C16.99 14 17.278 15.458 17.91 16.085C18.54 16.712 20 16.99 20 16.99C20 16.99 18.542 17.278 17.915 17.91C17.288 18.54 17.01 20 17.01 20C17.01 20 16.722 18.542 16.09 17.915C15.46 17.288 14 17.01 14 17.01C14 17.01 15.458 16.722 16.085 16.09C16.712 15.46 16.99 14 16.99 14Z" stroke="#654ADA" stroke-linejoin="round"/>
<path d="M30 17H32M31 18V16" stroke="#654ADA" stroke-width="1.5" stroke-linecap="round"/>
</svg>
