<svg width="48" height="48" viewBox="0 0 48 48" fill="none" xmlns="http://www.w3.org/2000/svg">
<rect x="0.5" y="0.5" width="47" height="47" rx="7.5" fill="#FEFEFE"/>
<rect x="0.5" y="0.5" width="47" height="47" rx="7.5" stroke="#F0ECFF"/>
<g clip-path="url(#clip0_1_187)">
<path d="M15.0938 8.99993C17.8969 8.99458 20.7 8.99043 23.5032 8.98796C23.8342 8.98766 24.1652 8.98736 24.4961 8.98705C24.595 8.98696 24.595 8.98696 24.6958 8.98687C25.7626 8.98585 26.8293 8.984 27.896 8.98184C28.9907 8.97965 30.0854 8.97835 31.1801 8.97787C31.8555 8.97755 32.5308 8.97654 33.2062 8.97463C33.6695 8.97339 34.1327 8.97302 34.5959 8.97332C34.8632 8.97347 35.1303 8.97325 35.3976 8.97199C35.6424 8.97084 35.8873 8.97079 36.1322 8.97159C36.2206 8.97169 36.3089 8.9714 36.3972 8.97066C37.1716 8.96456 37.7821 9.09713 38.3555 9.64446C38.926 10.2421 39.0353 10.8732 39.0298 11.677C39.03 11.7626 39.0304 11.8483 39.0309 11.9339C39.0318 12.1677 39.0314 12.4015 39.0306 12.6353C39.0301 12.8881 39.0309 13.1408 39.0316 13.3936C39.0326 13.8881 39.0324 14.3826 39.0317 14.8771C39.0312 15.2791 39.0311 15.6812 39.0314 16.0832C39.0314 16.1405 39.0314 16.1978 39.0315 16.2568C39.0315 16.3732 39.0316 16.4896 39.0317 16.606C39.0324 17.6967 39.0316 18.7873 39.0303 19.8779C39.0293 20.813 39.0295 21.7482 39.0306 22.6833C39.0318 23.7701 39.0323 24.8569 39.0316 25.9438C39.0315 26.0597 39.0314 26.1757 39.0314 26.2917C39.0313 26.3772 39.0313 26.3772 39.0313 26.4645C39.0311 26.8659 39.0314 27.2673 39.0319 27.6687C39.0326 28.1581 39.0324 28.6475 39.0312 29.1369C39.0306 29.3864 39.0303 29.6359 39.0311 29.8854C39.0318 30.1141 39.0314 30.3428 39.0302 30.5716C39.0299 30.654 39.03 30.7364 39.0306 30.8189C39.0355 31.5781 38.8888 32.1717 38.3555 32.7304C38.0909 32.9829 37.835 33.1495 37.4885 33.2694C37.4312 33.2895 37.3738 33.3095 37.3148 33.3302C37.2499 33.3524 37.2499 33.3524 37.1836 33.3749C37.1834 33.4212 37.1832 33.4675 37.1829 33.5152C37.1807 33.9539 37.1774 34.3926 37.1728 34.8313C37.1705 35.0567 37.1686 35.2822 37.1677 35.5077C37.1668 35.7258 37.1648 35.9438 37.162 36.1619C37.1612 36.2446 37.1607 36.3273 37.1606 36.41C37.1597 37.1826 37.0241 37.786 36.4805 38.3554C35.8348 38.9718 35.1399 39.0347 34.2882 39.0303C34.1864 39.0306 34.0846 39.031 33.9828 39.0315C33.708 39.0326 33.4332 39.0322 33.1584 39.0314C32.8698 39.0308 32.5813 39.0314 32.2927 39.0317C31.8082 39.0322 31.3238 39.0316 30.8393 39.0305C30.2805 39.0292 29.7216 39.0296 29.1627 39.0309C28.6816 39.032 28.2004 39.0321 27.7193 39.0315C27.4325 39.0311 27.1457 39.0311 26.8589 39.0319C26.5892 39.0326 26.3195 39.0321 26.0498 39.0307C25.9512 39.0304 25.8526 39.0305 25.7541 39.031C24.9514 39.0349 24.3084 38.9295 23.707 38.3554C23.1469 37.7687 23.0272 37.1495 23.0327 36.3585C23.0325 36.2767 23.0321 36.1949 23.0316 36.1131C23.0307 35.89 23.0311 35.6669 23.0319 35.4438C23.0324 35.2026 23.0316 34.9613 23.0309 34.7201C23.0299 34.2481 23.0301 33.7762 23.0308 33.3042C23.0313 32.9205 23.0314 32.5368 23.0311 32.1531C23.0311 32.0984 23.0311 32.0437 23.031 31.9873C23.031 31.8762 23.0309 31.7651 23.0308 31.654C23.0301 30.613 23.0309 29.572 23.0322 28.531C23.0332 27.6385 23.033 26.746 23.0319 25.8535C23.0307 24.8161 23.0302 23.7788 23.0309 22.7414C23.031 22.6307 23.0311 22.52 23.0311 22.4093C23.0312 22.3276 23.0312 22.3276 23.0312 22.2442C23.0314 21.8612 23.0311 21.4781 23.0306 21.095C23.0299 20.6279 23.0301 20.1609 23.0313 19.6938C23.0319 19.4556 23.0322 19.2175 23.0314 18.9794C23.0307 18.7611 23.0311 18.5428 23.0323 18.3245C23.0327 18.2088 23.032 18.0931 23.0312 17.9774C23.0373 17.2734 23.2162 16.7211 23.707 16.207C24.3527 15.5906 25.0476 15.5276 25.8993 15.5321C26.0011 15.5318 26.1029 15.5314 26.2047 15.5309C26.4795 15.5298 26.7543 15.5302 27.0291 15.5309C27.3177 15.5315 27.6062 15.531 27.8948 15.5306C28.3793 15.5302 28.8637 15.5308 29.3482 15.5319C29.907 15.5331 30.4659 15.5327 31.0248 15.5314C31.5059 15.5304 31.9871 15.5302 32.4682 15.5308C32.755 15.5312 33.0418 15.5313 33.3286 15.5305C33.5983 15.5298 33.868 15.5303 34.1377 15.5316C34.2363 15.5319 34.3349 15.5319 34.4334 15.5313C35.2361 15.5275 35.8791 15.6329 36.4805 16.207C36.9795 16.7297 37.1612 17.3085 37.1554 18.0213C37.1561 18.1133 37.1561 18.1133 37.1567 18.2072C37.1579 18.4109 37.1575 18.6145 37.157 18.8182C37.1575 18.9649 37.1581 19.1116 37.1588 19.2584C37.1601 19.5733 37.1607 19.8883 37.1606 20.2032C37.1605 20.6586 37.1617 21.1139 37.1632 21.5693C37.1656 22.3082 37.167 23.0471 37.1677 23.7861C37.1684 24.5035 37.1696 25.221 37.1714 25.9384C37.1715 25.9827 37.1717 26.027 37.1718 26.0726C37.1723 26.2948 37.1729 26.517 37.1735 26.7392C37.1784 28.58 37.1815 30.4208 37.1836 32.2616C37.5426 32.0258 37.8169 31.8109 37.9453 31.3827C37.9911 31.1462 38.0113 30.9227 38.0114 30.6819C38.0116 30.613 38.0118 30.544 38.012 30.473C38.0119 30.3978 38.0118 30.3225 38.0117 30.245C38.0119 30.1639 38.012 30.0828 38.0121 30.0016C38.0125 29.779 38.0125 29.5563 38.0124 29.3337C38.0124 29.0934 38.0127 28.8532 38.013 28.6129C38.0135 28.1423 38.0137 27.6717 38.0137 27.2011C38.0137 26.8186 38.0138 26.4361 38.014 26.0535C38.0145 24.9688 38.0148 23.8841 38.0148 22.7994C38.0148 22.7409 38.0148 22.6825 38.0148 22.6222C38.0148 22.5637 38.0148 22.5051 38.0148 22.4448C38.0147 21.4961 38.0153 20.5473 38.0161 19.5985C38.017 18.6242 38.0174 17.6499 38.0173 16.6756C38.0173 16.1286 38.0175 15.5817 38.0181 15.0347C38.0186 14.5691 38.0187 14.1034 38.0184 13.6377C38.0182 13.4002 38.0182 13.1627 38.0187 12.9251C38.0191 12.7075 38.019 12.4899 38.0185 12.2723C38.0184 12.1566 38.0188 12.041 38.0193 11.9254C38.0171 11.3633 37.9883 10.9239 37.6523 10.4648C37.6523 10.4261 37.6523 10.3874 37.6523 10.3476C37.6209 10.3319 37.5895 10.3162 37.5571 10.3C37.4546 10.2487 37.3534 10.1945 37.2532 10.1388C36.9367 9.99612 36.6124 9.98871 36.269 9.9879C36.1551 9.98741 36.1551 9.98741 36.0389 9.98692C35.9554 9.98686 35.8719 9.9868 35.7883 9.98675C35.699 9.98648 35.6097 9.98619 35.5204 9.98587C35.2755 9.98508 35.0306 9.98464 34.7857 9.98427C34.5214 9.9838 34.2571 9.98299 33.9928 9.98223C33.5351 9.98096 33.0773 9.97989 32.6196 9.97897C31.9578 9.97764 31.296 9.97599 30.6341 9.97427C29.5604 9.97148 28.4866 9.96894 27.4128 9.96657C26.3698 9.96426 25.3267 9.96183 24.2837 9.95924C24.2194 9.95908 24.1551 9.95892 24.0889 9.95876C23.7663 9.95796 23.4437 9.95715 23.1211 9.95635C20.4453 9.94967 17.7696 9.94342 15.0938 9.93743C15.0938 9.62805 15.0938 9.31868 15.0938 8.99993ZM24.4102 16.9101C24.204 17.1444 24.1161 17.342 24.0846 17.6515C24.0796 17.6991 24.0746 17.7468 24.0695 17.7959C24.0659 17.8323 24.0623 17.8687 24.0586 17.9062C24.0956 17.9065 24.1327 17.9069 24.1709 17.9072C24.5558 17.911 24.9407 17.9159 25.3257 17.9216C25.4694 17.9235 25.6131 17.9251 25.7569 17.9265C25.9633 17.9284 26.1696 17.9315 26.376 17.9348C26.4727 17.9353 26.4727 17.9353 26.5713 17.9359C26.6312 17.9371 26.691 17.9382 26.7526 17.9394C26.8053 17.9401 26.858 17.9407 26.9123 17.9414C27.0744 17.9696 27.1256 18.0095 27.2227 18.1406C27.2721 18.3269 27.2721 18.3269 27.3105 18.5434C27.3592 18.8163 27.4057 19.0299 27.5742 19.2538C27.785 19.3241 27.9772 19.3211 28.1965 19.3209C28.2419 19.3211 28.2873 19.3213 28.334 19.3215C28.4841 19.3221 28.6342 19.3222 28.7843 19.3223C28.8886 19.3225 28.9929 19.3227 29.0972 19.3229C29.3158 19.3232 29.5345 19.3233 29.7531 19.3233C30.0333 19.3233 30.3136 19.3241 30.5938 19.3251C30.8092 19.3257 31.0246 19.3259 31.24 19.3258C31.3433 19.3259 31.4467 19.3262 31.55 19.3266C31.6945 19.3272 31.8389 19.327 31.9834 19.3267C32.0261 19.327 32.0688 19.3273 32.1128 19.3277C32.3265 19.3263 32.4953 19.3228 32.6719 19.1952C32.8344 18.9014 32.8838 18.6154 32.9282 18.2843C32.9706 18.1181 33.0063 18.0687 33.1406 17.9648C33.2752 17.9414 33.2752 17.9414 33.4349 17.9394C33.4947 17.9383 33.5545 17.9371 33.6161 17.9359C33.6806 17.9355 33.7451 17.9352 33.8115 17.9348C33.8776 17.9337 33.9436 17.9327 34.0117 17.9316C34.2231 17.9284 34.4344 17.9264 34.6458 17.9245C34.7889 17.9225 34.9321 17.9205 35.0752 17.9184C35.4265 17.9134 35.7777 17.9094 36.1289 17.9062C36.1204 17.8212 36.1116 17.7363 36.1027 17.6514C36.0954 17.5804 36.0954 17.5804 36.0879 17.508C36.046 17.2005 35.8828 16.9922 35.6421 16.8048C35.2295 16.541 34.8667 16.4928 34.3796 16.4921C34.3413 16.492 34.303 16.4918 34.2636 16.4917C34.1366 16.4913 34.0095 16.4914 33.8825 16.4914C33.7909 16.4912 33.6993 16.491 33.6078 16.4908C33.3598 16.4903 33.1119 16.4902 32.8639 16.4901C32.7089 16.4901 32.5538 16.49 32.3987 16.4898C31.8571 16.4893 31.3155 16.489 30.7738 16.4891C30.2698 16.4891 29.7658 16.4885 29.2618 16.4876C28.8283 16.4868 28.3949 16.4865 27.9614 16.4865C27.7028 16.4865 27.4442 16.4864 27.1857 16.4857C26.9424 16.4852 26.6992 16.4852 26.4559 16.4856C26.3669 16.4857 26.278 16.4855 26.189 16.4852C25.2351 16.4775 25.2351 16.4775 24.4102 16.9101ZM24 18.8437C24 24.2577 24 29.6718 24 35.2499C28.0219 35.2499 32.0438 35.2499 36.1875 35.2499C36.1875 29.8359 36.1875 24.4218 36.1875 18.8437C35.4141 18.8437 34.6406 18.8437 33.8438 18.8437C33.7857 18.9984 33.7277 19.1531 33.668 19.3124C33.5259 19.6701 33.3465 19.9161 33.0234 20.1327C32.7919 20.2099 32.5701 20.2009 32.3286 20.2017C32.2755 20.2021 32.2224 20.2025 32.1677 20.2029C31.9918 20.204 31.816 20.2047 31.6401 20.2053C31.58 20.2055 31.5199 20.2058 31.458 20.206C31.1399 20.2072 30.8218 20.2081 30.5037 20.2086C30.1754 20.2093 29.8471 20.2113 29.5188 20.2136C29.2662 20.2152 29.0135 20.2156 28.7609 20.2159C28.6399 20.2161 28.5189 20.2168 28.3979 20.2179C28.2283 20.2193 28.0588 20.2193 27.8892 20.2189C27.8395 20.2196 27.7897 20.2204 27.7385 20.2211C27.3551 20.2178 27.1033 20.1212 26.8189 19.8521C26.6223 19.5866 26.515 19.3404 26.4342 19.0197C26.4131 18.9033 26.4131 18.9033 26.3438 18.8437C25.5703 18.8437 24.7969 18.8437 24 18.8437ZM24 36.1874C24 36.749 24.0323 37.213 24.4102 37.6523C24.9527 38.119 25.643 38.0796 26.3183 38.0776C26.4099 38.0777 26.5015 38.078 26.5931 38.0782C26.8405 38.0787 27.088 38.0785 27.3354 38.0782C27.5951 38.0779 27.8548 38.0781 28.1145 38.0783C28.5505 38.0785 28.9865 38.0783 29.4225 38.0777C29.9256 38.0771 30.4288 38.0773 30.9319 38.0779C31.3649 38.0785 31.7979 38.0785 32.2309 38.0782C32.4891 38.078 32.7472 38.078 33.0054 38.0784C33.2482 38.0787 33.491 38.0785 33.7337 38.0778C33.8225 38.0777 33.9113 38.0777 34.0001 38.078C34.8857 38.0935 34.8857 38.0935 35.6602 37.7109C36.1246 37.2431 36.1875 36.8456 36.1875 36.1874C32.1656 36.1874 28.1438 36.1874 24 36.1874Z" fill="#654ADA"/>
<path d="M11.5891 8.9854C11.6895 8.98699 11.6895 8.98699 11.792 8.9886C11.9551 8.99133 12.1182 8.99554 12.2812 9.00005C12.2812 9.30942 12.2812 9.6188 12.2812 9.93755C12.1435 9.94514 12.1435 9.94514 12.0029 9.95288C11.8808 9.96113 11.7588 9.96945 11.6367 9.97783C11.5763 9.98097 11.516 9.9841 11.4538 9.98733C11.093 10.0138 10.8472 10.0694 10.5541 10.2863C10.4648 10.3477 10.4648 10.3477 10.3476 10.3477C10.0459 10.928 9.98735 11.4007 9.98679 12.0445C9.9865 12.1156 9.98621 12.1868 9.98592 12.26C9.98517 12.457 9.98469 12.6539 9.98431 12.8509C9.98384 13.0635 9.98304 13.276 9.98228 13.4886C9.981 13.8567 9.97994 14.2248 9.97902 14.593C9.97769 15.1252 9.97604 15.6575 9.97431 16.1897C9.97152 17.0533 9.96898 17.9168 9.96661 18.7804C9.9643 19.6192 9.96187 20.458 9.95929 21.2968C9.95904 21.3752 9.95904 21.3752 9.9588 21.4551C9.95754 21.8637 9.95627 22.2722 9.955 22.6808C9.94878 24.6831 9.94317 26.6853 9.93747 28.6876C13.9593 28.6876 17.9812 28.6876 22.125 28.6876C22.125 28.9969 22.125 29.3063 22.125 29.6251C18.1031 29.6251 14.0812 29.6251 9.93747 29.6251C9.9121 30.842 9.9121 30.842 10.3476 31.9102C10.3476 31.9489 10.3476 31.9876 10.3476 32.0274C10.8353 32.281 11.2473 32.3875 11.7953 32.3882C11.8618 32.3887 11.8618 32.3887 11.9296 32.3891C12.0775 32.39 12.2254 32.3905 12.3733 32.391C12.4796 32.3916 12.5859 32.3921 12.6921 32.3927C12.9802 32.3943 13.2683 32.3956 13.5564 32.3967C13.8576 32.398 14.1589 32.3996 14.4601 32.4012C15.0303 32.4041 15.6006 32.4067 16.1708 32.4093C16.8201 32.4122 17.4694 32.4154 18.1186 32.4186C19.4541 32.4253 20.7895 32.4315 22.125 32.4376C22.125 32.7469 22.125 33.0563 22.125 33.3751C21.1775 33.3751 20.23 33.3751 19.2539 33.3751C19.1379 33.8391 19.1379 33.8391 19.0195 34.3126C20.0443 34.3126 21.0691 34.3126 22.125 34.3126C22.125 34.6219 22.125 34.9313 22.125 35.2501C22.0129 35.2512 21.9008 35.2524 21.7854 35.2536C21.4147 35.2575 21.044 35.262 20.6733 35.2669C20.4486 35.2698 20.2239 35.2725 19.9992 35.2748C19.7823 35.2769 19.5654 35.2797 19.3484 35.2828C19.2658 35.2838 19.1831 35.2847 19.1004 35.2854C18.9844 35.2864 18.8685 35.2882 18.7525 35.29C18.6865 35.2907 18.6205 35.2915 18.5526 35.2923C18.3719 35.3089 18.2431 35.3434 18.082 35.4258C17.9367 35.6728 17.9434 35.8902 17.9062 36.1876C19.2984 36.1876 20.6906 36.1876 22.125 36.1876C22.125 36.4969 22.125 36.8063 22.125 37.1251C21.4873 37.1303 20.8496 37.1346 20.2119 37.1372C19.9158 37.1384 19.6197 37.1401 19.3236 37.1427C19.0379 37.1453 18.7522 37.1467 18.4665 37.1473C18.3575 37.1477 18.2484 37.1486 18.1394 37.1498C17.9867 37.1515 17.8342 37.1518 17.6815 37.1517C17.6363 37.1525 17.5912 37.1533 17.5446 37.1542C17.3391 37.1526 17.2247 37.1412 17.0579 37.0165C16.9399 36.85 16.9385 36.7413 16.9376 36.5382C16.9371 36.4354 16.9371 36.4354 16.9367 36.3306C16.9376 36.2592 16.9385 36.1878 16.9394 36.1143C16.9381 36.0086 16.9381 36.0086 16.9367 35.9008C16.9388 35.4127 16.997 35.0788 17.3182 34.7065C17.3754 34.6583 17.3754 34.6583 17.4338 34.6092C17.4718 34.576 17.5098 34.5429 17.5489 34.5087C17.6718 34.4297 17.6718 34.4297 17.9648 34.3711C18.0422 34.0424 18.1195 33.7137 18.1992 33.3751C18.1081 33.3756 18.0171 33.3761 17.9232 33.3766C17.0638 33.3814 16.2043 33.3849 15.3448 33.3872C14.9029 33.3884 14.4611 33.39 14.0193 33.3927C13.6339 33.3951 13.2486 33.3966 12.8632 33.3971C12.6594 33.3974 12.4556 33.3981 12.2518 33.3998C12.0236 33.4017 11.7955 33.4018 11.5673 33.4017C11.5005 33.4025 11.4338 33.4033 11.3651 33.4042C10.6839 33.4007 10.14 33.2035 9.6445 32.7305C9.07393 32.1328 8.96464 31.5017 8.97021 30.698C8.96994 30.6124 8.96957 30.5267 8.9691 30.4411C8.96813 30.2073 8.9686 29.9735 8.96933 29.7397C8.96986 29.4869 8.96904 29.2342 8.9684 28.9814C8.96736 28.4869 8.96758 27.9924 8.96826 27.4979C8.96879 27.0958 8.96886 26.6938 8.96861 26.2918C8.96857 26.2345 8.96854 26.1772 8.9685 26.1182C8.96842 26.0018 8.96835 25.8854 8.96827 25.769C8.9676 24.6783 8.96837 23.5877 8.96963 22.497C8.97068 21.5619 8.9705 20.6268 8.96941 19.6917C8.96816 18.6049 8.96767 17.518 8.96839 16.4312C8.96846 16.3152 8.96853 16.1993 8.96861 16.0833C8.96864 16.0263 8.96868 15.9692 8.96872 15.9104C8.96892 15.509 8.96858 15.1077 8.96803 14.7063C8.96737 14.2169 8.96755 13.7275 8.96879 13.2381C8.96941 12.9886 8.96965 12.7391 8.96888 12.4895C8.96818 12.2608 8.96857 12.0321 8.96981 11.8034C8.97007 11.721 8.96994 11.6385 8.96937 11.5561C8.96451 10.7968 9.11119 10.2032 9.6445 9.64458C10.2154 9.09954 10.8162 8.96186 11.5891 8.9854Z" fill="#654ADA"/>
<path d="M15.8555 10.8438C15.9066 10.8436 15.9577 10.8434 16.0104 10.8431C16.1184 10.843 16.2263 10.8434 16.3343 10.8444C16.4994 10.8456 16.6644 10.8444 16.8296 10.8429C16.9346 10.8431 17.0396 10.8434 17.1445 10.8438C17.1939 10.8433 17.2432 10.8429 17.294 10.8424C17.5168 10.8459 17.6349 10.8485 17.8198 10.9806C17.9442 11.1658 17.9457 11.3472 17.9502 11.5634C17.9519 11.6043 17.9537 11.6451 17.9555 11.6872C17.9596 11.7875 17.9624 11.8879 17.9648 11.9882C18.0573 12.0293 18.1501 12.0694 18.2432 12.1091C18.2948 12.1315 18.3465 12.1539 18.3997 12.1771C18.5651 12.2269 18.6287 12.2332 18.7852 12.164C18.8967 12.0715 18.8967 12.0715 18.9976 11.9589C19.153 11.7933 19.2384 11.7094 19.4663 11.666C19.9548 11.7383 20.3798 12.3435 20.7151 12.6804C20.7656 12.7306 20.8161 12.7809 20.8681 12.8327C20.916 12.8807 20.9639 12.9287 21.0133 12.9781C21.0784 13.0433 21.0784 13.0433 21.1447 13.1097C21.2666 13.2408 21.3004 13.3135 21.334 13.4897C21.2832 13.8324 21.0145 14.0362 20.7773 14.2734C20.8009 14.54 20.9153 14.7878 21.0117 15.0351C21.0724 15.0366 21.1332 15.0381 21.1957 15.0397C21.276 15.043 21.3563 15.0463 21.4365 15.0497C21.4765 15.0506 21.5164 15.0514 21.5576 15.0523C21.739 15.0611 21.8673 15.078 22.0193 15.1802C22.1757 15.399 22.1587 15.5925 22.1561 15.8554C22.1564 15.9065 22.1566 15.9577 22.1568 16.0104C22.157 16.1183 22.1565 16.2263 22.1556 16.3342C22.1543 16.4994 22.1555 16.6644 22.157 16.8295C22.1569 16.9345 22.1566 17.0395 22.1561 17.1445C22.1566 17.1938 22.1571 17.2431 22.1576 17.2939C22.154 17.5167 22.1514 17.6348 22.0193 17.8197C21.8342 17.9441 21.6527 17.9456 21.4365 17.9501C21.3752 17.9527 21.3752 17.9527 21.3127 17.9554C21.2124 17.9595 21.1121 17.9623 21.0117 17.9648C20.9706 18.0572 20.9305 18.1501 20.8909 18.2431C20.8684 18.2948 20.846 18.3464 20.8229 18.3997C20.773 18.5651 20.7667 18.6286 20.8359 18.7851C20.9284 18.8966 20.9284 18.8966 21.041 18.9975C21.2067 19.153 21.2906 19.2383 21.334 19.4663C21.2616 19.9547 20.6565 20.3797 20.3196 20.715C20.2693 20.7655 20.2191 20.816 20.1673 20.868C20.1193 20.916 20.0713 20.9639 20.0218 21.0133C19.9784 21.0566 19.935 21.1 19.8902 21.1446C19.7592 21.2666 19.6864 21.3004 19.5103 21.3339C19.1675 21.2831 18.9637 21.0145 18.7266 20.7773C18.46 20.8008 18.2121 20.9153 17.9648 21.0117C17.9633 21.0724 17.9618 21.1331 17.9603 21.1957C17.957 21.2759 17.9536 21.3562 17.9502 21.4365C17.9494 21.4764 17.9485 21.5164 17.9477 21.5575C17.9389 21.739 17.922 21.8672 17.8198 22.0193C17.601 22.1756 17.4074 22.1586 17.1445 22.1561C17.0934 22.1563 17.0423 22.1565 16.9896 22.1567C16.8816 22.1569 16.7737 22.1565 16.6657 22.1555C16.5006 22.1542 16.3356 22.1555 16.1704 22.157C16.0654 22.1568 15.9605 22.1565 15.8555 22.1561C15.8062 22.1565 15.7568 22.157 15.706 22.1575C15.4832 22.1539 15.3651 22.1514 15.1802 22.0193C15.0558 21.8341 15.0543 21.6526 15.0498 21.4365C15.0481 21.3956 15.0463 21.3547 15.0445 21.3126C15.0404 21.2124 15.0377 21.112 15.0352 21.0117C14.9427 20.9706 14.8499 20.9305 14.7568 20.8908C14.7052 20.8684 14.6535 20.8459 14.6003 20.8228C14.4349 20.773 14.3713 20.7667 14.2148 20.8359C14.1033 20.9284 14.1033 20.9284 14.0024 21.041C13.847 21.2066 13.7617 21.2905 13.5337 21.3339C13.0452 21.2616 12.6202 20.6564 12.2849 20.3195C12.2344 20.2693 12.1839 20.219 12.1319 20.1672C12.084 20.1192 12.0361 20.0712 11.9867 20.0217C11.9217 19.9566 11.9217 19.9566 11.8553 19.8902C11.7334 19.7591 11.6996 19.6864 11.666 19.5102C11.7168 19.1674 11.9855 18.9637 12.2227 18.7265C12.1991 18.4599 12.0847 18.2121 11.9883 17.9648C11.9276 17.9633 11.8668 17.9618 11.8043 17.9602C11.724 17.9569 11.6437 17.9535 11.5635 17.9501C11.5235 17.9493 11.4836 17.9485 11.4424 17.9476C11.261 17.9388 11.1328 17.9219 10.9807 17.8197C10.8243 17.6009 10.8413 17.4074 10.8439 17.1445C10.8437 17.0933 10.8434 17.0422 10.8432 16.9895C10.843 16.8816 10.8435 16.7736 10.8444 16.6657C10.8457 16.5005 10.8445 16.3355 10.843 16.1704C10.8431 16.0654 10.8434 15.9604 10.8439 15.8554C10.8434 15.8061 10.8429 15.7568 10.8424 15.706C10.846 15.4831 10.8486 15.3651 10.9807 15.1802C11.1658 15.0558 11.3473 15.0542 11.5635 15.0497C11.6248 15.0471 11.6248 15.0471 11.6873 15.0445C11.7876 15.0404 11.8879 15.0376 11.9883 15.0351C12.0294 14.9427 12.0695 14.8498 12.1091 14.7568C12.1316 14.7051 12.154 14.6535 12.1771 14.6002C12.227 14.4348 12.2333 14.3712 12.1641 14.2148C12.0716 14.1033 12.0716 14.1033 11.959 14.0024C11.7933 13.8469 11.7094 13.7616 11.666 13.5336C11.7384 13.0452 12.3436 12.6202 12.6804 12.2849C12.7307 12.2344 12.781 12.1839 12.8327 12.1318C12.8807 12.0839 12.9287 12.036 12.9782 11.9866C13.0216 11.9433 13.065 11.8999 13.1098 11.8553C13.2408 11.7333 13.3136 11.6995 13.4897 11.666C13.8325 11.7167 14.0363 11.9854 14.2734 12.2226C14.54 12.1991 14.7879 12.0846 15.0352 11.9882C15.0367 11.9275 15.0382 11.8668 15.0397 11.8042C15.043 11.7239 15.0464 11.6437 15.0498 11.5634C15.0506 11.5235 15.0515 11.4835 15.0523 11.4423C15.0611 11.2609 15.0781 11.1327 15.1802 10.9806C15.3991 10.8243 15.5926 10.8413 15.8555 10.8438ZM16.0313 11.8124C16.0119 12.1218 15.9926 12.4312 15.9727 12.7499C15.8893 12.7729 15.8059 12.7959 15.72 12.8195C15.337 12.934 14.9795 13.0996 14.6227 13.2787C14.4621 13.3558 14.3349 13.3944 14.1563 13.4018C13.9002 13.3058 13.7488 13.128 13.5703 12.9257C13.3819 13.0082 13.2585 13.1076 13.1162 13.2553C13.0623 13.3108 13.0623 13.3108 13.0073 13.3675C12.9804 13.3957 12.9535 13.424 12.9258 13.4531C13.0011 13.6192 13.0552 13.6987 13.1931 13.8266C13.3652 14.0119 13.3861 14.0811 13.3945 14.332C13.3385 14.5126 13.2579 14.6788 13.1748 14.8483C13.1321 14.9377 13.0897 15.0272 13.0475 15.1168C13.0268 15.1608 13.0061 15.2048 12.9847 15.2502C12.9057 15.4333 12.8471 15.6206 12.7911 15.8119C12.75 15.914 12.75 15.914 12.6328 15.9726C12.3598 15.9991 12.0863 16.0138 11.8125 16.0312C11.8125 16.3406 11.8125 16.6499 11.8125 16.9687C11.9442 16.9747 12.076 16.9808 12.2117 16.987C12.5985 17.0047 12.5985 17.0047 12.7404 17.098C12.8283 17.2334 12.8693 17.3631 12.9148 17.518C13.0216 17.8617 13.1664 18.1724 13.3316 18.4917C13.4064 18.7012 13.4018 18.8081 13.3359 19.0195C13.2405 19.1435 13.2405 19.1435 13.1272 19.2465C13.0709 19.2989 13.0709 19.2989 13.0134 19.3523C12.9701 19.3906 12.9701 19.3906 12.9258 19.4296C13.0083 19.618 13.1076 19.7415 13.2554 19.8837C13.3109 19.9377 13.3109 19.9377 13.3675 19.9927C13.3958 20.0196 13.424 20.0465 13.4531 20.0742C13.6192 19.9988 13.6988 19.9448 13.8267 19.8068C14.012 19.6347 14.0811 19.6138 14.332 19.6054C14.5126 19.6614 14.6789 19.742 14.8484 19.8251C14.9378 19.8678 15.0273 19.9102 15.1169 19.9524C15.1609 19.9731 15.2049 19.9939 15.2502 20.0152C15.4333 20.0943 15.6206 20.1528 15.8119 20.2088C15.9141 20.2499 15.9141 20.2499 15.9727 20.3671C15.9992 20.6402 16.0138 20.9136 16.0313 21.1874C16.3406 21.1874 16.65 21.1874 16.9688 21.1874C16.9748 21.0557 16.9808 20.924 16.9871 20.7883C17.0048 20.4014 17.0048 20.4014 17.0981 20.2596C17.2335 20.1717 17.3631 20.1306 17.5181 20.0851C17.8618 19.9784 18.1725 19.8336 18.4917 19.6684C18.7012 19.5935 18.8082 19.5982 19.0195 19.664C19.1436 19.7594 19.1436 19.7594 19.2466 19.8727C19.2815 19.9103 19.3164 19.9478 19.3523 19.9865C19.3779 20.0154 19.4034 20.0444 19.4297 20.0742C19.6181 19.9916 19.7415 19.8923 19.8838 19.7446C19.9197 19.7076 19.9557 19.6706 19.9927 19.6324C20.0196 19.6042 20.0465 19.5759 20.0742 19.5468C19.9989 19.3807 19.9449 19.3012 19.8069 19.1733C19.6348 18.9879 19.6139 18.9188 19.6055 18.6679C19.6615 18.4873 19.7421 18.3211 19.8252 18.1516C19.8679 18.0622 19.9103 17.9727 19.9525 17.8831C19.9732 17.8391 19.9939 17.7951 20.0153 17.7497C20.0943 17.5666 20.1529 17.3793 20.2089 17.188C20.25 17.0859 20.25 17.0859 20.3672 17.0273C20.6402 17.0008 20.9137 16.9861 21.1875 16.9687C21.1875 16.6593 21.1875 16.3499 21.1875 16.0312C21.0558 16.0251 20.9241 16.0191 20.7883 16.0129C20.4015 15.9951 20.4015 15.9951 20.2596 15.9019C20.1717 15.7665 20.1307 15.6368 20.0852 15.4819C19.9784 15.1382 19.8336 14.8275 19.6684 14.5082C19.5936 14.2987 19.5982 14.1918 19.6641 13.9804C19.7595 13.8564 19.7595 13.8564 19.8728 13.7534C19.9103 13.7185 19.9479 13.6836 19.9866 13.6476C20.0155 13.6221 20.0444 13.5966 20.0742 13.5703C19.9917 13.3819 19.8924 13.2584 19.7446 13.1162C19.7076 13.0802 19.6706 13.0442 19.6325 13.0072C19.5901 12.9669 19.5901 12.9669 19.5469 12.9257C19.3808 13.0011 19.3012 13.0551 19.1733 13.1931C18.988 13.3652 18.9189 13.3861 18.668 13.3945C18.4874 13.3385 18.3211 13.2579 18.1516 13.1747C18.0622 13.1321 17.9727 13.0897 17.8831 13.0475C17.8391 13.0268 17.7951 13.006 17.7498 12.9847C17.5667 12.9056 17.3794 12.8471 17.1881 12.7911C17.0859 12.7499 17.0859 12.7499 17.0273 12.6328C17.0008 12.3597 16.9862 12.0863 16.9688 11.8124C16.6594 11.8124 16.35 11.8124 16.0313 11.8124Z" fill="#654ADA"/>
<path d="M31.7929 22.3595C31.884 22.3903 31.884 22.3903 31.977 22.4217C33.345 22.9374 34.3133 23.9772 34.9077 25.2899C35.3862 26.4199 35.4552 27.8834 35.0156 29.0391C34.4236 30.4788 33.4051 31.5418 31.9687 32.1446C30.6248 32.6356 29.1546 32.5689 27.8514 31.9885C26.5803 31.3666 25.6352 30.3211 25.1719 28.9805C25.1488 28.9149 25.1258 28.8493 25.102 28.7816C24.7192 27.5077 24.8443 26.0864 25.4571 24.9105C26.1632 23.6153 27.2319 22.7204 28.6362 22.2752C29.6384 21.985 30.8094 22.015 31.7929 22.3595ZM27.1705 24.2553C26.4118 25.0004 25.9281 25.9805 25.9113 27.054C25.9134 28.2343 26.1876 29.1958 26.9883 30.0938C27.0424 30.1552 27.0424 30.1552 27.0977 30.2179C27.7887 30.9548 28.7518 31.4137 29.7625 31.4632C30.4747 31.4784 31.0757 31.4242 31.7344 31.1485C31.7894 31.126 31.8445 31.1035 31.9012 31.0803C32.2815 30.9075 32.5942 30.6619 32.9062 30.3868C32.9516 30.347 32.997 30.3072 33.0438 30.2662C33.7187 29.6352 34.194 28.7202 34.2643 27.7882C34.2967 26.5027 34.0788 25.4576 33.1992 24.4688C33.1645 24.4286 33.1297 24.3883 33.0939 24.3468C32.347 23.5377 31.2994 23.1261 30.2121 23.0651C29.0698 23.0408 27.9985 23.4798 27.1705 24.2553Z" fill="#654ADA"/>
<path d="M32.2031 24C32.3102 24.0723 32.3102 24.0723 32.4171 24.1709C32.4576 24.2082 32.4982 24.2454 32.5399 24.2837C32.781 24.5146 33.0187 24.7485 33.2541 24.9851C33.3299 25.0605 33.3299 25.0605 33.4071 25.1374C33.4551 25.1854 33.503 25.2334 33.5524 25.2828C33.5957 25.3263 33.6391 25.3697 33.6837 25.4144C33.8473 25.5903 33.8743 25.7395 33.8716 25.9804C33.8366 26.1423 33.7742 26.2129 33.6621 26.3339C33.6248 26.3746 33.5874 26.4153 33.5489 26.4572C33.3773 26.6371 33.2045 26.8153 33.0285 26.9907C32.9903 27.029 32.9522 27.0673 32.9128 27.1067C32.7883 27.2315 32.6636 27.356 32.5389 27.4806C32.4517 27.5678 32.3646 27.655 32.2774 27.7422C32.0956 27.9241 31.9138 28.1058 31.7318 28.2875C31.4982 28.5207 31.2649 28.7542 31.0317 28.9878C30.8522 29.1675 30.6726 29.347 30.4929 29.5265C30.4068 29.6126 30.3207 29.6988 30.2347 29.785C30.1149 29.9049 29.995 30.0246 29.875 30.1443C29.8393 30.18 29.8037 30.2158 29.7669 30.2526C29.466 30.5521 29.466 30.5521 29.1782 30.5918C28.9586 30.5887 28.8622 30.5337 28.7022 30.3858C28.6616 30.3485 28.6209 30.3111 28.579 30.2726C28.3705 30.0733 28.1644 29.872 27.9608 29.6678C27.9161 29.6231 27.8713 29.5784 27.8253 29.5324C27.7317 29.4389 27.6382 29.3453 27.5448 29.2516C27.4013 29.1078 27.2574 28.9643 27.1136 28.8208C27.0224 28.7296 26.9313 28.6384 26.8402 28.5472C26.7971 28.5042 26.754 28.4612 26.7096 28.417C26.6701 28.3772 26.6305 28.3375 26.5898 28.2966C26.5549 28.2616 26.52 28.2267 26.4841 28.1907C26.3324 28.0253 26.3129 27.8664 26.3166 27.6439C26.35 27.486 26.4057 27.4198 26.5147 27.3016C26.5519 27.2611 26.5892 27.2205 26.6275 27.1788C26.8584 26.9377 27.0923 26.7 27.3288 26.4646C27.4042 26.3888 27.4042 26.3888 27.4812 26.3116C27.5292 26.2636 27.5772 26.2157 27.6266 26.1663C27.67 26.123 27.7134 26.0796 27.7582 26.035C27.9336 25.8717 28.0822 25.845 28.3224 25.8463C28.5788 25.9025 28.7448 26.1018 28.9219 26.2851C28.9553 26.3186 28.9888 26.352 29.0232 26.3865C29.0478 26.4111 29.0723 26.4356 29.0976 26.4609C29.2915 26.3764 29.4183 26.2715 29.5665 26.1216C29.6119 26.076 29.6572 26.0305 29.704 25.9835C29.7766 25.9097 29.7766 25.9097 29.8507 25.8344C29.9008 25.784 29.9509 25.7336 30.0025 25.6817C30.1626 25.5205 30.3223 25.359 30.4819 25.1975C30.642 25.0357 30.8022 24.8741 30.9626 24.7126C31.0624 24.6121 31.162 24.5114 31.2615 24.4106C31.3065 24.3652 31.3515 24.3199 31.3978 24.2731C31.4374 24.233 31.4771 24.1929 31.5179 24.1516C31.7175 23.9645 31.9416 23.9446 32.2031 24ZM31.8056 25.3212C31.7636 25.3637 31.7215 25.4062 31.6782 25.45C31.6305 25.4979 31.5827 25.5458 31.5336 25.5952C31.482 25.6476 31.4304 25.6999 31.3773 25.7539C31.2965 25.8351 31.2157 25.9164 31.135 25.9976C31.0216 26.1118 30.9084 26.2262 30.7953 26.3406C30.5974 26.5408 30.3992 26.7406 30.2009 26.9402C30.0952 27.0466 29.9897 27.1531 29.8843 27.2599C29.8366 27.308 29.7889 27.356 29.7398 27.4056C29.6977 27.4481 29.6556 27.4907 29.6123 27.5345C29.4399 27.6966 29.2892 27.7213 29.0525 27.72C28.7961 27.6638 28.6301 27.4645 28.4531 27.2812C28.4196 27.2477 28.3862 27.2143 28.3517 27.1798C28.3272 27.1553 28.3026 27.1307 28.2773 27.1054C28.0751 27.192 27.9463 27.3069 27.7939 27.4643C27.7525 27.5068 27.7111 27.5492 27.6685 27.5929C27.6218 27.6417 27.6218 27.6417 27.5742 27.6914C27.6682 27.926 27.8332 28.0826 28.0104 28.2562C28.0415 28.2871 28.0725 28.318 28.1045 28.3498C28.2034 28.448 28.3026 28.5458 28.4018 28.6435C28.4691 28.7102 28.5363 28.7768 28.6035 28.8436C28.7679 29.0067 28.9327 29.1694 29.0976 29.332C29.3306 29.2382 29.4867 29.0759 29.6598 28.9003C29.7079 28.8523 29.7079 28.8523 29.7569 28.8033C29.8624 28.6976 29.9676 28.5916 30.0727 28.4856C30.1459 28.4122 30.2191 28.3388 30.2924 28.2654C30.4849 28.0724 30.6771 27.8791 30.8692 27.6857C31.0653 27.4883 31.2618 27.2913 31.4583 27.0942C31.8436 26.7077 32.2286 26.3207 32.6133 25.9336C32.5201 25.7367 32.4169 25.6042 32.2617 25.4502C32.2206 25.4088 32.1795 25.3674 32.1372 25.3247C31.9907 25.199 31.9518 25.1942 31.8056 25.3212Z" fill="#654ADA"/>
<path d="M17.8135 14.479C18.3293 14.8505 18.717 15.3419 18.8437 15.9727C18.9221 16.7002 18.8599 17.3431 18.4226 17.9502C18.0234 18.4239 17.5368 18.7888 16.906 18.8568C16.1495 18.9093 15.5185 18.8175 14.9218 18.3148C14.4227 17.8383 14.1561 17.3316 14.1286 16.6386C14.1196 15.9053 14.2846 15.3414 14.8008 14.8008C15.6082 14.03 16.8577 13.8829 17.8135 14.479ZM15.3542 15.7326C15.1125 16.0834 15.1104 16.4384 15.1523 16.8516C15.2562 17.2409 15.5301 17.5063 15.8554 17.7305C16.2069 17.9028 16.6103 17.912 16.987 17.8115C17.3461 17.653 17.6273 17.355 17.7991 17.0045C17.9129 16.646 17.9097 16.2312 17.7488 15.8884C17.555 15.5613 17.2774 15.2735 16.9101 15.1523C16.2165 15.0646 15.802 15.2087 15.3542 15.7326Z" fill="#654ADA"/>
<path d="M28.6875 10.875C30.6984 10.875 32.7094 10.875 34.7812 10.875C34.7812 11.1844 34.7812 11.4937 34.7812 11.8125C32.7703 11.8125 30.7594 11.8125 28.6875 11.8125C28.6875 11.5031 28.6875 11.1937 28.6875 10.875Z" fill="#654ADA"/>
<path d="M28.2188 36.6562C29.4563 36.6562 30.6937 36.6562 31.9688 36.6562C31.9688 36.9656 31.9688 37.275 31.9688 37.5938C30.7313 37.5938 29.4937 37.5938 28.2188 37.5938C28.2188 37.2844 28.2188 36.975 28.2188 36.6562Z" fill="#654ADA"/>
<path d="M28.2188 17.4375C29.4563 17.4375 30.6937 17.4375 31.9688 17.4375C31.9688 17.7469 31.9688 18.0562 31.9688 18.375C30.7313 18.375 29.4937 18.375 28.2188 18.375C28.2188 18.0656 28.2188 17.7562 28.2188 17.4375Z" fill="#654ADA"/>
<path d="M12.75 30.5625C13.6781 30.5625 14.6063 30.5625 15.5625 30.5625C15.5625 30.8719 15.5625 31.1812 15.5625 31.5C14.6344 31.5 13.7062 31.5 12.75 31.5C12.75 31.1906 12.75 30.8812 12.75 30.5625Z" fill="#654ADA"/>
<path d="M12 9C13.32 9 14.64 9 16 9C16 9.33 16 9.66 16 10C14.68 10 13.36 10 12 10C12 9.67 12 9.34 12 9Z" fill="#654ADA"/>
<path d="M35.7188 10.875C36.0281 10.875 36.3375 10.875 36.6562 10.875C36.6562 11.1844 36.6562 11.4937 36.6562 11.8125C36.3469 11.8125 36.0375 11.8125 35.7188 11.8125C35.7188 11.5031 35.7188 11.1937 35.7188 10.875Z" fill="#654ADA"/>
</g>
<defs>
<clipPath id="clip0_1_187">
<rect width="30" height="30" fill="white" transform="translate(9 9)"/>
</clipPath>
</defs>
</svg>
