<svg width="48" height="48" viewBox="0 0 48 48" fill="none" xmlns="http://www.w3.org/2000/svg">
<rect x="0.5" y="0.5" width="47" height="47" rx="7.5" fill="#FEFEFE"/>
<rect x="0.5" y="0.5" width="47" height="47" rx="7.5" stroke="#F0ECFF"/>
<g clip-path="url(#clip0_1_166)">
<path d="M24.3515 8.9999C24.6313 9.11707 24.8815 9.27148 25.1379 9.43269C25.3095 9.54005 25.4827 9.64462 25.6562 9.74903C25.936 9.91761 26.2153 10.0871 26.4941 10.2574C26.882 10.4943 27.2701 10.7306 27.6586 10.9665C27.7605 11.0284 27.8624 11.0904 27.9643 11.1523C28.3049 11.3594 28.6462 11.5652 28.9887 11.7691C29.0225 11.7893 29.0562 11.8094 29.091 11.8302C29.2512 11.9257 29.4115 12.021 29.572 12.1159C29.6287 12.1497 29.6854 12.1834 29.7438 12.2182C29.8179 12.2621 29.8179 12.2621 29.8934 12.3069C30.1922 12.4997 30.3741 12.6462 30.5039 12.9843C30.5297 13.2106 30.5285 13.4355 30.5276 13.6631C30.5282 13.7651 30.5282 13.7651 30.5288 13.8691C30.5299 14.0935 30.5296 14.3179 30.5293 14.5423C30.5295 14.659 30.5297 14.7756 30.53 14.8923C30.5308 15.259 30.5307 15.6257 30.53 15.9923C30.5294 16.3699 30.5302 16.7475 30.5317 17.125C30.5331 17.4499 30.5334 17.7747 30.5331 18.0996C30.5329 18.2933 30.5331 18.487 30.534 18.6807C30.5349 18.8969 30.5343 19.113 30.5333 19.3291C30.5339 19.3928 30.5344 19.4565 30.535 19.5222C30.5314 19.8948 30.4927 20.1233 30.2695 20.4257C30.0992 20.562 30.0992 20.562 29.9017 20.6811C29.8659 20.703 29.8301 20.725 29.7932 20.7476C29.6791 20.8171 29.5642 20.8851 29.4492 20.953C29.3749 20.9976 29.3007 21.0423 29.2265 21.087C29.0369 21.2008 28.8466 21.3132 28.656 21.4252C27.8786 21.8823 27.1075 22.3483 26.3437 22.828C26.4955 22.987 26.6454 23.1165 26.8293 23.2366C26.8784 23.2689 26.9276 23.3012 26.9782 23.3345C27.031 23.3688 27.0838 23.4031 27.1382 23.4385C27.1933 23.4746 27.2484 23.5107 27.3051 23.5479C27.4813 23.6635 27.6577 23.7786 27.8342 23.8937C28.0649 24.0445 28.2956 24.1956 28.5261 24.3467C28.5813 24.3828 28.6365 24.4189 28.6934 24.4562C29.1063 24.7272 29.5145 25.004 29.918 25.289C30.397 25.0336 30.8636 24.7607 31.3279 24.4796C31.4579 24.4011 31.588 24.3226 31.7181 24.2441C31.7748 24.2098 31.8314 24.1756 31.8898 24.1402C32.2076 23.9513 32.4823 23.9417 32.8476 23.9999C33.1274 24.1171 33.3776 24.2715 33.634 24.4327C33.8056 24.54 33.9788 24.6446 34.1523 24.749C34.4321 24.9176 34.7114 25.0871 34.9902 25.2574C35.378 25.4943 35.7662 25.7306 36.1547 25.9665C36.2566 26.0284 36.3585 26.0904 36.4604 26.1523C36.801 26.3594 37.1423 26.5652 37.4848 26.7691C37.5186 26.7893 37.5523 26.8094 37.5871 26.8302C37.7473 26.9257 37.9076 27.021 38.0681 27.1159C38.1248 27.1497 38.1815 27.1834 38.2399 27.2182C38.2893 27.2475 38.3387 27.2767 38.3895 27.3069C38.6883 27.4997 38.8702 27.6462 39 27.9843C39.0258 28.2106 39.0246 28.4355 39.0237 28.6631C39.0243 28.7651 39.0243 28.7651 39.0249 28.8691C39.026 29.0935 39.0257 29.3179 39.0254 29.5423C39.0256 29.659 39.0258 29.7756 39.0261 29.8923C39.0269 30.259 39.0268 30.6257 39.0261 30.9923C39.0254 31.3699 39.0263 31.7475 39.0278 32.125C39.0291 32.4499 39.0295 32.7747 39.0292 33.0996C39.029 33.2933 39.0292 33.487 39.0301 33.6807C39.031 33.8969 39.0304 34.113 39.0294 34.3291C39.0299 34.3928 39.0305 34.4565 39.0311 34.5222C39.0275 34.8948 38.989 35.1234 38.7656 35.4257C38.5924 35.5636 38.5924 35.5636 38.3925 35.6839C38.3385 35.7169 38.3385 35.7169 38.2834 35.7506C38.1712 35.819 38.0583 35.886 37.9453 35.953C37.8769 35.9945 37.8085 36.0361 37.7402 36.0778C37.5694 36.1816 37.3979 36.2843 37.2261 36.3865C37.0348 36.5004 36.8438 36.6147 36.6528 36.7289C36.6139 36.7522 36.575 36.7755 36.5348 36.7994C36.1746 37.015 35.8158 37.2331 35.4572 37.4515C34.8605 37.8151 34.2618 38.175 33.6606 38.5311C33.6087 38.5619 33.6087 38.5619 33.5558 38.5933C32.7134 39.0923 32.7134 39.0923 32.1445 38.9999C31.8115 38.857 31.5124 38.6663 31.207 38.4726C31.1179 38.4173 31.0287 38.3621 30.9395 38.3071C30.792 38.216 30.6446 38.1247 30.4977 38.0329C30.0219 37.7362 29.54 37.4504 29.0574 37.1652C28.4501 36.8062 27.8452 36.4439 27.2446 36.0739C27.1822 36.0354 27.1197 35.997 27.0554 35.9574C26.943 35.8879 26.8307 35.8181 26.7188 35.7477C26.6056 35.6772 26.4907 35.6095 26.3753 35.5426C26.1532 35.368 26.0151 35.1635 25.9718 34.8838C25.9652 34.7344 25.9658 34.5867 25.9693 34.4371C25.9695 34.3892 25.9698 34.3412 25.97 34.2918C25.9712 34.1143 25.9745 33.9369 25.9775 33.7594C25.9824 33.3618 25.9872 32.9642 25.9922 32.5546C24.6773 32.5546 23.3625 32.5546 22.0078 32.5546C22.0194 33.3434 22.0194 33.3434 22.0342 34.1322C22.035 34.2319 22.0358 34.3317 22.0364 34.4314C22.0387 34.5075 22.0387 34.5075 22.041 34.5852C22.0412 34.955 21.9575 35.2017 21.7148 35.4843C21.5607 35.6113 21.5607 35.6113 21.3933 35.7088C21.3298 35.7465 21.2664 35.7842 21.201 35.8231C21.1318 35.8627 21.0626 35.9024 20.9934 35.942C20.9208 35.9847 20.8483 36.0275 20.7758 36.0704C20.6222 36.1611 20.4682 36.2512 20.3139 36.3408C19.9515 36.5514 19.5914 36.7662 19.2311 36.9804C19.1111 37.0516 18.9911 37.1227 18.871 37.1938C18.423 37.459 17.978 37.7282 17.5364 38.0038C17.4402 38.0633 17.3441 38.1227 17.248 38.1821C17.105 38.2705 16.9625 38.3594 16.8208 38.4498C15.7885 39.1075 15.7885 39.1075 15.3256 39.0537C14.9742 38.9446 14.6753 38.7616 14.366 38.5671C14.1944 38.4597 14.0212 38.3552 13.8477 38.2508C13.5679 38.0822 13.2886 37.9127 13.0098 37.7424C12.6219 37.5055 12.2338 37.2692 11.8453 37.0333C11.7434 36.9714 11.6415 36.9094 11.5396 36.8475C11.1989 36.6404 10.8577 36.4346 10.5152 36.2307C10.4814 36.2105 10.4476 36.1904 10.4128 36.1696C10.2527 36.0741 10.0924 35.9788 9.93184 35.8839C9.87516 35.8501 9.81849 35.8164 9.7601 35.7816C9.68601 35.7377 9.68601 35.7377 9.61043 35.6929C9.31167 35.5001 9.12973 35.3536 8.99999 35.0155C8.97414 34.7892 8.97537 34.5643 8.97631 34.3367C8.97591 34.2687 8.97551 34.2007 8.97509 34.1307C8.97402 33.9063 8.97425 33.6819 8.97458 33.4575C8.97438 33.3408 8.97418 33.2242 8.97391 33.1075C8.97309 32.7408 8.97318 32.3741 8.97385 32.0075C8.97452 31.6299 8.9737 31.2523 8.97213 30.8748C8.97083 30.5499 8.97044 30.2251 8.97079 29.9002C8.97098 29.7065 8.97074 29.5128 8.96983 29.3191C8.96896 29.1029 8.96958 28.8868 8.97059 28.6707C8.96974 28.5751 8.96974 28.5751 8.96887 28.4776C8.9725 28.105 9.01102 27.8764 9.23436 27.5741C9.4076 27.4362 9.4076 27.4362 9.60744 27.3159C9.66146 27.2829 9.66146 27.2829 9.71657 27.2492C9.82875 27.1808 9.94166 27.1138 10.0547 27.0468C10.1231 27.0053 10.1915 26.9637 10.2598 26.922C10.4306 26.8182 10.6021 26.7155 10.7739 26.6133C10.9652 26.4994 11.1562 26.3851 11.3472 26.2709C11.3861 26.2476 11.425 26.2243 11.4651 26.2003C11.8254 25.9848 12.1842 25.7667 12.5427 25.5483C13.1395 25.1847 13.7382 24.8248 14.3393 24.4686C14.3912 24.4379 14.3912 24.4379 14.4442 24.4065C15.2866 23.9075 15.2866 23.9075 15.8555 23.9999C16.1385 24.1214 16.394 24.275 16.654 24.4394C16.8106 24.5384 16.9684 24.6352 17.1264 24.7319C17.4265 24.9159 17.7252 25.102 18.0234 25.289C18.4449 25.0222 18.8639 24.7519 19.2804 24.4773C19.3358 24.4409 19.3911 24.4045 19.4481 24.3669C19.564 24.2906 19.6798 24.2143 19.7955 24.138C19.972 24.0217 20.1485 23.9055 20.3251 23.7893C20.4383 23.7147 20.5515 23.6401 20.6647 23.5655C20.717 23.5311 20.7692 23.4967 20.8231 23.4613C21.1051 23.2752 21.3827 23.085 21.6562 22.8866C21.4582 22.7227 21.2576 22.5813 21.0376 22.4485C20.9734 22.4097 20.9093 22.3709 20.8433 22.3309C20.7737 22.2891 20.7041 22.2473 20.6345 22.2055C20.5624 22.1619 20.4902 22.1183 20.4181 22.0746C20.0241 21.8365 19.6291 21.6001 19.2338 21.3643C19.1537 21.3165 19.0736 21.2687 18.9935 21.2208C18.84 21.1292 18.6863 21.0378 18.5325 20.9466C18.4617 20.9044 18.391 20.8622 18.3203 20.82C18.2586 20.7834 18.1969 20.7468 18.1334 20.7091C17.823 20.5109 17.6308 20.3658 17.4961 20.0155C17.4702 19.7892 17.4715 19.5643 17.4724 19.3367C17.472 19.2687 17.4716 19.2007 17.4712 19.1307C17.4701 18.9063 17.4703 18.6819 17.4707 18.4575C17.4705 18.3408 17.4703 18.2242 17.47 18.1075C17.4692 17.7408 17.4693 17.3741 17.4699 17.0075C17.4706 16.6299 17.4698 16.2523 17.4682 15.8748C17.4669 15.5499 17.4665 15.2251 17.4669 14.9002C17.4671 14.7065 17.4668 14.5128 17.4659 14.3191C17.4651 14.1029 17.4657 13.8868 17.4667 13.6707C17.4658 13.5751 17.4658 13.5751 17.465 13.4776C17.4686 13.105 17.5072 12.8765 17.7305 12.5741C17.9014 12.4374 17.9014 12.4374 18.0994 12.318C18.1353 12.296 18.1712 12.2741 18.2081 12.2514C18.3218 12.1822 18.4362 12.1144 18.5508 12.0468C18.6235 12.0031 18.6961 11.9594 18.7688 11.9156C18.9542 11.8043 19.1404 11.6944 19.3268 11.5849C19.9572 11.2143 20.5842 10.8389 21.2058 10.4538C21.7433 10.1209 22.2841 9.79428 22.8281 9.47231C22.8803 9.44139 22.8803 9.44139 22.9336 9.40985C23.7802 8.90886 23.7802 8.90886 24.3515 8.9999ZM23.7056 10.1862C23.6564 10.2154 23.6071 10.2446 23.5563 10.2747C23.5021 10.3072 23.4479 10.3397 23.3921 10.3732C23.3351 10.4071 23.2781 10.4411 23.2194 10.476C22.5886 10.8525 21.961 11.2343 21.3336 11.6164C21.0756 11.7736 20.8173 11.9304 20.559 12.0871C20.4844 12.1323 20.4098 12.1775 20.3353 12.2227C20.2281 12.2877 20.1209 12.3527 20.0138 12.4177C19.6417 12.6432 19.2705 12.8698 18.9023 13.1015C19.1161 13.2805 19.336 13.4261 19.5764 13.5672C19.6315 13.5997 19.6315 13.5997 19.6877 13.6329C19.7667 13.6795 19.8458 13.726 19.9249 13.7724C20.1366 13.8965 20.3478 14.0214 20.559 14.1463C20.6234 14.1844 20.6234 14.1844 20.6892 14.2232C21.0706 14.4488 21.4503 14.6772 21.8289 14.9073C21.9304 14.9688 22.0321 15.03 22.1338 15.0911C22.4503 15.2822 22.7614 15.4772 23.0659 15.6869C23.1213 15.7241 23.1766 15.7613 23.2336 15.7996C23.3358 15.8686 23.4367 15.9395 23.536 16.0126C23.6732 16.1043 23.781 16.1676 23.9414 16.2069C24.1658 16.156 24.3368 16.0396 24.5273 15.914C24.644 15.8447 24.7607 15.7756 24.8775 15.7066C24.9736 15.6478 25.0696 15.5889 25.1655 15.5298C25.3443 15.4196 25.5236 15.3102 25.7029 15.2008C25.7404 15.1778 25.778 15.1549 25.8167 15.1312C26.2562 14.8633 26.6991 14.6013 27.1421 14.3393C27.7972 13.9515 28.45 13.5603 29.0976 13.1601C28.9399 12.9791 28.7429 12.8695 28.5378 12.7504C28.4998 12.728 28.4618 12.7056 28.4226 12.6825C28.3411 12.6345 28.2595 12.5867 28.1778 12.5389C27.9625 12.4129 27.7478 12.286 27.533 12.1592C27.4905 12.1341 27.4479 12.1089 27.4041 12.0831C27.0749 11.8884 26.7486 11.6893 26.4243 11.4865C25.9483 11.1895 25.4695 10.8971 24.989 10.6074C24.9087 10.5589 24.8284 10.5103 24.7481 10.4617C24.636 10.3937 24.5237 10.3261 24.4113 10.2585C24.3461 10.2192 24.2809 10.1798 24.2137 10.1393C23.9841 10.0139 23.9196 10.0588 23.7056 10.1862ZM18.4922 14.1561C18.4876 14.8682 18.4859 15.5802 18.4878 16.2923C18.4886 16.623 18.4884 16.9536 18.486 17.2842C18.4837 17.6034 18.4839 17.9225 18.486 18.2416C18.4863 18.3633 18.4857 18.4851 18.4842 18.6068C18.4459 19.2449 18.4459 19.2449 18.6659 19.8145C18.8023 19.907 18.9227 19.9628 19.0781 20.0155C19.1395 20.0534 19.2009 20.0912 19.2642 20.1302C19.3248 20.1661 19.3855 20.2019 19.448 20.2389C19.8395 20.4718 20.2291 20.7078 20.6183 20.9446C20.9058 21.1195 21.1936 21.294 21.4814 21.4685C21.5605 21.5164 21.6396 21.5644 21.7187 21.6124C21.9635 21.761 22.2085 21.9093 22.4537 22.0572C22.5322 22.1047 22.6107 22.1522 22.6891 22.1998C22.7983 22.2661 22.9077 22.3321 23.0172 22.398C23.0798 22.4358 23.1423 22.4736 23.2068 22.5126C23.3444 22.603 23.3444 22.603 23.4726 22.5936C23.4849 21.8893 23.4942 21.1849 23.5 20.4804C23.5027 20.1533 23.5064 19.8262 23.5124 19.4991C23.5182 19.1834 23.5213 18.8677 23.5227 18.552C23.5236 18.4316 23.5256 18.3112 23.5284 18.1908C23.5732 17.5605 23.5732 17.5605 23.3605 16.996C23.2234 16.9029 23.101 16.8479 22.9453 16.7929C22.8609 16.7435 22.7773 16.6927 22.6951 16.6397C22.6065 16.5869 22.5177 16.5342 22.4289 16.4816C21.9765 16.2119 21.5256 15.9398 21.0757 15.6661C20.4873 15.3082 19.8986 14.9511 19.3088 14.5956C19.2468 14.558 19.1848 14.5205 19.1209 14.4818C19.0638 14.4474 19.0067 14.4131 18.9479 14.3777C18.8979 14.3475 18.8479 14.3174 18.7963 14.2863C18.6642 14.2075 18.6642 14.2075 18.4922 14.1561ZM29.0354 14.3795C28.5409 14.6925 28.0376 14.99 27.5339 15.2877C26.8422 15.6967 26.1553 16.1121 25.474 16.5383C25.2221 16.6954 24.9684 16.8497 24.715 17.0044C24.5922 17.0752 24.5922 17.0752 24.5273 17.1444C24.5217 17.3156 24.52 17.4855 24.5207 17.6567C24.5207 17.7104 24.5207 17.7641 24.5207 17.8195C24.5207 17.998 24.5211 18.1765 24.5216 18.355C24.5217 18.4784 24.5218 18.6018 24.5219 18.7252C24.5221 19.0507 24.5227 19.3762 24.5233 19.7017C24.5239 20.0335 24.5242 20.3654 24.5245 20.6972C24.5251 21.3489 24.5261 22.0006 24.5273 22.6522C24.6561 22.5789 24.7849 22.5056 24.9137 22.4322C24.9675 22.4015 24.9675 22.4015 25.0225 22.3702C25.3915 22.1598 25.7542 21.9398 26.1167 21.7184C26.1871 21.6755 26.2576 21.6326 26.3281 21.5897C26.4743 21.5006 26.6205 21.4116 26.7666 21.3225C27.095 21.1223 27.4236 20.9227 27.7523 20.7231C27.8521 20.6625 27.9518 20.6019 28.0516 20.5413C28.1144 20.5031 28.1772 20.465 28.2419 20.4257C28.3002 20.3887 28.3585 20.3518 28.4186 20.3138C28.5609 20.2268 28.7016 20.1591 28.8564 20.0972C29.1054 19.9895 29.3319 19.8757 29.5078 19.664C29.6611 19.2712 29.6015 18.8198 29.5808 18.4076C29.5779 18.2849 29.5753 18.1622 29.5731 18.0394C29.5663 17.7176 29.5542 17.3962 29.541 17.0745C29.5284 16.7459 29.5209 16.4171 29.5129 16.0883C29.4966 15.444 29.4747 14.8001 29.4492 14.1561C29.3106 14.1561 29.1521 14.3049 29.0354 14.3795ZM22.4831 23.6174C22.4125 23.665 22.4125 23.665 22.3406 23.7136C22.2894 23.7486 22.2382 23.7835 22.1854 23.8195C22.1322 23.8556 22.0789 23.8916 22.024 23.9288C21.8524 24.045 21.6811 24.1616 21.5098 24.2782C21.3423 24.3919 21.1748 24.5054 21.0073 24.6189C20.8969 24.6938 20.7865 24.7687 20.6762 24.8437C20.4105 25.0242 20.1441 25.2036 19.8758 25.3804C19.8267 25.4128 19.7776 25.4452 19.727 25.4786C19.6347 25.5393 19.5423 25.5998 19.4498 25.6601C19.2297 25.7929 19.2297 25.7929 19.0781 25.9921C19.1247 26.0192 19.1712 26.0463 19.2192 26.0742C19.6314 26.3144 20.043 26.5553 20.4539 26.7976C20.6177 26.8943 20.7816 26.9907 20.946 27.0863C21.0771 27.1625 21.2075 27.2399 21.3376 27.3178C21.3737 27.3384 21.4098 27.359 21.447 27.3802C21.698 27.5332 21.8514 27.7094 21.9492 27.9843C21.9845 28.2539 21.9847 28.5218 21.9849 28.7934C21.9858 28.8621 21.9867 28.9308 21.9877 29.0015C21.9908 29.2569 21.9918 29.5123 21.9931 29.7677C21.998 30.3393 22.0028 30.911 22.0078 31.4999C23.3226 31.4999 24.6375 31.4999 25.9922 31.4999C26.0022 30.3614 26.0022 30.3614 26.0096 29.2229C26.0113 29.0797 26.0132 28.9365 26.0151 28.7934C26.0151 28.7196 26.0152 28.6458 26.0153 28.5697C26.0218 28.1698 26.0297 27.8907 26.2851 27.5741C26.4465 27.4454 26.4465 27.4454 26.6319 27.3368C26.6653 27.3168 26.6988 27.2968 26.7332 27.2762C26.8409 27.2122 26.9493 27.1496 27.0578 27.0871C27.1321 27.0433 27.2063 26.9994 27.2804 26.9555C27.4619 26.8481 27.644 26.7419 27.8263 26.6359C27.9698 26.5524 28.1127 26.4677 28.2556 26.383C28.4771 26.2518 28.6992 26.1215 28.9219 25.9921C28.6691 25.7132 28.3778 25.5212 28.0631 25.3173C27.9806 25.2633 27.9806 25.2633 27.8964 25.2081C27.7209 25.0931 27.545 24.9786 27.3691 24.8642C27.1954 24.7507 27.0217 24.6372 26.8481 24.5235C26.736 24.4502 26.6238 24.3771 26.5115 24.3041C26.2735 24.1489 26.0376 23.9929 25.8088 23.8242C25.7738 23.7986 25.7388 23.773 25.7027 23.7466C25.6137 23.6807 25.5258 23.6135 25.4379 23.5461C25.2916 23.4537 25.2916 23.4537 25.1318 23.513C24.9852 23.5959 24.8423 23.6836 24.6994 23.7728C24.3425 23.9656 24.0481 24.0338 23.6484 23.9413C23.4176 23.8407 23.2058 23.711 22.9943 23.5751C22.7552 23.4275 22.7023 23.4685 22.4831 23.6174ZM15.0951 25.2519C15.0426 25.2827 15.0426 25.2827 14.989 25.3141C14.8748 25.3811 14.7609 25.4485 14.647 25.516C14.5685 25.5623 14.49 25.6085 14.4115 25.6548C13.9832 25.9075 13.5575 26.1634 13.1375 26.4297C12.8416 26.6172 12.5418 26.7977 12.241 26.9772C11.625 27.3448 11.0151 27.7222 10.4062 28.1015C10.6203 28.2809 10.8436 28.4292 11.0844 28.5693C11.1215 28.5911 11.1585 28.613 11.1967 28.6354C11.2763 28.6823 11.3559 28.729 11.4355 28.7757C11.6477 28.9 11.8594 29.0252 12.0711 29.1504C12.1139 29.1757 12.1566 29.201 12.2006 29.227C12.5927 29.4592 12.9812 29.6968 13.3689 29.9362C13.4606 29.9922 13.4606 29.9922 13.5542 30.0493C13.8643 30.2393 14.1697 30.4338 14.4709 30.6375C14.5314 30.6772 14.5918 30.7169 14.654 30.7578C14.7681 30.8329 14.8809 30.9098 14.9922 30.9888C15.2683 31.1735 15.2683 31.1735 15.5868 31.1781C15.7456 31.1021 15.8854 31.0125 16.0312 30.914C16.1526 30.8418 16.2742 30.77 16.3958 30.6984C16.4949 30.6378 16.5939 30.5773 16.6928 30.5165C16.8365 30.428 16.9805 30.3401 17.1245 30.2522C17.1986 30.2069 17.2728 30.1615 17.3469 30.1162C17.7018 29.8992 18.0583 29.6848 18.4153 29.4711C18.5032 29.4184 18.5032 29.4184 18.5929 29.3647C18.7119 29.2934 18.8309 29.2221 18.95 29.1508C19.287 28.9489 19.6238 28.7467 19.9607 28.5446C20.0847 28.4702 20.2086 28.3958 20.3326 28.3214C20.3847 28.2902 20.4367 28.259 20.4903 28.2268C20.527 28.2048 20.5637 28.1827 20.6015 28.1601C20.4445 27.9804 20.2496 27.871 20.0458 27.7524C20.0081 27.7302 19.9704 27.708 19.9316 27.6851C19.8506 27.6373 19.7695 27.5897 19.6883 27.5422C19.4736 27.4164 19.2594 27.2898 19.0452 27.1633C19.0024 27.1381 18.9596 27.1128 18.9156 27.0868C18.5627 26.8786 18.2119 26.6672 17.8623 26.4535C17.8105 26.4219 17.7587 26.3903 17.7053 26.3577C17.4662 26.2117 17.2272 26.0655 16.9884 25.919C16.7984 25.8024 16.6083 25.6861 16.418 25.5699C16.3437 25.5245 16.2694 25.4789 16.1952 25.4333C16.0921 25.3698 15.9888 25.3067 15.8854 25.2436C15.8259 25.2071 15.7664 25.1706 15.705 25.133C15.4461 24.9906 15.3372 25.1095 15.0951 25.2519ZM32.0347 25.2853C31.9914 25.311 31.9482 25.3367 31.9037 25.3631C31.3097 25.7171 30.7195 26.0774 30.1289 26.4369C29.8718 26.5935 29.6145 26.7497 29.3572 26.9058C29.3208 26.9278 29.2845 26.9499 29.247 26.9726C29.0737 27.0777 28.9004 27.1828 28.7271 27.2879C28.2831 27.5574 27.8404 27.8288 27.3984 28.1015C27.6234 28.2851 27.8536 28.4373 28.1052 28.5812C28.5604 28.8453 29.0108 29.1167 29.4602 29.3905C29.91 29.6645 30.3603 29.9377 30.8122 30.2083C30.8521 30.2322 30.892 30.2561 30.9331 30.2807C31.1264 30.3965 31.3198 30.5121 31.5133 30.6275C31.5838 30.6697 31.6543 30.7118 31.7247 30.754C31.7861 30.7906 31.8475 30.8272 31.9107 30.8649C32.0859 30.9726 32.0859 30.9726 32.266 31.1107C32.4275 31.2262 32.4275 31.2262 32.5858 31.1749C32.6336 31.1468 32.6813 31.1187 32.7305 31.0897C32.7813 31.061 32.8322 31.0323 32.8846 31.0027C32.9398 30.9686 32.9951 30.9346 33.052 30.8995C33.1155 30.8607 33.1789 30.8219 33.2443 30.7819C33.278 30.7611 33.3117 30.7403 33.3465 30.7189C33.5296 30.6061 33.7132 30.4941 33.8968 30.382C33.9546 30.3467 33.9546 30.3467 34.0136 30.3107C34.4491 30.0453 34.8879 29.7856 35.3269 29.526C36.0862 29.0767 36.8416 28.6214 37.5937 28.1601C37.4425 27.9901 37.2689 27.887 37.0739 27.7714C37.0396 27.751 37.0054 27.7305 36.97 27.7095C36.8959 27.6653 36.8216 27.6212 36.7473 27.5773C36.5884 27.4832 36.4297 27.3886 36.2711 27.294C36.1889 27.245 36.1068 27.1961 36.0247 27.1472C35.656 26.9276 35.289 26.7052 34.9225 26.4821C34.6556 26.3195 34.3883 26.1574 34.1211 25.9952C34.0166 25.9317 33.9121 25.8682 33.8077 25.8047C33.6026 25.6801 33.3972 25.5559 33.1919 25.4318C33.098 25.3747 33.098 25.3747 33.0023 25.3164C32.9451 25.2819 32.8878 25.2474 32.8289 25.2118C32.7786 25.1813 32.7282 25.1509 32.6764 25.1195C32.4227 24.9843 32.2566 25.1522 32.0347 25.2853ZM9.99608 29.1561C9.99533 29.3339 9.99466 29.5117 9.99402 29.6894C9.99378 29.7459 9.99355 29.8023 9.9933 29.8605C9.99222 30.178 9.99269 30.4955 9.99569 30.813C10.0006 31.4101 10.0022 32.0029 9.96176 32.5989C9.81708 33.8166 9.81708 33.8166 10.1978 34.9193C10.5337 35.2393 10.9678 35.4125 11.3956 35.5749C11.7901 35.7249 12.1333 35.9329 12.4877 36.1597C12.6542 36.2656 12.8233 36.3674 12.9921 36.4696C13.0581 36.5098 13.1241 36.55 13.192 36.5914C13.535 36.8004 13.8784 37.0088 14.2222 37.2165C14.2847 37.2545 14.3473 37.2926 14.4117 37.3318C14.469 37.3663 14.5262 37.4009 14.5852 37.4364C14.6355 37.4669 14.6858 37.4974 14.7376 37.5288C14.8536 37.6028 14.8536 37.6028 14.9765 37.5936C14.9888 36.8893 14.9981 36.1849 15.0039 35.4804C15.0066 35.1533 15.0104 34.8262 15.0163 34.4991C15.0221 34.1834 15.0252 33.8677 15.0266 33.552C15.0276 33.4316 15.0295 33.3112 15.0323 33.1908C15.0768 32.5619 15.0768 32.5619 14.8667 31.9974C14.7297 31.9043 14.6051 31.8472 14.4492 31.7929C14.3937 31.7583 14.3381 31.7237 14.2809 31.6881C14.2327 31.6594 14.1846 31.6308 14.1349 31.6013C14.079 31.5679 14.0231 31.5345 13.9654 31.5001C13.9063 31.465 13.8472 31.4299 13.7864 31.3937C13.6562 31.316 13.526 31.2383 13.3959 31.1605C13.3624 31.1404 13.3288 31.1204 13.2943 31.0998C12.9473 30.8923 12.6021 30.682 12.2568 30.4718C11.7063 30.1366 11.1548 29.8033 10.6003 29.4748C10.5457 29.4423 10.491 29.4098 10.4347 29.3763C10.3852 29.3471 10.3357 29.3179 10.2847 29.2878C10.2414 29.2622 10.1982 29.2366 10.1536 29.2103C10.0649 29.1515 10.0649 29.1515 9.99608 29.1561ZM20.6855 29.2836C20.6171 29.3266 20.6171 29.3266 20.5472 29.3704C20.4962 29.4024 20.4453 29.4344 20.3928 29.4674C19.8421 29.8113 19.2855 30.1442 18.7265 30.4745C18.1783 30.7987 17.6311 31.1243 17.0896 31.4596C17.0426 31.4887 16.9955 31.5178 16.9471 31.5477C16.8622 31.6006 16.778 31.6547 16.6949 31.7104C16.5586 31.7929 16.5586 31.7929 16.4202 31.842C16.2385 31.9201 16.1511 31.9851 16.0312 32.1444C15.9282 32.5424 15.9702 32.9766 15.9797 33.3836C15.9807 33.5066 15.9815 33.6296 15.982 33.7525C15.984 34.0757 15.9892 34.3987 15.995 34.7218C16.0004 35.0517 16.0028 35.3816 16.0055 35.7116C16.0111 36.3585 16.0201 37.0054 16.0312 37.6522C16.16 37.5789 16.2888 37.5056 16.4176 37.4322C16.4715 37.4015 16.4715 37.4015 16.5264 37.3702C16.8954 37.1598 17.2582 36.9398 17.6206 36.7184C17.691 36.6755 17.7614 36.6326 17.8317 36.5898C17.9779 36.5008 18.1239 36.4118 18.27 36.3227C18.492 36.1875 18.7142 36.0526 18.9364 35.9178C18.9727 35.8958 19.0091 35.8737 19.0465 35.851C19.2196 35.7461 19.3927 35.6411 19.5658 35.5361C19.8968 35.3352 20.2276 35.1338 20.5578 34.9315C20.6525 34.8736 20.6525 34.8736 20.7491 34.8145C20.8859 34.7355 20.8859 34.7355 20.9531 34.664C20.9587 34.4928 20.9605 34.3229 20.9598 34.1517C20.9598 34.098 20.9598 34.0443 20.9598 33.9889C20.9597 33.8104 20.9593 33.6319 20.9588 33.4534C20.9587 33.33 20.9586 33.2066 20.9586 33.0832C20.9584 32.7577 20.9578 32.4322 20.9571 32.1067C20.9565 31.7749 20.9563 31.443 20.956 31.1111C20.9553 30.4595 20.9543 29.8078 20.9531 29.1561C20.8495 29.1561 20.7712 29.2296 20.6855 29.2836ZM27.0469 29.1561C27.0346 29.8682 27.0253 30.5802 27.0195 31.2923C27.0168 31.623 27.0131 31.9536 27.0071 32.2842C27.0013 32.6034 26.9982 32.9225 26.9968 33.2416C26.9959 33.3634 26.994 33.4851 26.9911 33.6068C26.9467 34.2391 26.9467 34.2391 27.1531 34.8097C27.2908 34.9037 27.4175 34.9598 27.5742 35.0155C27.646 35.0572 27.7169 35.1005 27.7867 35.1455C27.8552 35.186 27.9239 35.2264 27.9926 35.2666C28.07 35.3123 28.1474 35.3579 28.2247 35.4036C28.2644 35.4269 28.3041 35.4502 28.345 35.4743C28.9363 35.8222 29.5261 36.1722 30.1084 36.5353C30.5159 36.7892 30.9243 37.0413 31.3352 37.2897C31.3854 37.3203 31.4356 37.3509 31.4873 37.3825C31.5334 37.4103 31.5795 37.438 31.627 37.4666C31.6677 37.4912 31.7083 37.5158 31.7502 37.5412C31.8499 37.6026 31.8499 37.6026 31.9687 37.5936C31.981 36.8893 31.9903 36.1849 31.9961 35.4804C31.9988 35.1533 32.0025 34.8262 32.0085 34.4991C32.0143 34.1834 32.0174 33.8677 32.0188 33.552C32.0197 33.4316 32.0216 33.3112 32.0245 33.1908C32.0689 32.5627 32.0689 32.5627 31.8601 31.9982C31.7229 31.905 31.5973 31.848 31.4414 31.7929C31.3811 31.755 31.3209 31.7172 31.2588 31.6783C31.204 31.6451 31.1492 31.6119 31.0928 31.5777C31.0295 31.5393 30.9662 31.5009 30.9009 31.4613C30.8333 31.4205 30.7656 31.3796 30.698 31.3388C30.6264 31.2954 30.5549 31.2521 30.4833 31.2087C29.9119 30.8628 29.3388 30.5195 28.7655 30.1765C28.2918 29.8931 27.8198 29.6075 27.3544 29.3108C27.2113 29.2027 27.2113 29.2027 27.0469 29.1561ZM37.4498 29.4315C37.3926 29.4654 37.3926 29.4654 37.3343 29.5001C37.2094 29.5744 37.0848 29.6491 36.9602 29.7238C36.8738 29.7754 36.7874 29.8269 36.7009 29.8785C36.1922 30.1824 35.6857 30.4899 35.183 30.8037C34.8849 30.9898 34.5855 31.1736 34.285 31.3557C34.2473 31.3786 34.2095 31.4014 34.1706 31.425C33.9831 31.5386 33.7955 31.652 33.6078 31.7653C33.5397 31.8065 33.4715 31.8478 33.4034 31.889C33.3125 31.9439 33.3125 31.9439 33.2197 31.9998C33.0894 32.074 33.0894 32.074 33.0234 32.1444C33.0178 32.3156 33.0161 32.4855 33.0168 32.6567C33.0168 32.7104 33.0168 32.7641 33.0167 32.8195C33.0168 32.998 33.0172 33.1765 33.0177 33.355C33.0178 33.4784 33.0179 33.6018 33.018 33.7252C33.0182 34.0507 33.0188 34.3762 33.0194 34.7017C33.02 35.0335 33.0203 35.3654 33.0206 35.6972C33.0212 36.3489 33.0222 37.0006 33.0234 37.6522C33.1519 37.5792 33.2803 37.506 33.4087 37.4328C33.4445 37.4124 33.4803 37.3921 33.5172 37.3711C33.8619 37.1745 34.2011 36.9696 34.5397 36.7627C34.7181 36.6536 34.8967 36.5449 35.0753 36.4362C35.1107 36.4147 35.146 36.3932 35.1824 36.371C35.4372 36.2158 35.6924 36.0614 35.9489 35.9091C36.042 35.853 36.1342 35.7955 36.2256 35.7366C36.4877 35.5703 36.7316 35.4549 37.0277 35.3598C37.4411 35.2074 37.7745 35.0552 38.0039 34.664C38.2162 33.8809 38.0837 32.9812 38.0284 32.1835C38.0025 31.7995 37.9916 31.4162 37.9856 31.0314C37.9842 30.9412 37.9842 30.9412 37.9827 30.8492C37.9809 30.7315 37.9791 30.6138 37.9774 30.4961C37.9729 30.2233 37.9656 29.9505 37.9581 29.6778C37.9568 29.6305 37.9555 29.5832 37.9542 29.5345C37.9513 29.4279 37.9483 29.3213 37.9453 29.2147C37.7546 29.2147 37.6094 29.3355 37.4498 29.4315Z" fill="#654ADA"/>
</g>
<defs>
<clipPath id="clip0_1_166">
<rect width="30" height="30" fill="white" transform="translate(9 9)"/>
</clipPath>
</defs>
</svg>
