<svg width="48" height="48" viewBox="0 0 48 48" fill="none" xmlns="http://www.w3.org/2000/svg">
<rect x="0.5" y="0.5" width="47" height="47" rx="7.5" fill="#FEFEFE"/>
<rect x="0.5" y="0.5" width="47" height="47" rx="7.5" stroke="#F0ECFF"/>
<path d="M21.5354 16.0009C21.5945 16.0005 21.6536 16.0001 21.7145 15.9997C21.9099 15.9986 22.1053 15.9993 22.3008 16.0001C22.4365 16 22.5722 15.9997 22.708 15.9994C22.9925 15.9991 23.277 15.9996 23.5615 16.0007C23.9264 16.002 24.2913 16.0012 24.6562 15.9998C24.9365 15.999 25.2167 15.9993 25.497 15.9999C25.6316 16 25.7662 15.9998 25.9007 15.9993C26.0887 15.9987 26.2766 15.9996 26.4646 16.0009C26.5483 16.0002 26.5483 16.0002 26.6336 15.9995C27.0067 16.0043 27.0067 16.0043 27.1988 16.1332C27.2928 16.2841 27.3098 16.363 27.3079 16.5396C27.3078 16.6206 27.3078 16.6206 27.3078 16.7031C27.3066 16.7609 27.3054 16.8186 27.3041 16.8781C27.3038 16.9376 27.3035 16.9971 27.3031 17.0584C27.3018 17.2483 27.2989 17.4381 27.2959 17.6279C27.2947 17.7567 27.2936 17.8855 27.2927 18.0143C27.2901 18.3298 27.2862 18.6454 27.2812 18.9609C27.3468 18.9674 27.4123 18.9739 27.4798 18.9806C27.7696 19.0171 28.0435 19.0922 28.3238 19.1729C28.3771 19.188 28.4303 19.2031 28.4852 19.2186C28.5971 19.2505 28.7089 19.2825 28.8207 19.3147C28.9914 19.3637 29.1623 19.412 29.3333 19.4601C29.4424 19.4913 29.5514 19.5225 29.6605 19.5537C29.7113 19.568 29.7622 19.5823 29.8146 19.597C30.0661 19.6702 30.2896 19.7417 30.5039 19.8984C30.5727 20.036 30.5697 20.1166 30.5695 20.2699C30.5697 20.3501 30.5697 20.3501 30.5698 20.4318C30.5696 20.4905 30.5694 20.5493 30.5691 20.6098C30.5692 20.6716 30.5692 20.7333 30.5692 20.7969C30.5691 21.0017 30.5687 21.2065 30.5682 21.4113C30.5681 21.553 30.568 21.6948 30.568 21.8365C30.5677 22.21 30.5672 22.5836 30.5665 22.9571C30.5659 23.3381 30.5657 23.7191 30.5654 24.1C30.5647 24.8479 30.5637 25.5958 30.5625 26.3437C30.6236 26.3432 30.6848 26.3427 30.7478 26.3422C31.3237 26.3374 31.8996 26.3339 32.4756 26.3316C32.7717 26.3304 33.0677 26.3287 33.3638 26.3261C33.6495 26.3235 33.9352 26.3221 34.2209 26.3215C34.33 26.3211 34.439 26.3202 34.5481 26.319C34.7007 26.3173 34.8533 26.317 35.006 26.3171C35.0511 26.3163 35.0963 26.3154 35.1429 26.3146C35.3496 26.3162 35.4627 26.3273 35.6296 26.454C35.7374 26.604 35.7482 26.6839 35.7478 26.8674C35.748 26.9242 35.7482 26.9809 35.7483 27.0394C35.747 27.0998 35.7457 27.1603 35.7444 27.2226C35.7436 27.2848 35.7428 27.347 35.742 27.4111C35.7328 27.8239 35.7027 28.231 35.6455 28.6399C35.6391 28.6878 35.6327 28.7357 35.6261 28.7851C35.5818 29.0606 35.5327 29.2643 35.3086 29.4492C35.1365 29.476 34.9932 29.4876 34.8215 29.4858C34.4798 29.4858 34.1994 29.4928 33.9023 29.6836C33.7938 29.8569 33.7301 30.04 33.6643 30.2329C33.6254 30.3392 33.5862 30.4455 33.5469 30.5517C33.528 30.6036 33.5091 30.6555 33.4896 30.709C33.3915 30.9653 33.2677 31.2076 33.1425 31.4517C33.0675 31.657 33.0595 31.8102 33.082 32.0273C33.1547 32.1592 33.1547 32.1592 33.2651 32.2617C33.3208 32.3204 33.3208 32.3204 33.3775 32.3803C33.4154 32.4185 33.4532 32.4567 33.4922 32.4961C33.5602 32.566 33.6274 32.6368 33.6936 32.7085C33.7225 32.7382 33.7515 32.768 33.7813 32.7987C33.8759 32.9616 33.8669 33.0722 33.8437 33.2578C33.2122 34.4571 32.0489 35.5123 30.9727 36.3047C30.8953 36.363 30.8953 36.363 30.8163 36.4225C30.6331 36.5542 30.4847 36.6458 30.2659 36.7038C29.9517 36.6169 29.7453 36.3651 29.5183 36.1406C29.4846 36.1089 29.451 36.0773 29.4163 36.0447C29.3872 36.0157 29.3581 35.9868 29.3281 35.957C29.1482 35.8578 29.0068 35.8754 28.8047 35.8945C28.6049 35.9677 28.6049 35.9677 28.4055 36.074C28.1544 36.2001 27.9056 36.3153 27.6404 36.4088C27.5928 36.4258 27.5452 36.4427 27.4962 36.4602C27.4036 36.4926 27.3105 36.5238 27.217 36.5537C26.9812 36.6374 26.8914 36.6824 26.7544 36.9009C26.6772 37.1939 26.6716 37.4652 26.6747 37.7664C26.6701 37.9809 26.6575 38.0967 26.5166 38.2623C26.3089 38.3742 26.1169 38.4247 25.886 38.458C25.8375 38.4651 25.7889 38.4721 25.7389 38.4794C24.5689 38.6225 23.2808 38.628 22.114 38.458C22.0696 38.4516 22.0253 38.4452 21.9795 38.4386C21.7184 38.3914 21.5368 38.325 21.3633 38.1211C21.3365 37.949 21.3249 37.8057 21.3267 37.634C21.3403 37.1393 21.3403 37.1393 21.1289 36.7148C20.8798 36.573 20.6175 36.4763 20.3489 36.3779C20.2062 36.3234 20.0636 36.2688 19.9211 36.214C19.8578 36.1906 19.7945 36.1671 19.7292 36.1429C19.5469 36.0703 19.5469 36.0703 19.3601 35.9757C19.1426 35.8685 19.0253 35.8531 18.7852 35.8945C18.6117 36.0138 18.4657 36.1568 18.3164 36.3047C18.2465 36.3727 18.1757 36.4399 18.104 36.5061C18.0594 36.5495 18.0594 36.5495 18.0138 36.5938C17.8507 36.6885 17.7405 36.6796 17.5547 36.6562C16.354 36.0172 15.3006 34.8663 14.5078 33.7851C14.469 33.7336 14.4302 33.6821 14.3902 33.629C14.2584 33.4457 14.1667 33.2974 14.1086 33.0784C14.1955 32.7642 14.4474 32.5578 14.6719 32.3308C14.7036 32.2971 14.7352 32.2635 14.7678 32.2287C14.7967 32.1997 14.8257 32.1706 14.8555 32.1406C14.9571 31.9563 14.9406 31.8256 14.918 31.6172C14.8503 31.4221 14.7627 31.2387 14.6726 31.0532C14.4813 30.6491 14.3136 30.2544 14.1833 29.8262C14.0837 29.6604 13.9864 29.603 13.8058 29.5371C13.5562 29.4753 13.3017 29.4845 13.0461 29.4872C12.8342 29.4827 12.7158 29.4693 12.5502 29.3327C12.4291 29.1033 12.3886 28.8955 12.3545 28.6399C12.3475 28.5896 12.3404 28.5393 12.3332 28.4876C12.2803 28.0666 12.2609 27.6467 12.2556 27.2226C12.2543 27.1622 12.253 27.1017 12.2517 27.0394C12.2518 26.9826 12.252 26.9259 12.2522 26.8674C12.2521 26.8172 12.252 26.767 12.2518 26.7152C12.2932 26.5223 12.3585 26.463 12.5156 26.3437C12.6828 26.3218 12.8271 26.314 12.994 26.3171C13.0421 26.3171 13.0901 26.3171 13.1396 26.317C13.2982 26.3172 13.4566 26.319 13.6152 26.3208C13.7252 26.3213 13.8352 26.3216 13.9452 26.3219C14.2346 26.3227 14.5239 26.325 14.8133 26.3276C15.1087 26.33 15.404 26.3311 15.6994 26.3323C16.2788 26.3348 16.8581 26.3388 17.4375 26.3437C17.4373 26.3113 17.4371 26.2789 17.4368 26.2456C17.4317 25.4573 17.4278 24.6689 17.4254 23.8806C17.4241 23.4994 17.4225 23.1182 17.4198 22.737C17.4173 22.3692 17.4159 22.0015 17.4153 21.6337C17.4148 21.4932 17.414 21.3528 17.4127 21.2123C17.411 21.0159 17.4108 20.8195 17.4109 20.6231C17.41 20.5648 17.4092 20.5065 17.4083 20.4464C17.4107 20.055 17.4107 20.055 17.5388 19.8668C17.6774 19.7777 17.7947 19.725 17.9529 19.6793C18.0085 19.6629 18.064 19.6465 18.1212 19.6296C18.1808 19.6129 18.2404 19.5961 18.3018 19.5789C18.3633 19.561 18.4248 19.5432 18.4882 19.5247C18.6182 19.4872 18.7482 19.4499 18.8783 19.4131C19.0776 19.3566 19.2765 19.2989 19.4755 19.2411C19.6018 19.2047 19.7281 19.1684 19.8545 19.1321C19.9141 19.1149 19.9736 19.0977 20.035 19.08C20.0906 19.0643 20.1461 19.0486 20.2033 19.0325C20.252 19.0186 20.3008 19.0048 20.351 18.9905C20.4844 18.9609 20.4844 18.9609 20.7187 18.9609C20.7182 18.9277 20.7177 18.8944 20.7172 18.8602C20.712 18.5142 20.7084 18.1682 20.7059 17.8222C20.7047 17.6931 20.7031 17.564 20.7011 17.4349C20.6982 17.2493 20.6969 17.0637 20.6959 16.8781C20.6946 16.8204 20.6934 16.7626 20.6922 16.7031C20.6922 16.6492 20.6922 16.5952 20.6921 16.5396C20.6916 16.4923 20.6911 16.4449 20.6906 16.3961C20.7861 15.9535 21.1666 15.9978 21.5354 16.0009ZM21.6562 16.9687C21.6562 20.0625 21.6562 23.1562 21.6562 26.3437C21.9656 26.3437 22.275 26.3437 22.5937 26.3437C22.5959 26.1935 22.5981 26.0433 22.6004 25.8885C22.6031 25.743 22.6061 25.5976 22.6091 25.4522C22.6111 25.3511 22.6127 25.25 22.614 25.1488C22.616 25.0035 22.6191 24.8583 22.6224 24.713C22.6227 24.6677 22.6231 24.6225 22.6235 24.5759C22.6321 24.2613 22.6321 24.2613 22.7273 24.1345C22.9072 23.999 23.135 24.0337 23.3518 24.0352C23.4032 24.0351 23.4545 24.0349 23.5074 24.0347C23.616 24.0346 23.7245 24.0349 23.8331 24.0357C23.9994 24.0366 24.1656 24.0357 24.3319 24.0345C24.4373 24.0347 24.5428 24.0349 24.6482 24.0352C24.698 24.0349 24.7478 24.0345 24.7991 24.0342C25.1449 24.0383 25.1449 24.0383 25.2727 24.1345C25.4004 24.3046 25.3759 24.5081 25.3776 24.713C25.3787 24.7595 25.3797 24.8061 25.3808 24.8541C25.384 25.0027 25.386 25.1514 25.3879 25.3C25.3899 25.4009 25.3919 25.5017 25.394 25.6025C25.3991 25.8496 25.4026 26.0966 25.4062 26.3437C25.7156 26.3437 26.025 26.3437 26.3437 26.3437C26.3437 23.25 26.3437 20.1562 26.3437 16.9687C24.7969 16.9687 23.25 16.9687 21.6562 16.9687ZM27.2812 19.957C27.2812 22.0646 27.2812 24.1723 27.2812 26.3437C28.0547 26.3437 28.8281 26.3437 29.625 26.3437C29.625 24.4488 29.625 22.5539 29.625 20.6015C28.4683 20.1693 28.4683 20.1693 27.2812 19.957ZM18.375 20.6015C18.375 22.4965 18.375 24.3914 18.375 26.3437C19.1484 26.3437 19.9219 26.3437 20.7187 26.3437C20.7187 24.2361 20.7187 22.1285 20.7187 19.957C19.9085 19.957 19.1548 20.3816 18.375 20.6015ZM23.5312 24.9375C23.5312 25.4015 23.5312 25.8656 23.5312 26.3437C23.8406 26.3437 24.15 26.3437 24.4687 26.3437C24.4687 25.8797 24.4687 25.4156 24.4687 24.9375C24.1594 24.9375 23.85 24.9375 23.5312 24.9375ZM13.2773 27.2812C13.2699 27.7545 13.2699 27.7545 13.3359 28.1968C13.3468 28.2459 13.3577 28.295 13.3689 28.3455C13.3774 28.381 13.3858 28.4165 13.3945 28.4531C13.4815 28.467 13.4815 28.467 13.5703 28.4813C14.2052 28.5902 14.6208 28.7273 15.0097 29.2585C15.144 29.4697 15.2208 29.6924 15.2988 29.9289C15.4414 30.3389 15.5987 30.7297 15.7873 31.121C15.9707 31.5101 15.9919 31.963 15.8589 32.3732C15.7225 32.6575 15.5673 32.877 15.3281 33.082C15.4114 33.3373 15.5365 33.4921 15.72 33.6863C15.8941 33.872 16.0657 34.0584 16.229 34.2539C16.634 34.7193 17.1116 35.1274 17.6133 35.4844C17.7734 35.41 17.8759 35.3427 18.0124 35.2243C18.3782 34.9184 18.7014 34.8623 19.1724 34.8742C19.5037 34.9146 19.7761 35.0476 20.0742 35.1914C20.2119 35.2519 20.3498 35.3117 20.488 35.3708C20.5565 35.4006 20.625 35.4304 20.6956 35.461C20.8751 35.5349 21.0543 35.5968 21.2388 35.6565C21.6486 35.8037 21.9518 36.0383 22.147 36.4328C22.2708 36.7495 22.3162 37.0823 22.3594 37.418C23.2478 37.6364 24.8075 37.8345 25.6406 37.418C25.6624 37.3003 25.6785 37.1816 25.6919 37.0627C25.7692 36.527 25.9128 36.2276 26.3243 35.8761C26.5505 35.7126 26.7953 35.6283 27.0579 35.5393C27.1667 35.5003 27.2754 35.4611 27.384 35.4216C27.4364 35.4027 27.4889 35.3838 27.5429 35.3644C27.8066 35.2653 28.0589 35.1454 28.3126 35.0232C28.6999 34.8409 29.1528 34.8213 29.5607 34.9536C29.845 35.09 30.0645 35.2452 30.2695 35.4844C30.5248 35.4011 30.6796 35.276 30.8738 35.0925C31.0596 34.9184 31.2459 34.7467 31.4414 34.5835C31.9068 34.1784 32.3149 33.7009 32.6719 33.1992C32.5975 33.0391 32.5302 32.9366 32.4119 32.8C32.1059 32.4343 32.0498 32.111 32.0617 31.6401C32.1021 31.3087 32.2351 31.0364 32.3789 30.7383C32.4394 30.6006 32.4992 30.4627 32.5583 30.3244C32.5881 30.2559 32.6179 30.1874 32.6485 30.1169C32.7224 29.9374 32.7843 29.7582 32.844 29.5737C32.9912 29.1639 33.2258 28.8606 33.6204 28.6655C33.937 28.5417 34.2698 28.4963 34.6055 28.4531C34.6258 28.3678 34.6451 28.2823 34.6641 28.1968C34.6749 28.1492 34.6858 28.1016 34.697 28.0526C34.7323 27.7977 34.7227 27.5385 34.7227 27.2812C33.6398 27.2812 32.557 27.2812 31.4414 27.2812C31.3636 27.4368 31.3568 27.5919 31.3361 27.7628C31.1268 29.4195 30.414 30.8179 29.2734 32.0273C29.2376 32.067 29.2017 32.1066 29.1647 32.1475C28.017 33.3687 26.2075 34.1223 24.5511 34.2027C22.4643 34.2601 20.5162 33.7172 18.9668 32.2581C18.8866 32.1814 18.8066 32.1044 18.7266 32.0273C18.6888 31.9933 18.651 31.9592 18.6121 31.9241C17.4391 30.836 16.8347 29.1714 16.6469 27.623C16.6312 27.4105 16.6312 27.4105 16.5586 27.2812C15.4758 27.2812 14.393 27.2812 13.2773 27.2812ZM17.5547 27.2812C17.807 29.1738 18.5605 30.7841 20.1013 31.972C21.5075 33.0144 23.2139 33.4719 24.9542 33.2173C26.7008 32.9177 28.2219 32.0008 29.2688 30.5655C29.9165 29.6446 30.4453 28.4256 30.4453 27.2812C26.1914 27.2812 21.9375 27.2812 17.5547 27.2812Z" fill="#654ADA"/>
<path d="M12.9514 17.5254C13.2525 17.7073 13.4742 17.9818 13.6545 18.2798C13.7071 18.525 13.6962 18.7698 13.6875 19.0195C13.7385 19.0356 13.7896 19.0516 13.8422 19.0682C14.1605 19.179 14.4557 19.3342 14.7568 19.4846C14.8213 19.5161 14.8858 19.5477 14.9523 19.5802C15.0138 19.6108 15.0753 19.6414 15.1386 19.673C15.1947 19.7008 15.2507 19.7286 15.3085 19.7572C15.4453 19.8398 15.4453 19.8398 15.5625 20.0156C15.5766 20.188 15.5766 20.188 15.5758 20.4013C15.5758 20.4402 15.5758 20.4791 15.5759 20.5192C15.5758 20.6476 15.5749 20.776 15.5739 20.9044C15.5737 20.9934 15.5736 21.0825 15.5734 21.1716C15.573 21.406 15.5718 21.6403 15.5706 21.8747C15.5694 22.1139 15.5688 22.3531 15.5682 22.5923C15.567 23.0615 15.5649 23.5307 15.5625 24C15.2531 24 14.9438 24 14.625 24C14.625 22.8592 14.625 21.7183 14.625 20.543C14.509 20.5043 14.393 20.4656 14.2734 20.4258C14.1953 20.3886 14.1181 20.3494 14.0423 20.3077C14.0022 20.2864 13.9621 20.2651 13.9207 20.2431C13.8378 20.1985 13.7551 20.1533 13.6726 20.1076C13.4474 19.9796 13.4474 19.9796 13.2004 19.9959C13.1678 20.0218 13.1352 20.0476 13.1016 20.0742C12.683 20.3108 12.1932 20.3321 11.7283 20.2136C11.3667 20.0547 11.0997 19.7598 10.9235 19.4109C10.7782 19.0146 10.8163 18.6584 10.9336 18.2578C11.1004 17.9242 11.3782 17.6547 11.7127 17.4874C12.092 17.3679 12.5839 17.3625 12.9514 17.5254ZM11.9663 18.5288C11.8426 18.7097 11.8352 18.8044 11.8711 19.0195C11.959 19.166 11.959 19.166 12.1055 19.2539C12.3206 19.2898 12.4153 19.2824 12.5962 19.1587C12.7199 18.9778 12.7273 18.8831 12.6914 18.668C12.6035 18.5215 12.6035 18.5215 12.457 18.4336C12.2419 18.3977 12.1472 18.405 11.9663 18.5288Z" fill="#654ADA"/>
<path d="M36.3889 17.5255C36.7302 17.7317 37.0068 18.0522 37.125 18.4337C37.1722 18.8928 37.1909 19.3489 36.8906 19.7227C36.6091 20.0183 36.3538 20.227 35.9373 20.2698C35.4983 20.2746 35.2138 20.2485 34.8398 20.0157C34.6718 19.9392 34.6718 19.9392 34.5384 20.0042C34.491 20.0291 34.4435 20.0539 34.3947 20.0796C34.3429 20.1062 34.2911 20.1328 34.2378 20.1602C34.1839 20.1887 34.13 20.2171 34.0745 20.2464C33.9677 20.3021 33.8608 20.3575 33.7538 20.4128C33.7064 20.4377 33.6591 20.4626 33.6103 20.4883C33.4922 20.543 33.4922 20.543 33.375 20.543C33.375 21.6839 33.375 22.8247 33.375 24.0001C33.0656 24.0001 32.7563 24.0001 32.4375 24.0001C32.4322 23.4846 32.4279 22.9692 32.4254 22.4537C32.4241 22.2144 32.4225 21.975 32.4198 21.7357C32.4173 21.5047 32.4159 21.2737 32.4153 21.0427C32.4148 20.9546 32.414 20.8665 32.4127 20.7784C32.411 20.6549 32.4108 20.5315 32.4109 20.4081C32.4104 20.3378 32.4099 20.2675 32.4093 20.1951C32.4433 19.9786 32.5019 19.9147 32.6719 19.7813C32.7868 19.7139 32.9045 19.651 33.0239 19.5918C33.0913 19.5582 33.1588 19.5246 33.2283 19.49C33.2632 19.4729 33.2981 19.4558 33.334 19.4382C33.4413 19.3856 33.5481 19.3323 33.6549 19.2789C34.1789 19.0196 34.1789 19.0196 34.3125 19.0196C34.3098 18.9827 34.3071 18.9459 34.3043 18.9079C34.2886 18.5377 34.3226 18.2666 34.5469 17.9649C35.031 17.4525 35.7041 17.222 36.3889 17.5255ZM35.4038 18.5289C35.2801 18.7098 35.2727 18.8045 35.3086 19.0196C35.3965 19.1661 35.3965 19.1661 35.543 19.254C35.7581 19.2898 35.8528 19.2825 36.0337 19.1588C36.1574 18.9779 36.1648 18.8832 36.1289 18.668C36.041 18.5216 36.041 18.5216 35.8945 18.4337C35.6794 18.3978 35.5847 18.4051 35.4038 18.5289Z" fill="#654ADA"/>
<path d="M31.7014 12.3692C32.0427 12.5755 32.3193 12.896 32.4375 13.2774C32.4847 13.7366 32.5034 14.1926 32.2031 14.5665C31.9794 14.8014 31.7594 15.0063 31.4414 15.0938C31.3631 15.0922 31.2848 15.0874 31.2068 15.0806C31.1416 15.0752 31.1416 15.0752 31.0751 15.0698C30.9862 15.0615 30.8974 15.0509 30.8091 15.0378C30.4853 15.0172 30.248 15.1431 30.0052 15.3497C29.6543 15.6913 29.617 16.0583 29.6021 16.5321C29.5988 16.8098 29.604 17.0868 29.6104 17.3643C29.6111 17.5079 29.6114 17.6515 29.6115 17.7951C29.6123 18.1448 29.6175 18.4942 29.625 18.8438C29.3156 18.8438 29.0063 18.8438 28.6875 18.8438C28.6782 18.3936 28.6707 17.9433 28.6662 17.493C28.6641 17.2838 28.6612 17.0747 28.6566 16.8656C28.6521 16.6635 28.6496 16.4614 28.6486 16.2593C28.6475 16.1453 28.6443 16.0313 28.641 15.9173C28.6409 15.563 28.6487 15.3262 28.8854 15.0507C29.0427 14.8985 29.2135 14.7658 29.387 14.6324C29.5714 14.4545 29.6392 14.332 29.6502 14.0806C29.6497 13.9415 29.6437 13.8054 29.6313 13.6669C29.6034 13.3224 29.6662 13.097 29.8594 12.8087C29.9745 12.6773 29.9745 12.6773 30.0901 12.5816C30.1281 12.5491 30.1661 12.5167 30.2052 12.4832C30.6191 12.198 31.2418 12.1656 31.7014 12.3692ZM30.7163 13.3726C30.5926 13.5535 30.5852 13.6482 30.6211 13.8634C30.709 14.0098 30.709 14.0098 30.8555 14.0977C31.0706 14.1336 31.1653 14.1263 31.3462 14.0025C31.4699 13.8217 31.4773 13.7269 31.4414 13.5118C31.3535 13.3653 31.3535 13.3653 31.207 13.2774C30.9919 13.2416 30.8972 13.2489 30.7163 13.3726Z" fill="#654ADA"/>
<path d="M17.6389 12.369C17.9729 12.5709 18.2717 12.8976 18.375 13.2772C18.3649 13.3961 18.3545 13.515 18.3407 13.6335C18.311 13.934 18.2923 14.2022 18.4598 14.465C18.6716 14.7139 18.9126 14.9285 19.1666 15.1336C19.2539 15.2108 19.2539 15.2108 19.3125 15.328C19.3178 15.4399 19.3194 15.552 19.3192 15.664C19.3191 15.7696 19.3191 15.7696 19.3191 15.8773C19.3188 15.9536 19.3185 16.0299 19.3182 16.1085C19.3181 16.1872 19.318 16.2658 19.318 16.3445C19.3177 16.5516 19.3172 16.7587 19.3165 16.9658C19.3159 17.1771 19.3157 17.3884 19.3154 17.5997C19.3147 18.0143 19.3137 18.429 19.3125 18.8436C19.0031 18.8436 18.6938 18.8436 18.375 18.8436C18.3779 18.7107 18.3779 18.7107 18.3808 18.5751C18.387 18.2436 18.3885 17.9121 18.3886 17.5805C18.3893 17.4375 18.3912 17.2945 18.3945 17.1516C18.446 16.2406 18.446 16.2406 18.0872 15.4396C17.8692 15.2275 17.642 15.0619 17.3304 15.0332C17.1995 15.0414 17.1995 15.0414 17.0713 15.0643C16.6762 15.1113 16.4269 15.0855 16.0898 14.8593C15.9585 14.7441 15.9585 14.7441 15.8628 14.6286C15.8303 14.5906 15.7978 14.5526 15.7644 14.5134C15.5019 14.1325 15.523 13.7242 15.5625 13.2772C15.661 12.887 15.9412 12.6218 16.2656 12.3983C16.663 12.1983 17.2308 12.1882 17.6389 12.369ZM16.6538 13.3724C16.5301 13.5533 16.5227 13.648 16.5586 13.8632C16.6465 14.0097 16.6465 14.0097 16.793 14.0975C17.0081 14.1334 17.1028 14.1261 17.2837 14.0023C17.4074 13.8215 17.4148 13.7267 17.3789 13.5116C17.291 13.3651 17.291 13.3651 17.1445 13.2772C16.9294 13.2414 16.8347 13.2487 16.6538 13.3724Z" fill="#654ADA"/>
<path d="M24.8308 9.67251C25.1556 9.94431 25.3816 10.2247 25.4259 10.6565C25.4315 11.1574 25.4124 11.5016 25.0602 11.8712C24.8588 12.0575 24.7402 12.1548 24.4687 12.2227C24.4687 13.3249 24.4687 14.427 24.4687 15.5626C24.1594 15.5626 23.85 15.5626 23.5312 15.5626C23.5312 14.4604 23.5312 13.3583 23.5312 12.2227C23.4346 12.184 23.3379 12.1454 23.2383 12.1055C22.9382 11.8972 22.6616 11.6581 22.5937 11.2852C22.5502 10.8232 22.5248 10.3728 22.8281 9.99615C23.3826 9.42464 24.1275 9.17986 24.8308 9.67251ZM23.6851 10.5601C23.5613 10.741 23.554 10.8357 23.5898 11.0508C23.6777 11.1973 23.6777 11.1973 23.8242 11.2852C24.0394 11.3211 24.1341 11.3138 24.3149 11.19C24.4387 11.0091 24.446 10.9144 24.4102 10.6993C24.3223 10.5528 24.3223 10.5528 24.1758 10.4649C23.9606 10.429 23.8659 10.4364 23.6851 10.5601Z" fill="#654ADA"/>
<path d="M22.5938 22.125C23.5219 22.125 24.45 22.125 25.4062 22.125C25.4062 22.4344 25.4062 22.7437 25.4062 23.0625C24.4781 23.0625 23.55 23.0625 22.5938 23.0625C22.5938 22.7531 22.5938 22.4437 22.5938 22.125Z" fill="#654ADA"/>
<path d="M22.5938 20.25C23.5219 20.25 24.45 20.25 25.4062 20.25C25.4062 20.5594 25.4062 20.8687 25.4062 21.1875C24.4781 21.1875 23.55 21.1875 22.5938 21.1875C22.5938 20.8781 22.5938 20.5687 22.5938 20.25Z" fill="#654ADA"/>
<path d="M22.5938 18.375C23.5219 18.375 24.45 18.375 25.4062 18.375C25.4062 18.6844 25.4062 18.9937 25.4062 19.3125C24.4781 19.3125 23.55 19.3125 22.5938 19.3125C22.5938 19.0031 22.5938 18.6937 22.5938 18.375Z" fill="#654ADA"/>
<path d="M27.75 23.0625C28.2141 23.0625 28.6781 23.0625 29.1562 23.0625C29.1562 23.3719 29.1562 23.6812 29.1562 24C28.6922 24 28.2281 24 27.75 24C27.75 23.6906 27.75 23.3812 27.75 23.0625Z" fill="#654ADA"/>
<path d="M18.8438 23.0625C19.3078 23.0625 19.7719 23.0625 20.25 23.0625C20.25 23.3719 20.25 23.6812 20.25 24C19.7859 24 19.3219 24 18.8438 24C18.8438 23.6906 18.8438 23.3812 18.8438 23.0625Z" fill="#654ADA"/>
<path d="M27.75 21.1875C28.2141 21.1875 28.6781 21.1875 29.1562 21.1875C29.1562 21.4969 29.1562 21.8062 29.1562 22.125C28.6922 22.125 28.2281 22.125 27.75 22.125C27.75 21.8156 27.75 21.5062 27.75 21.1875Z" fill="#654ADA"/>
<path d="M18.8438 21.1875C19.3078 21.1875 19.7719 21.1875 20.25 21.1875C20.25 21.4969 20.25 21.8062 20.25 22.125C19.7859 22.125 19.3219 22.125 18.8438 22.125C18.8438 21.8156 18.8438 21.5062 18.8438 21.1875Z" fill="#654ADA"/>
<path d="M32.4375 24.9375C32.7469 24.9375 33.0562 24.9375 33.375 24.9375C33.375 25.2469 33.375 25.5562 33.375 25.875C33.0656 25.875 32.7562 25.875 32.4375 25.875C32.4375 25.5656 32.4375 25.2562 32.4375 24.9375Z" fill="#654ADA"/>
<path d="M14.625 24.9375C14.9344 24.9375 15.2437 24.9375 15.5625 24.9375C15.5625 25.2469 15.5625 25.5562 15.5625 25.875C15.2531 25.875 14.9437 25.875 14.625 25.875C14.625 25.5656 14.625 25.2562 14.625 24.9375Z" fill="#654ADA"/>
</svg>
