<svg width="48" height="48" viewBox="0 0 48 48" fill="none" xmlns="http://www.w3.org/2000/svg">
<rect x="0.5" y="0.5" width="47" height="47" rx="7.5" fill="#FEFEFE"/>
<rect x="0.5" y="0.5" width="47" height="47" rx="7.5" stroke="#F0ECFF"/>
<path d="M23.9707 10.3293C24.014 10.3276 24.0574 10.3259 24.1021 10.3241C24.8372 10.3159 25.5352 10.7019 26.1993 10.9833C26.4202 11.0769 26.6413 11.1699 26.8625 11.2629C26.9795 11.3122 27.0965 11.3615 27.2136 11.4109C27.8016 11.6587 28.3907 11.9041 28.98 12.1492C29.2743 12.2717 29.5685 12.3943 29.8628 12.5169C29.9208 12.5411 29.9787 12.5652 30.0385 12.5901C31.8158 13.3307 31.8158 13.3307 32.6782 13.694C32.9573 13.8114 33.2372 13.9267 33.5178 14.0406C34.3349 14.376 35.0317 14.7502 35.4253 15.5909C35.6413 16.1297 35.6988 16.7251 35.7553 17.2982C35.7627 17.3702 35.77 17.4421 35.7775 17.5163C36.2735 22.5373 35.466 28.2714 32.2297 32.3221C32.1822 32.3795 32.1348 32.4369 32.0859 32.496C32.0607 32.5267 32.0355 32.5575 32.0096 32.5892C30.249 34.7327 28.0773 36.3149 25.5103 37.3741C25.4194 37.4123 25.3298 37.4537 25.2405 37.4955C24.4669 37.8178 23.4369 37.7695 22.6654 37.4621C22.5852 37.4279 22.5054 37.3929 22.426 37.3571C22.2925 37.2969 22.1577 37.2407 22.0224 37.1846C18.1934 35.5625 15.209 32.4074 13.6371 28.5801C12.1993 24.9615 11.1311 19.3718 12.565 15.586C12.6763 15.3549 12.8143 15.1673 12.9844 14.9765C13.011 14.9424 13.0377 14.9083 13.0651 14.8732C13.2726 14.6322 13.518 14.4905 13.8003 14.3516C13.8615 14.3213 13.8615 14.3213 13.9239 14.2905C14.41 14.054 14.9097 13.8503 15.4103 13.6468C15.6472 13.5505 15.8838 13.4534 16.1204 13.3564C16.2429 13.3061 16.3654 13.2559 16.488 13.2057C17.0866 12.9605 17.6833 12.711 18.2798 12.4606C18.4856 12.3743 18.6914 12.288 18.8973 12.2017C18.949 12.18 19.0008 12.1584 19.0541 12.136C19.6592 11.8824 20.2646 11.6296 20.8701 11.3771C20.9918 11.3263 21.1136 11.2755 21.2353 11.2247C22.3213 10.7713 22.3213 10.7713 22.8656 10.5517C22.9327 10.5247 22.9998 10.4976 23.0689 10.4697C23.3732 10.3555 23.6466 10.3333 23.9707 10.3293ZM22.8647 11.622C22.7552 11.6697 22.6457 11.7173 22.5361 11.7648C22.4554 11.7999 22.3748 11.8351 22.2943 11.8706C21.7718 12.1006 21.2437 12.3173 20.7162 12.5358C20.4117 12.6621 20.1075 12.7891 19.8032 12.9161C19.7425 12.9414 19.6817 12.9667 19.6192 12.9928C18.7509 13.3551 17.8829 13.7181 17.0153 14.0821C16.7042 14.2126 16.3928 14.3423 16.0812 14.4716C15.8753 14.557 15.6696 14.6428 15.4638 14.7286C15.3675 14.7687 15.2711 14.8087 15.1746 14.8485C14.2032 15.2266 14.2032 15.2266 13.5117 15.9726C13.3386 16.4053 13.2871 16.8561 13.2407 17.3166C13.2334 17.3865 13.2261 17.4565 13.2185 17.5286C12.7102 22.5447 13.5968 28.0147 16.8332 32.0236C16.9168 32.123 17.001 32.2219 17.0859 32.3202C17.1251 32.3659 17.1643 32.4116 17.2047 32.4587C17.8461 33.1884 18.5298 33.854 19.3125 34.4296C19.3626 34.4671 19.3626 34.4671 19.4138 34.5053C19.9258 34.8869 20.4556 35.2292 21.0117 35.5429C21.0534 35.5664 21.0952 35.59 21.1382 35.6143C22.8546 36.5958 22.8546 36.5958 24.7617 36.5976C25.0024 36.5095 25.2352 36.4069 25.4685 36.3009C25.533 36.272 25.5975 36.243 25.6639 36.2131C27.2629 35.4871 28.7093 34.535 29.9765 33.3163C30.0082 33.2859 30.0399 33.2555 30.0725 33.2242C30.5019 32.8098 30.9021 32.3847 31.2656 31.9101C31.2902 31.8782 31.3148 31.8464 31.3401 31.8136C34.5733 27.6069 35.3448 21.992 34.7043 16.8405C34.6214 16.2438 34.4931 15.8065 34.0189 15.413C33.8252 15.2718 33.6169 15.1797 33.3969 15.0863C33.3461 15.0641 33.2952 15.0419 33.2429 15.019C32.6802 14.775 32.1126 14.5424 31.5453 14.3093C30.9214 14.0529 30.2989 13.7931 29.6762 13.5336C29.6164 13.5087 29.5567 13.4838 29.495 13.4581C28.7813 13.1607 28.0677 12.8628 27.3546 12.5637C27.0854 12.4508 26.8161 12.3381 26.5466 12.2259C26.1244 12.05 25.7027 11.8739 25.2847 11.6881C25.1968 11.6499 25.1968 11.6499 25.1072 11.6108C25.0083 11.5676 24.9098 11.5233 24.8121 11.4774C24.1418 11.188 23.503 11.3295 22.8647 11.622Z" fill="#654ADA"/>
<path d="M24.9082 12.6581C24.9558 12.6781 25.0034 12.6982 25.0524 12.7188C25.2095 12.7851 25.3665 12.8518 25.5235 12.9186C25.6354 12.9658 25.7473 13.0131 25.8592 13.0602C26.0353 13.1344 26.2113 13.2087 26.3873 13.283C26.9773 13.5323 27.5686 13.7786 28.16 14.0246C28.4539 14.1468 28.7478 14.2692 29.0416 14.3916C29.1285 14.4278 29.1285 14.4278 29.2171 14.4648C29.8477 14.7276 30.478 14.9912 31.1082 15.255C31.1589 15.2762 31.2097 15.2975 31.262 15.3194C31.3112 15.34 31.3604 15.3606 31.4111 15.3818C31.4594 15.402 31.5077 15.4222 31.5574 15.443C31.6519 15.4826 31.7463 15.5223 31.8407 15.5621C32.0846 15.6648 32.3291 15.7658 32.5747 15.8644C32.6258 15.8852 32.6768 15.9059 32.7294 15.9273C32.8269 15.9669 32.9246 16.006 33.0225 16.0445C33.4264 16.2099 33.4264 16.2099 33.5508 16.4415C34.7467 19.9019 33.7321 25.1822 32.2102 28.3777C32.169 28.4616 32.1276 28.5453 32.086 28.629C32.0617 28.6781 32.0375 28.7272 32.0125 28.7778C31.3667 30.076 30.5694 31.2154 29.5664 32.2618C29.537 32.2929 29.5075 32.3239 29.4772 32.3559C29.0135 32.8426 28.5235 33.2673 27.9844 33.6681C27.9517 33.6929 27.919 33.7177 27.8854 33.7433C26.8872 34.5012 25.0586 35.8105 23.7656 35.6603C23.5782 35.6095 23.4023 35.5383 23.2236 35.4625C23.1729 35.4415 23.1222 35.4205 23.07 35.3988C21.7129 34.8263 20.4869 34.104 19.3711 33.1407C19.3185 33.0957 19.2658 33.0507 19.2116 33.0043C19.0664 32.8769 18.9253 32.7464 18.7852 32.6134C18.7388 32.5694 18.7388 32.5694 18.6914 32.5245C18.185 32.0407 17.737 31.5351 17.3203 30.9728C17.2705 30.9071 17.2207 30.8415 17.1709 30.7759C14.3888 27.0559 13.8478 21.989 14.2735 17.4962C14.2781 17.4466 14.2828 17.397 14.2877 17.3459C14.3673 16.5491 14.3673 16.5491 14.5664 16.2657C14.9249 16.0495 15.3235 15.8951 15.7106 15.7377C15.7627 15.7163 15.8148 15.6949 15.8685 15.6728C15.9803 15.6269 16.0922 15.581 16.2042 15.5353C16.5069 15.4115 16.8093 15.287 17.1118 15.1625C17.1737 15.1371 17.2355 15.1117 17.2992 15.0855C17.9006 14.8381 18.5005 14.5874 19.1001 14.3358C19.3058 14.2496 19.5115 14.1634 19.7172 14.0772C19.7689 14.0555 19.8206 14.0338 19.8739 14.0115C20.4814 13.7569 21.089 13.5027 21.6969 13.2491C21.8194 13.1979 21.942 13.1467 22.0645 13.0955C22.3902 12.9592 22.7163 12.8241 23.0429 12.6899C23.167 12.6382 23.2901 12.5847 23.413 12.5303C23.4788 12.5023 23.5445 12.4743 23.6123 12.4455C23.6658 12.4218 23.7194 12.3981 23.7746 12.3737C24.161 12.2956 24.5578 12.508 24.9082 12.6581ZM23.6555 13.5134C23.5638 13.5533 23.5638 13.5533 23.4701 13.5939C23.4021 13.6236 23.334 13.6533 23.2639 13.6839C22.5636 13.9874 21.86 14.2824 21.1546 14.5738C20.9481 14.6592 20.7416 14.7446 20.5352 14.83C20.4831 14.8515 20.431 14.8731 20.3772 14.8953C20.0026 15.0504 19.6284 15.2065 19.2544 15.3632C19.1746 15.3966 19.1746 15.3966 19.0933 15.4307C18.828 15.5418 18.563 15.6533 18.2981 15.7654C17.7955 15.9777 17.2919 16.1838 16.7815 16.3767C16.6426 16.4303 16.5037 16.484 16.3648 16.5377C16.2778 16.5708 16.1904 16.6031 16.1027 16.6345C15.6441 16.7791 15.6441 16.7791 15.3113 17.0966C15.2762 17.2532 15.2701 17.3944 15.2695 17.5548C15.2576 17.6729 15.2453 17.791 15.2325 17.9091C14.9589 21.4096 15.2769 25.0882 16.8516 28.2774C16.8824 28.3401 16.8824 28.3401 16.9138 28.404C17.5011 29.5858 18.2614 30.6392 19.173 31.5913C19.2448 31.6664 19.3159 31.7423 19.3869 31.8182C20.3748 32.8483 21.6623 33.6367 22.9417 34.2503C22.986 34.2718 23.0303 34.2932 23.0759 34.3152C23.207 34.3765 23.3389 34.4333 23.4727 34.4884C23.5198 34.5087 23.5669 34.529 23.6154 34.5499C23.9584 34.6785 24.1633 34.6678 24.497 34.519C24.5718 34.4821 24.5718 34.4821 24.6482 34.4444C24.7014 34.4198 24.7546 34.3952 24.8095 34.3698C24.9705 34.2943 25.1299 34.2161 25.2891 34.1368C25.335 34.1144 25.381 34.0919 25.4284 34.0688C26.644 33.4706 27.7093 32.6666 28.6875 31.7345C28.7331 31.692 28.7788 31.6494 28.8258 31.6056C29.2139 31.2333 29.5368 30.8155 29.8594 30.3868C29.8846 30.3538 29.9097 30.3208 29.9357 30.2868C30.3604 29.7272 30.7081 29.1351 31.0313 28.5118C31.052 28.4721 31.0726 28.4323 31.0939 28.3913C32.7138 25.2307 33.1512 21.2817 32.7471 17.7857C32.7305 17.6134 32.7305 17.6134 32.7365 17.4414C32.7316 17.2456 32.7137 17.1382 32.6133 16.9689C32.2919 16.7569 31.9406 16.6354 31.5806 16.5038C31.4725 16.462 31.3645 16.42 31.2567 16.3776C31.0272 16.2878 30.7972 16.1991 30.567 16.111C30.0361 15.9065 29.5124 15.685 28.9881 15.4645C28.7527 15.3656 28.517 15.2674 28.2813 15.1692C27.5798 14.8769 26.8785 14.5839 26.1774 14.2906C26.0705 14.2458 25.9636 14.2011 25.8566 14.1564C25.7082 14.0943 25.5597 14.0322 25.4113 13.97C25.3653 13.9508 25.3194 13.9316 25.272 13.9118C25.0576 13.8219 24.8436 13.7312 24.6304 13.6386C24.5921 13.622 24.5539 13.6054 24.5145 13.5883C24.4127 13.544 24.3112 13.4994 24.2096 13.4548C23.9758 13.3616 23.8803 13.4151 23.6555 13.5134Z" fill="#654ADA"/>
<path d="M26.5012 18.3861C27.2085 19.1258 27.4285 19.9998 27.4089 21.0004C27.4068 21.0794 27.404 21.1582 27.4006 21.2371C27.3757 21.7371 27.3757 21.7371 27.5848 22.173C27.7319 22.3041 27.8845 22.4184 28.0429 22.5352C28.5594 23.1094 28.5381 23.9641 28.533 24.6911C28.5329 24.7779 28.533 24.8647 28.5331 24.9516C28.5331 25.1322 28.5325 25.3127 28.5314 25.4933C28.5301 25.7232 28.53 25.953 28.5304 26.1829C28.5306 26.3617 28.5302 26.5405 28.5297 26.7194C28.5294 26.8041 28.5294 26.8888 28.5295 26.9735C28.5296 27.7846 28.4364 28.3887 28.0027 29.0794C27.5372 29.5449 27.0072 29.817 26.3459 29.8253C26.2973 29.8251 26.2487 29.8248 26.1986 29.8245C26.1459 29.8249 26.0931 29.8253 26.0388 29.8257C25.8659 29.8268 25.6931 29.8266 25.5202 29.8263C25.399 29.8265 25.2778 29.8268 25.1566 29.8272C24.9032 29.8277 24.6498 29.8276 24.3963 29.827C24.0729 29.8263 23.7495 29.8275 23.4261 29.8292C23.1759 29.8303 22.9258 29.8303 22.6757 29.8299C22.5565 29.8299 22.4373 29.8303 22.3181 29.831C21.5049 29.8353 20.7479 29.8235 20.1328 29.2149C19.6566 28.6439 19.4822 28.0899 19.4797 27.3471C19.4795 27.3091 19.4793 27.2711 19.4791 27.232C19.4786 27.1076 19.4785 26.9833 19.4784 26.859C19.4782 26.7717 19.478 26.6844 19.4778 26.597C19.4775 26.4143 19.4774 26.2317 19.4774 26.049C19.4774 25.8164 19.4766 25.5837 19.4756 25.3511C19.4749 25.1707 19.4748 24.9904 19.4749 24.8101C19.4748 24.7244 19.4745 24.6387 19.4741 24.553C19.47 23.7135 19.5243 22.9573 20.1401 22.3301C20.2709 22.206 20.3921 22.1084 20.5429 22.0079C20.5691 21.8337 20.5691 21.8337 20.5647 21.6279C20.5657 21.5493 20.5667 21.4706 20.5678 21.392C20.5684 21.269 20.5686 21.146 20.5685 21.023C20.5703 19.9866 20.8154 19.1086 21.5427 18.3311C22.0545 17.8452 22.6554 17.5053 23.3554 17.379C23.4223 17.3656 23.4223 17.3656 23.4905 17.352C24.6336 17.1788 25.6755 17.6148 26.5012 18.3861ZM22.2444 19.0645C21.5349 19.842 21.5976 20.6535 21.5976 21.7149C23.1832 21.7149 24.7687 21.7149 26.4023 21.7149C26.4261 20.2243 26.4261 20.2243 25.7102 19.0233C24.6935 18.0722 23.2446 18.1244 22.2444 19.0645ZM20.7553 23.1688C20.7283 23.2054 20.7013 23.242 20.6734 23.2798C20.513 23.5796 20.4696 23.8814 20.4683 24.2175C20.4677 24.2932 20.4671 24.3689 20.4666 24.4468C20.4666 24.5285 20.4666 24.6101 20.4667 24.6918C20.4665 24.7766 20.4662 24.8615 20.466 24.9463C20.4655 25.1237 20.4655 25.3011 20.4658 25.4785C20.4662 25.7046 20.4652 25.9307 20.4638 26.1568C20.463 26.3319 20.4629 26.507 20.4631 26.6822C20.4631 26.7655 20.4628 26.8488 20.4622 26.9321C20.4583 27.5496 20.4805 28.0785 20.9176 28.5447C21.2756 28.8653 21.7097 28.8722 22.1668 28.8719C22.2107 28.8721 22.2546 28.8723 22.2998 28.8725C22.444 28.873 22.5882 28.8731 22.7324 28.8732C22.8333 28.8734 22.9341 28.8736 23.0349 28.8738C23.246 28.8741 23.4571 28.8742 23.6682 28.8742C23.9379 28.8742 24.2075 28.875 24.4772 28.876C24.6854 28.8767 24.8936 28.8768 25.1018 28.8768C25.2012 28.8768 25.3005 28.8771 25.3999 28.8775C25.5393 28.8781 25.6786 28.8779 25.818 28.8776C25.8584 28.8779 25.8989 28.8782 25.9407 28.8786C26.4546 28.8753 26.8635 28.7538 27.2336 28.3836C27.5497 27.8931 27.5418 27.3808 27.5389 26.8126C27.5391 26.7279 27.5392 26.6432 27.5395 26.5585C27.5397 26.3818 27.5393 26.2051 27.5385 26.0284C27.5375 25.8032 27.5381 25.5781 27.5391 25.3529C27.5398 25.1783 27.5396 25.0037 27.5391 24.829C27.539 24.7461 27.5391 24.6631 27.5396 24.5801C27.5417 24.0277 27.5209 23.5712 27.2116 23.1029C26.8665 22.773 26.5281 22.6758 26.059 22.6807C26.0094 22.6803 25.9598 22.6799 25.9087 22.6794C25.746 22.6784 25.5835 22.6791 25.4209 22.6799C25.3071 22.6797 25.1932 22.6795 25.0794 22.6792C24.8414 22.6789 24.6035 22.6794 24.3655 22.6805C24.0613 22.6818 23.7571 22.681 23.4529 22.6796C23.2181 22.6788 22.9832 22.679 22.7484 22.6796C22.6363 22.6798 22.5241 22.6796 22.412 22.6791C22.255 22.6785 22.098 22.6794 21.9409 22.6807C21.8952 22.6802 21.8494 22.6797 21.8022 22.6792C21.3892 22.6855 21.0014 22.8196 20.7553 23.1688Z" fill="#654ADA"/>
<path d="M24.6079 23.7986C24.9758 24.0174 25.207 24.3284 25.3236 24.7389C25.394 25.1493 25.3193 25.4901 25.0821 25.8306C24.9244 26.0194 24.7489 26.1744 24.5273 26.2852C24.527 26.3393 24.527 26.3393 24.5266 26.3944C24.5247 26.5583 24.5205 26.722 24.5163 26.8858C24.516 26.9425 24.5156 26.9992 24.5153 27.0577C24.5022 27.4782 24.5022 27.4782 24.3302 27.6704C24.1396 27.7687 24.036 27.7853 23.8242 27.75C23.6683 27.6695 23.6683 27.6695 23.5312 27.5157C23.4851 27.2567 23.5031 26.9937 23.51 26.7317C23.5095 26.5764 23.5066 26.4369 23.4726 26.2852C23.3124 26.1332 23.3124 26.1332 23.1211 26.0508C22.827 25.7568 22.6667 25.4451 22.6445 25.0243C22.6659 24.6159 22.8075 24.3198 23.0911 24.0273C23.5071 23.6586 24.0954 23.5685 24.6079 23.7986ZM23.707 24.8204C23.6432 24.9584 23.6432 24.9584 23.6484 25.1133C23.7326 25.261 23.7326 25.261 23.8828 25.3477C24.0672 25.3625 24.0672 25.3625 24.2343 25.2891C24.3318 25.1577 24.3318 25.1577 24.3515 24.9961C24.332 24.8594 24.332 24.8594 24.2343 24.7618C23.9915 24.6894 23.9225 24.6767 23.707 24.8204Z" fill="#654ADA"/>
</svg>
