<svg width="30" height="30" viewBox="0 0 30 30" fill="none" xmlns="http://www.w3.org/2000/svg">
<path d="M16.2282 11.1487C16.6204 11.4815 16.8503 11.8951 16.8936 12.407C16.9173 12.9787 16.8457 13.4094 16.4795 13.8611C16.4143 13.9318 16.4143 13.9318 16.3477 14.004C16.3908 14.0104 16.4339 14.0168 16.4784 14.0234C16.9603 14.1017 16.9603 14.1017 17.1607 14.2237C17.2018 14.2479 17.2428 14.272 17.2852 14.2969C17.4358 14.2611 17.4358 14.2611 17.5781 14.1797C17.8333 14.0625 18.0625 14.0322 18.3399 14.004C18.3165 13.9798 18.2932 13.9556 18.2691 13.9307C17.8434 13.4666 17.7701 13.0302 17.7924 12.4169C17.8336 11.9475 18.0065 11.5833 18.3284 11.2397C18.7457 10.893 19.2488 10.7002 19.791 10.7103C20.3104 10.7594 20.7807 10.9817 21.14 11.3606C21.5745 11.9053 21.6239 12.4521 21.5625 13.125C21.4713 13.4798 21.2807 13.738 21.0352 14.004C21.0776 14.0097 21.1201 14.0154 21.1638 14.0213C21.679 14.101 21.9674 14.2623 22.3068 14.6556C22.4803 14.9068 22.5145 15.1291 22.5133 15.4308C22.5133 15.5046 22.5133 15.5785 22.5133 15.6546C22.5127 15.7347 22.5121 15.8147 22.5115 15.8947C22.5112 15.9771 22.5111 16.0594 22.511 16.1418C22.5105 16.3578 22.5094 16.5739 22.5081 16.79C22.5069 17.0107 22.5063 17.2314 22.5057 17.4522C22.5045 17.8848 22.5025 18.3174 22.5 18.75C22.5627 18.7488 22.6254 18.7476 22.6899 18.7463C22.9227 18.7421 23.1555 18.7394 23.3884 18.7372C23.4891 18.736 23.5898 18.7344 23.6905 18.7324C23.8354 18.7295 23.9802 18.7282 24.1251 18.7272C24.1925 18.7253 24.1925 18.7253 24.2612 18.7235C24.4644 18.7234 24.5864 18.734 24.7549 18.8516C24.8555 19.0019 24.8739 19.0775 24.8749 19.2568C24.8754 19.3102 24.8759 19.3637 24.8763 19.4187C24.8753 19.476 24.8742 19.5333 24.8731 19.5923C24.8721 19.6818 24.8721 19.6818 24.8711 19.7731C24.8045 22.4427 23.4766 24.8242 21.5808 26.6346C20.4109 27.6972 18.9779 28.4221 17.4536 28.8135C17.4082 28.8252 17.3628 28.8368 17.3161 28.8489C16.5522 29.034 15.8004 29.0846 15.0183 29.0809C14.9719 29.0808 14.9254 29.0806 14.8776 29.0805C14.1822 29.0778 13.5107 29.0507 12.8321 28.8868C12.7895 28.877 12.7469 28.8673 12.703 28.8572C10.1784 28.2678 7.93152 26.6306 6.56252 24.4336C5.93633 23.3688 5.53829 22.2965 5.27346 21.0938C5.25888 21.029 5.24431 20.9642 5.22929 20.8974C5.14984 20.4763 5.14107 20.0527 5.1343 19.6253C5.13277 19.5659 5.13123 19.5066 5.12965 19.4454C5.12953 19.3893 5.1294 19.3332 5.12927 19.2753C5.12879 19.2249 5.1283 19.1746 5.12781 19.1227C5.16815 18.9268 5.22592 18.8635 5.39065 18.75C5.55997 18.7296 5.70623 18.7226 5.87496 18.7272C5.92145 18.7275 5.96794 18.7278 6.01584 18.7282C6.16392 18.7295 6.31192 18.7324 6.45999 18.7354C6.56054 18.7366 6.6611 18.7376 6.76165 18.7386C7.00781 18.7412 7.2539 18.7452 7.50002 18.75C7.4995 18.7048 7.49898 18.6596 7.49845 18.6131C7.49374 18.1855 7.49018 17.758 7.48788 17.3304C7.48666 17.1107 7.48501 16.8909 7.48234 16.6711C7.47978 16.4588 7.47839 16.2464 7.47779 16.034C7.47736 15.9533 7.47652 15.8726 7.47524 15.7918C7.46714 15.2558 7.49049 14.885 7.84129 14.4606C8.11889 14.2214 8.37403 14.0906 8.73049 14.004C8.70715 13.9756 8.68382 13.9472 8.65977 13.9179C8.25045 13.4 8.13483 12.9699 8.20315 12.3047C8.30412 11.8227 8.53073 11.4515 8.90627 11.1329C9.47207 10.7825 10.0617 10.6785 10.7165 10.8172C11.2547 11.0096 11.6418 11.388 11.9019 11.89C12.0881 12.3324 12.0965 12.8816 11.9394 13.3329C11.8145 13.5863 11.6961 13.8132 11.4844 14.004C11.546 14.0062 11.546 14.0062 11.6089 14.0085C11.8983 14.0258 12.1304 14.0457 12.3853 14.1907C12.5572 14.2923 12.5572 14.2923 12.7552 14.2603C12.8222 14.2204 12.8222 14.2204 12.8906 14.1797C13.1458 14.0625 13.375 14.0322 13.6524 14.004C13.629 13.9798 13.6057 13.9556 13.5816 13.9307C13.1559 13.4666 13.0826 13.0302 13.1049 12.4169C13.1461 11.9475 13.319 11.5833 13.6409 11.2397C14.4277 10.586 15.4062 10.5605 16.2282 11.1487ZM9.37502 12.0704C9.19682 12.329 9.14603 12.5816 9.19924 12.8907C9.28341 13.1251 9.40554 13.2748 9.58743 13.4437C9.85543 13.5677 10.0805 13.5747 10.3711 13.5352C10.6263 13.4331 10.822 13.2478 10.9571 13.0079C11.0335 12.7479 11.0385 12.5466 10.9497 12.2901C10.7891 12.0544 10.6462 11.8691 10.3711 11.7774C9.96051 11.7271 9.66708 11.7629 9.37502 12.0704ZM14.2163 12.1656C14.0872 12.4338 14.0744 12.6566 14.1211 12.9493C14.2576 13.2328 14.4235 13.3987 14.7071 13.5352C14.9997 13.5819 15.2225 13.5691 15.4907 13.44C15.7008 13.25 15.8552 13.0978 15.9014 12.8087C15.9164 12.4757 15.8752 12.2667 15.6446 12.0118C15.3896 11.7811 15.1806 11.74 14.8476 11.755C14.5585 11.8011 14.4063 11.9556 14.2163 12.1656ZM18.9038 12.1656C18.7747 12.4338 18.7619 12.6566 18.8086 12.9493C18.9451 13.2328 19.111 13.3987 19.3946 13.5352C19.6872 13.5819 19.91 13.5691 20.1782 13.44C20.3883 13.25 20.5427 13.0978 20.5889 12.8087C20.6039 12.4757 20.5627 12.2667 20.3321 12.0118C20.0771 11.7811 19.8681 11.74 19.5351 11.755C19.246 11.8011 19.0938 11.9556 18.9038 12.1656ZM8.55471 15.1758C8.44647 15.3902 8.42314 15.5648 8.42422 15.8033C8.42424 15.8698 8.42425 15.9364 8.42426 16.005C8.42486 16.0744 8.42546 16.1437 8.42608 16.2152C8.4262 16.2794 8.42632 16.3436 8.42644 16.4098C8.42705 16.6491 8.42869 16.8884 8.4302 17.1277C8.43262 17.6631 8.43503 18.1985 8.43752 18.75C9.67502 18.75 10.9125 18.75 12.1875 18.75C12.1911 18.2159 12.1948 17.6817 12.1985 17.1314C12.2001 16.9633 12.2017 16.7952 12.2034 16.622C12.2039 16.4883 12.2043 16.3546 12.2047 16.2209C12.2056 16.1519 12.2065 16.0828 12.2074 16.0117C12.2157 15.5356 12.2157 15.5356 12.0117 15.1172C11.8136 15.0204 11.6523 14.9852 11.4329 14.984C11.3778 14.9834 11.3226 14.9828 11.2658 14.9823C11.2069 14.9823 11.148 14.9824 11.0873 14.9824C10.9955 14.982 10.9955 14.982 10.9019 14.9817C10.7727 14.9813 10.6435 14.9813 10.5144 14.9816C10.3171 14.9817 10.1199 14.9804 9.92262 14.9789C9.79693 14.9787 9.67124 14.9787 9.54554 14.9788C9.48675 14.9782 9.42797 14.9777 9.3674 14.9771C9.05737 14.9792 8.81417 14.9858 8.55471 15.1758ZM13.2422 15.1758C13.134 15.3902 13.1106 15.5648 13.1117 15.8033C13.1117 15.8698 13.1117 15.9364 13.1118 16.005C13.1124 16.0744 13.113 16.1437 13.1136 16.2152C13.1137 16.2794 13.1138 16.3436 13.1139 16.4098C13.1146 16.6491 13.1162 16.8884 13.1177 17.1277C13.1201 17.6631 13.1225 18.1985 13.125 18.75C14.3625 18.75 15.6 18.75 16.875 18.75C16.8786 18.2159 16.8823 17.6817 16.886 17.1314C16.8876 16.9633 16.8892 16.7952 16.8909 16.622C16.8914 16.4883 16.8918 16.3546 16.8922 16.2209C16.8931 16.1519 16.894 16.0828 16.8949 16.0117C16.9032 15.5356 16.9032 15.5356 16.6992 15.1172C16.5011 15.0204 16.3398 14.9852 16.1204 14.984C16.0653 14.9834 16.0101 14.9828 15.9533 14.9823C15.8944 14.9823 15.8355 14.9824 15.7748 14.9824C15.683 14.982 15.683 14.982 15.5894 14.9817C15.4602 14.9813 15.331 14.9813 15.2019 14.9816C15.0046 14.9817 14.8074 14.9804 14.6101 14.9789C14.4844 14.9787 14.3587 14.9787 14.233 14.9788C14.1743 14.9782 14.1155 14.9777 14.0549 14.9771C13.7449 14.9792 13.5017 14.9858 13.2422 15.1758ZM17.9297 15.1758C17.8215 15.3902 17.7981 15.5648 17.7992 15.8033C17.7992 15.8698 17.7992 15.9364 17.7993 16.005C17.7999 16.0744 17.8005 16.1437 17.8011 16.2152C17.8012 16.2794 17.8013 16.3436 17.8014 16.4098C17.802 16.6491 17.8037 16.8884 17.8052 17.1277C17.8076 17.6631 17.81 18.1985 17.8125 18.75C19.05 18.75 20.2875 18.75 21.5625 18.75C21.5661 18.2159 21.5698 17.6817 21.5735 17.1314C21.5751 16.9633 21.5767 16.7952 21.5784 16.622C21.5789 16.4883 21.5793 16.3546 21.5797 16.2209C21.5806 16.1519 21.5815 16.0828 21.5824 16.0117C21.5907 15.5356 21.5907 15.5356 21.3867 15.1172C21.1886 15.0204 21.0273 14.9852 20.8079 14.984C20.7528 14.9834 20.6976 14.9828 20.6408 14.9823C20.5819 14.9823 20.523 14.9824 20.4623 14.9824C20.3705 14.982 20.3705 14.982 20.2769 14.9817C20.1477 14.9813 20.0185 14.9813 19.8894 14.9816C19.6921 14.9817 19.4949 14.9804 19.2976 14.9789C19.1719 14.9787 19.0462 14.9787 18.9205 14.9788C18.8618 14.9782 18.803 14.9777 18.7424 14.9771C18.4324 14.9792 18.1892 14.9858 17.9297 15.1758ZM6.15237 19.6875C6.15237 20.1294 6.18693 20.4855 6.27322 20.9107C6.28622 20.9748 6.29922 21.039 6.31261 21.1051C6.50297 21.9979 6.83504 22.811 7.26565 23.6133C7.30566 23.6007 7.34567 23.588 7.3869 23.5749C8.23917 23.3062 9.09087 23.0559 9.96096 22.8516C9.94906 22.7564 9.93716 22.6612 9.92526 22.5661C9.9147 22.4815 9.90417 22.397 9.89367 22.3125C9.86777 22.1044 9.84143 21.8964 9.81402 21.6884C9.72703 21.0215 9.67047 20.3594 9.6094 19.6875C8.46858 19.6875 7.32776 19.6875 6.15237 19.6875ZM10.6055 19.6875C10.656 20.7058 10.656 20.7058 10.7813 21.709C10.7917 21.7772 10.8021 21.8454 10.8129 21.9157C10.8713 22.2985 10.8713 22.2985 10.9571 22.6758C11.0262 22.6687 11.0953 22.6616 11.1665 22.6543C11.5066 22.6201 11.847 22.589 12.1875 22.5586C12.25 22.553 12.3124 22.5474 12.3767 22.5416C14.1894 22.3833 16.0006 22.3953 17.8125 22.5586C17.8757 22.5643 17.9389 22.5699 18.004 22.5757C18.3506 22.6069 18.6968 22.6403 19.043 22.6758C19.2417 21.6862 19.3946 20.699 19.3946 19.6875C16.4942 19.6875 13.5938 19.6875 10.6055 19.6875ZM20.3906 19.6875C20.3187 20.3781 20.3187 20.3781 20.2469 21.0686C20.1848 21.664 20.1161 22.258 20.0391 22.8516C20.0895 22.8643 20.1399 22.8769 20.1919 22.89C20.3836 22.9383 20.5753 22.987 20.7669 23.0358C20.8489 23.0566 20.931 23.0774 21.0131 23.098C21.5968 23.2446 22.166 23.4152 22.7344 23.6133C23.37 22.3692 23.8477 21.1013 23.8477 19.6875C22.7069 19.6875 21.566 19.6875 20.3906 19.6875ZM11.25 23.6133C11.2808 23.9859 11.3722 24.2937 11.5137 24.6387C11.5341 24.6892 11.5545 24.7397 11.5755 24.7918C11.7792 25.2823 12.0335 25.7359 12.3047 26.1915C12.3815 26.1873 12.4582 26.1832 12.5373 26.1789C13.2992 26.1398 14.059 26.1236 14.8218 26.1252C15 26.1255 15.1781 26.1252 15.3562 26.1249C16.1374 26.1246 16.9153 26.1493 17.6953 26.1915C17.9956 25.687 18.2662 25.184 18.4864 24.6387C18.5061 24.5905 18.5259 24.5422 18.5463 24.4925C18.6623 24.1968 18.7239 23.93 18.75 23.6133C18.4974 23.5848 18.2447 23.5569 17.992 23.5291C17.9221 23.5212 17.8522 23.5133 17.7801 23.5052C16.8669 23.4053 15.9586 23.3669 15.0403 23.368C14.9924 23.368 14.9445 23.368 14.8951 23.368C13.6736 23.3692 12.4609 23.4507 11.25 23.6133ZM9.25051 24.0088C9.19061 24.0247 9.13071 24.0407 9.069 24.057C8.65766 24.1677 8.25183 24.2873 7.85159 24.4336C8.0634 24.7836 8.3342 25.0736 8.61331 25.3711C8.6624 25.4241 8.7115 25.477 8.76208 25.5316C9.04944 25.8312 9.34794 26.1024 9.67898 26.3526C9.71166 26.3785 9.74434 26.4045 9.77801 26.4312C9.96104 26.5637 10.0927 26.6183 10.3137 26.5936C10.3918 26.5785 10.4696 26.5616 10.5469 26.543C10.6128 26.5284 10.6786 26.5139 10.7465 26.4988C10.8063 26.4832 10.8661 26.4676 10.9278 26.4515C10.9888 26.4357 11.0498 26.4199 11.1127 26.4036C11.158 26.3916 11.2033 26.3796 11.25 26.3672C11.2362 26.3376 11.2224 26.3079 11.2081 26.2773C10.4351 24.6104 10.4351 24.6104 10.2539 23.8477C9.90165 23.8214 9.58707 23.9178 9.25051 24.0088ZM19.7461 23.8477C19.7368 23.8785 19.7274 23.9094 19.7178 23.9411C19.4634 24.7678 19.1404 25.5372 18.75 26.3086C18.947 26.44 19.0981 26.4747 19.3286 26.5247C19.3998 26.5406 19.4709 26.5566 19.5442 26.573C19.8349 26.6142 19.9671 26.5898 20.2142 26.4293C20.2797 26.3788 20.3446 26.3276 20.409 26.2757C20.444 26.2477 20.4791 26.2197 20.5152 26.1909C20.8103 25.9496 21.0863 25.6902 21.3574 25.4224C21.396 25.3847 21.4345 25.3469 21.4742 25.3081C21.7398 25.0399 21.9498 24.7542 22.1485 24.4336C21.9056 24.3576 21.6627 24.2821 21.4197 24.2066C21.3515 24.1852 21.2832 24.1638 21.2129 24.1418C20.4937 23.9069 20.4937 23.9069 19.7461 23.8477ZM11.543 27.3047C11.7041 27.5152 11.938 27.5737 12.1802 27.6526C12.2265 27.6678 12.2729 27.683 12.3206 27.6986C14.2308 28.2989 16.5727 28.3445 18.3985 27.4219C18.4178 27.3833 18.4371 27.3446 18.4571 27.3047C18.2581 27.2763 18.0591 27.2483 17.8601 27.2205C17.805 27.2126 17.7499 27.2047 17.6932 27.1966C16.8149 27.0745 15.9439 27.0565 15.0586 27.0557C14.9655 27.0555 14.9655 27.0555 14.8705 27.0554C13.7497 27.0548 12.6487 27.1077 11.543 27.3047Z" fill="#654ADA"/>
<path d="M14.8664 0.91131C14.9958 0.911808 15.1251 0.910122 15.2545 0.908263C15.3374 0.908168 15.4204 0.908202 15.5034 0.908377C15.5782 0.908269 15.6531 0.90816 15.7302 0.908048C15.9737 0.942573 16.0991 1.01827 16.2891 1.17182C16.4613 1.43008 16.4833 1.6265 16.4649 1.93354C16.506 1.93837 16.5471 1.94321 16.5894 1.94819C16.7579 1.99213 16.7579 1.99213 16.9263 2.12031C17.1037 2.25094 17.1037 2.25094 17.3035 2.18256C17.3748 2.15839 17.4461 2.13422 17.5196 2.10932C17.7961 2.07355 17.9901 2.08039 18.241 2.2082C18.6878 2.59266 19.1288 3.251 19.265 3.82891C19.2729 4.08885 19.2317 4.25008 19.1199 4.48603C18.9844 4.62885 18.9844 4.62885 18.6915 4.74604C18.6915 5.01674 18.6915 5.28745 18.6915 5.56635C18.7881 5.60502 18.8848 5.6437 18.9844 5.68354C19.2297 5.94207 19.2484 6.16528 19.2427 6.5053C19.2011 6.8084 19.0536 7.03459 18.8892 7.28754C18.8433 7.36334 18.8433 7.36334 18.7965 7.44067C18.5952 7.76326 18.3945 8.0293 18.0469 8.20307C17.7815 8.22631 17.5623 8.21879 17.3108 8.12617C17.0782 8.07965 17.0503 8.10156 16.8604 8.22504C16.8226 8.25329 16.7849 8.28154 16.746 8.31065C16.6407 8.37885 16.6407 8.37885 16.4649 8.37885C16.4697 8.43807 16.4746 8.49728 16.4795 8.5583C16.461 8.85035 16.3994 8.96181 16.2305 9.19916C15.9013 9.45112 15.5283 9.4034 15.1337 9.40108C15.0043 9.40058 14.875 9.40227 14.7456 9.40413C14.6627 9.40422 14.5797 9.40419 14.4967 9.40401C14.4219 9.40412 14.347 9.40423 14.2699 9.40434C14.0264 9.36982 13.901 9.29412 13.711 9.14057C13.5388 8.88231 13.5168 8.68589 13.5352 8.37885C13.4832 8.36314 13.4313 8.34743 13.3777 8.33124C13.1836 8.26166 13.1836 8.26166 13.0408 8.15913C12.8241 8.05339 12.7065 8.1315 12.4805 8.20307C12.2038 8.23833 12.0103 8.23216 11.7591 8.10419C11.3123 7.71974 10.8713 7.06139 10.7351 6.48348C10.7272 6.22354 10.7684 6.06231 10.8802 5.82636C11.0157 5.68354 11.0157 5.68354 11.3086 5.56635C11.3086 5.29565 11.3086 5.02495 11.3086 4.74604C11.212 4.70737 11.1153 4.6687 11.0157 4.62885C10.7704 4.37032 10.7517 4.14711 10.7574 3.80709C10.799 3.50399 10.9465 3.2778 11.1109 3.02485C11.1415 2.97432 11.1721 2.92379 11.2036 2.87173C11.4049 2.54913 11.6056 2.28309 11.9532 2.10932C12.2172 2.0862 12.436 2.09261 12.6856 2.18622C12.9605 2.24022 13.0771 2.14887 13.3056 2.00175C13.418 1.93354 13.418 1.93354 13.5352 1.93354C13.5304 1.87432 13.5255 1.81511 13.5206 1.7541C13.5391 1.46204 13.6007 1.35059 13.7696 1.11323C14.0988 0.86127 14.4718 0.908987 14.8664 0.91131ZM14.5313 1.87495C14.495 2.01271 14.495 2.01271 14.4581 2.15327C14.3716 2.48168 14.2349 2.62612 13.946 2.80169C13.7511 2.9041 13.5557 3.00558 13.3594 3.10541C13.3183 3.1277 13.2772 3.14998 13.2349 3.17293C12.8957 3.34333 12.5986 3.25466 12.2461 3.16401C12.1758 3.26728 12.1064 3.37115 12.0374 3.47529C11.9987 3.53307 11.9599 3.59085 11.92 3.65038C11.8784 3.72867 11.8784 3.72867 11.836 3.80854C11.883 3.9943 11.883 3.9943 12.0374 4.12348C12.3375 4.43085 12.3245 4.7406 12.323 5.14887C12.324 5.20001 12.3249 5.25114 12.3259 5.30382C12.3262 5.632 12.2869 5.86297 12.129 6.15229C11.9715 6.29511 11.9715 6.29511 11.836 6.38666C11.9322 6.66651 12.0859 6.90193 12.2461 7.14838C12.2879 7.13856 12.3297 7.12875 12.3727 7.11863C12.9427 6.99741 13.2582 7.10486 13.7442 7.41183C13.8665 7.48742 13.9885 7.55049 14.1175 7.61347C14.4243 7.82013 14.4614 8.08797 14.5313 8.43745C14.8407 8.43745 15.15 8.43745 15.4688 8.43745C15.493 8.3456 15.5171 8.25375 15.542 8.15913C15.6296 7.82645 15.7675 7.68311 16.0623 7.50864C16.1619 7.45721 16.1619 7.45721 16.2635 7.40473C16.4546 7.30539 16.6372 7.20929 16.8165 7.08979C17.1709 7.0177 17.409 7.04368 17.754 7.14838C17.8243 7.04511 17.8937 6.94124 17.9627 6.8371C18.0208 6.75043 18.0208 6.75043 18.0801 6.66201C18.1078 6.60982 18.1356 6.55763 18.1641 6.50385C18.1171 6.31809 18.1171 6.31809 17.9627 6.18891C17.6626 5.88154 17.6756 5.57179 17.6771 5.16352C17.6761 5.11239 17.6752 5.06125 17.6742 5.00857C17.6739 4.68039 17.7132 4.44942 17.8711 4.1601C18.0286 4.01728 18.0286 4.01728 18.1641 3.92573C18.0679 3.64588 17.9142 3.41046 17.754 3.16401C17.6863 3.18455 17.6186 3.2051 17.5489 3.22626C17.2228 3.32527 16.8983 3.27843 16.6015 3.12052C16.5323 3.07967 16.4636 3.03801 16.3953 2.99555C16.3608 2.97493 16.3262 2.95431 16.2906 2.93307C16.192 2.87406 16.0941 2.81398 15.9961 2.75385C15.9417 2.72394 15.8872 2.69403 15.8311 2.66321C15.6399 2.53599 15.6008 2.38078 15.5274 2.16791C15.4984 2.02289 15.4984 2.02289 15.4688 1.87495C15.1594 1.87495 14.85 1.87495 14.5313 1.87495Z" fill="#654ADA"/>
<path d="M9.96099 7.14844C10.1842 7.23585 10.2808 7.35954 10.4151 7.55493C10.451 7.60622 10.487 7.6575 10.524 7.71034C10.6055 7.85156 10.6055 7.85156 10.6055 8.02734C10.4879 8.12318 10.3724 8.20708 10.2466 8.29102C10.1706 8.34358 10.0947 8.3963 10.0189 8.44917C9.97989 8.47632 9.94089 8.50346 9.90071 8.53143C8.36011 9.62324 6.89596 10.9868 5.74224 12.4805C5.71054 12.5212 5.67885 12.562 5.64619 12.604C5.10743 13.2991 4.6093 14.0093 4.16021 14.7656C4.13273 14.8115 4.10526 14.8574 4.07695 14.9046C2.88806 16.9091 2.01877 19.4051 2.57818 21.7383C2.92755 23.0865 3.67932 24.1175 4.86333 24.8438C5.4238 25.1695 6.00112 25.3721 6.62114 25.5469C6.69063 25.7949 6.66325 25.9631 6.59551 26.2097C6.57867 26.2723 6.56182 26.3349 6.54447 26.3995C6.5311 26.4468 6.51773 26.4942 6.50396 26.543C5.07965 26.4558 3.70496 25.5014 2.77527 24.4696C1.68071 23.1743 1.24612 21.4093 1.34771 19.7461C1.38337 19.3516 1.44841 18.963 1.52349 18.5742C1.53292 18.5251 1.54235 18.4761 1.55207 18.4255C2.09486 15.7048 3.61986 13.2383 5.44927 11.1914C5.49534 11.1388 5.54142 11.0863 5.58889 11.0321C5.93911 10.6402 6.30812 10.2665 6.67826 9.89356C6.73683 9.83452 6.79531 9.77539 6.8537 9.71616C7.24392 9.32095 7.65161 8.96007 8.08599 8.61328C8.15054 8.5585 8.21478 8.50334 8.27848 8.44757C8.76588 8.02255 9.28259 7.64573 9.81101 7.27338C9.90026 7.21223 9.90026 7.21223 9.96099 7.14844Z" fill="#654ADA"/>
<path d="M20.039 3.22256C22.6487 3.18075 25.0039 3.41362 26.9934 5.29531C28.1472 6.50128 28.6179 8.08225 28.6157 9.71914C28.6156 9.75872 28.6156 9.7983 28.6156 9.83908C28.6129 10.5636 28.5341 11.2492 28.3593 11.953C28.3474 12.0029 28.3355 12.0528 28.3232 12.1042C27.8118 14.1984 26.6766 16.5655 25.1367 18.1054C24.9075 18.0899 24.7659 17.9507 24.5947 17.8087C24.5424 17.7658 24.4901 17.7228 24.4363 17.6785C24.3967 17.6453 24.3571 17.6122 24.3164 17.578C24.3933 17.4151 24.4791 17.2733 24.5869 17.1292C24.6173 17.0881 24.6476 17.0471 24.6789 17.0047C24.7115 16.9607 24.7442 16.9166 24.7778 16.8712C26.2748 14.8168 27.5648 12.4087 27.561 9.80703C27.5609 9.74932 27.5609 9.74932 27.5608 9.69044C27.5544 8.22929 27.1379 7.01312 26.1254 5.93984C24.4879 4.3543 22.2411 4.25224 20.0976 4.21865C20.0488 3.88347 20.032 3.56109 20.039 3.22256Z" fill="#654ADA"/>
<path d="M15.931 3.44198C16.42 3.73353 16.724 4.1371 16.875 4.68755C16.9335 5.33793 16.8954 5.90246 16.4794 6.43438C16.1479 6.78932 15.7351 7.00734 15.2499 7.05099C14.6212 7.06513 14.103 6.99178 13.6248 6.54516C13.1916 6.06331 13.0909 5.55272 13.1066 4.92124C13.1344 4.42989 13.3461 4.01941 13.7109 3.69146C14.3401 3.21829 15.2089 3.09546 15.931 3.44198ZM14.2163 4.66558C14.0871 4.93381 14.0743 5.15663 14.121 5.44927C14.2576 5.73278 14.4235 5.8987 14.707 6.03521C14.9996 6.08192 15.2225 6.06914 15.4907 5.93999C15.7007 5.74999 15.8552 5.59782 15.9013 5.30874C15.9163 4.9757 15.8751 4.76669 15.6445 4.51177C15.3896 4.28113 15.1806 4.23996 14.8475 4.25497C14.5584 4.30111 14.4063 4.45558 14.2163 4.66558Z" fill="#654ADA"/>
</svg>
