<svg width="682" height="146" viewBox="0 0 682 146" fill="none" xmlns="http://www.w3.org/2000/svg">
<path d="M8.86919 28.0259H0.0396396L4.50697 1.11679H13.3759C16.0213 1.11679 18.2068 1.66863 19.9324 2.77233C21.658 3.86726 22.8668 5.43521 23.5588 7.47616C24.2508 9.50836 24.3603 11.9391 23.8873 14.7684C23.4318 17.5364 22.5383 19.9102 21.2069 21.8899C19.8842 23.8608 18.1805 25.3761 16.0957 26.436C14.011 27.4959 11.6021 28.0259 8.86919 28.0259ZM4.70406 24.4783H9.04C11.0897 24.4783 12.8635 24.0797 14.3614 23.2826C15.868 22.4855 17.0899 21.3293 18.0272 19.8139C18.9645 18.2985 19.6127 16.4546 19.9718 14.2823C20.3222 12.215 20.2915 10.4675 19.8798 9.03973C19.4681 7.60317 18.671 6.517 17.4885 5.78121C16.306 5.03665 14.7337 4.66437 12.7715 4.66437H7.97572L4.70406 24.4783ZM26.4264 28.0259L29.7901 7.84406H33.5873L33.0486 11.05H33.2588C33.8019 9.96385 34.5947 9.1098 35.637 8.48788C36.6794 7.8572 37.7919 7.54186 38.9744 7.54186C39.2284 7.54186 39.5175 7.55062 39.8416 7.56814C40.1657 7.5769 40.4285 7.5988 40.6299 7.63383L39.9992 11.3916C39.8503 11.3478 39.5788 11.2997 39.1846 11.2471C38.7904 11.1858 38.3831 11.1551 37.9627 11.1551C37.0429 11.1551 36.1889 11.3522 35.4005 11.7464C34.6122 12.1318 33.9508 12.6705 33.4165 13.3625C32.8822 14.0458 32.5362 14.8254 32.3785 15.7013L30.3551 28.0259H26.4264ZM40.6989 28.0259L44.0625 7.84406H47.9912L44.6275 28.0259H40.6989ZM46.8481 4.69065C46.1648 4.69065 45.5867 4.46291 45.1137 4.00741C44.6494 3.54316 44.4348 2.99131 44.4699 2.35187C44.5049 1.70367 44.7764 1.15182 45.2845 0.696333C45.7925 0.23208 46.3838 -4.61936e-05 47.0583 -4.61936e-05C47.7415 -4.61936e-05 48.3153 0.23208 48.7795 0.696333C49.2438 1.15182 49.4628 1.70367 49.4365 2.35187C49.4014 2.99131 49.1299 3.54316 48.6218 4.00741C48.1226 4.46291 47.5313 4.69065 46.8481 4.69065ZM70.5413 7.84406L59.8592 28.0259H55.6546L51.6866 7.84406H55.7466L58.2693 23.3746H58.4795L66.166 7.84406H70.5413ZM78.8289 28.4332C76.8492 28.4332 75.2112 28.0084 73.9148 27.1587C72.6272 26.3003 71.7249 25.0958 71.2081 23.5454C70.6913 21.9862 70.6081 20.1599 70.9585 18.0664C71.3001 15.9991 71.9877 14.1772 73.0214 12.6005C74.055 11.0237 75.3426 9.79304 76.8843 8.90834C78.4347 8.02363 80.1472 7.58128 82.0217 7.58128C83.1604 7.58128 84.2335 7.76961 85.2408 8.14626C86.2569 8.52292 87.1197 9.11418 87.8292 9.92005C88.5388 10.7259 89.0293 11.7727 89.3008 13.0603C89.5811 14.3392 89.5724 15.894 89.2745 17.7247L89.0512 19.1175H72.9951L73.4549 16.1743H85.6481C85.8321 15.1407 85.7839 14.2253 85.5036 13.4282C85.2233 12.6224 84.7415 11.9873 84.0583 11.523C83.3838 11.0588 82.5341 10.8267 81.5093 10.8267C80.4581 10.8267 79.4771 11.1026 78.5661 11.6544C77.6551 12.2063 76.893 12.9114 76.2799 13.7698C75.6755 14.6195 75.2944 15.4955 75.1368 16.3977L74.6769 19.0912C74.4491 20.5628 74.4886 21.7453 74.7951 22.6388C75.1105 23.5323 75.6623 24.1805 76.4507 24.5834C77.239 24.9863 78.2245 25.1878 79.407 25.1878C80.1691 25.1878 80.8742 25.0827 81.5224 24.8725C82.1794 24.6535 82.7619 24.3338 83.2699 23.9133C83.778 23.4841 84.2028 22.9498 84.5444 22.3103L88.1446 22.9804C87.6628 24.0754 86.9708 25.0345 86.0686 25.8579C85.1664 26.6725 84.1021 27.3076 82.8758 27.7631C81.6582 28.2098 80.3092 28.4332 78.8289 28.4332ZM97.884 16.0429L95.9131 28.0259H91.9845L95.3481 7.84406H99.1191L98.5672 11.1289H98.8169C99.4563 10.0514 100.328 9.19302 101.432 8.55358C102.544 7.90538 103.858 7.58128 105.373 7.58128C106.74 7.58128 107.887 7.87034 108.816 8.44846C109.753 9.01783 110.414 9.8675 110.8 10.9975C111.194 12.1274 111.255 13.5246 110.984 15.1889L108.829 28.0259H104.9L106.963 15.6619C107.2 14.1991 107.007 13.0559 106.385 12.2326C105.772 11.4004 104.795 10.9843 103.455 10.9843C102.544 10.9843 101.699 11.1814 100.919 11.5756C100.148 11.9698 99.4958 12.5479 98.9614 13.31C98.4359 14.0633 98.0767 14.9743 97.884 16.0429ZM124.192 28.0259L128.659 1.11679H132.588L130.946 11.1157H131.182C131.48 10.6953 131.887 10.2091 132.404 9.65727C132.93 9.10542 133.608 8.62365 134.441 8.21196C135.273 7.7915 136.315 7.58128 137.568 7.58128C139.197 7.58128 140.581 7.99297 141.72 8.81636C142.858 9.63975 143.664 10.8267 144.137 12.3771C144.61 13.9275 144.667 15.7933 144.308 17.9744C143.949 20.1555 143.274 22.0256 142.285 23.5848C141.304 25.1353 140.108 26.3309 138.698 27.1718C137.287 28.004 135.768 28.4201 134.138 28.4201C132.912 28.4201 131.944 28.2142 131.235 27.8025C130.534 27.3908 130.008 26.909 129.658 26.3572C129.316 25.8054 129.058 25.3148 128.883 24.8856H128.554L128.029 28.0259H124.192ZM129.724 17.935C129.496 19.354 129.496 20.5978 129.724 21.6665C129.96 22.7352 130.42 23.5717 131.103 24.1761C131.795 24.7717 132.702 25.0696 133.823 25.0696C134.997 25.0696 136.03 24.7586 136.924 24.1367C137.817 23.506 138.553 22.6519 139.131 21.5745C139.709 20.4971 140.112 19.2839 140.34 17.935C140.55 16.6035 140.546 15.4079 140.327 14.348C140.108 13.2881 139.652 12.4515 138.96 11.8384C138.277 11.2252 137.344 10.9186 136.162 10.9186C135.023 10.9186 134.011 11.2121 133.127 11.799C132.242 12.3858 131.511 13.2049 130.932 14.256C130.354 15.3071 129.951 16.5335 129.724 17.935ZM147.599 35.5941C147.004 35.5941 146.474 35.5459 146.01 35.4495C145.545 35.3619 145.199 35.2656 144.972 35.1605L146.47 31.9414C147.162 32.1341 147.779 32.2085 148.322 32.1647C148.874 32.1209 149.391 31.8932 149.873 31.4815C150.354 31.0698 150.845 30.4216 151.344 29.5369L152.08 28.2098L148.125 7.84406H152.172L154.668 23.5454H154.879L162.604 7.84406H166.98L154.879 30.6931C154.309 31.7793 153.661 32.6815 152.934 33.3998C152.216 34.1268 151.41 34.6743 150.516 35.0422C149.632 35.4101 148.659 35.5941 147.599 35.5941ZM175.852 35.5941L180.503 7.84406H184.34L183.801 11.1157H184.13C184.428 10.6953 184.831 10.2091 185.339 9.65727C185.855 9.10542 186.534 8.62365 187.375 8.21196C188.216 7.7915 189.263 7.58128 190.515 7.58128C192.145 7.58128 193.524 7.99297 194.654 8.81636C195.784 9.63975 196.59 10.8267 197.072 12.3771C197.554 13.9275 197.615 15.7933 197.256 17.9744C196.897 20.1555 196.222 22.0256 195.232 23.5848C194.243 25.1353 193.043 26.3309 191.632 27.1718C190.231 28.004 188.711 28.4201 187.073 28.4201C185.847 28.4201 184.879 28.2142 184.169 27.8025C183.468 27.3908 182.947 26.909 182.606 26.3572C182.264 25.8054 182.006 25.3148 181.83 24.8856H181.594L179.807 35.5941H175.852ZM182.671 17.935C182.444 19.354 182.444 20.5978 182.671 21.6665C182.899 22.7352 183.355 23.5717 184.038 24.1761C184.73 24.7717 185.641 25.0696 186.771 25.0696C187.944 25.0696 188.974 24.7586 189.858 24.1367C190.743 23.506 191.475 22.6519 192.053 21.5745C192.64 20.4971 193.047 19.2839 193.275 17.935C193.494 16.6035 193.489 15.4079 193.261 14.348C193.043 13.2881 192.591 12.4515 191.908 11.8384C191.225 11.2252 190.292 10.9186 189.11 10.9186C187.962 10.9186 186.946 11.2121 186.061 11.799C185.185 12.3858 184.458 13.2049 183.88 14.256C183.302 15.3071 182.899 16.5335 182.671 17.935ZM214.15 19.6562L216.12 7.84406H220.062L216.699 28.0259H212.836L213.427 24.5309H213.217C212.586 25.6083 211.693 26.5061 210.536 27.2244C209.389 27.9339 208.057 28.2887 206.542 28.2887C205.246 28.2887 204.146 28.004 203.244 27.4346C202.351 26.8565 201.715 26.0024 201.339 24.8725C200.962 23.7425 200.91 22.3454 201.181 20.6811L203.336 7.84406H207.265L205.202 20.2081C204.983 21.5833 205.189 22.6782 205.819 23.4929C206.45 24.3075 207.37 24.7148 208.579 24.7148C209.314 24.7148 210.076 24.5309 210.865 24.163C211.653 23.7951 212.349 23.2388 212.954 22.4943C213.567 21.7497 213.966 20.8037 214.15 19.6562ZM221.977 28.0259L225.341 7.84406H229.138L228.599 11.05H228.81C229.353 9.96385 230.145 9.1098 231.188 8.48788C232.23 7.8572 233.343 7.54186 234.525 7.54186C234.779 7.54186 235.068 7.55062 235.392 7.56814C235.716 7.5769 235.979 7.5988 236.181 7.63383L235.55 11.3916C235.401 11.3478 235.13 11.2997 234.735 11.2471C234.341 11.1858 233.934 11.1551 233.513 11.1551C232.594 11.1551 231.74 11.3522 230.951 11.7464C230.163 12.1318 229.502 12.6705 228.967 13.3625C228.433 14.0458 228.087 14.8254 227.929 15.7013L225.906 28.0259H221.977ZM235.001 35.5941L239.653 7.84406H243.489L242.951 11.1157H243.279C243.577 10.6953 243.98 10.2091 244.488 9.65727C245.005 9.10542 245.684 8.62365 246.525 8.21196C247.365 7.7915 248.412 7.58128 249.665 7.58128C251.294 7.58128 252.674 7.99297 253.804 8.81636C254.934 9.63975 255.74 10.8267 256.221 12.3771C256.703 13.9275 256.764 15.7933 256.405 17.9744C256.046 20.1555 255.372 22.0256 254.382 23.5848C253.392 25.1353 252.192 26.3309 250.782 27.1718C249.38 28.004 247.86 28.4201 246.222 28.4201C244.996 28.4201 244.028 28.2142 243.319 27.8025C242.618 27.3908 242.097 26.909 241.755 26.3572C241.413 25.8054 241.155 25.3148 240.98 24.8856H240.743L238.956 35.5941H235.001ZM241.821 17.935C241.593 19.354 241.593 20.5978 241.821 21.6665C242.048 22.7352 242.504 23.5717 243.187 24.1761C243.879 24.7717 244.79 25.0696 245.92 25.0696C247.094 25.0696 248.123 24.7586 249.008 24.1367C249.893 23.506 250.624 22.6519 251.202 21.5745C251.789 20.4971 252.196 19.2839 252.424 17.935C252.643 16.6035 252.639 15.4079 252.411 14.348C252.192 13.2881 251.741 12.4515 251.058 11.8384C250.374 11.2252 249.441 10.9186 248.259 10.9186C247.111 10.9186 246.095 11.2121 245.211 11.799C244.335 12.3858 243.608 13.2049 243.03 14.256C242.451 15.3071 242.048 16.5335 241.821 17.935ZM267.715 28.4332C265.796 28.4332 264.193 27.9952 262.906 27.1193C261.618 26.2346 260.712 24.9995 260.186 23.414C259.669 21.8198 259.582 19.9672 259.923 17.8561C260.256 15.7889 260.926 13.9844 261.934 12.4428C262.95 10.9011 264.22 9.70545 265.744 8.85578C267.277 8.00611 268.981 7.58128 270.855 7.58128C272.773 7.58128 274.372 8.02363 275.651 8.90834C276.939 9.79304 277.845 11.0325 278.371 12.6267C278.896 14.221 278.988 16.078 278.647 18.1978C278.314 20.2475 277.635 22.0432 276.61 23.5848C275.594 25.1177 274.324 26.309 272.8 27.1587C271.276 28.0084 269.581 28.4332 267.715 28.4332ZM267.938 25.1353C269.2 25.1353 270.299 24.8024 271.236 24.1367C272.182 23.471 272.953 22.5862 273.549 21.4826C274.144 20.3789 274.552 19.1701 274.771 17.8561C274.972 16.586 274.968 15.4254 274.757 14.3742C274.556 13.3143 274.118 12.4647 273.443 11.8252C272.769 11.1858 271.832 10.8661 270.632 10.8661C269.37 10.8661 268.262 11.2033 267.307 11.8778C266.361 12.5435 265.591 13.4326 264.995 14.5451C264.408 15.6575 264.01 16.8707 263.799 18.1846C263.598 19.446 263.598 20.6066 263.799 21.6665C264.001 22.7176 264.439 23.5585 265.113 24.1892C265.788 24.8199 266.729 25.1353 267.938 25.1353ZM299.088 12.7713L295.422 13.4019C295.343 12.9377 295.181 12.4997 294.936 12.088C294.699 11.6763 294.336 11.3435 293.845 11.0894C293.355 10.8267 292.702 10.6953 291.888 10.6953C290.758 10.6953 289.768 10.9537 288.918 11.4705C288.077 11.9873 287.596 12.6442 287.473 13.4414C287.359 14.0896 287.512 14.6151 287.933 15.0181C288.353 15.4122 289.093 15.7407 290.153 16.0035L293.254 16.7393C295.041 17.1685 296.32 17.8386 297.091 18.7496C297.87 19.6518 298.142 20.8256 297.905 22.2709C297.704 23.471 297.178 24.5352 296.329 25.4637C295.488 26.3922 294.41 27.1193 293.096 27.6448C291.783 28.1704 290.32 28.4332 288.708 28.4332C286.413 28.4332 284.626 27.947 283.347 26.9747C282.068 26.0024 281.411 24.6272 281.376 22.849L285.265 22.2709C285.336 23.2607 285.69 24.0097 286.33 24.5177C286.978 25.017 287.876 25.2666 289.023 25.2666C290.337 25.2754 291.437 24.9995 292.321 24.4389C293.206 23.8783 293.71 23.1994 293.832 22.4023C293.937 21.7804 293.797 21.2636 293.412 20.8519C293.035 20.4402 292.369 20.1248 291.415 19.9059L288.156 19.1569C286.334 18.7277 285.047 18.0357 284.293 17.0809C283.54 16.1261 283.286 14.9261 283.531 13.4808C283.724 12.2983 284.223 11.269 285.029 10.3931C285.844 9.50836 286.873 8.82074 288.117 8.33021C289.361 7.83092 290.736 7.58128 292.242 7.58128C294.441 7.58128 296.092 8.05429 297.196 9.00031C298.3 9.93757 298.93 11.1946 299.088 12.7713ZM309.898 28.4332C307.919 28.4332 306.281 28.0084 304.984 27.1587C303.697 26.3003 302.794 25.0958 302.277 23.5454C301.761 21.9862 301.677 20.1599 302.028 18.0664C302.369 15.9991 303.057 14.1772 304.091 12.6005C305.124 11.0237 306.412 9.79304 307.954 8.90834C309.504 8.02363 311.217 7.58128 313.091 7.58128C314.23 7.58128 315.303 7.76961 316.31 8.14626C317.326 8.52292 318.189 9.11418 318.899 9.92005C319.608 10.7259 320.099 11.7727 320.37 13.0603C320.65 14.3392 320.642 15.894 320.344 17.7247L320.121 19.1175H304.064L304.524 16.1743H316.717C316.901 15.1407 316.853 14.2253 316.573 13.4282C316.293 12.6224 315.811 11.9873 315.128 11.523C314.453 11.0588 313.603 10.8267 312.579 10.8267C311.527 10.8267 310.546 11.1026 309.635 11.6544C308.724 12.2063 307.962 12.9114 307.349 13.7698C306.745 14.6195 306.364 15.4955 306.206 16.3977L305.746 19.0912C305.518 20.5628 305.558 21.7453 305.864 22.6388C306.18 23.5323 306.732 24.1805 307.52 24.5834C308.308 24.9863 309.294 25.1878 310.476 25.1878C311.238 25.1878 311.944 25.0827 312.592 24.8725C313.249 24.6535 313.831 24.3338 314.339 23.9133C314.847 23.4841 315.272 22.9498 315.614 22.3103L319.214 22.9804C318.732 24.0754 318.04 25.0345 317.138 25.8579C316.236 26.6725 315.171 27.3076 313.945 27.7631C312.728 28.2098 311.379 28.4332 309.898 28.4332ZM328.783 24.3469L328.323 25.7791C328.016 26.8302 327.613 27.9251 327.114 29.0639C326.623 30.2026 326.133 31.2625 325.642 32.2436C325.152 33.2334 324.762 34.0174 324.473 34.5955H321.687C321.88 34.0524 322.147 33.321 322.489 32.4012C322.839 31.4815 323.207 30.4523 323.593 29.3135C323.978 28.1748 324.315 27.0098 324.604 25.8185L324.998 24.3469H328.783ZM341.81 35.5941L346.461 7.84406H350.298L349.759 11.1157H350.088C350.386 10.6953 350.789 10.2091 351.297 9.65727C351.813 9.10542 352.492 8.62365 353.333 8.21196C354.174 7.7915 355.221 7.58128 356.473 7.58128C358.103 7.58128 359.482 7.99297 360.612 8.81636C361.742 9.63975 362.548 10.8267 363.03 12.3771C363.512 13.9275 363.573 15.7933 363.214 17.9744C362.855 20.1555 362.18 22.0256 361.19 23.5848C360.201 25.1353 359.001 26.3309 357.59 27.1718C356.189 28.004 354.669 28.4201 353.031 28.4201C351.805 28.4201 350.837 28.2142 350.127 27.8025C349.426 27.3908 348.905 26.909 348.564 26.3572C348.222 25.8054 347.964 25.3148 347.788 24.8856H347.552L345.765 35.5941H341.81ZM348.629 17.935C348.402 19.354 348.402 20.5978 348.629 21.6665C348.857 22.7352 349.313 23.5717 349.996 24.1761C350.688 24.7717 351.599 25.0696 352.729 25.0696C353.903 25.0696 354.932 24.7586 355.816 24.1367C356.701 23.506 357.433 22.6519 358.011 21.5745C358.598 20.4971 359.005 19.2839 359.233 17.935C359.452 16.6035 359.447 15.4079 359.22 14.348C359.001 13.2881 358.549 12.4515 357.866 11.8384C357.183 11.2252 356.25 10.9186 355.068 10.9186C353.92 10.9186 352.904 11.2121 352.019 11.799C351.143 12.3858 350.416 13.2049 349.838 14.256C349.26 15.3071 348.857 16.5335 348.629 17.935ZM374.523 28.4332C372.605 28.4332 371.002 27.9952 369.714 27.1193C368.427 26.2346 367.52 24.9995 366.995 23.414C366.478 21.8198 366.39 19.9672 366.732 17.8561C367.065 15.7889 367.735 13.9844 368.742 12.4428C369.758 10.9011 371.028 9.70545 372.553 8.85578C374.085 8.00611 375.789 7.58128 377.664 7.58128C379.582 7.58128 381.181 8.02363 382.459 8.90834C383.747 9.79304 384.654 11.0325 385.179 12.6267C385.705 14.221 385.797 16.078 385.455 18.1978C385.122 20.2475 384.443 22.0432 383.419 23.5848C382.403 25.1177 381.132 26.309 379.608 27.1587C378.084 28.0084 376.389 28.4332 374.523 28.4332ZM374.747 25.1353C376.008 25.1353 377.107 24.8024 378.045 24.1367C378.991 23.471 379.762 22.5862 380.357 21.4826C380.953 20.3789 381.36 19.1701 381.579 17.8561C381.781 16.586 381.776 15.4254 381.566 14.3742C381.365 13.3143 380.927 12.4647 380.252 11.8252C379.578 11.1858 378.64 10.8661 377.44 10.8661C376.179 10.8661 375.071 11.2033 374.116 11.8778C373.17 12.5435 372.399 13.4326 371.804 14.5451C371.217 15.6575 370.818 16.8707 370.608 18.1846C370.406 19.446 370.406 20.6066 370.608 21.6665C370.809 22.7176 371.247 23.5585 371.922 24.1892C372.596 24.8199 373.538 25.1353 374.747 25.1353ZM391.985 28.0259L389.41 7.84406H393.47L394.955 22.6651H395.152L401.59 7.84406H405.65L407.122 22.5994H407.319L413.718 7.84406H417.778L408.488 28.0259H404.481L402.799 13.4545H402.497L395.98 28.0259H391.985ZM426.174 28.4332C424.194 28.4332 422.556 28.0084 421.26 27.1587C419.972 26.3003 419.07 25.0958 418.553 23.5454C418.036 21.9862 417.953 20.1599 418.303 18.0664C418.645 15.9991 419.332 14.1772 420.366 12.6005C421.4 11.0237 422.687 9.79304 424.229 8.90834C425.779 8.02363 427.492 7.58128 429.366 7.58128C430.505 7.58128 431.578 7.76961 432.586 8.14626C433.602 8.52292 434.464 9.11418 435.174 9.92005C435.883 10.7259 436.374 11.7727 436.646 13.0603C436.926 14.3392 436.917 15.894 436.619 17.7247L436.396 19.1175H420.34L420.8 16.1743H432.993C433.177 15.1407 433.129 14.2253 432.848 13.4282C432.568 12.6224 432.086 11.9873 431.403 11.523C430.729 11.0588 429.879 10.8267 428.854 10.8267C427.803 10.8267 426.822 11.1026 425.911 11.6544C425 12.2063 424.238 12.9114 423.625 13.7698C423.02 14.6195 422.639 15.4955 422.481 16.3977L422.022 19.0912C421.794 20.5628 421.833 21.7453 422.14 22.6388C422.455 23.5323 423.007 24.1805 423.795 24.5834C424.584 24.9863 425.569 25.1878 426.752 25.1878C427.514 25.1878 428.219 25.0827 428.867 24.8725C429.524 24.6535 430.107 24.3338 430.615 23.9133C431.123 23.4841 431.548 22.9498 431.889 22.3103L435.489 22.9804C435.008 24.0754 434.316 25.0345 433.413 25.8579C432.511 26.6725 431.447 27.3076 430.22 27.7631C429.003 28.2098 427.654 28.4332 426.174 28.4332ZM439.316 28.0259L442.68 7.84406H446.477L445.938 11.05H446.148C446.692 9.96385 447.484 9.1098 448.527 8.48788C449.569 7.8572 450.682 7.54186 451.864 7.54186C452.118 7.54186 452.407 7.55062 452.731 7.56814C453.055 7.5769 453.318 7.5988 453.52 7.63383L452.889 11.3916C452.74 11.3478 452.468 11.2997 452.074 11.2471C451.68 11.1858 451.273 11.1551 450.852 11.1551C449.933 11.1551 449.079 11.3522 448.29 11.7464C447.502 12.1318 446.84 12.6705 446.306 13.3625C445.772 14.0458 445.426 14.8254 445.268 15.7013L443.245 28.0259H439.316ZM461.511 28.4332C459.532 28.4332 457.894 28.0084 456.597 27.1587C455.31 26.3003 454.408 25.0958 453.891 23.5454C453.374 21.9862 453.291 20.1599 453.641 18.0664C453.983 15.9991 454.67 14.1772 455.704 12.6005C456.738 11.0237 458.025 9.79304 459.567 8.90834C461.117 8.02363 462.83 7.58128 464.704 7.58128C465.843 7.58128 466.916 7.76961 467.923 8.14626C468.94 8.52292 469.802 9.11418 470.512 9.92005C471.221 10.7259 471.712 11.7727 471.983 13.0603C472.264 14.3392 472.255 15.894 471.957 17.7247L471.734 19.1175H455.678L456.138 16.1743H468.331C468.515 15.1407 468.467 14.2253 468.186 13.4282C467.906 12.6224 467.424 11.9873 466.741 11.523C466.066 11.0588 465.217 10.8267 464.192 10.8267C463.141 10.8267 462.16 11.1026 461.249 11.6544C460.338 12.2063 459.576 12.9114 458.962 13.7698C458.358 14.6195 457.977 15.4955 457.819 16.3977L457.36 19.0912C457.132 20.5628 457.171 21.7453 457.478 22.6388C457.793 23.5323 458.345 24.1805 459.133 24.5834C459.922 24.9863 460.907 25.1878 462.09 25.1878C462.852 25.1878 463.557 25.0827 464.205 24.8725C464.862 24.6535 465.444 24.3338 465.953 23.9133C466.461 23.4841 466.885 22.9498 467.227 22.3103L470.827 22.9804C470.345 24.0754 469.653 25.0345 468.751 25.8579C467.849 26.6725 466.785 27.3076 465.558 27.7631C464.341 28.2098 462.992 28.4332 461.511 28.4332ZM482.183 28.4201C480.545 28.4201 479.156 28.004 478.018 27.1718C476.888 26.3309 476.086 25.1353 475.613 23.5848C475.149 22.0256 475.096 20.1555 475.455 17.9744C475.823 15.7933 476.502 13.9275 477.492 12.3771C478.482 10.8267 479.682 9.63975 481.092 8.81636C482.502 7.99297 484.022 7.58128 485.652 7.58128C486.904 7.58128 487.876 7.7915 488.568 8.21196C489.269 8.62365 489.786 9.10542 490.119 9.65727C490.452 10.2091 490.701 10.6953 490.868 11.1157H491.091L492.76 1.11679H496.688L492.221 28.0259H488.384L488.923 24.8856H488.595C488.288 25.3148 487.863 25.8054 487.32 26.3572C486.786 26.909 486.103 27.3908 485.27 27.8025C484.438 28.2142 483.409 28.4201 482.183 28.4201ZM483.51 25.0696C484.64 25.0696 485.652 24.7717 486.545 24.1761C487.447 23.5717 488.196 22.7352 488.792 21.6665C489.396 20.5978 489.817 19.354 490.053 17.935C490.29 16.5335 490.285 15.3071 490.04 14.256C489.795 13.2049 489.322 12.3858 488.621 11.799C487.92 11.2121 486.996 10.9186 485.849 10.9186C484.666 10.9186 483.637 11.2252 482.761 11.8384C481.885 12.4515 481.167 13.2881 480.606 14.348C480.054 15.4079 479.669 16.6035 479.45 17.935C479.222 19.2839 479.213 20.4971 479.424 21.5745C479.634 22.6519 480.076 23.506 480.751 24.1367C481.425 24.7586 482.345 25.0696 483.51 25.0696ZM507.922 28.0259L512.39 1.11679H516.318L514.676 11.1157H514.913C515.21 10.6953 515.618 10.2091 516.134 9.65727C516.66 9.10542 517.339 8.62365 518.171 8.21196C519.003 7.7915 520.046 7.58128 521.298 7.58128C522.927 7.58128 524.311 7.99297 525.45 8.81636C526.589 9.63975 527.395 10.8267 527.868 12.3771C528.341 13.9275 528.398 15.7933 528.039 17.9744C527.679 20.1555 527.005 22.0256 526.015 23.5848C525.034 25.1353 523.838 26.3309 522.428 27.1718C521.018 28.004 519.498 28.4201 517.869 28.4201C516.643 28.4201 515.675 28.2142 514.965 27.8025C514.264 27.3908 513.739 26.909 513.388 26.3572C513.047 25.8054 512.788 25.3148 512.613 24.8856H512.285L511.759 28.0259H507.922ZM513.454 17.935C513.226 19.354 513.226 20.5978 513.454 21.6665C513.691 22.7352 514.15 23.5717 514.834 24.1761C515.526 24.7717 516.432 25.0696 517.553 25.0696C518.727 25.0696 519.761 24.7586 520.654 24.1367C521.548 23.506 522.284 22.6519 522.862 21.5745C523.44 20.4971 523.843 19.2839 524.071 17.935C524.281 16.6035 524.276 15.4079 524.057 14.348C523.838 13.2881 523.383 12.4515 522.691 11.8384C522.008 11.2252 521.075 10.9186 519.892 10.9186C518.754 10.9186 517.742 11.2121 516.857 11.799C515.972 12.3858 515.241 13.2049 514.663 14.256C514.085 15.3071 513.682 16.5335 513.454 17.935ZM531.33 35.5941C530.734 35.5941 530.204 35.5459 529.74 35.4495C529.276 35.3619 528.93 35.2656 528.702 35.1605L530.2 31.9414C530.892 32.1341 531.51 32.2085 532.053 32.1647C532.604 32.1209 533.121 31.8932 533.603 31.4815C534.085 31.0698 534.575 30.4216 535.075 29.5369L535.81 28.2098L531.856 7.84406H535.902L538.399 23.5454H538.609L546.335 7.84406H550.71L538.609 30.6931C538.04 31.7793 537.391 32.6815 536.664 33.3998C535.946 34.1268 535.14 34.6743 534.247 35.0422C533.362 35.4101 532.39 35.5941 531.33 35.5941ZM563.419 28.0259H559.11L573.26 1.11679H577.951L583.167 28.0259H578.858L574.929 6.00457H574.719L563.419 28.0259ZM565.889 17.4882H579.869L579.291 20.9044H565.311L565.889 17.4882ZM595.581 1.11679L591.113 28.0259H587.053L591.521 1.11679H595.581ZM602.452 24.3469L601.993 25.7791C601.686 26.8302 601.283 27.9251 600.784 29.0639C600.293 30.2026 599.803 31.2625 599.312 32.2436C598.822 33.2334 598.432 34.0174 598.143 34.5955H595.357C595.55 34.0524 595.817 33.321 596.159 32.4012C596.509 31.4815 596.877 30.4523 597.262 29.3135C597.648 28.1748 597.985 27.0098 598.274 25.8185L598.668 24.3469H602.452ZM622.549 28.4726C621.27 28.4726 620.153 28.2361 619.198 27.7631C618.244 27.2813 617.538 26.5849 617.083 25.674C616.627 24.763 616.509 23.6461 616.728 22.3235C616.921 21.1847 617.298 20.2475 617.858 19.5117C618.428 18.7759 619.12 18.1934 619.934 17.7642C620.749 17.3262 621.634 16.9977 622.588 16.7787C623.543 16.5597 624.507 16.3977 625.479 16.2926C626.705 16.1524 627.699 16.0342 628.462 15.9378C629.232 15.8415 629.81 15.6925 630.196 15.4911C630.581 15.2809 630.813 14.9392 630.892 14.4662V14.3742C631.076 13.2355 630.91 12.3508 630.393 11.7201C629.885 11.0807 629 10.761 627.739 10.761C626.425 10.761 625.321 11.05 624.428 11.6282C623.543 12.2063 622.89 12.8545 622.47 13.5728L618.949 12.7318C619.579 11.5055 620.381 10.5157 621.353 9.76238C622.334 9.00031 623.407 8.44846 624.572 8.10684C625.737 7.75647 626.929 7.58128 628.146 7.58128C628.952 7.58128 629.789 7.67763 630.656 7.87034C631.523 8.05429 632.311 8.39591 633.021 8.8952C633.739 9.39449 634.273 10.1084 634.624 11.0369C634.974 11.9566 635.027 13.1523 634.781 14.6239L632.561 28.0259H628.724L629.197 25.2666H629.04C628.707 25.7747 628.243 26.274 627.647 26.7645C627.06 27.255 626.342 27.6624 625.492 27.9865C624.642 28.3106 623.661 28.4726 622.549 28.4726ZM623.889 25.3192C624.984 25.3192 625.952 25.1046 626.793 24.6754C627.643 24.2462 628.33 23.6856 628.856 22.9936C629.381 22.2928 629.71 21.5439 629.841 20.7468L630.275 18.1452C630.108 18.2853 629.815 18.4124 629.394 18.5262C628.983 18.6401 628.518 18.7408 628.002 18.8284C627.485 18.916 626.977 18.9905 626.477 19.0518C625.987 19.1131 625.58 19.1701 625.256 19.2226C624.485 19.319 623.762 19.481 623.088 19.7088C622.422 19.9365 621.866 20.265 621.419 20.6942C620.972 21.1147 620.692 21.6753 620.578 22.376C620.42 23.3483 620.652 24.0841 621.274 24.5834C621.905 25.0739 622.777 25.3192 623.889 25.3192ZM643.706 16.0429L641.735 28.0259H637.807L641.17 7.84406H644.941L644.39 11.1289H644.639C645.279 10.0514 646.15 9.19302 647.254 8.55358C648.366 7.90538 649.68 7.58128 651.196 7.58128C652.562 7.58128 653.71 7.87034 654.638 8.44846C655.575 9.01783 656.237 9.8675 656.622 10.9975C657.016 12.1274 657.078 13.5246 656.806 15.1889L654.651 28.0259H650.723L652.785 15.6619C653.022 14.1991 652.829 13.0559 652.207 12.2326C651.594 11.4004 650.617 10.9843 649.277 10.9843C648.366 10.9843 647.521 11.1814 646.741 11.5756C645.971 11.9698 645.318 12.5479 644.784 13.31C644.258 14.0633 643.899 14.9743 643.706 16.0429ZM667.436 28.4201C665.798 28.4201 664.409 28.004 663.271 27.1718C662.141 26.3309 661.339 25.1353 660.866 23.5848C660.402 22.0256 660.349 20.1555 660.708 17.9744C661.076 15.7933 661.755 13.9275 662.745 12.3771C663.735 10.8267 664.935 9.63975 666.345 8.81636C667.755 7.99297 669.275 7.58128 670.904 7.58128C672.157 7.58128 673.129 7.7915 673.821 8.21196C674.522 8.62365 675.039 9.10542 675.372 9.65727C675.705 10.2091 675.954 10.6953 676.121 11.1157H676.344L678.013 1.11679H681.941L677.474 28.0259H673.637L674.176 24.8856H673.848C673.541 25.3148 673.116 25.8054 672.573 26.3572C672.039 26.909 671.356 27.3908 670.523 27.8025C669.691 28.2142 668.662 28.4201 667.436 28.4201ZM668.763 25.0696C669.893 25.0696 670.904 24.7717 671.798 24.1761C672.7 23.5717 673.449 22.7352 674.045 21.6665C674.649 20.5978 675.07 19.354 675.306 17.935C675.543 16.5335 675.538 15.3071 675.293 14.256C675.048 13.2049 674.575 12.3858 673.874 11.799C673.173 11.2121 672.249 10.9186 671.102 10.9186C669.919 10.9186 668.89 11.2252 668.014 11.8384C667.138 12.4515 666.42 13.2881 665.859 14.348C665.307 15.4079 664.922 16.6035 664.703 17.935C664.475 19.2839 664.466 20.4971 664.676 21.5745C664.887 22.6519 665.329 23.506 666.004 24.1367C666.678 24.7586 667.598 25.0696 668.763 25.0696ZM8.17281 83.4332C6.21069 83.4332 4.60332 82.9908 3.35072 82.1061C2.09812 81.2127 1.22655 79.982 0.736017 78.414C0.245487 76.8461 0.166652 75.0504 0.499512 73.0269C0.832372 70.9772 1.51123 69.1684 2.53609 67.6005C3.56971 66.0237 4.86173 64.793 6.41215 63.9083C7.97134 63.0236 9.70134 62.5813 11.6021 62.5813C13.135 62.5813 14.4533 62.866 15.557 63.4353C16.6607 63.9959 17.4973 64.7843 18.0666 65.8004C18.636 66.8165 18.8813 68.0034 18.8024 69.3611H14.9789C14.9176 68.4151 14.5672 67.6005 13.9278 66.9172C13.2883 66.234 12.3467 65.8924 11.1029 65.8924C10.0079 65.8924 9.00058 66.1814 8.08083 66.7595C7.16109 67.3289 6.38588 68.1435 5.75519 69.2034C5.12451 70.2546 4.6953 71.4984 4.46755 72.935C4.22229 74.4066 4.23543 75.6767 4.50697 76.7453C4.77851 77.814 5.2778 78.6418 6.00484 79.2286C6.73187 79.8155 7.64724 80.109 8.75093 80.109C9.50425 80.109 10.205 79.9732 10.8532 79.7017C11.5102 79.4214 12.0883 79.0228 12.5876 78.506C13.0956 77.9892 13.4898 77.3673 13.7701 76.6402H17.6068C17.2301 77.9454 16.5994 79.1104 15.7147 80.1353C14.8388 81.1601 13.7613 81.966 12.4825 82.5529C11.2036 83.1398 9.76703 83.4332 8.17281 83.4332ZM29.3105 83.4332C27.3922 83.4332 25.7892 82.9952 24.5016 82.1193C23.2139 81.2346 22.3073 79.9995 21.7817 78.414C21.2649 76.8198 21.1773 74.9672 21.519 72.8561C21.8518 70.7889 22.5219 68.9844 23.5293 67.4428C24.5454 65.9011 25.8155 64.7054 27.3396 63.8558C28.8725 63.0061 30.5762 62.5813 32.4508 62.5813C34.3691 62.5813 35.9677 63.0236 37.2466 63.9083C38.5342 64.793 39.4408 66.0325 39.9664 67.6267C40.492 69.221 40.5839 71.078 40.2423 73.1978C39.9095 75.2475 39.2306 77.0432 38.2057 78.5848C37.1896 80.1177 35.9195 81.309 34.3954 82.1587C32.8712 83.0084 31.1763 83.4332 29.3105 83.4332ZM29.5339 80.1353C30.7952 80.1353 31.8945 79.8024 32.8318 79.1367C33.7778 78.471 34.5487 77.5862 35.1443 76.4826C35.74 75.3789 36.1473 74.1701 36.3663 72.8561C36.5677 71.586 36.5633 70.4254 36.3531 69.3742C36.1516 68.3143 35.7137 67.4647 35.0392 66.8252C34.3647 66.1858 33.4275 65.8661 32.2274 65.8661C30.966 65.8661 29.858 66.2033 28.9032 66.8778C27.9572 67.5435 27.1863 68.4326 26.5907 69.5451C26.0038 70.6575 25.6052 71.8707 25.395 73.1846C25.1936 74.446 25.1936 75.6066 25.395 76.6665C25.5965 77.7176 26.0345 78.5585 26.7089 79.1892C27.3834 79.8199 28.3251 80.1353 29.5339 80.1353ZM43.0245 83.0259L46.3882 62.8441H50.1591L49.6073 66.1289H49.8569C50.4701 65.0164 51.3022 64.1492 52.3534 63.5273C53.4133 62.8966 54.6133 62.5813 55.9535 62.5813C57.285 62.5813 58.358 62.8966 59.1726 63.5273C59.996 64.158 60.5347 65.0252 60.7888 66.1289H60.999C61.6472 65.0427 62.5538 64.1799 63.7188 63.5404C64.8838 62.901 66.1933 62.5813 67.6474 62.5813C69.4606 62.5813 70.8534 63.1594 71.8257 64.3157C72.8067 65.4631 73.1046 67.1888 72.7192 69.4925L70.4592 83.0259H66.5174L68.7248 69.8604C68.9438 68.4852 68.7336 67.4953 68.0942 66.8909C67.4547 66.2778 66.6182 65.9712 65.5846 65.9712C64.3057 65.9712 63.2458 66.3654 62.4049 67.1537C61.564 67.9333 61.0472 68.9363 60.8544 70.1626L58.6865 83.0259H54.7841L57.0309 69.6108C57.2061 68.5071 57.0047 67.6267 56.4265 66.9698C55.8572 66.3041 55.025 65.9712 53.9301 65.9712C53.1855 65.9712 52.4629 66.1683 51.7621 66.5625C51.0701 66.9566 50.4789 67.4997 49.9883 68.1917C49.4978 68.8837 49.1781 69.6808 49.0292 70.5831L46.9532 83.0259H43.0245ZM75.7247 83.0259L79.0884 62.8441H82.8593L82.3075 66.1289H82.5571C83.1703 65.0164 84.0024 64.1492 85.0536 63.5273C86.1135 62.8966 87.3135 62.5813 88.6537 62.5813C89.9852 62.5813 91.0582 62.8966 91.8728 63.5273C92.6962 64.158 93.2349 65.0252 93.4889 66.1289H93.6992C94.3474 65.0427 95.254 64.1799 96.419 63.5404C97.584 62.901 98.8935 62.5813 100.348 62.5813C102.161 62.5813 103.554 63.1594 104.526 64.3157C105.507 65.4631 105.805 67.1888 105.419 69.4925L103.159 83.0259H99.2176L101.425 69.8604C101.644 68.4852 101.434 67.4953 100.794 66.8909C100.155 66.2778 99.3184 65.9712 98.2848 65.9712C97.0059 65.9712 95.946 66.3654 95.1051 67.1537C94.2642 67.9333 93.7474 68.9363 93.5546 70.1626L91.3867 83.0259H87.4843L89.7311 69.6108C89.9063 68.5071 89.7049 67.6267 89.1267 66.9698C88.5574 66.3041 87.7252 65.9712 86.6303 65.9712C85.8857 65.9712 85.1631 66.1683 84.4623 66.5625C83.7703 66.9566 83.1791 67.4997 82.6885 68.1917C82.198 68.8837 81.8783 69.6808 81.7294 70.5831L79.6534 83.0259H75.7247ZM108.412 83.0259L111.775 62.8441H115.704L112.34 83.0259H108.412ZM114.561 59.6907C113.878 59.6907 113.3 59.4629 112.827 59.0074C112.362 58.5432 112.148 57.9913 112.183 57.3519C112.218 56.7037 112.489 56.1518 112.997 55.6963C113.505 55.2321 114.097 55 114.771 55C115.454 55 116.028 55.2321 116.492 55.6963C116.957 56.1518 117.176 56.7037 117.149 57.3519C117.114 57.9913 116.843 58.5432 116.335 59.0074C115.835 59.4629 115.244 59.6907 114.561 59.6907ZM130.41 62.8441L129.898 65.9975H118.874L119.386 62.8441H130.41ZM123.131 58.0088H127.06L123.88 77.1001C123.757 77.8622 123.779 78.4359 123.946 78.8213C124.112 79.198 124.366 79.4564 124.708 79.5965C125.058 79.7279 125.448 79.7936 125.877 79.7936C126.192 79.7936 126.468 79.7717 126.705 79.7279C126.941 79.6841 127.13 79.6491 127.27 79.6228L127.48 82.8682C127.217 82.9558 126.863 83.0434 126.416 83.131C125.978 83.2273 125.443 83.2799 124.813 83.2887C123.779 83.3062 122.846 83.1222 122.014 82.7368C121.182 82.3426 120.56 81.747 120.148 80.9499C119.737 80.144 119.636 79.1323 119.846 77.9147L123.131 58.0088ZM144.177 62.8441L143.664 65.9975H132.64L133.153 62.8441H144.177ZM136.898 58.0088H140.826L137.647 77.1001C137.524 77.8622 137.546 78.4359 137.712 78.8213C137.879 79.198 138.133 79.4564 138.474 79.5965C138.825 79.7279 139.214 79.7936 139.644 79.7936C139.959 79.7936 140.235 79.7717 140.471 79.7279C140.708 79.6841 140.896 79.6491 141.036 79.6228L141.247 82.8682C140.984 82.9558 140.629 83.0434 140.182 83.131C139.744 83.2273 139.21 83.2799 138.579 83.2887C137.546 83.3062 136.613 83.1222 135.781 82.7368C134.949 82.3426 134.327 81.747 133.915 80.9499C133.503 80.144 133.403 79.1323 133.613 77.9147L136.898 58.0088ZM153.588 83.4332C151.608 83.4332 149.97 83.0084 148.674 82.1587C147.386 81.3003 146.484 80.0958 145.967 78.5454C145.45 76.9862 145.367 75.1599 145.717 73.0664C146.059 70.9991 146.747 69.1772 147.78 67.6005C148.814 66.0237 150.101 64.793 151.643 63.9083C153.193 63.0236 154.906 62.5813 156.78 62.5813C157.919 62.5813 158.992 62.7696 160 63.1463C161.016 63.5229 161.879 64.1142 162.588 64.9201C163.298 65.7259 163.788 66.7727 164.06 68.0603C164.34 69.3392 164.331 70.894 164.033 72.7247L163.81 74.1175H147.754L148.214 71.1743H160.407C160.591 70.1407 160.543 69.2253 160.262 68.4282C159.982 67.6224 159.5 66.9873 158.817 66.523C158.143 66.0588 157.293 65.8267 156.268 65.8267C155.217 65.8267 154.236 66.1026 153.325 66.6544C152.414 67.2063 151.652 67.9114 151.039 68.7698C150.434 69.6195 150.053 70.4955 149.896 71.3977L149.436 74.0912C149.208 75.5628 149.247 76.7453 149.554 77.6388C149.869 78.5323 150.421 79.1805 151.209 79.5834C151.998 79.9863 152.983 80.1878 154.166 80.1878C154.928 80.1878 155.633 80.0827 156.281 79.8725C156.938 79.6535 157.521 79.3338 158.029 78.9133C158.537 78.4841 158.962 77.9498 159.303 77.3103L162.903 77.9804C162.422 79.0754 161.73 80.0345 160.827 80.8579C159.925 81.6725 158.861 82.3076 157.635 82.7631C156.417 83.2098 155.068 83.4332 153.588 83.4332ZM174.259 83.4201C172.621 83.4201 171.233 83.004 170.094 82.1718C168.964 81.3309 168.162 80.1353 167.689 78.5848C167.225 77.0256 167.173 75.1555 167.532 72.9744C167.9 70.7933 168.578 68.9275 169.568 67.3771C170.558 65.8267 171.758 64.6398 173.168 63.8164C174.579 62.993 176.098 62.5813 177.728 62.5813C178.98 62.5813 179.953 62.7915 180.645 63.212C181.345 63.6237 181.862 64.1054 182.195 64.6573C182.528 65.2091 182.778 65.6953 182.944 66.1157H183.167L184.836 56.1168H188.765L184.297 83.0259H180.461L180.999 79.8856H180.671C180.364 80.3148 179.939 80.8054 179.396 81.3572C178.862 81.909 178.179 82.3908 177.347 82.8025C176.514 83.2142 175.485 83.4201 174.259 83.4201ZM175.586 80.0696C176.716 80.0696 177.728 79.7717 178.621 79.1761C179.523 78.5717 180.272 77.7352 180.868 76.6665C181.472 75.5978 181.893 74.354 182.129 72.935C182.366 71.5335 182.361 70.3071 182.116 69.256C181.871 68.2049 181.398 67.3858 180.697 66.799C179.996 66.2121 179.072 65.9186 177.925 65.9186C176.742 65.9186 175.713 66.2252 174.837 66.8384C173.961 67.4515 173.243 68.2881 172.682 69.348C172.13 70.4079 171.745 71.6035 171.526 72.935C171.298 74.2839 171.289 75.4971 171.5 76.5745C171.71 77.6519 172.152 78.506 172.827 79.1367C173.501 79.7586 174.421 80.0696 175.586 80.0696ZM212.468 62.8441L211.955 65.9975H200.932L201.444 62.8441H212.468ZM205.189 58.0088H209.117L205.938 77.1001C205.815 77.8622 205.837 78.4359 206.003 78.8213C206.17 79.198 206.424 79.4564 206.765 79.5965C207.116 79.7279 207.505 79.7936 207.935 79.7936C208.25 79.7936 208.526 79.7717 208.762 79.7279C208.999 79.6841 209.187 79.6491 209.327 79.6228L209.538 82.8682C209.275 82.9558 208.92 83.0434 208.473 83.131C208.035 83.2273 207.501 83.2799 206.87 83.2887C205.837 83.3062 204.904 83.1222 204.072 82.7368C203.24 82.3426 202.618 81.747 202.206 80.9499C201.794 80.144 201.694 79.1323 201.904 77.9147L205.189 58.0088ZM221.826 83.4332C219.908 83.4332 218.305 82.9952 217.017 82.1193C215.73 81.2346 214.823 79.9995 214.297 78.414C213.781 76.8198 213.693 74.9672 214.035 72.8561C214.367 70.7889 215.038 68.9844 216.045 67.4428C217.061 65.9011 218.331 64.7054 219.855 63.8558C221.388 63.0061 223.092 62.5813 224.966 62.5813C226.885 62.5813 228.483 63.0236 229.762 63.9083C231.05 64.793 231.956 66.0325 232.482 67.6267C233.008 69.221 233.1 71.078 232.758 73.1978C232.425 75.2475 231.746 77.0432 230.721 78.5848C229.705 80.1177 228.435 81.309 226.911 82.1587C225.387 83.0084 223.692 83.4332 221.826 83.4332ZM222.049 80.1353C223.311 80.1353 224.41 79.8024 225.347 79.1367C226.293 78.471 227.064 77.5862 227.66 76.4826C228.256 75.3789 228.663 74.1701 228.882 72.8561C229.083 71.586 229.079 70.4254 228.869 69.3742C228.667 68.3143 228.229 67.4647 227.555 66.8252C226.88 66.1858 225.943 65.8661 224.743 65.8661C223.482 65.8661 222.374 66.2033 221.419 66.8778C220.473 67.5435 219.702 68.4326 219.106 69.5451C218.519 70.6575 218.121 71.8707 217.911 73.1846C217.709 74.446 217.709 75.6066 217.911 76.6665C218.112 77.7176 218.55 78.5585 219.225 79.1892C219.899 79.8199 220.841 80.1353 222.049 80.1353ZM253.768 83.4332C251.805 83.4332 250.198 82.9908 248.945 82.1061C247.693 81.2127 246.821 79.982 246.331 78.414C245.84 76.8461 245.761 75.0504 246.094 73.0269C246.427 70.9772 247.106 69.1684 248.131 67.6005C249.164 66.0237 250.456 64.793 252.007 63.9083C253.566 63.0236 255.296 62.5813 257.197 62.5813C258.73 62.5813 260.048 62.866 261.152 63.4353C262.255 63.9959 263.092 64.7843 263.661 65.8004C264.231 66.8165 264.476 68.0034 264.397 69.3611H260.574C260.512 68.4151 260.162 67.6005 259.523 66.9172C258.883 66.234 257.941 65.8924 256.698 65.8924C255.603 65.8924 254.595 66.1814 253.676 66.7595C252.756 67.3289 251.981 68.1435 251.35 69.2034C250.719 70.2546 250.29 71.4984 250.062 72.935C249.817 74.4066 249.83 75.6767 250.102 76.7453C250.373 77.814 250.873 78.6418 251.6 79.2286C252.327 79.8155 253.242 80.109 254.346 80.109C255.099 80.109 255.8 79.9732 256.448 79.7017C257.105 79.4214 257.683 79.0228 258.182 78.506C258.69 77.9892 259.085 77.3673 259.365 76.6402H263.201C262.825 77.9454 262.194 79.1104 261.309 80.1353C260.433 81.1601 259.356 81.966 258.077 82.5529C256.798 83.1398 255.362 83.4332 253.768 83.4332ZM266.312 83.0259L269.676 62.8441H273.473L272.934 66.05H273.145C273.688 64.9639 274.48 64.1098 275.523 63.4879C276.565 62.8572 277.678 62.5419 278.86 62.5419C279.114 62.5419 279.403 62.5506 279.727 62.5681C280.051 62.5769 280.314 62.5988 280.516 62.6338L279.885 66.3916C279.736 66.3478 279.465 66.2997 279.07 66.2471C278.676 66.1858 278.269 66.1551 277.848 66.1551C276.929 66.1551 276.075 66.3522 275.286 66.7464C274.498 67.1318 273.837 67.6705 273.302 68.3625C272.768 69.0458 272.422 69.8254 272.264 70.7013L270.241 83.0259H266.312ZM288.508 83.4332C286.528 83.4332 284.89 83.0084 283.594 82.1587C282.306 81.3003 281.404 80.0958 280.887 78.5454C280.37 76.9862 280.287 75.1599 280.637 73.0664C280.979 70.9991 281.666 69.1772 282.7 67.6005C283.734 66.0237 285.021 64.793 286.563 63.9083C288.113 63.0236 289.826 62.5813 291.7 62.5813C292.839 62.5813 293.912 62.7696 294.92 63.1463C295.936 63.5229 296.798 64.1142 297.508 64.9201C298.217 65.7259 298.708 66.7727 298.98 68.0603C299.26 69.3392 299.251 70.894 298.953 72.7247L298.73 74.1175H282.674L283.134 71.1743H295.327C295.511 70.1407 295.463 69.2253 295.182 68.4282C294.902 67.6224 294.42 66.9873 293.737 66.523C293.063 66.0588 292.213 65.8267 291.188 65.8267C290.137 65.8267 289.156 66.1026 288.245 66.6544C287.334 67.2063 286.572 67.9114 285.959 68.7698C285.354 69.6195 284.973 70.4955 284.815 71.3977L284.356 74.0912C284.128 75.5628 284.167 76.7453 284.474 77.6388C284.789 78.5323 285.341 79.1805 286.129 79.5834C286.918 79.9863 287.903 80.1878 289.086 80.1878C289.848 80.1878 290.553 80.0827 291.201 79.8725C291.858 79.6535 292.441 79.3338 292.949 78.9133C293.457 78.4841 293.882 77.9498 294.223 77.3103L297.823 77.9804C297.342 79.0754 296.65 80.0345 295.747 80.8579C294.845 81.6725 293.781 82.3076 292.554 82.7631C291.337 83.2098 289.988 83.4332 288.508 83.4332ZM307.471 83.4726C306.192 83.4726 305.075 83.2361 304.12 82.7631C303.165 82.2813 302.46 81.5849 302.005 80.674C301.549 79.763 301.431 78.6461 301.65 77.3235C301.843 76.1847 302.219 75.2475 302.78 74.5117C303.349 73.7759 304.041 73.1934 304.856 72.7642C305.671 72.3262 306.555 71.9977 307.51 71.7787C308.465 71.5597 309.428 71.3977 310.401 71.2926C311.627 71.1524 312.621 71.0342 313.383 70.9378C314.154 70.8415 314.732 70.6925 315.118 70.4911C315.503 70.2809 315.735 69.9392 315.814 69.4662V69.3742C315.998 68.2355 315.832 67.3508 315.315 66.7201C314.807 66.0807 313.922 65.761 312.661 65.761C311.347 65.761 310.243 66.05 309.35 66.6282C308.465 67.2063 307.812 67.8545 307.392 68.5728L303.871 67.7318C304.501 66.5055 305.303 65.5157 306.275 64.7624C307.256 64.0003 308.329 63.4485 309.494 63.1068C310.659 62.7565 311.85 62.5813 313.068 62.5813C313.874 62.5813 314.71 62.6776 315.578 62.8703C316.445 63.0543 317.233 63.3959 317.943 63.8952C318.661 64.3945 319.195 65.1084 319.546 66.0369C319.896 66.9566 319.949 68.1523 319.703 69.6239L317.483 83.0259H313.646L314.119 80.2666H313.962C313.629 80.7747 313.164 81.274 312.569 81.7645C311.982 82.255 311.264 82.6624 310.414 82.9865C309.564 83.3106 308.583 83.4726 307.471 83.4726ZM308.811 80.3192C309.906 80.3192 310.874 80.1046 311.715 79.6754C312.564 79.2462 313.252 78.6856 313.778 77.9936C314.303 77.2928 314.632 76.5439 314.763 75.7468L315.197 73.1452C315.03 73.2853 314.737 73.4124 314.316 73.5262C313.905 73.6401 313.44 73.7408 312.924 73.8284C312.407 73.916 311.899 73.9905 311.399 74.0518C310.909 74.1131 310.502 74.1701 310.177 74.2226C309.407 74.319 308.684 74.481 308.009 74.7088C307.344 74.9365 306.788 75.265 306.341 75.6942C305.894 76.1147 305.614 76.6753 305.5 77.376C305.342 78.3483 305.574 79.0841 306.196 79.5834C306.827 80.0739 307.698 80.3192 308.811 80.3192ZM335.5 62.8441L334.988 65.9975H323.964L324.476 62.8441H335.5ZM328.221 58.0088H332.149L328.97 77.1001C328.847 77.8622 328.869 78.4359 329.035 78.8213C329.202 79.198 329.456 79.4564 329.798 79.5965C330.148 79.7279 330.538 79.7936 330.967 79.7936C331.282 79.7936 331.558 79.7717 331.795 79.7279C332.031 79.6841 332.22 79.6491 332.36 79.6228L332.57 82.8682C332.307 82.9558 331.952 83.0434 331.506 83.131C331.068 83.2273 330.533 83.2799 329.903 83.2887C328.869 83.3062 327.936 83.1222 327.104 82.7368C326.272 82.3426 325.65 81.747 325.238 80.9499C324.827 80.144 324.726 79.1323 324.936 77.9147L328.221 58.0088ZM336.482 83.0259L339.846 62.8441H343.774L340.411 83.0259H336.482ZM342.631 59.6907C341.948 59.6907 341.37 59.4629 340.897 59.0074C340.433 58.5432 340.218 57.9913 340.253 57.3519C340.288 56.7037 340.56 56.1518 341.068 55.6963C341.576 55.2321 342.167 55 342.841 55C343.525 55 344.098 55.2321 344.563 55.6963C345.027 56.1518 345.246 56.7037 345.22 57.3519C345.185 57.9913 344.913 58.5432 344.405 59.0074C343.906 59.4629 343.314 59.6907 342.631 59.6907ZM351.609 71.0429L349.638 83.0259H345.709L349.073 62.8441H352.844L352.292 66.1289H352.542C353.181 65.0514 354.053 64.193 355.156 63.5536C356.269 62.9054 357.583 62.5813 359.098 62.5813C360.464 62.5813 361.612 62.8703 362.54 63.4485C363.478 64.0178 364.139 64.8675 364.524 65.9975C364.919 67.1274 364.98 68.5246 364.708 70.1889L362.554 83.0259H358.625L360.688 70.6619C360.924 69.1991 360.732 68.0559 360.11 67.2326C359.497 66.4004 358.52 65.9843 357.18 65.9843C356.269 65.9843 355.423 66.1814 354.644 66.5756C353.873 66.9698 353.22 67.5479 352.686 68.31C352.16 69.0633 351.801 69.9743 351.609 71.0429ZM375.01 91.0145C373.398 91.0145 372.049 90.8043 370.963 90.3838C369.885 89.9634 369.036 89.4072 368.414 88.7152C367.801 88.0232 367.376 87.2655 367.139 86.4421L370.766 85.0493C370.941 85.4347 371.186 85.842 371.501 86.2713C371.817 86.7092 372.285 87.0815 372.907 87.3881C373.538 87.6947 374.401 87.848 375.496 87.848C376.985 87.848 378.286 87.4844 379.398 86.7574C380.51 86.0391 381.198 84.8916 381.461 83.3149L382.078 79.3469H381.829C381.531 79.7761 381.119 80.2535 380.594 80.7791C380.068 81.3046 379.389 81.7601 378.557 82.1456C377.725 82.531 376.691 82.7237 375.456 82.7237C373.862 82.7237 372.487 82.3514 371.331 81.6068C370.183 80.8535 369.36 79.7455 368.86 78.2826C368.361 76.811 368.291 75.0022 368.65 72.8561C369.001 70.7101 369.666 68.8706 370.647 67.3377C371.637 65.8048 372.837 64.631 374.247 63.8164C375.667 62.993 377.186 62.5813 378.807 62.5813C380.059 62.5813 381.036 62.7915 381.737 63.212C382.446 63.6237 382.972 64.1054 383.314 64.6573C383.655 65.2091 383.905 65.6953 384.062 66.1157H384.352L384.89 62.8441H388.74L385.324 83.4726C385.044 85.207 384.408 86.6304 383.419 87.7429C382.438 88.8553 381.216 89.6787 379.753 90.213C378.299 90.7474 376.718 91.0145 375.01 91.0145ZM376.796 79.4652C377.918 79.4652 378.916 79.2024 379.792 78.6768C380.677 78.1425 381.413 77.3804 382 76.3906C382.586 75.392 382.994 74.1963 383.222 72.8036C383.449 71.4459 383.436 70.2502 383.182 69.2166C382.937 68.183 382.459 67.3771 381.75 66.799C381.049 66.2121 380.134 65.9186 379.004 65.9186C377.813 65.9186 376.779 66.2252 375.903 66.8384C375.027 67.4428 374.313 68.2662 373.761 69.3085C373.218 70.3509 372.837 71.5159 372.618 72.8036C372.408 74.1263 372.412 75.2869 372.631 76.2855C372.859 77.284 373.315 78.0636 373.998 78.6242C374.681 79.1849 375.614 79.4652 376.796 79.4652ZM413.222 62.8441L412.709 65.9975H401.685L402.198 62.8441H413.222ZM405.943 58.0088H409.871L406.691 77.1001C406.569 77.8622 406.591 78.4359 406.757 78.8213C406.924 79.198 407.178 79.4564 407.519 79.5965C407.87 79.7279 408.259 79.7936 408.689 79.7936C409.004 79.7936 409.28 79.7717 409.516 79.7279C409.753 79.6841 409.941 79.6491 410.081 79.6228L410.292 82.8682C410.029 82.9558 409.674 83.0434 409.227 83.131C408.789 83.2273 408.255 83.2799 407.624 83.2887C406.591 83.3062 405.658 83.1222 404.826 82.7368C403.994 82.3426 403.372 81.747 402.96 80.9499C402.548 80.144 402.447 79.1323 402.658 77.9147L405.943 58.0088ZM422.633 83.4332C420.653 83.4332 419.015 83.0084 417.719 82.1587C416.431 81.3003 415.529 80.0958 415.012 78.5454C414.495 76.9862 414.412 75.1599 414.762 73.0664C415.104 70.9991 415.791 69.1772 416.825 67.6005C417.859 66.0237 419.146 64.793 420.688 63.9083C422.238 63.0236 423.951 62.5813 425.825 62.5813C426.964 62.5813 428.037 62.7696 429.045 63.1463C430.061 63.5229 430.923 64.1142 431.633 64.9201C432.342 65.7259 432.833 66.7727 433.105 68.0603C433.385 69.3392 433.376 70.894 433.078 72.7247L432.855 74.1175H416.799L417.259 71.1743H429.452C429.636 70.1407 429.588 69.2253 429.307 68.4282C429.027 67.6224 428.545 66.9873 427.862 66.523C427.188 66.0588 426.338 65.8267 425.313 65.8267C424.262 65.8267 423.281 66.1026 422.37 66.6544C421.459 67.2063 420.697 67.9114 420.084 68.7698C419.479 69.6195 419.098 70.4955 418.94 71.3977L418.481 74.0912C418.253 75.5628 418.292 76.7453 418.599 77.6388C418.914 78.5323 419.466 79.1805 420.254 79.5834C421.043 79.9863 422.028 80.1878 423.211 80.1878C423.973 80.1878 424.678 80.0827 425.326 79.8725C425.983 79.6535 426.566 79.3338 427.074 78.9133C427.582 78.4841 428.007 77.9498 428.348 77.3103L431.948 77.9804C431.467 79.0754 430.775 80.0345 429.872 80.8579C428.97 81.6725 427.906 82.3076 426.679 82.7631C425.462 83.2098 424.113 83.4332 422.633 83.4332ZM444.224 83.4332C442.261 83.4332 440.654 82.9908 439.402 82.1061C438.149 81.2127 437.277 79.982 436.787 78.414C436.296 76.8461 436.217 75.0504 436.55 73.0269C436.883 70.9772 437.562 69.1684 438.587 67.6005C439.62 66.0237 440.913 64.793 442.463 63.9083C444.022 63.0236 445.752 62.5813 447.653 62.5813C449.186 62.5813 450.504 62.866 451.608 63.4353C452.712 63.9959 453.548 64.7843 454.117 65.8004C454.687 66.8165 454.932 68.0034 454.853 69.3611H451.03C450.968 68.4151 450.618 67.6005 449.979 66.9172C449.339 66.234 448.397 65.8924 447.154 65.8924C446.059 65.8924 445.051 66.1814 444.132 66.7595C443.212 67.3289 442.437 68.1435 441.806 69.2034C441.175 70.2546 440.746 71.4984 440.518 72.935C440.273 74.4066 440.286 75.6767 440.558 76.7453C440.829 77.814 441.329 78.6418 442.056 79.2286C442.783 79.8155 443.698 80.109 444.802 80.109C445.555 80.109 446.256 79.9732 446.904 79.7017C447.561 79.4214 448.139 79.0228 448.638 78.506C449.146 77.9892 449.541 77.3673 449.821 76.6402H453.658C453.281 77.9454 452.65 79.1104 451.765 80.1353C450.89 81.1601 449.812 81.966 448.533 82.5529C447.254 83.1398 445.818 83.4332 444.224 83.4332ZM462.681 71.0429L460.71 83.0259H456.781L461.249 56.1168H465.125L463.469 66.1289H463.719C464.358 65.0339 465.217 64.1711 466.294 63.5404C467.38 62.901 468.712 62.5813 470.288 62.5813C471.672 62.5813 472.833 62.866 473.77 63.4353C474.716 64.0047 475.382 64.8544 475.768 65.9843C476.162 67.1055 476.223 68.5071 475.951 70.1889L473.797 83.0259H469.868L471.918 70.6619C472.163 69.1815 471.97 68.034 471.34 67.2194C470.709 66.396 469.724 65.9843 468.383 65.9843C467.446 65.9843 466.579 66.1814 465.782 66.5756C464.993 66.9698 464.328 67.5479 463.785 68.31C463.241 69.0633 462.874 69.9743 462.681 71.0429ZM484.939 71.0429L482.968 83.0259H479.039L482.403 62.8441H486.174L485.622 66.1289H485.872C486.511 65.0514 487.383 64.193 488.486 63.5536C489.599 62.9054 490.913 62.5813 492.428 62.5813C493.795 62.5813 494.942 62.8703 495.871 63.4485C496.808 64.0178 497.469 64.8675 497.855 65.9975C498.249 67.1274 498.31 68.5246 498.038 70.1889L495.884 83.0259H491.955L494.018 70.6619C494.254 69.1991 494.062 68.0559 493.44 67.2326C492.827 66.4004 491.85 65.9843 490.51 65.9843C489.599 65.9843 488.753 66.1814 487.974 66.5756C487.203 66.9698 486.55 67.5479 486.016 68.31C485.491 69.0633 485.131 69.9743 484.939 71.0429ZM509.732 83.4332C507.814 83.4332 506.211 82.9952 504.923 82.1193C503.636 81.2346 502.729 79.9995 502.204 78.414C501.687 76.8198 501.599 74.9672 501.941 72.8561C502.274 70.7889 502.944 68.9844 503.951 67.4428C504.967 65.9011 506.237 64.7054 507.761 63.8558C509.294 63.0061 510.998 62.5813 512.873 62.5813C514.791 62.5813 516.39 63.0236 517.668 63.9083C518.956 64.793 519.863 66.0325 520.388 67.6267C520.914 69.221 521.006 71.078 520.664 73.1978C520.331 75.2475 519.652 77.0432 518.628 78.5848C517.612 80.1177 516.341 81.309 514.817 82.1587C513.293 83.0084 511.598 83.4332 509.732 83.4332ZM509.956 80.1353C511.217 80.1353 512.316 79.8024 513.254 79.1367C514.2 78.471 514.971 77.5862 515.566 76.4826C516.162 75.3789 516.569 74.1701 516.788 72.8561C516.99 71.586 516.985 70.4254 516.775 69.3742C516.574 68.3143 516.136 67.4647 515.461 66.8252C514.787 66.1858 513.849 65.8661 512.649 65.8661C511.388 65.8661 510.28 66.2033 509.325 66.8778C508.379 67.5435 507.608 68.4326 507.013 69.5451C506.426 70.6575 506.027 71.8707 505.817 73.1846C505.615 74.446 505.615 75.6066 505.817 76.6665C506.018 77.7176 506.456 78.5585 507.131 79.1892C507.805 79.8199 508.747 80.1353 509.956 80.1353ZM531.829 56.1168L527.362 83.0259H523.433L527.901 56.1168H531.829ZM541.24 83.4332C539.322 83.4332 537.719 82.9952 536.431 82.1193C535.144 81.2346 534.237 79.9995 533.711 78.414C533.195 76.8198 533.107 74.9672 533.449 72.8561C533.782 70.7889 534.452 68.9844 535.459 67.4428C536.475 65.9011 537.745 64.7054 539.269 63.8558C540.802 63.0061 542.506 62.5813 544.38 62.5813C546.299 62.5813 547.897 63.0236 549.176 63.9083C550.464 64.793 551.371 66.0325 551.896 67.6267C552.422 69.221 552.514 71.078 552.172 73.1978C551.839 75.2475 551.16 77.0432 550.135 78.5848C549.119 80.1177 547.849 81.309 546.325 82.1587C544.801 83.0084 543.106 83.4332 541.24 83.4332ZM541.464 80.1353C542.725 80.1353 543.824 79.8024 544.761 79.1367C545.708 78.471 546.478 77.5862 547.074 76.4826C547.67 75.3789 548.077 74.1701 548.296 72.8561C548.497 71.586 548.493 70.4254 548.283 69.3742C548.081 68.3143 547.643 67.4647 546.969 66.8252C546.294 66.1858 545.357 65.8661 544.157 65.8661C542.896 65.8661 541.788 66.2033 540.833 66.8778C539.887 67.5435 539.116 68.4326 538.52 69.5451C537.933 70.6575 537.535 71.8707 537.325 73.1846C537.123 74.446 537.123 75.6066 537.325 76.6665C537.526 77.7176 537.964 78.5585 538.639 79.1892C539.313 79.8199 540.255 80.1353 541.464 80.1353ZM562.141 91.0145C560.53 91.0145 559.181 90.8043 558.095 90.3838C557.017 89.9634 556.167 89.4072 555.545 88.7152C554.932 88.0232 554.508 87.2655 554.271 86.4421L557.897 85.0493C558.073 85.4347 558.318 85.842 558.633 86.2713C558.949 86.7092 559.417 87.0815 560.039 87.3881C560.67 87.6947 561.533 87.848 562.628 87.848C564.117 87.848 565.417 87.4844 566.53 86.7574C567.642 86.0391 568.33 84.8916 568.593 83.3149L569.21 79.3469H568.961C568.663 79.7761 568.251 80.2535 567.726 80.7791C567.2 81.3046 566.521 81.7601 565.689 82.1456C564.857 82.531 563.823 82.7237 562.588 82.7237C560.994 82.7237 559.619 82.3514 558.462 81.6068C557.315 80.8535 556.492 79.7455 555.992 78.2826C555.493 76.811 555.423 75.0022 555.782 72.8561C556.132 70.7101 556.798 68.8706 557.779 67.3377C558.769 65.8048 559.969 64.631 561.379 63.8164C562.798 62.993 564.318 62.5813 565.939 62.5813C567.191 62.5813 568.168 62.7915 568.869 63.212C569.578 63.6237 570.104 64.1054 570.445 64.6573C570.787 65.2091 571.037 65.6953 571.194 66.1157H571.483L572.022 62.8441H575.872L572.456 83.4726C572.175 85.207 571.54 86.6304 570.55 87.7429C569.569 88.8553 568.347 89.6787 566.885 90.213C565.431 90.7474 563.849 91.0145 562.141 91.0145ZM563.928 79.4652C565.05 79.4652 566.048 79.2024 566.924 78.6768C567.809 78.1425 568.545 77.3804 569.131 76.3906C569.718 75.392 570.126 74.1963 570.353 72.8036C570.581 71.4459 570.568 70.2502 570.314 69.2166C570.069 68.183 569.591 67.3771 568.882 66.799C568.181 66.2121 567.266 65.9186 566.136 65.9186C564.944 65.9186 563.911 66.2252 563.035 66.8384C562.159 67.4428 561.445 68.2662 560.893 69.3085C560.35 70.3509 559.969 71.5159 559.75 72.8036C559.54 74.1263 559.544 75.2869 559.763 76.2855C559.991 77.284 560.446 78.0636 561.13 78.6242C561.813 79.1849 562.746 79.4652 563.928 79.4652ZM579.025 90.5941C578.43 90.5941 577.9 90.5459 577.435 90.4495C576.971 90.3619 576.625 90.2656 576.397 90.1605L577.895 86.9414C578.587 87.1341 579.205 87.2085 579.748 87.1647C580.3 87.1209 580.817 86.8932 581.298 86.4815C581.78 86.0698 582.271 85.4216 582.77 84.5369L583.506 83.2098L579.551 62.8441H583.598L586.094 78.5454H586.304L594.03 62.8441H598.406L586.304 85.6931C585.735 86.7793 585.087 87.6815 584.36 88.3998C583.641 89.1268 582.836 89.6743 581.942 90.0422C581.057 90.4101 580.085 90.5941 579.025 90.5941ZM621.311 62.8441L620.798 65.9975H609.774L610.287 62.8441H621.311ZM614.031 58.0088H617.96L614.78 77.1001C614.658 77.8622 614.68 78.4359 614.846 78.8213C615.012 79.198 615.266 79.4564 615.608 79.5965C615.958 79.7279 616.348 79.7936 616.777 79.7936C617.093 79.7936 617.369 79.7717 617.605 79.7279C617.842 79.6841 618.03 79.6491 618.17 79.6228L618.38 82.8682C618.118 82.9558 617.763 83.0434 617.316 83.131C616.878 83.2273 616.344 83.2799 615.713 83.2887C614.68 83.3062 613.747 83.1222 612.915 82.7368C612.082 82.3426 611.46 81.747 611.049 80.9499C610.637 80.144 610.536 79.1323 610.747 77.9147L614.031 58.0088ZM628.639 71.0429L626.668 83.0259H622.739L627.207 56.1168H631.083L629.427 66.1289H629.677C630.316 65.0339 631.175 64.1711 632.252 63.5404C633.338 62.901 634.67 62.5813 636.246 62.5813C637.63 62.5813 638.791 62.866 639.728 63.4353C640.674 64.0047 641.34 64.8544 641.726 65.9843C642.12 67.1055 642.181 68.5071 641.909 70.1889L639.755 83.0259H635.826L637.876 70.6619C638.121 69.1815 637.928 68.034 637.298 67.2194C636.667 66.396 635.682 65.9843 634.341 65.9843C633.404 65.9843 632.537 66.1814 631.74 66.5756C630.951 66.9698 630.286 67.5479 629.743 68.31C629.2 69.0633 628.832 69.9743 628.639 71.0429ZM650.805 83.4726C649.526 83.4726 648.409 83.2361 647.454 82.7631C646.499 82.2813 645.794 81.5849 645.339 80.674C644.883 79.763 644.765 78.6461 644.984 77.3235C645.177 76.1847 645.553 75.2475 646.114 74.5117C646.683 73.7759 647.375 73.1934 648.19 72.7642C649.005 72.3262 649.889 71.9977 650.844 71.7787C651.799 71.5597 652.762 71.3977 653.735 71.2926C654.961 71.1524 655.955 71.0342 656.717 70.9378C657.488 70.8415 658.066 70.6925 658.452 70.4911C658.837 70.2809 659.069 69.9392 659.148 69.4662V69.3742C659.332 68.2355 659.166 67.3508 658.649 66.7201C658.141 66.0807 657.256 65.761 655.995 65.761C654.681 65.761 653.577 66.05 652.684 66.6282C651.799 67.2063 651.146 67.8545 650.726 68.5728L647.205 67.7318C647.835 66.5055 648.637 65.5157 649.609 64.7624C650.59 64.0003 651.663 63.4485 652.828 63.1068C653.993 62.7565 655.184 62.5813 656.402 62.5813C657.208 62.5813 658.044 62.6776 658.912 62.8703C659.779 63.0543 660.567 63.3959 661.277 63.8952C661.995 64.3945 662.529 65.1084 662.88 66.0369C663.23 66.9566 663.283 68.1523 663.037 69.6239L660.817 83.0259H656.98L657.453 80.2666H657.295C656.963 80.7747 656.498 81.274 655.903 81.7645C655.316 82.255 654.598 82.6624 653.748 82.9865C652.898 83.3106 651.917 83.4726 650.805 83.4726ZM652.145 80.3192C653.24 80.3192 654.208 80.1046 655.049 79.6754C655.898 79.2462 656.586 78.6856 657.112 77.9936C657.637 77.2928 657.966 76.5439 658.097 75.7468L658.531 73.1452C658.364 73.2853 658.071 73.4124 657.65 73.5262C657.239 73.6401 656.774 73.7408 656.258 73.8284C655.741 73.916 655.233 73.9905 654.733 74.0518C654.243 74.1131 653.836 74.1701 653.511 74.2226C652.741 74.319 652.018 74.481 651.343 74.7088C650.678 74.9365 650.121 75.265 649.675 75.6942C649.228 76.1147 648.948 76.6753 648.834 77.376C648.676 78.3483 648.908 79.0841 649.53 79.5834C650.161 80.0739 651.032 80.3192 652.145 80.3192ZM678.834 62.8441L678.322 65.9975H667.298L667.81 62.8441H678.834ZM671.555 58.0088H675.483L672.304 77.1001C672.181 77.8622 672.203 78.4359 672.369 78.8213C672.536 79.198 672.79 79.4564 673.132 79.5965C673.482 79.7279 673.872 79.7936 674.301 79.7936C674.616 79.7936 674.892 79.7717 675.129 79.7279C675.365 79.6841 675.554 79.6491 675.694 79.6228L675.904 82.8682C675.641 82.9558 675.286 83.0434 674.84 83.131C674.402 83.2273 673.867 83.2799 673.237 83.2887C672.203 83.3062 671.27 83.1222 670.438 82.7368C669.606 82.3426 668.984 81.747 668.572 80.9499C668.161 80.144 668.06 79.1323 668.27 77.9147L671.555 58.0088ZM12.5087 117.844L11.9963 120.997H0.972523L1.48495 117.844H12.5087ZM5.22963 113.009H9.15825L5.97856 132.1C5.85593 132.862 5.87783 133.436 6.04426 133.821C6.21069 134.198 6.46471 134.456 6.80633 134.597C7.15671 134.728 7.54651 134.794 7.97572 134.794C8.29106 134.794 8.56698 134.772 8.80349 134.728C9.04 134.684 9.22832 134.649 9.36848 134.623L9.5787 137.868C9.31592 137.956 8.96116 138.043 8.51443 138.131C8.07645 138.227 7.54213 138.28 6.91144 138.289C5.87783 138.306 4.94494 138.122 4.11279 137.737C3.28064 137.343 2.65872 136.747 2.24703 135.95C1.83533 135.144 1.7346 134.132 1.94482 132.915L5.22963 113.009ZM13.4909 138.026L16.8545 117.844H20.6518L20.1131 121.05H20.3233C20.8664 119.964 21.6591 119.11 22.7015 118.488C23.7439 117.857 24.8563 117.542 26.0388 117.542C26.2929 117.542 26.5819 117.551 26.906 117.568C27.2301 117.577 27.4929 117.599 27.6944 117.634L27.0637 121.392C26.9148 121.348 26.6432 121.3 26.2491 121.247C25.8549 121.186 25.4476 121.155 25.0271 121.155C24.1074 121.155 23.2533 121.352 22.465 121.746C21.6766 122.132 21.0153 122.671 20.481 123.363C19.9466 124.046 19.6006 124.825 19.443 125.701L17.4195 138.026H13.4909ZM41.9406 129.656L43.9114 117.844H47.8532L44.4896 138.026H40.6266L41.2179 134.531H41.0077C40.377 135.608 39.4835 136.506 38.3273 137.224C37.1798 137.934 35.8484 138.289 34.333 138.289C33.0366 138.289 31.9372 138.004 31.035 137.435C30.1416 136.856 29.5065 136.002 29.1298 134.872C28.7532 133.742 28.7006 132.345 28.9722 130.681L31.127 117.844H35.0556L32.9928 130.208C32.7738 131.583 32.9796 132.678 33.6103 133.493C34.241 134.307 35.1607 134.715 36.3695 134.715C37.1053 134.715 37.8674 134.531 38.6558 134.163C39.4441 133.795 40.1405 133.239 40.7449 132.494C41.3581 131.75 41.7566 130.804 41.9406 129.656ZM58.1642 111.117L53.6969 138.026H49.7682L54.2356 111.117H58.1642ZM60.2303 145.594C59.6347 145.594 59.1047 145.546 58.6405 145.45C58.1762 145.362 57.8302 145.266 57.6025 145.16L59.1004 141.941C59.7924 142.134 60.4099 142.209 60.953 142.165C61.5048 142.121 62.0216 141.893 62.5034 141.481C62.9852 141.07 63.4757 140.422 63.975 139.537L64.7108 138.21L60.7559 117.844H64.8028L67.2992 133.545H67.5095L75.2353 117.844H79.6107L67.5095 140.693C66.9401 141.779 66.2919 142.682 65.5649 143.4C64.8466 144.127 64.0407 144.674 63.1472 145.042C62.2625 145.41 61.2902 145.594 60.2303 145.594ZM89.7443 138.026L93.1079 117.844H96.8789L96.327 121.129H96.5767C97.1898 120.016 98.022 119.149 99.0731 118.527C100.133 117.897 101.333 117.581 102.673 117.581C104.005 117.581 105.078 117.897 105.892 118.527C106.716 119.158 107.254 120.025 107.508 121.129H107.719C108.367 120.043 109.274 119.18 110.439 118.54C111.604 117.901 112.913 117.581 114.367 117.581C116.18 117.581 117.573 118.159 118.545 119.316C119.526 120.463 119.824 122.189 119.439 124.492L117.179 138.026H113.237L115.445 124.86C115.664 123.485 115.453 122.495 114.814 121.891C114.174 121.278 113.338 120.971 112.304 120.971C111.025 120.971 109.966 121.365 109.125 122.154C108.284 122.933 107.767 123.936 107.574 125.163L105.406 138.026H101.504L103.751 124.611C103.926 123.507 103.724 122.627 103.146 121.97C102.577 121.304 101.745 120.971 100.65 120.971C99.9053 120.971 99.1826 121.168 98.4818 121.562C97.7898 121.957 97.1986 122.5 96.7081 123.192C96.2175 123.884 95.8978 124.681 95.7489 125.583L93.6729 138.026H89.7443ZM128.252 138.473C126.973 138.473 125.856 138.236 124.902 137.763C123.947 137.281 123.242 136.585 122.786 135.674C122.331 134.763 122.212 133.646 122.431 132.323C122.624 131.185 123.001 130.247 123.561 129.512C124.131 128.776 124.823 128.193 125.637 127.764C126.452 127.326 127.337 126.998 128.291 126.779C129.246 126.56 130.21 126.398 131.182 126.293C132.408 126.152 133.403 126.034 134.165 125.938C134.935 125.841 135.514 125.693 135.899 125.491C136.284 125.281 136.517 124.939 136.595 124.466V124.374C136.779 123.236 136.613 122.351 136.096 121.72C135.588 121.081 134.703 120.761 133.442 120.761C132.128 120.761 131.024 121.05 130.131 121.628C129.246 122.206 128.594 122.854 128.173 123.573L124.652 122.732C125.283 121.506 126.084 120.516 127.056 119.762C128.037 119 129.11 118.448 130.275 118.107C131.44 117.756 132.632 117.581 133.849 117.581C134.655 117.581 135.492 117.678 136.359 117.87C137.226 118.054 138.014 118.396 138.724 118.895C139.442 119.394 139.977 120.108 140.327 121.037C140.677 121.957 140.73 123.152 140.485 124.624L138.264 138.026H134.427L134.9 135.267H134.743C134.41 135.775 133.946 136.274 133.35 136.765C132.763 137.255 132.045 137.662 131.195 137.986C130.346 138.311 129.364 138.473 128.252 138.473ZM129.592 135.319C130.687 135.319 131.655 135.105 132.496 134.675C133.346 134.246 134.033 133.686 134.559 132.994C135.084 132.293 135.413 131.544 135.544 130.747L135.978 128.145C135.811 128.285 135.518 128.412 135.098 128.526C134.686 128.64 134.222 128.741 133.705 128.828C133.188 128.916 132.68 128.99 132.181 129.052C131.69 129.113 131.283 129.17 130.959 129.223C130.188 129.319 129.465 129.481 128.791 129.709C128.125 129.937 127.569 130.265 127.122 130.694C126.675 131.115 126.395 131.675 126.281 132.376C126.123 133.348 126.356 134.084 126.977 134.583C127.608 135.074 128.48 135.319 129.592 135.319ZM148.24 131.18L148.989 126.385H149.685L159.172 117.844H163.876L153.102 127.567H152.484L148.24 131.18ZM143.497 138.026L147.964 111.117H151.893L147.425 138.026H143.497ZM156.242 138.026L150.618 128.434L153.758 125.688L161.064 138.026H156.242ZM171.907 138.433C169.927 138.433 168.289 138.008 166.993 137.159C165.705 136.3 164.803 135.096 164.286 133.545C163.769 131.986 163.686 130.16 164.037 128.066C164.378 125.999 165.066 124.177 166.099 122.6C167.133 121.024 168.421 119.793 169.962 118.908C171.513 118.024 173.225 117.581 175.1 117.581C176.239 117.581 177.312 117.77 178.319 118.146C179.335 118.523 180.198 119.114 180.907 119.92C181.617 120.726 182.107 121.773 182.379 123.06C182.659 124.339 182.65 125.894 182.353 127.725L182.129 129.117H166.073L166.533 126.174H178.726C178.91 125.141 178.862 124.225 178.582 123.428C178.301 122.622 177.82 121.987 177.136 121.523C176.462 121.059 175.612 120.827 174.587 120.827C173.536 120.827 172.555 121.103 171.644 121.654C170.733 122.206 169.971 122.911 169.358 123.77C168.754 124.62 168.373 125.495 168.215 126.398L167.755 129.091C167.527 130.563 167.567 131.745 167.873 132.639C168.189 133.532 168.74 134.18 169.529 134.583C170.317 134.986 171.303 135.188 172.485 135.188C173.247 135.188 173.952 135.083 174.601 134.872C175.258 134.653 175.84 134.334 176.348 133.913C176.856 133.484 177.281 132.95 177.623 132.31L181.223 132.98C180.741 134.075 180.049 135.035 179.147 135.858C178.244 136.673 177.18 137.308 175.954 137.763C174.736 138.21 173.387 138.433 171.907 138.433ZM202.722 122.771L199.056 123.402C198.977 122.938 198.815 122.5 198.57 122.088C198.333 121.676 197.97 121.343 197.479 121.089C196.989 120.827 196.336 120.695 195.521 120.695C194.391 120.695 193.402 120.954 192.552 121.47C191.711 121.987 191.229 122.644 191.107 123.441C190.993 124.09 191.146 124.615 191.567 125.018C191.987 125.412 192.727 125.741 193.787 126.004L196.888 126.739C198.675 127.169 199.954 127.839 200.725 128.75C201.504 129.652 201.776 130.826 201.539 132.271C201.338 133.471 200.812 134.535 199.962 135.464C199.122 136.392 198.044 137.119 196.73 137.645C195.416 138.17 193.953 138.433 192.342 138.433C190.047 138.433 188.26 137.947 186.981 136.975C185.702 136.002 185.045 134.627 185.01 132.849L188.899 132.271C188.969 133.261 189.324 134.01 189.964 134.518C190.612 135.017 191.51 135.267 192.657 135.267C193.971 135.275 195.07 134.999 195.955 134.439C196.84 133.878 197.343 133.199 197.466 132.402C197.571 131.78 197.431 131.264 197.046 130.852C196.669 130.44 196.003 130.125 195.048 129.906L191.79 129.157C189.968 128.728 188.68 128.036 187.927 127.081C187.174 126.126 186.92 124.926 187.165 123.481C187.358 122.298 187.857 121.269 188.663 120.393C189.477 119.508 190.507 118.821 191.75 118.33C192.994 117.831 194.37 117.581 195.876 117.581C198.075 117.581 199.726 118.054 200.83 119C201.933 119.938 202.564 121.195 202.722 122.771ZM220.499 138.473C219.22 138.473 218.103 138.236 217.149 137.763C216.194 137.281 215.489 136.585 215.033 135.674C214.578 134.763 214.459 133.646 214.678 132.323C214.871 131.185 215.248 130.247 215.808 129.512C216.378 128.776 217.07 128.193 217.884 127.764C218.699 127.326 219.584 126.998 220.538 126.779C221.493 126.56 222.457 126.398 223.429 126.293C224.655 126.152 225.65 126.034 226.412 125.938C227.183 125.841 227.761 125.693 228.146 125.491C228.532 125.281 228.764 124.939 228.842 124.466V124.374C229.026 123.236 228.86 122.351 228.343 121.72C227.835 121.081 226.95 120.761 225.689 120.761C224.375 120.761 223.271 121.05 222.378 121.628C221.493 122.206 220.841 122.854 220.42 123.573L216.899 122.732C217.53 121.506 218.331 120.516 219.303 119.762C220.284 119 221.357 118.448 222.523 118.107C223.688 117.756 224.879 117.581 226.096 117.581C226.902 117.581 227.739 117.678 228.606 117.87C229.473 118.054 230.261 118.396 230.971 118.895C231.689 119.394 232.224 120.108 232.574 121.037C232.924 121.957 232.977 123.152 232.732 124.624L230.511 138.026H226.674L227.148 135.267H226.99C226.657 135.775 226.193 136.274 225.597 136.765C225.01 137.255 224.292 137.662 223.442 137.986C222.593 138.311 221.612 138.473 220.499 138.473ZM221.839 135.319C222.934 135.319 223.902 135.105 224.743 134.675C225.593 134.246 226.28 133.686 226.806 132.994C227.331 132.293 227.66 131.544 227.791 130.747L228.225 128.145C228.058 128.285 227.765 128.412 227.345 128.526C226.933 128.64 226.469 128.741 225.952 128.828C225.435 128.916 224.927 128.99 224.428 129.052C223.937 129.113 223.53 129.17 223.206 129.223C222.435 129.319 221.712 129.481 221.038 129.709C220.372 129.937 219.816 130.265 219.369 130.694C218.922 131.115 218.642 131.675 218.528 132.376C218.371 133.348 218.603 134.084 219.225 134.583C219.855 135.074 220.727 135.319 221.839 135.319ZM253.065 138.42C251.427 138.42 250.038 138.004 248.899 137.172C247.769 136.331 246.968 135.135 246.495 133.585C246.031 132.026 245.978 130.155 246.337 127.974C246.705 125.793 247.384 123.928 248.374 122.377C249.364 120.827 250.564 119.64 251.974 118.816C253.384 117.993 254.904 117.581 256.533 117.581C257.786 117.581 258.758 117.792 259.45 118.212C260.151 118.624 260.668 119.105 261.001 119.657C261.334 120.209 261.583 120.695 261.75 121.116H261.973L263.642 111.117H267.57L263.103 138.026H259.266L259.805 134.886H259.477C259.17 135.315 258.745 135.805 258.202 136.357C257.668 136.909 256.984 137.391 256.152 137.803C255.32 138.214 254.291 138.42 253.065 138.42ZM254.392 135.07C255.522 135.07 256.533 134.772 257.427 134.176C258.329 133.572 259.078 132.735 259.674 131.667C260.278 130.598 260.698 129.354 260.935 127.935C261.171 126.533 261.167 125.307 260.922 124.256C260.677 123.205 260.204 122.386 259.503 121.799C258.802 121.212 257.878 120.919 256.73 120.919C255.548 120.919 254.519 121.225 253.643 121.838C252.767 122.452 252.048 123.288 251.488 124.348C250.936 125.408 250.551 126.604 250.332 127.935C250.104 129.284 250.095 130.497 250.305 131.575C250.516 132.652 250.958 133.506 251.632 134.137C252.307 134.759 253.227 135.07 254.392 135.07ZM268.697 138.026L272.061 117.844H275.989L272.626 138.026H268.697ZM274.846 114.691C274.163 114.691 273.585 114.463 273.112 114.007C272.647 113.543 272.433 112.991 272.468 112.352C272.503 111.704 272.774 111.152 273.283 110.696C273.791 110.232 274.382 110 275.056 110C275.74 110 276.313 110.232 276.778 110.696C277.242 111.152 277.461 111.704 277.435 112.352C277.399 112.991 277.128 113.543 276.62 114.007C276.121 114.463 275.529 114.691 274.846 114.691ZM290.879 117.844L290.367 120.997H278.962L279.474 117.844H290.879ZM279.238 138.026L282.996 115.505C283.188 114.244 283.631 113.197 284.323 112.365C285.015 111.524 285.851 110.898 286.832 110.486C287.813 110.066 288.838 109.855 289.907 109.855C290.695 109.855 291.357 109.921 291.891 110.053C292.434 110.175 292.828 110.289 293.073 110.394L291.641 113.574C291.466 113.521 291.243 113.46 290.971 113.39C290.7 113.311 290.358 113.272 289.946 113.272C288.992 113.272 288.269 113.508 287.778 113.981C287.297 114.454 286.972 115.137 286.806 116.031L283.167 138.026H279.238ZM304.537 117.844L304.025 120.997H292.62L293.133 117.844H304.537ZM292.896 138.026L296.654 115.505C296.847 114.244 297.289 113.197 297.981 112.365C298.673 111.524 299.509 110.898 300.491 110.486C301.472 110.066 302.496 109.855 303.565 109.855C304.353 109.855 305.015 109.921 305.549 110.053C306.092 110.175 306.486 110.289 306.732 110.394L305.299 113.574C305.124 113.521 304.901 113.46 304.629 113.39C304.358 113.311 304.016 113.272 303.605 113.272C302.65 113.272 301.927 113.508 301.437 113.981C300.955 114.454 300.631 115.137 300.464 116.031L296.825 138.026H292.896ZM313.078 138.433C311.098 138.433 309.46 138.008 308.164 137.159C306.876 136.3 305.974 135.096 305.457 133.545C304.94 131.986 304.857 130.16 305.208 128.066C305.549 125.999 306.237 124.177 307.27 122.6C308.304 121.024 309.592 119.793 311.133 118.908C312.684 118.024 314.396 117.581 316.271 117.581C317.409 117.581 318.482 117.77 319.49 118.146C320.506 118.523 321.369 119.114 322.078 119.92C322.788 120.726 323.278 121.773 323.55 123.06C323.83 124.339 323.821 125.894 323.524 127.725L323.3 129.117H307.244L307.704 126.174H319.897C320.081 125.141 320.033 124.225 319.753 123.428C319.472 122.622 318.991 121.987 318.307 121.523C317.633 121.059 316.783 120.827 315.758 120.827C314.707 120.827 313.726 121.103 312.815 121.654C311.904 122.206 311.142 122.911 310.529 123.77C309.924 124.62 309.543 125.495 309.386 126.398L308.926 129.091C308.698 130.563 308.738 131.745 309.044 132.639C309.36 133.532 309.911 134.18 310.7 134.583C311.488 134.986 312.473 135.188 313.656 135.188C314.418 135.188 315.123 135.083 315.771 134.872C316.428 134.653 317.011 134.334 317.519 133.913C318.027 133.484 318.452 132.95 318.793 132.31L322.394 132.98C321.912 134.075 321.22 135.035 320.318 135.858C319.415 136.673 318.351 137.308 317.125 137.763C315.907 138.21 314.558 138.433 313.078 138.433ZM326.22 138.026L329.584 117.844H333.381L332.843 121.05H333.053C333.596 119.964 334.389 119.11 335.431 118.488C336.473 117.857 337.586 117.542 338.768 117.542C339.022 117.542 339.311 117.551 339.636 117.568C339.96 117.577 340.222 117.599 340.424 117.634L339.793 121.392C339.644 121.348 339.373 121.3 338.979 121.247C338.584 121.186 338.177 121.155 337.757 121.155C336.837 121.155 335.983 121.352 335.194 121.746C334.406 122.132 333.745 122.671 333.21 123.363C332.676 124.046 332.33 124.825 332.172 125.701L330.149 138.026H326.22ZM348.416 138.433C346.436 138.433 344.798 138.008 343.502 137.159C342.214 136.3 341.312 135.096 340.795 133.545C340.278 131.986 340.195 130.16 340.545 128.066C340.887 125.999 341.575 124.177 342.608 122.6C343.642 121.024 344.93 119.793 346.471 118.908C348.022 118.024 349.734 117.581 351.609 117.581C352.747 117.581 353.82 117.77 354.828 118.146C355.844 118.523 356.707 119.114 357.416 119.92C358.126 120.726 358.616 121.773 358.888 123.06C359.168 124.339 359.159 125.894 358.861 127.725L358.638 129.117H342.582L343.042 126.174H355.235C355.419 125.141 355.371 124.225 355.091 123.428C354.81 122.622 354.328 121.987 353.645 121.523C352.971 121.059 352.121 120.827 351.096 120.827C350.045 120.827 349.064 121.103 348.153 121.654C347.242 122.206 346.48 122.911 345.867 123.77C345.262 124.62 344.881 125.495 344.724 126.398L344.264 129.091C344.036 130.563 344.075 131.745 344.382 132.639C344.697 133.532 345.249 134.18 346.038 134.583C346.826 134.986 347.811 135.188 348.994 135.188C349.756 135.188 350.461 135.083 351.109 134.872C351.766 134.653 352.349 134.334 352.857 133.913C353.365 133.484 353.79 132.95 354.131 132.31L357.731 132.98C357.25 134.075 356.558 135.035 355.655 135.858C354.753 136.673 353.689 137.308 352.463 137.763C351.245 138.21 349.896 138.433 348.416 138.433ZM367.471 126.043L365.5 138.026H361.571L364.935 117.844H368.706L368.154 121.129H368.404C369.043 120.051 369.915 119.193 371.019 118.554C372.131 117.905 373.445 117.581 374.96 117.581C376.327 117.581 377.474 117.87 378.403 118.448C379.34 119.018 380.001 119.867 380.387 120.997C380.781 122.127 380.842 123.525 380.571 125.189L378.416 138.026H374.487L376.55 125.662C376.787 124.199 376.594 123.056 375.972 122.233C375.359 121.4 374.382 120.984 373.042 120.984C372.131 120.984 371.286 121.181 370.506 121.576C369.735 121.97 369.083 122.548 368.548 123.31C368.023 124.063 367.664 124.974 367.471 126.043ZM392.12 138.433C390.158 138.433 388.551 137.991 387.298 137.106C386.045 136.213 385.174 134.982 384.683 133.414C384.193 131.846 384.114 130.05 384.447 128.027C384.78 125.977 385.458 124.168 386.483 122.6C387.517 121.024 388.809 119.793 390.359 118.908C391.919 118.024 393.649 117.581 395.549 117.581C397.082 117.581 398.401 117.866 399.504 118.435C400.608 118.996 401.445 119.784 402.014 120.8C402.583 121.816 402.829 123.003 402.75 124.361H398.926C398.865 123.415 398.514 122.6 397.875 121.917C397.236 121.234 396.294 120.892 395.05 120.892C393.955 120.892 392.948 121.181 392.028 121.76C391.108 122.329 390.333 123.144 389.702 124.203C389.072 125.255 388.643 126.498 388.415 127.935C388.17 129.407 388.183 130.677 388.454 131.745C388.726 132.814 389.225 133.642 389.952 134.229C390.679 134.816 391.595 135.109 392.698 135.109C393.452 135.109 394.152 134.973 394.8 134.702C395.457 134.421 396.036 134.023 396.535 133.506C397.043 132.989 397.437 132.367 397.717 131.64H401.554C401.177 132.945 400.547 134.11 399.662 135.135C398.786 136.16 397.709 136.966 396.43 137.553C395.151 138.14 393.714 138.433 392.12 138.433ZM413.31 138.433C411.331 138.433 409.693 138.008 408.396 137.159C407.109 136.3 406.206 135.096 405.69 133.545C405.173 131.986 405.09 130.16 405.44 128.066C405.782 125.999 406.469 124.177 407.503 122.6C408.536 121.024 409.824 119.793 411.366 118.908C412.916 118.024 414.629 117.581 416.503 117.581C417.642 117.581 418.715 117.77 419.722 118.146C420.738 118.523 421.601 119.114 422.311 119.92C423.02 120.726 423.511 121.773 423.782 123.06C424.063 124.339 424.054 125.894 423.756 127.725L423.533 129.117H407.477L407.936 126.174H420.13C420.314 125.141 420.265 124.225 419.985 123.428C419.705 122.622 419.223 121.987 418.54 121.523C417.865 121.059 417.016 120.827 415.991 120.827C414.94 120.827 413.959 121.103 413.048 121.654C412.137 122.206 411.374 122.911 410.761 123.77C410.157 124.62 409.776 125.495 409.618 126.398L409.158 129.091C408.931 130.563 408.97 131.745 409.277 132.639C409.592 133.532 410.144 134.18 410.932 134.583C411.72 134.986 412.706 135.188 413.888 135.188C414.651 135.188 415.356 135.083 416.004 134.872C416.661 134.653 417.243 134.334 417.751 133.913C418.259 133.484 418.684 132.95 419.026 132.31L422.626 132.98C422.144 134.075 421.452 135.035 420.55 135.858C419.648 136.673 418.584 137.308 417.357 137.763C416.14 138.21 414.791 138.433 413.31 138.433ZM429.37 138.276C428.634 138.276 428.021 138.021 427.53 137.513C427.048 137.005 426.812 136.383 426.821 135.648C426.829 134.921 427.101 134.312 427.635 133.821C428.178 133.322 428.809 133.072 429.527 133.072C430.246 133.072 430.859 133.326 431.367 133.834C431.875 134.343 432.111 134.947 432.076 135.648C432.05 136.138 431.91 136.585 431.656 136.988C431.411 137.382 431.087 137.697 430.684 137.934C430.281 138.162 429.843 138.276 429.37 138.276Z" fill="black"/>
</svg>
