<svg width="502" height="425" viewBox="0 0 502 425" fill="none" xmlns="http://www.w3.org/2000/svg">
<path opacity="0.6" d="M251.884 424.599C388.648 424.599 499.517 357.695 499.517 275.164C499.517 192.633 388.648 125.729 251.884 125.729C115.121 125.729 4.25195 192.633 4.25195 275.164C4.25195 357.695 115.121 424.599 251.884 424.599Z" fill="url(#paint0_radial_1_3180)" style="mix-blend-mode:multiply"/>
<path d="M452.974 305.627C452.62 305.627 452.266 305.493 451.994 305.225C451.446 304.683 451.442 303.801 451.983 303.255C482.442 272.482 499.214 231.691 499.214 188.395C499.214 98.3035 425.908 25.008 335.8 25.008H166.202C165.432 25.008 164.809 24.3841 164.809 23.615C164.809 22.8458 165.432 22.2219 166.202 22.2219H335.8C427.443 22.2219 502 96.7669 502 188.395C502 232.429 484.94 273.916 453.964 305.214C453.69 305.49 453.333 305.627 452.974 305.627Z" fill="#5B3EDA"/>
<path d="M335.8 354.534H166.202C74.5574 354.534 0 280.004 0 188.395C0 138.954 21.7918 92.422 59.7884 60.7333C60.3794 60.242 61.2615 60.3194 61.7492 60.9103C62.2425 61.5008 62.1631 62.3791 61.5722 62.8707C24.2128 94.0308 2.7863 139.782 2.7863 188.395C2.7863 278.468 76.0943 351.748 166.201 351.748H335.8C336.57 351.748 337.193 352.371 337.193 353.141C337.193 353.91 336.57 354.534 335.8 354.534Z" fill="#5B3EDA"/>
<path d="M170.97 327.646C94.1497 327.646 31.6484 265.189 31.6484 188.394C31.6484 111.598 94.1497 49.1043 170.97 49.1043H331.029C407.849 49.1043 470.332 111.593 470.332 188.394C470.332 265.194 407.849 327.646 331.029 327.646H170.97Z" fill="url(#paint1_linear_1_3180)"/>
<path d="M171.463 326.788C95.1158 326.788 33 264.716 33 188.393C33 112.071 95.1161 49.9624 171.463 49.9624H330.535C406.882 49.9624 468.98 112.066 468.98 188.393C468.98 264.72 406.882 326.788 330.535 326.788H171.463Z" fill="url(#paint2_linear_1_3180)"/>
<path d="M171.955 325.929C96.0822 325.929 34.3516 264.242 34.3516 188.393C34.3516 112.544 96.0826 50.8206 171.955 50.8206H330.042C405.915 50.8206 467.628 112.539 467.628 188.393C467.628 264.247 405.915 325.929 330.042 325.929H171.955Z" fill="url(#paint3_linear_1_3180)"/>
<path d="M172.448 325.071C97.0486 325.071 35.7031 263.769 35.7031 188.393C35.7031 113.017 97.049 51.6786 172.448 51.6786H329.548C404.948 51.6786 466.276 113.012 466.276 188.393C466.276 263.774 404.948 325.071 329.548 325.071H172.448Z" fill="url(#paint4_linear_1_3180)"/>
<path d="M172.941 324.213C98.0151 324.213 37.0547 263.296 37.0547 188.393C37.0547 113.49 98.0151 52.5371 172.941 52.5371H329.055C403.981 52.5371 464.924 113.486 464.924 188.393C464.924 263.3 403.981 324.213 329.055 324.213H172.941Z" fill="url(#paint5_linear_1_3180)"/>
<path d="M173.436 323.354C98.9835 323.354 38.4082 262.822 38.4082 188.393C38.4082 113.964 98.9835 53.3956 173.436 53.3956H328.563C403.016 53.3956 463.574 113.959 463.574 188.393C463.574 262.827 403.016 323.354 328.563 323.354H173.436Z" fill="url(#paint6_linear_1_3180)"/>
<path d="M173.929 322.496C99.9499 322.496 39.7598 262.348 39.7598 188.393C39.7598 114.437 99.9499 54.2537 173.929 54.2537H328.07C402.049 54.2537 462.222 114.432 462.222 188.393C462.222 262.353 402.049 322.496 328.07 322.496H173.929Z" fill="url(#paint7_linear_1_3180)"/>
<path d="M174.422 321.638C100.916 321.638 41.1113 261.875 41.1113 188.393C41.1113 114.91 100.916 55.1121 174.422 55.1121H327.576C401.082 55.1121 460.87 114.905 460.87 188.393C460.87 261.88 401.082 321.638 327.576 321.638H174.422Z" fill="url(#paint8_linear_1_3180)"/>
<path d="M174.913 320.779C101.88 320.779 42.4609 261.402 42.4609 188.392C42.4609 115.383 101.881 55.9703 174.913 55.9703H327.081C400.114 55.9703 459.516 115.378 459.516 188.392C459.516 261.406 400.114 320.779 327.081 320.779H174.913Z" fill="url(#paint9_linear_1_3180)"/>
<path d="M175.408 319.921C102.849 319.921 43.8145 260.929 43.8145 188.393C43.8145 115.857 102.849 56.8291 175.408 56.8291H326.589C399.149 56.8291 458.166 115.852 458.166 188.393C458.166 260.933 399.148 319.921 326.589 319.921H175.408Z" fill="url(#paint10_linear_1_3180)"/>
<path d="M175.901 319.063C103.815 319.063 45.166 260.455 45.166 188.392C45.166 116.329 103.815 57.6872 175.901 57.6872H326.096C398.182 57.6872 456.814 116.325 456.814 188.392C456.814 260.46 398.182 319.063 326.096 319.063H175.901Z" fill="url(#paint11_linear_1_3180)"/>
<path d="M176.394 318.205C104.782 318.205 46.5176 259.982 46.5176 188.392C46.5176 116.803 104.782 58.5453 176.394 58.5453H325.602C397.215 58.5453 455.462 116.798 455.462 188.392C455.462 259.987 397.215 318.205 325.602 318.205H176.394Z" fill="url(#paint12_linear_1_3180)"/>
<path d="M176.889 317.346C105.75 317.346 47.8711 259.509 47.8711 188.392C47.8711 117.276 105.75 59.4034 176.889 59.4034H325.111C396.25 59.4034 454.112 117.271 454.112 188.392C454.112 259.513 396.25 317.346 325.111 317.346H176.889Z" fill="url(#paint13_linear_1_3180)"/>
<path d="M177.38 316.488C106.715 316.488 49.2207 259.035 49.2207 188.392C49.2207 117.749 106.715 60.2619 177.38 60.2619H324.615C395.281 60.2619 452.758 117.744 452.758 188.392C452.758 259.04 395.281 316.488 324.615 316.488H177.38Z" fill="url(#paint14_linear_1_3180)"/>
<path d="M177.875 315.63C107.683 315.63 50.5742 258.562 50.5742 188.392C50.5742 118.222 107.683 61.1204 177.875 61.1204H324.124C394.316 61.1204 451.408 118.218 451.408 188.392C451.408 258.566 394.316 315.63 324.124 315.63H177.875Z" fill="url(#paint15_linear_1_3180)"/>
<path d="M178.366 314.771C108.647 314.771 51.9238 258.088 51.9238 188.392C51.9238 118.695 108.647 61.9785 178.366 61.9785H323.629C393.347 61.9785 450.054 118.691 450.054 188.392C450.054 258.093 393.347 314.771 323.629 314.771H178.366Z" fill="url(#paint16_linear_1_3180)"/>
<path d="M178.861 313.913C109.615 313.913 53.2773 257.615 53.2773 188.392C53.2773 119.168 109.616 62.8369 178.861 62.8369H323.137C392.382 62.8369 448.704 119.164 448.704 188.392C448.704 257.619 392.382 313.913 323.137 313.913H178.861Z" fill="url(#paint17_linear_1_3180)"/>
<path d="M179.354 313.055C110.582 313.055 54.6289 257.141 54.6289 188.391C54.6289 119.641 110.582 63.695 179.354 63.695H322.643C391.415 63.695 447.352 119.637 447.352 188.391C447.352 257.145 391.415 313.055 322.643 313.055H179.354Z" fill="url(#paint18_linear_1_3180)"/>
<path d="M179.846 312.196C111.548 312.196 55.9805 256.668 55.9805 188.392C55.9805 120.115 111.548 64.5538 179.846 64.5538H322.15C390.448 64.5538 446 120.111 446 188.392C446 256.672 390.448 312.196 322.15 312.196H179.846Z" fill="url(#paint19_linear_1_3180)"/>
<path d="M180.339 311.338C112.515 311.338 57.332 256.194 57.332 188.391C57.332 120.588 112.515 65.412 180.339 65.412H321.657C389.481 65.412 444.648 120.584 444.648 188.391C444.648 256.199 389.482 311.338 321.657 311.338H180.339Z" fill="url(#paint20_linear_1_3180)"/>
<path d="M180.833 310.48C113.481 310.48 58.6836 255.721 58.6836 188.391C58.6836 121.061 113.481 66.2701 180.833 66.2701H321.163C388.515 66.2701 443.296 121.057 443.296 188.391C443.296 255.726 388.515 310.48 321.163 310.48H180.833Z" fill="url(#paint21_linear_1_3180)"/>
<path d="M181.327 309.621C114.449 309.621 60.0371 255.248 60.0371 188.391C60.0371 121.534 114.449 67.1282 181.327 67.1282H320.672C387.55 67.1282 441.946 121.53 441.946 188.391C441.946 255.252 387.55 309.621 320.672 309.621H181.327Z" fill="url(#paint22_linear_1_3180)"/>
<path d="M181.819 308.763C115.414 308.763 61.3867 254.775 61.3867 188.391C61.3867 122.007 115.414 67.9867 181.819 67.9867H320.177C386.581 67.9867 440.592 122.003 440.592 188.391C440.592 254.779 386.581 308.763 320.177 308.763H181.819Z" fill="url(#paint23_linear_1_3180)"/>
<path d="M182.311 307.905C116.38 307.905 62.7383 254.301 62.7383 188.391C62.7383 122.481 116.38 68.8452 182.311 68.8452H319.683C385.614 68.8452 439.24 122.477 439.24 188.391C439.24 254.306 385.614 307.905 319.683 307.905H182.311Z" fill="url(#paint24_linear_1_3180)"/>
<path d="M182.804 307.046C117.347 307.046 64.0898 253.828 64.0898 188.391C64.0898 122.954 117.346 69.7033 182.804 69.7033H319.189C384.647 69.7033 437.888 122.95 437.888 188.391C437.888 253.832 384.647 307.046 319.189 307.046H182.804Z" fill="url(#paint25_linear_1_3180)"/>
<path d="M183.297 306.188C118.313 306.188 65.4414 253.354 65.4414 188.391C65.4414 123.427 118.313 70.5617 183.297 70.5617H318.696C383.68 70.5617 436.536 123.423 436.536 188.391C436.536 253.358 383.68 306.188 318.696 306.188H183.297Z" fill="url(#paint26_linear_1_3180)"/>
<path d="M183.792 305.33C119.282 305.33 66.7949 252.881 66.7949 188.39C66.7949 123.9 119.281 71.4198 183.792 71.4198H318.205C382.715 71.4198 435.186 123.896 435.186 188.39C435.186 252.885 382.715 305.33 318.205 305.33H183.792Z" fill="url(#paint27_linear_1_3180)"/>
<path d="M184.285 304.472C120.248 304.472 68.1465 252.408 68.1465 188.39C68.1465 124.373 120.248 72.2783 184.285 72.2783H317.711C381.748 72.2783 433.835 124.369 433.835 188.39C433.835 252.412 381.749 304.472 317.711 304.472H184.285Z" fill="url(#paint28_linear_1_3180)"/>
<path d="M184.778 303.613C121.214 303.613 69.498 251.934 69.498 188.39C69.498 124.847 121.214 73.1367 184.778 73.1367H317.217C380.781 73.1367 432.482 124.843 432.482 188.39C432.482 251.938 380.781 303.613 317.217 303.613H184.778Z" fill="url(#paint29_linear_1_3180)"/>
<path d="M185.271 302.755C122.181 302.755 70.8496 251.461 70.8496 188.39C70.8496 125.32 122.181 73.9949 185.271 73.9949H316.724C379.815 73.9949 431.13 125.316 431.13 188.39C431.13 251.465 379.814 302.755 316.724 302.755H185.271Z" fill="url(#paint30_linear_1_3180)"/>
<path d="M185.764 301.897C123.147 301.897 72.2012 250.987 72.2012 188.39C72.2012 125.793 123.147 74.853 185.764 74.853H316.231C378.848 74.853 429.779 125.789 429.779 188.39C429.779 250.991 378.848 301.897 316.231 301.897H185.764Z" fill="url(#paint31_linear_1_3180)"/>
<path d="M186.259 301.039C124.115 301.039 73.5547 250.514 73.5547 188.39C73.5547 126.266 124.115 75.7115 186.259 75.7115H315.739C377.883 75.7115 428.428 126.262 428.428 188.39C428.428 250.518 377.883 301.039 315.739 301.039H186.259Z" fill="url(#paint32_linear_1_3180)"/>
<path d="M186.75 300.18C125.08 300.18 74.9043 250.041 74.9043 188.39C74.9043 126.739 125.079 76.5699 186.75 76.5699H315.244C376.914 76.5699 427.075 126.735 427.075 188.39C427.075 250.045 376.914 300.18 315.244 300.18H186.75Z" fill="url(#paint33_linear_1_3180)"/>
<path d="M187.243 299.322C126.046 299.322 76.2559 249.567 76.2559 188.39C76.2559 127.212 126.046 77.428 187.243 77.428H314.75C375.947 77.428 425.723 127.209 425.723 188.39C425.723 249.571 375.947 299.322 314.75 299.322H187.243Z" fill="url(#paint34_linear_1_3180)"/>
<path d="M187.738 298.464C127.014 298.464 77.6094 249.094 77.6094 188.39C77.6094 127.686 127.014 78.2865 187.738 78.2865H314.259C374.982 78.2865 424.373 127.682 424.373 188.39C424.373 249.098 374.982 298.464 314.259 298.464H187.738Z" fill="url(#paint35_linear_1_3180)"/>
<path d="M188.231 297.605C127.981 297.605 78.9609 248.62 78.9609 188.389C78.9609 128.159 127.981 79.1447 188.231 79.1447H313.765C374.015 79.1447 423.021 128.155 423.021 188.389C423.021 248.624 374.015 297.605 313.765 297.605H188.231Z" fill="url(#paint36_linear_1_3180)"/>
<path d="M188.724 296.747C128.947 296.747 80.3125 248.147 80.3125 188.389C80.3125 128.632 128.947 80.0031 188.724 80.0031H313.272C373.048 80.0031 421.669 128.628 421.669 188.389C421.669 248.151 373.048 296.747 313.272 296.747H188.724Z" fill="url(#paint37_linear_1_3180)"/>
<path d="M189.217 295.889C129.914 295.889 81.6641 247.673 81.6641 188.389C81.6641 129.105 129.913 80.8615 189.217 80.8615H312.778C372.081 80.8615 420.316 129.101 420.316 188.389C420.316 247.677 372.081 295.889 312.778 295.889H189.217Z" fill="url(#paint38_linear_1_3180)"/>
<path d="M189.71 295.03C130.88 295.03 83.0156 247.2 83.0156 188.389C83.0156 129.578 130.88 81.72 189.71 81.72H312.285C371.114 81.72 418.965 129.575 418.965 188.389C418.965 247.204 371.115 295.03 312.285 295.03H189.71Z" fill="url(#paint39_linear_1_3180)"/>
<path d="M190.201 294.172C131.844 294.172 84.3652 246.727 84.3652 188.389C84.3652 130.051 131.844 82.5778 190.201 82.5778H311.789C370.146 82.5778 417.611 130.048 417.611 188.389C417.611 246.731 370.146 294.172 311.789 294.172H190.201Z" fill="url(#paint40_linear_1_3180)"/>
<path d="M190.697 293.314C132.814 293.314 85.7207 246.254 85.7207 188.389C85.7207 130.525 132.814 83.4362 190.697 83.4362H311.3C369.183 83.4362 416.262 130.521 416.262 188.389C416.262 246.257 369.182 293.314 311.3 293.314H190.697Z" fill="url(#paint41_linear_1_3180)"/>
<path d="M191.188 292.455C133.779 292.455 87.0703 245.78 87.0703 188.389C87.0703 130.998 133.779 84.2947 191.188 84.2947H310.805C368.214 84.2947 414.909 130.994 414.909 188.389C414.909 245.784 368.214 292.455 310.805 292.455H191.188Z" fill="url(#paint42_linear_1_3180)"/>
<g filter="url(#filter0_d_1_3180)">
<path d="M131.116 167.55C128.557 166.19 126.546 164.296 125.082 161.867C123.619 159.44 122.889 156.689 122.889 153.617C122.889 150.546 123.619 147.796 125.082 145.37C126.546 142.941 128.557 141.047 131.116 139.685C133.677 138.325 136.565 137.645 139.785 137.645C142.593 137.645 145.123 138.142 147.377 139.138C149.63 140.132 151.503 141.566 152.993 143.439L147.465 148.44C145.475 146.043 143.061 144.842 140.222 144.842C138.555 144.842 137.07 145.207 135.768 145.94C134.466 146.672 133.458 147.702 132.741 149.033C132.024 150.364 131.666 151.893 131.666 153.618C131.666 155.344 132.024 156.872 132.741 158.203C133.458 159.534 134.466 160.566 135.768 161.298C137.07 162.029 138.555 162.394 140.222 162.394C143.061 162.394 145.475 161.193 147.465 158.796L152.993 163.796C151.503 165.67 149.63 167.103 147.377 168.098C145.123 169.093 142.593 169.59 139.785 169.59C136.565 169.59 133.677 168.91 131.116 167.55V167.55Z" fill="white"/>
<path d="M176.1 167.526C173.51 166.151 171.477 164.251 170 161.822C168.521 159.396 167.783 156.66 167.783 153.617C167.783 150.575 168.522 147.841 170 145.412C171.477 142.984 173.51 141.084 176.1 139.708C178.689 138.333 181.607 137.645 184.855 137.645C188.102 137.645 191.021 138.333 193.611 139.708C196.199 141.084 198.232 142.984 199.711 145.412C201.188 147.841 201.928 150.577 201.928 153.617C201.928 156.658 201.188 159.396 199.711 161.822C198.232 164.251 196.2 166.151 193.611 167.526C191.021 168.902 188.104 169.59 184.855 169.59C181.605 169.59 178.689 168.902 176.1 167.526ZM189.068 161.298C190.327 160.565 191.322 159.533 192.053 158.203C192.783 156.872 193.151 155.345 193.151 153.617C193.151 151.89 192.783 150.363 192.053 149.032C191.322 147.701 190.327 146.671 189.068 145.939C187.81 145.207 186.405 144.841 184.855 144.841C183.304 144.841 181.901 145.206 180.642 145.939C179.384 146.671 178.389 147.701 177.657 149.032C176.926 150.363 176.561 151.892 176.561 153.617C176.561 155.343 176.926 156.872 177.657 158.203C178.389 159.534 179.384 160.565 180.642 161.298C181.901 162.028 183.304 162.393 184.855 162.393C186.405 162.393 187.81 162.028 189.068 161.298Z" fill="white"/>
<path d="M247.394 168.976L247.307 152.696L239.407 165.947H235.546L227.69 153.133V168.976H219.66V138.259H226.811L237.608 155.986L248.141 138.259H255.296L255.383 168.976H247.394V168.976Z" fill="white"/>
<path d="M274.691 138.259H283.38V168.976H274.691V138.259Z" fill="white"/>
<path d="M331.961 138.259V168.976H324.808L311.248 152.609V168.976H302.732V138.259H309.888L323.448 154.625V138.259H331.961Z" fill="white"/>
<path d="M371.854 152.959H379.534V165.685C377.78 166.942 375.76 167.908 373.479 168.58C371.198 169.252 368.914 169.59 366.633 169.59C363.413 169.59 360.517 168.91 357.942 167.55C355.368 166.19 353.349 164.296 351.885 161.867C350.424 159.44 349.691 156.689 349.691 153.618C349.691 150.546 350.424 147.797 351.885 145.37C353.349 142.942 355.383 141.047 357.987 139.685C360.591 138.325 363.532 137.645 366.808 137.645C369.674 137.645 372.251 138.129 374.532 139.095C376.814 140.058 378.716 141.449 380.238 143.264L374.707 148.265C372.63 145.984 370.144 144.842 367.247 144.842C364.614 144.842 362.492 145.638 360.883 147.234C359.274 148.828 358.47 150.956 358.47 153.618C358.47 155.314 358.835 156.829 359.567 158.158C360.298 159.491 361.322 160.528 362.64 161.274C363.955 162.02 365.461 162.394 367.16 162.394C368.827 162.394 370.392 162.057 371.855 161.383L371.854 152.959Z" fill="white"/>
<path d="M131.657 238.567C127.058 237.479 123.28 236.016 120.324 234.176L126.683 219.792C129.469 221.411 132.592 222.705 136.049 223.68C139.506 224.655 142.825 225.145 146.003 225.145C148.735 225.145 150.686 224.881 151.858 224.348C153.03 223.82 153.615 223.027 153.615 221.966C153.615 220.74 152.847 219.821 151.316 219.207C149.78 218.594 147.258 217.925 143.745 217.199C139.228 216.253 135.464 215.234 132.454 214.148C129.442 213.06 126.821 211.277 124.592 208.796C122.361 206.314 121.245 202.957 121.245 198.718C121.245 195.038 122.275 191.692 124.339 188.683C126.403 185.673 129.485 183.303 133.581 181.574C137.682 179.849 142.656 178.982 148.513 178.982C152.528 178.982 156.471 179.416 160.347 180.28C164.222 181.143 167.637 182.411 170.594 184.084L164.656 198.384C158.911 195.485 153.474 194.035 148.346 194.035C143.27 194.035 140.732 195.263 140.732 197.715C140.732 198.885 141.486 199.763 142.992 200.35C144.498 200.935 146.978 201.562 150.437 202.231C154.897 203.066 158.661 204.03 161.727 205.116C164.794 206.202 167.456 207.974 169.716 210.426C171.974 212.88 173.103 216.225 173.103 220.461C173.103 224.141 172.069 227.472 170.007 230.455C167.946 233.437 164.864 235.808 160.765 237.564C156.667 239.318 151.69 240.196 145.835 240.196C140.985 240.196 136.259 239.655 131.657 238.567Z" fill="white"/>
<path d="M192.677 236.266C187.657 233.647 183.726 230.01 180.881 225.353C178.038 220.699 176.617 215.442 176.617 209.59C176.617 203.738 178.038 198.481 180.881 193.825C183.726 189.17 187.657 185.533 192.677 182.914C197.694 180.293 203.353 178.982 209.655 178.982C215.957 178.982 221.615 180.293 226.635 182.914C231.653 185.533 235.584 189.17 238.429 193.825C241.271 198.48 242.694 203.736 242.694 209.59C242.694 215.444 241.271 220.699 238.429 225.353C235.584 230.01 231.652 233.647 226.635 236.266C221.615 238.885 215.957 240.196 209.655 240.196C203.353 240.196 197.694 238.885 192.677 236.266ZM216.305 222.425C218.283 221.228 219.859 219.528 221.031 217.325C222.202 215.124 222.787 212.546 222.787 209.59C222.787 206.635 222.202 204.057 221.031 201.854C219.859 199.652 218.283 197.952 216.305 196.754C214.324 195.555 212.109 194.957 209.655 194.957C207.2 194.957 204.985 195.555 203.005 196.754C201.024 197.952 199.451 199.652 198.281 201.854C197.109 204.057 196.524 206.635 196.524 209.59C196.524 212.546 197.109 215.124 198.281 217.325C199.451 219.528 201.025 221.228 203.005 222.425C204.985 223.625 207.2 224.224 209.655 224.224C212.109 224.224 214.324 223.626 216.305 222.425Z" fill="white"/>
<path d="M263.602 236.266C258.583 233.647 254.653 230.01 251.809 225.353C248.966 220.699 247.543 215.442 247.543 209.59C247.543 203.738 248.965 198.481 251.809 193.825C254.653 189.17 258.583 185.533 263.602 182.914C268.622 180.293 274.281 178.982 280.582 178.982C286.884 178.982 292.543 180.293 297.561 182.914C302.58 185.533 306.511 189.17 309.354 193.825C312.198 198.48 313.62 203.736 313.62 209.59C313.62 215.444 312.198 220.699 309.354 225.353C306.511 230.01 302.58 233.647 297.561 236.266C292.543 238.885 286.882 240.196 280.582 240.196C274.283 240.196 268.622 238.885 263.602 236.266ZM287.23 222.425C289.211 221.228 290.787 219.528 291.956 217.325C293.128 215.124 293.713 212.546 293.713 209.59C293.713 206.635 293.128 204.057 291.956 201.854C290.786 199.652 289.21 197.952 287.23 196.754C285.252 195.555 283.035 194.957 280.582 194.957C278.13 194.957 275.911 195.555 273.933 196.754C271.952 197.952 270.378 199.652 269.207 201.854C268.035 204.057 267.45 206.635 267.45 209.59C267.45 212.546 268.035 215.124 269.207 217.325C270.378 219.528 271.953 221.228 273.933 222.425C275.911 223.625 278.128 224.224 280.582 224.224C283.037 224.224 285.252 223.626 287.23 222.425Z" fill="white"/>
<path d="M378.527 180.32V238.858H362.299L340.051 212.265V238.858H320.814V180.32H337.041L359.289 206.913V180.32H378.527Z" fill="white"/>
</g>
<path d="M383.187 330.703C374.676 330.703 367.777 337.6 367.777 346.109C367.777 354.618 374.676 361.516 383.187 361.516C383.995 361.516 384.783 361.435 385.557 361.315C386.478 367.293 381.18 375.639 381.18 375.639L383.187 377.565C399.56 361.516 398.597 346.11 398.597 346.11C398.597 337.601 391.698 330.703 383.187 330.703Z" fill="#5B45DA"/>
<path d="M422.189 330.703C413.678 330.703 406.779 337.6 406.779 346.109C406.779 354.618 413.678 361.516 422.189 361.516C422.997 361.516 423.785 361.435 424.559 361.315C425.48 367.293 420.183 375.639 420.183 375.639L422.189 377.565C438.562 361.516 437.599 346.11 437.599 346.11C437.599 337.601 430.7 330.703 422.189 330.703L422.189 330.703Z" fill="#5B45DA"/>
<path d="M130.348 46.8621C138.858 46.8621 145.757 39.9643 145.757 31.4555C145.757 22.9467 138.858 16.049 130.348 16.049C129.54 16.049 128.752 16.13 127.978 16.2498C127.058 10.2714 132.354 1.92599 132.354 1.92599L130.348 0C113.975 16.0486 114.938 31.4552 114.938 31.4552C114.938 39.964 121.837 46.8617 130.348 46.8617V46.8621Z" fill="#5B45DA"/>
<path d="M91.344 46.8621C99.8548 46.8621 106.754 39.9643 106.754 31.4555C106.754 22.9467 99.8548 16.049 91.344 16.049C90.536 16.049 89.7485 16.13 88.9739 16.2498C88.0538 10.2714 93.3508 1.92599 93.3508 1.92599L91.344 0C74.9713 16.0486 75.9345 31.4552 75.9345 31.4552C75.9345 39.964 82.8336 46.8617 91.344 46.8617V46.8621Z" fill="#5B45DA"/>
<defs>
<filter id="filter0_d_1_3180" x="116.324" y="137.645" width="267.913" height="110.552" filterUnits="userSpaceOnUse" color-interpolation-filters="sRGB">
<feFlood flood-opacity="0" result="BackgroundImageFix"/>
<feColorMatrix in="SourceAlpha" type="matrix" values="0 0 0 0 0 0 0 0 0 0 0 0 0 0 0 0 0 0 127 0" result="hardAlpha"/>
<feOffset dy="4"/>
<feGaussianBlur stdDeviation="2"/>
<feComposite in2="hardAlpha" operator="out"/>
<feColorMatrix type="matrix" values="0 0 0 0 0 0 0 0 0 0 0 0 0 0 0 0 0 0 0.25 0"/>
<feBlend mode="normal" in2="BackgroundImageFix" result="effect1_dropShadow_1_3180"/>
<feBlend mode="normal" in="SourceGraphic" in2="effect1_dropShadow_1_3180" result="shape"/>
</filter>
<radialGradient id="paint0_radial_1_3180" cx="0" cy="0" r="1" gradientUnits="userSpaceOnUse" gradientTransform="translate(251.83 275.096) scale(247.55 149.417)">
<stop offset="0.252" stop-color="#5F6DF1"/>
<stop offset="0.337" stop-color="#3A46BC"/>
<stop offset="0.667" stop-color="#CDD1FF"/>
<stop offset="0.895" stop-color="#D8DCFF"/>
<stop offset="1" stop-color="white"/>
</radialGradient>
<linearGradient id="paint1_linear_1_3180" x1="297.108" y1="330.902" x2="298.479" y2="28.7777" gradientUnits="userSpaceOnUse">
<stop stop-color="#514AD7"/>
<stop offset="1" stop-color="#6860FF"/>
</linearGradient>
<linearGradient id="paint2_linear_1_3180" x1="296.824" y1="330.023" x2="298.186" y2="29.7611" gradientUnits="userSpaceOnUse">
<stop stop-color="#514AD7"/>
<stop offset="1" stop-color="#6860FF"/>
</linearGradient>
<linearGradient id="paint3_linear_1_3180" x1="296.54" y1="329.145" x2="297.893" y2="30.7445" gradientUnits="userSpaceOnUse">
<stop stop-color="#514AD7"/>
<stop offset="1" stop-color="#6860FF"/>
</linearGradient>
<linearGradient id="paint4_linear_1_3180" x1="296.255" y1="328.266" x2="297.6" y2="31.7278" gradientUnits="userSpaceOnUse">
<stop stop-color="#514AD7"/>
<stop offset="1" stop-color="#6860FF"/>
</linearGradient>
<linearGradient id="paint5_linear_1_3180" x1="295.971" y1="327.388" x2="297.307" y2="32.7116" gradientUnits="userSpaceOnUse">
<stop stop-color="#514AD7"/>
<stop offset="1" stop-color="#6860FF"/>
</linearGradient>
<linearGradient id="paint6_linear_1_3180" x1="295.688" y1="326.51" x2="297.016" y2="33.6953" gradientUnits="userSpaceOnUse">
<stop stop-color="#514AD7"/>
<stop offset="1" stop-color="#6860FF"/>
</linearGradient>
<linearGradient id="paint7_linear_1_3180" x1="295.404" y1="325.631" x2="296.724" y2="34.6787" gradientUnits="userSpaceOnUse">
<stop stop-color="#514AD7"/>
<stop offset="1" stop-color="#6860FF"/>
</linearGradient>
<linearGradient id="paint8_linear_1_3180" x1="295.119" y1="324.753" x2="296.431" y2="35.6624" gradientUnits="userSpaceOnUse">
<stop stop-color="#514AD7"/>
<stop offset="1" stop-color="#6860FF"/>
</linearGradient>
<linearGradient id="paint9_linear_1_3180" x1="294.833" y1="323.874" x2="296.136" y2="36.6458" gradientUnits="userSpaceOnUse">
<stop stop-color="#514AD7"/>
<stop offset="1" stop-color="#6860FF"/>
</linearGradient>
<linearGradient id="paint10_linear_1_3180" x1="294.55" y1="322.996" x2="295.845" y2="37.6299" gradientUnits="userSpaceOnUse">
<stop stop-color="#514AD7"/>
<stop offset="1" stop-color="#6860FF"/>
</linearGradient>
<linearGradient id="paint11_linear_1_3180" x1="294.266" y1="322.118" x2="295.552" y2="38.6133" gradientUnits="userSpaceOnUse">
<stop stop-color="#514AD7"/>
<stop offset="1" stop-color="#6860FF"/>
</linearGradient>
<linearGradient id="paint12_linear_1_3180" x1="293.982" y1="321.239" x2="295.259" y2="39.5966" gradientUnits="userSpaceOnUse">
<stop stop-color="#514AD7"/>
<stop offset="1" stop-color="#6860FF"/>
</linearGradient>
<linearGradient id="paint13_linear_1_3180" x1="293.699" y1="320.361" x2="294.968" y2="40.58" gradientUnits="userSpaceOnUse">
<stop stop-color="#514AD7"/>
<stop offset="1" stop-color="#6860FF"/>
</linearGradient>
<linearGradient id="paint14_linear_1_3180" x1="293.413" y1="319.483" x2="294.674" y2="41.5638" gradientUnits="userSpaceOnUse">
<stop stop-color="#514AD7"/>
<stop offset="1" stop-color="#6860FF"/>
</linearGradient>
<linearGradient id="paint15_linear_1_3180" x1="293.13" y1="318.604" x2="294.383" y2="42.5475" gradientUnits="userSpaceOnUse">
<stop stop-color="#514AD7"/>
<stop offset="1" stop-color="#6860FF"/>
</linearGradient>
<linearGradient id="paint16_linear_1_3180" x1="292.844" y1="317.726" x2="294.088" y2="43.5309" gradientUnits="userSpaceOnUse">
<stop stop-color="#514AD7"/>
<stop offset="1" stop-color="#6860FF"/>
</linearGradient>
<linearGradient id="paint17_linear_1_3180" x1="292.561" y1="316.847" x2="293.797" y2="44.5146" gradientUnits="userSpaceOnUse">
<stop stop-color="#514AD7"/>
<stop offset="1" stop-color="#6860FF"/>
</linearGradient>
<linearGradient id="paint18_linear_1_3180" x1="292.277" y1="315.969" x2="293.504" y2="45.498" gradientUnits="userSpaceOnUse">
<stop stop-color="#514AD7"/>
<stop offset="1" stop-color="#6860FF"/>
</linearGradient>
<linearGradient id="paint19_linear_1_3180" x1="291.993" y1="315.091" x2="293.211" y2="46.4821" gradientUnits="userSpaceOnUse">
<stop stop-color="#514AD7"/>
<stop offset="1" stop-color="#6860FF"/>
</linearGradient>
<linearGradient id="paint20_linear_1_3180" x1="291.708" y1="314.212" x2="292.918" y2="47.4655" gradientUnits="userSpaceOnUse">
<stop stop-color="#514AD7"/>
<stop offset="1" stop-color="#6860FF"/>
</linearGradient>
<linearGradient id="paint21_linear_1_3180" x1="291.424" y1="313.334" x2="292.625" y2="48.4489" gradientUnits="userSpaceOnUse">
<stop stop-color="#514AD7"/>
<stop offset="1" stop-color="#6860FF"/>
</linearGradient>
<linearGradient id="paint22_linear_1_3180" x1="291.141" y1="312.456" x2="292.334" y2="49.4322" gradientUnits="userSpaceOnUse">
<stop stop-color="#514AD7"/>
<stop offset="1" stop-color="#6860FF"/>
</linearGradient>
<linearGradient id="paint23_linear_1_3180" x1="290.855" y1="311.577" x2="292.04" y2="50.416" gradientUnits="userSpaceOnUse">
<stop stop-color="#514AD7"/>
<stop offset="1" stop-color="#6860FF"/>
</linearGradient>
<linearGradient id="paint24_linear_1_3180" x1="290.57" y1="310.699" x2="291.747" y2="51.3997" gradientUnits="userSpaceOnUse">
<stop stop-color="#514AD7"/>
<stop offset="1" stop-color="#6860FF"/>
</linearGradient>
<linearGradient id="paint25_linear_1_3180" x1="290.286" y1="309.82" x2="291.454" y2="52.3832" gradientUnits="userSpaceOnUse">
<stop stop-color="#514AD7"/>
<stop offset="1" stop-color="#6860FF"/>
</linearGradient>
<linearGradient id="paint26_linear_1_3180" x1="290.002" y1="308.942" x2="291.161" y2="53.3668" gradientUnits="userSpaceOnUse">
<stop stop-color="#514AD7"/>
<stop offset="1" stop-color="#6860FF"/>
</linearGradient>
<linearGradient id="paint27_linear_1_3180" x1="289.719" y1="308.064" x2="290.87" y2="54.3502" gradientUnits="userSpaceOnUse">
<stop stop-color="#514AD7"/>
<stop offset="1" stop-color="#6860FF"/>
</linearGradient>
<linearGradient id="paint28_linear_1_3180" x1="289.435" y1="307.185" x2="290.577" y2="55.334" gradientUnits="userSpaceOnUse">
<stop stop-color="#514AD7"/>
<stop offset="1" stop-color="#6860FF"/>
</linearGradient>
<linearGradient id="paint29_linear_1_3180" x1="289.15" y1="306.307" x2="290.284" y2="56.3177" gradientUnits="userSpaceOnUse">
<stop stop-color="#514AD7"/>
<stop offset="1" stop-color="#6860FF"/>
</linearGradient>
<linearGradient id="paint30_linear_1_3180" x1="288.866" y1="305.429" x2="289.991" y2="57.3011" gradientUnits="userSpaceOnUse">
<stop stop-color="#514AD7"/>
<stop offset="1" stop-color="#6860FF"/>
</linearGradient>
<linearGradient id="paint31_linear_1_3180" x1="288.582" y1="304.55" x2="289.699" y2="58.2844" gradientUnits="userSpaceOnUse">
<stop stop-color="#514AD7"/>
<stop offset="1" stop-color="#6860FF"/>
</linearGradient>
<linearGradient id="paint32_linear_1_3180" x1="288.299" y1="303.672" x2="289.408" y2="59.2682" gradientUnits="userSpaceOnUse">
<stop stop-color="#514AD7"/>
<stop offset="1" stop-color="#6860FF"/>
</linearGradient>
<linearGradient id="paint33_linear_1_3180" x1="288.013" y1="302.794" x2="289.113" y2="60.2519" gradientUnits="userSpaceOnUse">
<stop stop-color="#514AD7"/>
<stop offset="1" stop-color="#6860FF"/>
</linearGradient>
<linearGradient id="paint34_linear_1_3180" x1="287.728" y1="301.915" x2="288.82" y2="61.2353" gradientUnits="userSpaceOnUse">
<stop stop-color="#514AD7"/>
<stop offset="1" stop-color="#6860FF"/>
</linearGradient>
<linearGradient id="paint35_linear_1_3180" x1="287.446" y1="301.037" x2="288.529" y2="62.2191" gradientUnits="userSpaceOnUse">
<stop stop-color="#514AD7"/>
<stop offset="1" stop-color="#6860FF"/>
</linearGradient>
<linearGradient id="paint36_linear_1_3180" x1="287.161" y1="300.158" x2="288.236" y2="63.2025" gradientUnits="userSpaceOnUse">
<stop stop-color="#514AD7"/>
<stop offset="1" stop-color="#6860FF"/>
</linearGradient>
<linearGradient id="paint37_linear_1_3180" x1="286.877" y1="299.28" x2="287.944" y2="64.1861" gradientUnits="userSpaceOnUse">
<stop stop-color="#514AD7"/>
<stop offset="1" stop-color="#6860FF"/>
</linearGradient>
<linearGradient id="paint38_linear_1_3180" x1="286.592" y1="298.402" x2="287.65" y2="65.1699" gradientUnits="userSpaceOnUse">
<stop stop-color="#514AD7"/>
<stop offset="1" stop-color="#6860FF"/>
</linearGradient>
<linearGradient id="paint39_linear_1_3180" x1="286.308" y1="297.523" x2="287.358" y2="66.1536" gradientUnits="userSpaceOnUse">
<stop stop-color="#514AD7"/>
<stop offset="1" stop-color="#6860FF"/>
</linearGradient>
<linearGradient id="paint40_linear_1_3180" x1="286.022" y1="296.645" x2="287.063" y2="67.1367" gradientUnits="userSpaceOnUse">
<stop stop-color="#514AD7"/>
<stop offset="1" stop-color="#6860FF"/>
</linearGradient>
<linearGradient id="paint41_linear_1_3180" x1="285.741" y1="295.767" x2="286.774" y2="68.1204" gradientUnits="userSpaceOnUse">
<stop stop-color="#514AD7"/>
<stop offset="1" stop-color="#6860FF"/>
</linearGradient>
<linearGradient id="paint42_linear_1_3180" x1="285.455" y1="294.888" x2="286.479" y2="69.1041" gradientUnits="userSpaceOnUse">
<stop stop-color="#514AD7"/>
<stop offset="1" stop-color="#6860FF"/>
</linearGradient>
</defs>
</svg>
