<svg width="24" height="24" viewBox="0 0 24 24" fill="none" xmlns="http://www.w3.org/2000/svg">
<g clip-path="url(#clip0_1_309)">
<g clip-path="url(#clip1_1_309)">
<path d="M0 4H24V20H0V4Z" fill="white"/>
<path d="M0 4H24V9.33333H0V4Z" fill="#FF6820"/>
<path d="M0 14.6665H24V19.9998H0V14.6665Z" fill="#046A38"/>
<path d="M12 14.4665C13.3623 14.4665 14.4667 13.3622 14.4667 11.9999C14.4667 10.6376 13.3623 9.5332 12 9.5332C10.6377 9.5332 9.53333 10.6376 9.53333 11.9999C9.53333 13.3622 10.6377 14.4665 12 14.4665Z" fill="#07038D"/>
<path d="M12 14.1334C13.1782 14.1334 14.1333 13.1782 14.1333 12C14.1333 10.8218 13.1782 9.8667 12 9.8667C10.8218 9.8667 9.86667 10.8218 9.86667 12C9.86667 13.1782 10.8218 14.1334 12 14.1334Z" fill="white"/>
<path d="M12 12.4266C12.2356 12.4266 12.4267 12.2356 12.4267 11.9999C12.4267 11.7643 12.2356 11.5732 12 11.5732C11.7644 11.5732 11.5733 11.7643 11.5733 11.9999C11.5733 12.2356 11.7644 12.4266 12 12.4266Z" fill="#07038D"/>
<path d="M12 9.8667L12.08 11.1505L12 11.7861L11.92 11.1505L12 9.8667Z" fill="#07038D"/>
<path d="M12.2663 9.97753C12.3174 9.98425 12.3643 9.94828 12.371 9.89717C12.3777 9.84607 12.3418 9.79918 12.2906 9.79246C12.2395 9.78573 12.1927 9.8217 12.1859 9.87281C12.1792 9.92391 12.2152 9.9708 12.2663 9.97753Z" fill="#07038D"/>
<path d="M12 14.1333L11.92 12.8495L12 12.2139L12.08 12.8495L12 14.1333Z" fill="#07038D"/>
<path d="M11.7337 14.0225C11.6826 14.0157 11.6357 14.0517 11.629 14.1028C11.6223 14.1539 11.6583 14.2008 11.7094 14.2075C11.7605 14.2143 11.8073 14.1783 11.8141 14.1272C11.8208 14.0761 11.7848 14.0292 11.7337 14.0225Z" fill="#07038D"/>
<path d="M12.5522 9.93965L12.2972 11.2004L12.0554 11.7936L12.1426 11.159L12.5522 9.93965Z" fill="#07038D"/>
<path d="M12.7807 10.1154C12.8283 10.1351 12.8829 10.1125 12.9026 10.0649C12.9224 10.0173 12.8997 9.96267 12.8521 9.94294C12.8045 9.92322 12.7499 9.94583 12.7302 9.99346C12.7104 10.0411 12.7331 10.0957 12.7807 10.1154Z" fill="#07038D"/>
<path d="M11.4479 14.0608L11.7028 12.8001L11.9446 12.2069L11.8574 12.8415L11.4479 14.0608Z" fill="#07038D"/>
<path d="M11.2193 13.8851C11.1717 13.8654 11.1171 13.888 11.0974 13.9356C11.0777 13.9832 11.1003 14.0378 11.1479 14.0575C11.1955 14.0773 11.2501 14.0547 11.2698 14.007C11.2896 13.9594 11.267 13.9048 11.2193 13.8851Z" fill="#07038D"/>
<path d="M13.0666 10.1523L12.494 11.3041L12.1069 11.8145L12.3554 11.2241L13.0666 10.1523Z" fill="#07038D"/>
<path d="M13.2419 10.3817C13.2828 10.413 13.3414 10.4053 13.3728 10.3644C13.4041 10.3235 13.3964 10.265 13.3555 10.2336C13.3146 10.2022 13.256 10.2099 13.2247 10.2508C13.1933 10.2917 13.201 10.3503 13.2419 10.3817Z" fill="#07038D"/>
<path d="M10.9334 13.8477L11.506 12.6959L11.8931 12.1855L11.6445 12.7759L10.9334 13.8477Z" fill="#07038D"/>
<path d="M10.7581 13.6183C10.7172 13.587 10.6586 13.5947 10.6272 13.6356C10.5958 13.6765 10.6035 13.735 10.6444 13.7664C10.6853 13.7978 10.7439 13.7901 10.7753 13.7492C10.8067 13.7083 10.799 13.6497 10.7581 13.6183Z" fill="#07038D"/>
<path d="M13.5085 10.4916L12.6573 11.4559L12.1513 11.8488L12.5442 11.3428L13.5085 10.4916Z" fill="#07038D"/>
<path d="M13.6184 10.7585C13.6498 10.7994 13.7084 10.8071 13.7493 10.7757C13.7902 10.7443 13.7979 10.6857 13.7665 10.6448C13.7352 10.604 13.6766 10.5962 13.6357 10.6276C13.5948 10.659 13.5871 10.7176 13.6184 10.7585Z" fill="#07038D"/>
<path d="M10.4915 13.5089L11.3427 12.5445L11.8487 12.1517L11.4558 12.6577L10.4915 13.5089Z" fill="#07038D"/>
<path d="M10.3816 13.242C10.3502 13.2011 10.2916 13.1934 10.2507 13.2248C10.2098 13.2562 10.2021 13.3147 10.2335 13.3556C10.2648 13.3965 10.3234 13.4042 10.3643 13.3729C10.4052 13.3415 10.4129 13.2829 10.3816 13.242Z" fill="#07038D"/>
<path d="M13.8474 10.934L12.7756 11.6452L12.1852 11.8937L12.6956 11.5066L13.8474 10.934Z" fill="#07038D"/>
<path d="M13.8845 11.2197C13.9042 11.2673 13.9588 11.2899 14.0065 11.2702C14.0541 11.2505 14.0767 11.1959 14.057 11.1482C14.0372 11.1006 13.9826 11.078 13.935 11.0977C13.8874 11.1175 13.8648 11.1721 13.8845 11.2197Z" fill="#07038D"/>
<path d="M10.1521 13.0669L11.2239 12.3558L11.8144 12.1073L11.3039 12.4944L10.1521 13.0669Z" fill="#07038D"/>
<path d="M10.115 12.7813C10.0953 12.7337 10.0407 12.7111 9.99307 12.7308C9.94544 12.7505 9.92283 12.8051 9.94255 12.8527C9.96228 12.9004 10.0169 12.923 10.0645 12.9032C10.1121 12.8835 10.1347 12.8289 10.115 12.7813Z" fill="#07038D"/>
<path d="M14.0608 11.4484L12.8415 11.8579L12.2068 11.9451L12.8001 11.7034L14.0608 11.4484Z" fill="#07038D"/>
<path d="M14.0227 11.7341C14.0294 11.7852 14.0763 11.8212 14.1274 11.8144C14.1785 11.8077 14.2145 11.7608 14.2078 11.7097C14.201 11.6586 14.1542 11.6226 14.1031 11.6294C14.052 11.6361 14.016 11.683 14.0227 11.7341Z" fill="#07038D"/>
<path d="M9.93952 12.5526L11.1588 12.1431L11.7935 12.0558L11.2002 12.2976L9.93952 12.5526Z" fill="#07038D"/>
<path d="M9.97762 12.2669C9.97089 12.2158 9.92401 12.1798 9.8729 12.1865C9.8218 12.1933 9.78582 12.2401 9.79255 12.2913C9.79928 12.3424 9.84616 12.3783 9.89727 12.3716C9.94837 12.3649 9.98435 12.318 9.97762 12.2669Z" fill="#07038D"/>
<path d="M14.1333 12.0004L12.8496 12.0804L12.214 12.0004L12.8496 11.9204L14.1333 12.0004Z" fill="#07038D"/>
<path d="M14.0225 12.2669C14.0158 12.318 14.0518 12.3649 14.1029 12.3716C14.154 12.3783 14.2009 12.3424 14.2076 12.2913C14.2143 12.2402 14.1784 12.1933 14.1273 12.1865C14.0762 12.1798 14.0293 12.2158 14.0225 12.2669Z" fill="#07038D"/>
<path d="M9.86666 12.0006L11.1504 11.9206L11.786 12.0006L11.1504 12.0806L9.86666 12.0006Z" fill="#07038D"/>
<path d="M9.97745 11.7341C9.98418 11.683 9.9482 11.6361 9.8971 11.6294C9.84599 11.6226 9.79911 11.6586 9.79238 11.7097C9.78565 11.7608 9.82163 11.8077 9.87273 11.8144C9.92384 11.8212 9.97072 11.7852 9.97745 11.7341Z" fill="#07038D"/>
<path d="M14.0606 12.5524L12.7999 12.2974L12.2067 12.0556L12.8413 12.1428L14.0606 12.5524Z" fill="#07038D"/>
<path d="M13.8847 12.7809C13.865 12.8285 13.8876 12.8831 13.9352 12.9029C13.9828 12.9226 14.0374 12.9 14.0572 12.8523C14.0769 12.8047 14.0543 12.7501 14.0067 12.7304C13.959 12.7107 13.9044 12.7333 13.8847 12.7809Z" fill="#07038D"/>
<path d="M9.93935 11.4481L11.2001 11.7031L11.7933 11.9449L11.1587 11.8577L9.93935 11.4481Z" fill="#07038D"/>
<path d="M10.1153 11.2196C10.135 11.172 10.1124 11.1174 10.0648 11.0976C10.0171 11.0779 9.96255 11.1005 9.94282 11.1481C9.9231 11.1958 9.94571 11.2504 9.99333 11.2701C10.041 11.2898 10.0956 11.2672 10.1153 11.2196Z" fill="#07038D"/>
<path d="M13.8479 13.0668L12.6962 12.4942L12.1857 12.1072L12.7762 12.3557L13.8479 13.0668Z" fill="#07038D"/>
<path d="M13.6186 13.2421C13.5872 13.283 13.5949 13.3416 13.6358 13.373C13.6767 13.4044 13.7353 13.3967 13.7666 13.3558C13.798 13.3149 13.7903 13.2563 13.7494 13.2249C13.7085 13.1935 13.6499 13.2013 13.6186 13.2421Z" fill="#07038D"/>
<path d="M10.1525 10.9336L11.3043 11.5062L11.8148 11.8933L11.2243 11.6448L10.1525 10.9336Z" fill="#07038D"/>
<path d="M10.3819 10.7583C10.4133 10.7174 10.4056 10.6589 10.3647 10.6275C10.3238 10.5961 10.2652 10.6038 10.2338 10.6447C10.2024 10.6856 10.2101 10.7442 10.251 10.7756C10.2919 10.8069 10.3505 10.7992 10.3819 10.7583Z" fill="#07038D"/>
<path d="M13.5085 13.5087L12.5442 12.6575L12.1513 12.1515L12.6573 12.5444L13.5085 13.5087Z" fill="#07038D"/>
<path d="M13.2419 13.6187C13.201 13.6501 13.1933 13.7087 13.2246 13.7496C13.256 13.7904 13.3146 13.7982 13.3555 13.7668C13.3964 13.7354 13.4041 13.6768 13.3727 13.6359C13.3414 13.595 13.2828 13.5873 13.2419 13.6187Z" fill="#07038D"/>
<path d="M10.4915 10.4918L11.4558 11.343L11.8487 11.849L11.3427 11.4561L10.4915 10.4918Z" fill="#07038D"/>
<path d="M10.7581 10.3818C10.799 10.3504 10.8067 10.2918 10.7754 10.2509C10.744 10.21 10.6854 10.2023 10.6445 10.2337C10.6036 10.2651 10.5959 10.3237 10.6273 10.3646C10.6586 10.4055 10.7172 10.4132 10.7581 10.3818Z" fill="#07038D"/>
<path d="M13.0663 13.8471L12.3551 12.7754L12.1066 12.1849L12.4937 12.6954L13.0663 13.8471Z" fill="#07038D"/>
<path d="M12.7806 13.8843C12.733 13.904 12.7104 13.9586 12.7301 14.0062C12.7498 14.0538 12.8044 14.0764 12.8521 14.0567C12.8997 14.037 12.9223 13.9824 12.9026 13.9348C12.8828 13.8871 12.8282 13.8645 12.7806 13.8843Z" fill="#07038D"/>
<path d="M10.9333 10.1524L11.6445 11.2241L11.893 11.8146L11.5059 11.3041L10.9333 10.1524Z" fill="#07038D"/>
<path d="M11.219 10.1153C11.2666 10.0955 11.2892 10.0409 11.2695 9.99331C11.2498 9.94569 11.1952 9.92307 11.1476 9.9428C11.0999 9.96252 11.0773 10.0171 11.097 10.0647C11.1168 10.1124 11.1714 10.135 11.219 10.1153Z" fill="#07038D"/>
<path d="M12.552 14.0612L12.1424 12.8419L12.0552 12.2073L12.297 12.8005L12.552 14.0612Z" fill="#07038D"/>
<path d="M12.2661 14.0229C12.215 14.0296 12.179 14.0765 12.1857 14.1276C12.1925 14.1787 12.2393 14.2147 12.2905 14.208C12.3416 14.2013 12.3775 14.1544 12.3708 14.1033C12.3641 14.0522 12.3172 14.0162 12.2661 14.0229Z" fill="#07038D"/>
<path d="M11.4477 9.93974L11.8572 11.1591L11.9444 11.7937L11.7026 11.2005L11.4477 9.93974Z" fill="#07038D"/>
<path d="M11.7335 9.97806C11.7846 9.97133 11.8206 9.92445 11.8139 9.87335C11.8072 9.82224 11.7603 9.78627 11.7092 9.79299C11.6581 9.79972 11.6221 9.84661 11.6288 9.89771C11.6355 9.94882 11.6824 9.98479 11.7335 9.97806Z" fill="#07038D"/>
</g>
</g>
<defs>
<clipPath id="clip0_1_309">
<rect width="24" height="24" fill="white"/>
</clipPath>
<clipPath id="clip1_1_309">
<rect width="24" height="16" fill="white" transform="translate(0 4)"/>
</clipPath>
</defs>
</svg>
