<svg width="1440" height="218" viewBox="0 0 1440 218" fill="none" xmlns="http://www.w3.org/2000/svg">
<g opacity="0.16">
<path d="M136.964 54.4385C147.022 37.0821 141.053 14.8885 123.632 4.86777C106.211 -5.15297 83.934 0.793784 73.8757 18.1502L-11.114 164.808C-21.1722 182.164 -15.2032 204.358 2.2182 214.379C19.6396 224.399 41.9163 218.453 51.9745 201.096L136.964 54.4385Z" fill="url(#paint0_linear_1_16)"/>
<path d="M237.477 54.7409C247.535 37.3845 241.566 15.1909 224.145 5.17018C206.723 -4.85057 184.447 1.09619 174.388 18.4526L89.3987 165.11C79.3404 182.467 85.3095 204.66 102.731 214.681C120.152 224.702 142.429 218.755 152.487 201.398L237.477 54.7409Z" fill="url(#paint1_linear_1_16)"/>
<path d="M440.845 54.741C450.903 37.3845 444.934 15.1909 427.513 5.17018C410.092 -4.85057 387.815 1.09619 377.757 18.4526L195.727 332.561C185.669 349.918 191.638 372.111 209.059 382.132C226.481 392.153 248.757 386.206 258.815 368.85L440.845 54.741Z" fill="url(#paint2_linear_1_16)"/>
<path d="M338.25 54.7409C348.309 37.3845 342.34 15.1909 324.918 5.17018C307.497 -4.85057 285.22 1.09619 275.162 18.4526L232.496 92.0772C222.437 109.434 228.406 131.627 245.828 141.648C263.249 151.669 285.526 145.722 295.584 128.366L338.25 54.7409Z" fill="url(#paint3_linear_1_16)"/>
<path d="M258.771 182.378C258.771 202.42 242.464 218.667 222.347 218.667C202.231 218.667 185.923 202.42 185.923 182.378C185.923 162.337 202.231 146.09 222.347 146.09C242.464 146.09 258.771 162.337 258.771 182.378Z" fill="url(#paint4_linear_1_16)"/>
<path d="M695.803 262.606C678.423 262.606 665.871 258.522 658.147 250.353C650.584 242.021 646.802 228.543 646.802 209.918V123.167L593.939 251.578H585.973L521.283 118.265V251.578H509.214V89.8384H538.662L597.077 210.163L646.561 89.8384H678.182V209.918C678.182 225.275 679.469 236.548 682.044 243.737C684.619 250.925 689.205 255.173 695.803 256.48V262.606Z" fill="#6058E1"/>
<path d="M749.936 124.603C744.408 124.603 740.108 122.671 737.036 118.809C734.118 114.946 732.659 110.205 732.659 104.587C732.659 100.022 733.811 96.4225 736.115 93.7889C738.572 91.1552 741.643 89.8384 745.329 89.8384C750.858 89.8384 755.081 91.7697 757.999 95.6324C761.07 99.4951 762.606 104.236 762.606 109.854C762.606 114.419 761.377 118.018 758.92 120.652C756.617 123.286 753.622 124.603 749.936 124.603ZM734.963 173.062C734.963 164.107 733.888 157.523 731.738 153.309C729.588 148.92 725.288 146.725 718.838 146.725H716.534V138.824H744.177C749.706 138.824 753.929 139.878 756.847 141.985C759.765 144.092 761.838 147.603 763.067 152.519C764.295 157.26 764.909 164.107 764.909 173.062V262.606H734.963V173.062Z" fill="#6058E1"/>
<path d="M836.743 101.618H819.946C811.113 101.618 804.331 104.061 799.6 108.948C795.026 113.834 792.739 121.862 792.739 133.03H785.641V110.78C785.641 96.8189 792.345 89.8384 805.751 89.8384H916.945V101.618H867.499V262.606H836.743V101.618Z" fill="#6058E1"/>
<path d="M1066.7 262.606C1058.02 262.606 1050.13 259.856 1043.03 254.355C1035.93 248.682 1028.51 238.969 1020.78 225.216L997.101 182.153H987.631V260.028H956.617V123.36C956.617 114.593 955.512 108.147 953.303 104.021C951.093 99.7231 946.674 97.5742 940.045 97.5742H937.678V89.8384H1003.02C1019.43 89.8384 1034.19 93.1046 1047.29 99.6371C1060.39 106.17 1066.94 118.719 1066.94 137.285C1066.94 158.774 1054.16 173.042 1028.59 180.09L1053.45 225.216C1062.76 242.235 1072.54 251.69 1082.8 253.581V260.028C1081.54 260.715 1079.25 261.317 1075.94 261.833C1072.62 262.348 1069.54 262.606 1066.7 262.606ZM1001.84 171.839C1010.67 171.839 1018.17 169.002 1024.33 163.329C1030.64 157.484 1033.8 148.373 1033.8 135.996C1033.8 123.79 1030.72 114.765 1024.56 108.92C1018.41 103.075 1011.23 100.153 1003.02 100.153C998.442 100.153 994.891 100.497 992.366 101.184L987.631 101.958V171.839H1001.84Z" fill="#6058E1"/>
<path d="M1257.47 262.606C1247.05 262.606 1237.61 260.351 1229.17 255.841C1220.73 251.158 1213.86 242.138 1208.56 228.781L1202.85 214.21H1136.81L1116.45 261.565H1103.54L1176.78 89.8384H1187.95L1243.57 228.781C1249.86 244.913 1258.47 253.586 1269.39 254.8V261.305C1266.41 262.173 1262.44 262.606 1257.47 262.606ZM1142.02 202.502H1198.13L1170.82 134.591L1142.02 202.502Z" fill="#6058E1"/>
<path d="M1444.06 262.606C1433.63 262.606 1424.2 260.351 1415.76 255.841C1407.32 251.158 1400.45 242.138 1395.15 228.781L1389.44 214.21H1323.39L1303.03 261.565H1290.12L1363.37 89.8384H1374.54L1430.16 228.781C1436.45 244.913 1445.06 253.586 1455.98 254.8V261.305C1453 262.173 1449.03 262.606 1444.06 262.606ZM1328.61 202.502H1384.72L1357.41 134.591L1328.61 202.502Z" fill="#6058E1"/>
</g>
<defs>
<linearGradient id="paint0_linear_1_16" x1="-15.9705" y1="41.1561" x2="271.416" y2="388.16" gradientUnits="userSpaceOnUse">
<stop stop-color="#7A73E4"/>
<stop offset="1" stop-color="#524ADF"/>
</linearGradient>
<linearGradient id="paint1_linear_1_16" x1="-15.9705" y1="41.1561" x2="271.416" y2="388.16" gradientUnits="userSpaceOnUse">
<stop stop-color="#7A73E4"/>
<stop offset="1" stop-color="#524ADF"/>
</linearGradient>
<linearGradient id="paint2_linear_1_16" x1="-15.9705" y1="41.1561" x2="271.416" y2="388.16" gradientUnits="userSpaceOnUse">
<stop stop-color="#7A73E4"/>
<stop offset="1" stop-color="#524ADF"/>
</linearGradient>
<linearGradient id="paint3_linear_1_16" x1="-15.9705" y1="41.1561" x2="271.416" y2="388.16" gradientUnits="userSpaceOnUse">
<stop stop-color="#7A73E4"/>
<stop offset="1" stop-color="#524ADF"/>
</linearGradient>
<linearGradient id="paint4_linear_1_16" x1="-15.9705" y1="41.1561" x2="271.416" y2="388.16" gradientUnits="userSpaceOnUse">
<stop stop-color="#7A73E4"/>
<stop offset="1" stop-color="#524ADF"/>
</linearGradient>
</defs>
</svg>
