<svg width="38" height="38" viewBox="0 0 38 38" fill="none" xmlns="http://www.w3.org/2000/svg">
<circle cx="19" cy="19" r="19" fill="white"/>
<circle cx="19" cy="19" r="18.5" stroke="#5B3EDA" stroke-opacity="0.28"/>
<path d="M19 28C20.995 27.9999 22.9335 27.3372 24.511 26.116C26.0886 24.8948 27.2159 23.1843 27.716 21.253M19 28C17.005 27.9999 15.0665 27.3372 13.489 26.116C11.9114 24.8948 10.7841 23.1843 10.284 21.253M19 28C21.485 28 23.5 23.97 23.5 19C23.5 14.03 21.485 10 19 10M19 28C16.515 28 14.5 23.97 14.5 19C14.5 14.03 16.515 10 19 10M27.716 21.253C27.901 20.533 28 19.778 28 19C28.0025 17.4521 27.6039 15.93 26.843 14.582M27.716 21.253C25.0492 22.7314 22.0492 23.5048 19 23.5C15.838 23.5 12.867 22.685 10.284 21.253M10.284 21.253C10.0948 20.517 9.99933 19.76 10 19C10 17.395 10.42 15.887 11.157 14.582M19 10C20.5962 9.99933 22.1639 10.4234 23.5422 11.2286C24.9205 12.0338 26.0597 13.1912 26.843 14.582M19 10C17.4038 9.99933 15.8361 10.4234 14.4578 11.2286C13.0795 12.0338 11.9403 13.1912 11.157 14.582M26.843 14.582C24.6657 16.4679 21.8805 17.5041 19 17.5C16.002 17.5 13.26 16.4 11.157 14.582" stroke="black" stroke-width="1.5" stroke-linecap="round" stroke-linejoin="round"/>
</svg>
