<svg width="30" height="30" viewBox="0 0 30 30" fill="none" xmlns="http://www.w3.org/2000/svg">
<path d="M14.9707 1.32925C15.014 1.32755 15.0574 1.32585 15.1021 1.3241C15.8372 1.31595 16.5352 1.70194 17.1993 1.98328C17.4202 2.07687 17.6413 2.16988 17.8625 2.26295C17.9795 2.31222 18.0965 2.36153 18.2136 2.41086C18.8016 2.65872 19.3907 2.9041 19.98 3.14922C20.2743 3.27168 20.5685 3.39429 20.8628 3.5169C20.9208 3.54106 20.9787 3.56522 21.0385 3.59011C22.8158 4.33074 22.8158 4.33074 23.6782 4.69399C23.9573 4.81139 24.2372 4.92673 24.5178 5.04057C25.3349 5.37603 26.0317 5.7502 26.4253 6.59093C26.6413 7.12974 26.6988 7.72514 26.7553 8.29825C26.7627 8.37019 26.77 8.44213 26.7775 8.51626C27.2735 13.5373 26.466 19.2714 23.2297 23.3221C23.1822 23.3795 23.1348 23.4369 23.0859 23.496C23.0607 23.5267 23.0355 23.5575 23.0096 23.5892C21.249 25.7327 19.0773 27.3149 16.5103 28.3741C16.4194 28.4123 16.3298 28.4537 16.2405 28.4955C15.4669 28.8178 14.4369 28.7695 13.6654 28.4621C13.5852 28.4279 13.5054 28.3929 13.426 28.3571C13.2925 28.2969 13.1577 28.2407 13.0224 28.1846C9.1934 26.5625 6.20901 23.4074 4.63712 19.5801C3.19933 15.9615 2.1311 10.3718 3.56504 6.58598C3.67625 6.35492 3.81431 6.1673 3.98435 5.97647C4.01101 5.9424 4.03768 5.90834 4.06515 5.87324C4.27259 5.63222 4.51796 5.49047 4.80032 5.35162C4.86148 5.32135 4.86148 5.32135 4.92387 5.29046C5.41004 5.05401 5.90968 4.85028 6.41032 4.64682C6.64722 4.55054 6.88377 4.45344 7.12035 4.3564C7.24287 4.30614 7.36541 4.25593 7.48796 4.20575C8.08656 3.96052 8.6833 3.71096 9.27976 3.4606C9.48559 3.37429 9.69144 3.28801 9.89729 3.20173C9.94903 3.18004 10.0008 3.15835 10.0541 3.13601C10.6592 2.88241 11.2646 2.62961 11.8701 2.3771C11.9918 2.32632 12.1136 2.27551 12.2353 2.22468C13.3213 1.77126 13.3213 1.77126 13.8656 1.55172C13.9327 1.52467 13.9998 1.49761 14.0689 1.46973C14.3732 1.35549 14.6466 1.33332 14.9707 1.32925ZM13.8647 2.62198C13.7552 2.66965 13.6457 2.71732 13.5361 2.7648C13.4554 2.79986 13.3748 2.83512 13.2943 2.87055C12.7718 3.10058 12.2437 3.31732 11.7162 3.53583C11.4117 3.66214 11.1075 3.78911 10.8032 3.91607C10.7425 3.94141 10.6817 3.96674 10.6192 3.99284C9.75087 4.35511 8.88286 4.71811 8.01528 5.08213C7.70419 5.21258 7.39282 5.34231 7.08123 5.47155C6.87534 5.55701 6.66958 5.64279 6.46385 5.72862C6.36748 5.76874 6.27105 5.80871 6.17456 5.84852C5.20317 6.2266 5.20317 6.2266 4.5117 6.97256C4.33857 7.40534 4.28707 7.85609 4.2407 8.31656C4.23339 8.38654 4.22608 8.45652 4.21854 8.52863C3.71022 13.5447 4.59676 19.0147 7.83323 23.0236C7.91684 23.123 8.00104 23.2219 8.08592 23.3202C8.12512 23.3659 8.16432 23.4116 8.2047 23.4587C8.84605 24.1884 9.52979 24.854 10.3125 25.4296C10.3626 25.4671 10.3626 25.4671 10.4138 25.5053C10.9258 25.8869 11.4556 26.2292 12.0117 26.5429C12.0534 26.5664 12.0952 26.59 12.1382 26.6143C13.8546 27.5958 13.8546 27.5958 15.7617 27.5976C16.0024 27.5095 16.2352 27.4069 16.4685 27.3009C16.533 27.272 16.5975 27.243 16.6639 27.2131C18.2629 26.4871 19.7093 25.535 20.9765 24.3163C21.0082 24.2859 21.0399 24.2555 21.0725 24.2242C21.5019 23.8098 21.9021 23.3847 22.2656 22.9101C22.2902 22.8782 22.3148 22.8464 22.3401 22.8136C25.5733 18.6069 26.3448 12.992 25.7043 7.84048C25.6214 7.24383 25.4931 6.80651 25.0189 6.413C24.8252 6.27181 24.6169 6.17971 24.3969 6.08633C24.3461 6.06411 24.2952 6.04189 24.2429 6.019C23.6802 5.77499 23.1126 5.54235 22.5453 5.30928C21.9214 5.0529 21.2989 4.79314 20.6762 4.5336C20.6164 4.50868 20.5567 4.48376 20.495 4.45809C19.7813 4.16067 19.0677 3.86276 18.3546 3.56373C18.0854 3.45084 17.8161 3.33812 17.5466 3.22588C17.1244 3.04996 16.7027 2.87386 16.2847 2.68812C16.1968 2.64985 16.1968 2.64985 16.1072 2.6108C16.0083 2.56757 15.9098 2.52328 15.8121 2.47739C15.1418 2.18803 14.503 2.3295 13.8647 2.62198Z" fill="#654ADA"/>
<path d="M15.9082 3.65809C15.9558 3.67813 16.0034 3.69817 16.0524 3.71882C16.2095 3.7851 16.3665 3.85183 16.5235 3.91856C16.6354 3.96583 16.7473 4.01305 16.8592 4.06024C17.0353 4.13445 17.2113 4.20868 17.3873 4.28304C17.9773 4.53231 18.5686 4.77861 19.16 5.02457C19.4539 5.14682 19.7478 5.26922 20.0416 5.39164C20.1285 5.42784 20.1285 5.42784 20.2171 5.46478C20.8477 5.72757 21.478 5.99117 22.1082 6.25499C22.1589 6.27623 22.2097 6.29747 22.262 6.31936C22.3112 6.33996 22.3604 6.36056 22.4111 6.38179C22.4594 6.40199 22.5077 6.4222 22.5574 6.44302C22.6519 6.48261 22.7463 6.5223 22.8407 6.56208C23.0846 6.66482 23.3291 6.76578 23.5747 6.86438C23.6258 6.88516 23.6768 6.90593 23.7294 6.92733C23.8269 6.96694 23.9246 7.00603 24.0225 7.04448C24.4264 7.20991 24.4264 7.20991 24.5508 7.44151C25.7467 10.9019 24.7321 16.1822 23.2102 19.3777C23.169 19.4616 23.1276 19.5453 23.086 19.629C23.0617 19.6781 23.0375 19.7272 23.0125 19.7778C22.3667 21.076 21.5694 22.2154 20.5664 23.2618C20.537 23.2929 20.5075 23.3239 20.4772 23.3559C20.0135 23.8426 19.5235 24.2673 18.9844 24.6681C18.9517 24.6929 18.919 24.7177 18.8854 24.7433C17.8872 25.5012 16.0586 26.8105 14.7656 26.6603C14.5782 26.6095 14.4023 26.5383 14.2236 26.4625C14.1729 26.4415 14.1222 26.4205 14.07 26.3988C12.7129 25.8263 11.4869 25.104 10.3711 24.1407C10.3185 24.0957 10.2658 24.0507 10.2116 24.0043C10.0664 23.8769 9.92526 23.7464 9.78517 23.6134C9.73876 23.5694 9.73876 23.5694 9.69141 23.5245C9.18498 23.0407 8.73702 22.5351 8.32033 21.9728C8.27051 21.9071 8.22069 21.8415 8.17087 21.7759C5.38877 18.0559 4.84781 12.989 5.27345 8.4962C5.27814 8.44659 5.28284 8.39699 5.28767 8.34588C5.36728 7.54914 5.36728 7.54914 5.56642 7.26573C5.92492 7.04947 6.32349 6.89511 6.7106 6.7377C6.7627 6.71629 6.8148 6.69488 6.86848 6.67282C6.98033 6.62688 7.09223 6.58104 7.20415 6.53528C7.5069 6.4115 7.80934 6.28696 8.11181 6.16252C8.17367 6.13709 8.23552 6.11167 8.29924 6.08548C8.9006 5.83813 9.5005 5.58736 10.1001 5.3358C10.3058 5.24957 10.5115 5.16337 10.7172 5.07716C10.7689 5.05548 10.8206 5.0338 10.8739 5.01147C11.4814 4.75687 12.089 4.50274 12.6969 4.24908C12.8194 4.19791 12.942 4.14671 13.0645 4.09546C13.3902 3.95924 13.7163 3.82405 14.0429 3.68993C14.167 3.63822 14.2901 3.58469 14.413 3.53029C14.4788 3.5023 14.5445 3.4743 14.6123 3.44546C14.6658 3.42177 14.7194 3.39808 14.7746 3.37366C15.161 3.29556 15.5578 3.50798 15.9082 3.65809ZM14.6555 4.51342C14.5638 4.55326 14.5638 4.55326 14.4701 4.5939C14.4021 4.62362 14.334 4.65333 14.2639 4.68394C13.5636 4.98745 12.86 5.28236 12.1546 5.57383C11.9481 5.65918 11.7416 5.74455 11.5352 5.82995C11.4831 5.85151 11.431 5.87308 11.3772 5.89529C11.0026 6.05041 10.6284 6.20654 10.2544 6.36325C10.1746 6.39663 10.1746 6.39663 10.0933 6.43069C9.82804 6.54182 9.56295 6.65331 9.29811 6.76542C8.79551 6.97768 8.29188 7.18376 7.78154 7.37674C7.64258 7.43025 7.5037 7.48395 7.36484 7.53772C7.27778 7.57084 7.19039 7.60312 7.10268 7.63448C6.64412 7.77914 6.64412 7.77914 6.31126 8.09663C6.27619 8.25322 6.27006 8.39439 6.26954 8.55479C6.25765 8.67294 6.24526 8.79104 6.23247 8.9091C5.95894 12.4096 6.2769 16.0882 7.85158 19.2774C7.88236 19.3401 7.88236 19.3401 7.91377 19.404C8.5011 20.5858 9.26144 21.6392 10.173 22.5913C10.2448 22.6664 10.3159 22.7423 10.3869 22.8182C11.3748 23.8483 12.6623 24.6367 13.9417 25.2503C13.986 25.2718 14.0303 25.2932 14.0759 25.3152C14.207 25.3765 14.3389 25.4333 14.4727 25.4884C14.5198 25.5087 14.5669 25.529 14.6154 25.5499C14.9584 25.6785 15.1633 25.6678 15.497 25.519C15.5718 25.4821 15.5718 25.4821 15.6482 25.4444C15.7014 25.4198 15.7546 25.3952 15.8095 25.3698C15.9705 25.2943 16.1299 25.2161 16.2891 25.1368C16.335 25.1144 16.381 25.0919 16.4284 25.0688C17.644 24.4706 18.7093 23.6666 19.6875 22.7345C19.7331 22.692 19.7788 22.6494 19.8258 22.6056C20.2139 22.2333 20.5368 21.8155 20.8594 21.3868C20.8846 21.3538 20.9097 21.3208 20.9357 21.2868C21.3604 20.7272 21.7081 20.1351 22.0313 19.5118C22.052 19.4721 22.0726 19.4323 22.0939 19.3913C23.7138 16.2307 24.1512 12.2817 23.7471 8.78569C23.7305 8.61338 23.7305 8.61338 23.7365 8.44142C23.7316 8.24563 23.7137 8.13824 23.6133 7.96885C23.2919 7.7569 22.9406 7.63542 22.5806 7.50377C22.4725 7.46201 22.3645 7.41996 22.2567 7.37764C22.0272 7.28777 21.7972 7.19906 21.567 7.111C21.0361 6.90654 20.5124 6.68499 19.9881 6.46446C19.7527 6.36557 19.517 6.26737 19.2813 6.16918C18.5798 5.87693 17.8785 5.58386 17.1774 5.29056C17.0705 5.24583 16.9636 5.20111 16.8566 5.1564C16.7082 5.09432 16.5597 5.03219 16.4113 4.97004C16.3653 4.95082 16.3194 4.93159 16.272 4.91178C16.0576 4.82191 15.8436 4.73125 15.6304 4.63857C15.5921 4.62196 15.5539 4.60536 15.5145 4.58825C15.4127 4.54397 15.3112 4.4994 15.2096 4.4548C14.9758 4.36165 14.8803 4.41509 14.6555 4.51342Z" fill="#654ADA"/>
<path d="M17.5012 9.38606C18.2085 10.1258 18.4285 10.9998 18.4089 12.0004C18.4068 12.0794 18.404 12.1582 18.4006 12.2371C18.3757 12.7371 18.3757 12.7371 18.5848 13.173C18.7319 13.3041 18.8845 13.4184 19.0429 13.5352C19.5594 14.1094 19.5381 14.9641 19.533 15.6911C19.5329 15.7779 19.533 15.8647 19.5331 15.9516C19.5331 16.1322 19.5325 16.3127 19.5314 16.4933C19.5301 16.7232 19.53 16.953 19.5304 17.1829C19.5306 17.3617 19.5302 17.5405 19.5297 17.7194C19.5294 17.8041 19.5294 17.8888 19.5295 17.9735C19.5296 18.7846 19.4364 19.3887 19.0027 20.0794C18.5372 20.5449 18.0072 20.817 17.3459 20.8253C17.2973 20.8251 17.2487 20.8248 17.1986 20.8245C17.1459 20.8249 17.0931 20.8253 17.0388 20.8257C16.8659 20.8268 16.6931 20.8266 16.5202 20.8263C16.399 20.8265 16.2778 20.8268 16.1566 20.8272C15.9032 20.8277 15.6498 20.8276 15.3963 20.827C15.0729 20.8263 14.7495 20.8275 14.4261 20.8292C14.1759 20.8303 13.9258 20.8303 13.6757 20.8299C13.5565 20.8299 13.4373 20.8303 13.3181 20.831C12.5049 20.8353 11.7479 20.8235 11.1328 20.2149C10.6566 19.6439 10.4822 19.0899 10.4797 18.3471C10.4795 18.3091 10.4793 18.2711 10.4791 18.232C10.4786 18.1076 10.4785 17.9833 10.4784 17.859C10.4782 17.7717 10.478 17.6844 10.4778 17.597C10.4775 17.4143 10.4774 17.2317 10.4774 17.049C10.4774 16.8164 10.4766 16.5837 10.4756 16.3511C10.4749 16.1707 10.4748 15.9904 10.4749 15.8101C10.4748 15.7244 10.4745 15.6387 10.4741 15.553C10.47 14.7135 10.5243 13.9573 11.1401 13.3301C11.2709 13.206 11.3921 13.1084 11.5429 13.0079C11.5691 12.8337 11.5691 12.8337 11.5647 12.6279C11.5657 12.5493 11.5667 12.4706 11.5678 12.392C11.5684 12.269 11.5686 12.146 11.5685 12.023C11.5703 10.9866 11.8154 10.1086 12.5427 9.33112C13.0545 8.84525 13.6554 8.50528 14.3554 8.37898C14.4223 8.36561 14.4223 8.36561 14.4905 8.35197C15.6336 8.17876 16.6755 8.6148 17.5012 9.38606ZM13.2444 10.0645C12.5349 10.842 12.5976 11.6535 12.5976 12.7149C14.1832 12.7149 15.7687 12.7149 17.4023 12.7149C17.4261 11.2243 17.4261 11.2243 16.7102 10.0233C15.6935 9.07219 14.2446 9.12443 13.2444 10.0645ZM11.7553 14.1688C11.7283 14.2054 11.7013 14.242 11.6734 14.2798C11.513 14.5796 11.4696 14.8814 11.4683 15.2175C11.4677 15.2932 11.4671 15.3689 11.4666 15.4468C11.4666 15.5285 11.4666 15.6101 11.4667 15.6918C11.4665 15.7766 11.4662 15.8615 11.466 15.9463C11.4655 16.1237 11.4655 16.3011 11.4658 16.4785C11.4662 16.7046 11.4652 16.9307 11.4638 17.1568C11.463 17.3319 11.4629 17.507 11.4631 17.6822C11.4631 17.7655 11.4628 17.8488 11.4622 17.9321C11.4583 18.5496 11.4805 19.0785 11.9176 19.5447C12.2756 19.8653 12.7097 19.8722 13.1668 19.8719C13.2107 19.8721 13.2546 19.8723 13.2998 19.8725C13.444 19.873 13.5882 19.8731 13.7324 19.8732C13.8333 19.8734 13.9341 19.8736 14.0349 19.8738C14.246 19.8741 14.4571 19.8742 14.6682 19.8742C14.9379 19.8742 15.2075 19.875 15.4772 19.876C15.6854 19.8767 15.8936 19.8768 16.1018 19.8768C16.2012 19.8768 16.3005 19.8771 16.3999 19.8775C16.5393 19.8781 16.6786 19.8779 16.818 19.8776C16.8584 19.8779 16.8989 19.8782 16.9407 19.8786C17.4546 19.8753 17.8635 19.7538 18.2336 19.3836C18.5497 18.8931 18.5418 18.3808 18.5389 17.8126C18.5391 17.7279 18.5392 17.6432 18.5395 17.5585C18.5397 17.3818 18.5393 17.2051 18.5385 17.0284C18.5375 16.8032 18.5381 16.5781 18.5391 16.3529C18.5398 16.1783 18.5396 16.0037 18.5391 15.829C18.539 15.7461 18.5391 15.6631 18.5396 15.5801C18.5417 15.0277 18.5209 14.5712 18.2116 14.1029C17.8665 13.773 17.5281 13.6758 17.059 13.6807C17.0094 13.6803 16.9598 13.6799 16.9087 13.6794C16.746 13.6784 16.5835 13.6791 16.4209 13.6799C16.3071 13.6797 16.1932 13.6795 16.0794 13.6792C15.8414 13.6789 15.6035 13.6794 15.3655 13.6805C15.0613 13.6818 14.7571 13.681 14.4529 13.6796C14.2181 13.6788 13.9832 13.679 13.7484 13.6796C13.6363 13.6798 13.5241 13.6796 13.412 13.6791C13.255 13.6785 13.098 13.6794 12.9409 13.6807C12.8952 13.6802 12.8494 13.6797 12.8022 13.6792C12.3892 13.6855 12.0014 13.8196 11.7553 14.1688Z" fill="#654ADA"/>
<path d="M15.6079 14.7986C15.9758 15.0174 16.207 15.3284 16.3236 15.7389C16.394 16.1493 16.3193 16.4901 16.0821 16.8306C15.9244 17.0194 15.7489 17.1744 15.5273 17.2852C15.527 17.3393 15.527 17.3393 15.5266 17.3944C15.5247 17.5583 15.5205 17.722 15.5163 17.8858C15.516 17.9425 15.5156 17.9992 15.5153 18.0577C15.5022 18.4782 15.5022 18.4782 15.3302 18.6704C15.1396 18.7687 15.036 18.7853 14.8242 18.75C14.6683 18.6695 14.6683 18.6695 14.5312 18.5157C14.4851 18.2567 14.5031 17.9937 14.51 17.7317C14.5095 17.5764 14.5066 17.4369 14.4726 17.2852C14.3124 17.1332 14.3124 17.1332 14.1211 17.0508C13.827 16.7568 13.6667 16.4451 13.6445 16.0243C13.6659 15.6159 13.8075 15.3198 14.0911 15.0273C14.5071 14.6586 15.0954 14.5685 15.6079 14.7986ZM14.707 15.8204C14.6432 15.9584 14.6432 15.9584 14.6484 16.1133C14.7326 16.261 14.7326 16.261 14.8828 16.3477C15.0672 16.3625 15.0672 16.3625 15.2343 16.2891C15.3318 16.1577 15.3318 16.1577 15.3515 15.9961C15.332 15.8594 15.332 15.8594 15.2343 15.7618C14.9915 15.6894 14.9225 15.6767 14.707 15.8204Z" fill="#654ADA"/>
</svg>
