<svg width="30" height="30" viewBox="0 0 30 30" fill="none" xmlns="http://www.w3.org/2000/svg">
<g clip-path="url(#clip0_1_188)">
<path d="M6.09375 -7.34404e-05C8.89689 -0.0054209 11.7 -0.00956829 14.5032 -0.0120419C14.8342 -0.012335 15.1652 -0.0126384 15.4961 -0.012948C15.595 -0.0130403 15.595 -0.0130403 15.6958 -0.0131343C16.7626 -0.014154 17.8293 -0.0160018 18.896 -0.0181561C19.9907 -0.0203484 21.0854 -0.0216498 22.1801 -0.0221254C22.8555 -0.0224469 23.5308 -0.023462 24.2062 -0.0253664C24.6695 -0.0266059 25.1327 -0.0269796 25.5959 -0.0266753C25.8632 -0.0265253 26.1303 -0.0267542 26.3976 -0.0280122C26.6424 -0.0291568 26.8873 -0.0292078 27.1322 -0.0284091C27.2206 -0.0283105 27.3089 -0.0286044 27.3972 -0.0293429C28.1716 -0.0354378 28.7821 0.0971348 29.3555 0.644458C29.926 1.24214 30.0353 1.87323 30.0298 2.67696C30.03 2.76261 30.0304 2.84827 30.0309 2.93392C30.0318 3.16772 30.0314 3.4015 30.0306 3.6353C30.0301 3.88805 30.0309 4.1408 30.0316 4.39355C30.0326 4.88807 30.0324 5.38259 30.0317 5.87711C30.0312 6.27914 30.0311 6.68116 30.0314 7.08319C30.0314 7.14049 30.0314 7.19778 30.0315 7.25681C30.0315 7.37321 30.0316 7.48962 30.0317 7.60602C30.0324 8.69666 30.0316 9.78729 30.0303 10.8779C30.0293 11.813 30.0295 12.7482 30.0306 13.6833C30.0318 14.7701 30.0323 15.8569 30.0316 16.9438C30.0315 17.0597 30.0314 17.1757 30.0314 17.2917C30.0313 17.3772 30.0313 17.3772 30.0313 17.4645C30.0311 17.8659 30.0314 18.2673 30.0319 18.6687C30.0326 19.1581 30.0324 19.6475 30.0312 20.1369C30.0306 20.3864 30.0303 20.6359 30.0311 20.8854C30.0318 21.1141 30.0314 21.3428 30.0302 21.5716C30.0299 21.654 30.03 21.7364 30.0306 21.8189C30.0355 22.5781 29.8888 23.1717 29.3555 23.7304C29.0909 23.9829 28.835 24.1495 28.4885 24.2694C28.4312 24.2895 28.3738 24.3095 28.3148 24.3302C28.2499 24.3524 28.2499 24.3524 28.1836 24.3749C28.1834 24.4212 28.1832 24.4675 28.1829 24.5152C28.1807 24.9539 28.1774 25.3926 28.1728 25.8313C28.1705 26.0567 28.1686 26.2822 28.1677 26.5077C28.1668 26.7258 28.1648 26.9438 28.162 27.1619C28.1612 27.2446 28.1607 27.3273 28.1606 27.41C28.1597 28.1826 28.0241 28.786 27.4805 29.3554C26.8348 29.9718 26.1399 30.0347 25.2882 30.0303C25.1864 30.0306 25.0846 30.031 24.9828 30.0315C24.708 30.0326 24.4332 30.0322 24.1584 30.0314C23.8698 30.0308 23.5813 30.0314 23.2927 30.0317C22.8082 30.0322 22.3238 30.0316 21.8393 30.0305C21.2805 30.0292 20.7216 30.0296 20.1627 30.0309C19.6816 30.032 19.2004 30.0321 18.7193 30.0315C18.4325 30.0311 18.1457 30.0311 17.8589 30.0319C17.5892 30.0326 17.3195 30.0321 17.0498 30.0307C16.9512 30.0304 16.8526 30.0305 16.7541 30.031C15.9514 30.0349 15.3084 29.9295 14.707 29.3554C14.1469 28.7687 14.0272 28.1495 14.0327 27.3585C14.0325 27.2767 14.0321 27.1949 14.0316 27.1131C14.0307 26.89 14.0311 26.6669 14.0319 26.4438C14.0324 26.2026 14.0316 25.9613 14.0309 25.7201C14.0299 25.2481 14.0301 24.7762 14.0308 24.3042C14.0313 23.9205 14.0314 23.5368 14.0311 23.1531C14.0311 23.0984 14.0311 23.0437 14.031 22.9873C14.031 22.8762 14.0309 22.7651 14.0308 22.654C14.0301 21.613 14.0309 20.572 14.0322 19.531C14.0332 18.6385 14.033 17.746 14.0319 16.8535C14.0307 15.8161 14.0302 14.7788 14.0309 13.7414C14.031 13.6307 14.0311 13.52 14.0311 13.4093C14.0312 13.3276 14.0312 13.3276 14.0312 13.2442C14.0314 12.8612 14.0311 12.4781 14.0306 12.095C14.0299 11.6279 14.0301 11.1609 14.0313 10.6938C14.0319 10.4556 14.0322 10.2175 14.0314 9.97939C14.0307 9.76108 14.0311 9.54279 14.0323 9.32449C14.0327 9.20878 14.032 9.09308 14.0312 8.97738C14.0373 8.27336 14.2162 7.72111 14.707 7.20696C15.3527 6.59058 16.0476 6.52761 16.8993 6.5321C17.0011 6.53178 17.1029 6.53136 17.2047 6.53086C17.4795 6.52979 17.7543 6.5302 18.0291 6.53094C18.3177 6.53154 18.6062 6.53099 18.8948 6.53062C19.3793 6.53019 19.8637 6.53075 20.3482 6.53187C20.907 6.53315 21.4659 6.53273 22.0248 6.53144C22.5059 6.53038 22.9871 6.53023 23.4682 6.53084C23.755 6.53121 24.0418 6.53126 24.3286 6.53048C24.5983 6.5298 24.868 6.53028 25.1377 6.53163C25.2363 6.53194 25.3349 6.53185 25.4334 6.53133C26.2361 6.52749 26.8791 6.63286 27.4805 7.20696C27.9795 7.72968 28.1612 8.30849 28.1554 9.02135C28.1561 9.11334 28.1561 9.11334 28.1567 9.20718C28.1579 9.41087 28.1575 9.61451 28.157 9.8182C28.1575 9.96492 28.1581 10.1116 28.1588 10.2584C28.1601 10.5733 28.1607 10.8883 28.1606 11.2032C28.1605 11.6586 28.1617 12.1139 28.1632 12.5693C28.1656 13.3082 28.167 14.0471 28.1677 14.7861C28.1684 15.5035 28.1696 16.221 28.1714 16.9384C28.1715 16.9827 28.1717 17.027 28.1718 17.0726C28.1723 17.2948 28.1729 17.517 28.1735 17.7392C28.1784 19.58 28.1815 21.4208 28.1836 23.2616C28.5426 23.0258 28.8169 22.8109 28.9453 22.3827C28.9911 22.1462 29.0113 21.9227 29.0114 21.6819C29.0116 21.613 29.0118 21.544 29.012 21.473C29.0119 21.3978 29.0118 21.3225 29.0117 21.245C29.0119 21.1639 29.012 21.0828 29.0121 21.0016C29.0125 20.779 29.0125 20.5563 29.0124 20.3337C29.0124 20.0934 29.0127 19.8532 29.013 19.6129C29.0135 19.1423 29.0137 18.6717 29.0137 18.2011C29.0137 17.8186 29.0138 17.4361 29.014 17.0535C29.0145 15.9688 29.0148 14.8841 29.0148 13.7994C29.0148 13.7409 29.0148 13.6825 29.0148 13.6222C29.0148 13.5637 29.0148 13.5051 29.0148 13.4448C29.0147 12.4961 29.0153 11.5473 29.0161 10.5985C29.017 9.62422 29.0174 8.6499 29.0173 7.67558C29.0173 7.12863 29.0175 6.58168 29.0181 6.03473C29.0186 5.56906 29.0187 5.10338 29.0184 4.6377C29.0182 4.40018 29.0182 4.16266 29.0187 3.92514C29.0191 3.70751 29.019 3.4899 29.0185 3.27228C29.0184 3.15665 29.0188 3.04102 29.0193 2.92539C29.0171 2.36326 28.9883 1.92389 28.6523 1.46477C28.6523 1.4261 28.6523 1.38743 28.6523 1.34758C28.6209 1.33187 28.5895 1.31616 28.5571 1.29998C28.4546 1.24869 28.3534 1.19453 28.2532 1.13884C27.9367 0.996122 27.6124 0.988714 27.269 0.987895C27.1551 0.987414 27.1551 0.987414 27.0389 0.986923C26.9554 0.98686 26.8719 0.986803 26.7883 0.98675C26.699 0.986482 26.6097 0.986189 26.5204 0.985873C26.2755 0.985079 26.0306 0.984643 25.7857 0.984266C25.5214 0.983796 25.2571 0.982994 24.9928 0.982232C24.5351 0.980958 24.0773 0.979894 23.6196 0.978974C22.9578 0.977643 22.296 0.975994 21.6341 0.974268C20.5604 0.971476 19.4866 0.96894 18.4128 0.966566C17.3698 0.964259 16.3267 0.961832 15.2837 0.959242C15.2194 0.959082 15.1551 0.958923 15.0889 0.958758C14.7663 0.957957 14.4437 0.957153 14.1211 0.956347C11.4453 0.949672 8.76955 0.943418 6.09375 0.937427C6.09375 0.628052 6.09375 0.318677 6.09375 -7.34404e-05ZM15.4102 7.91008C15.204 8.14439 15.1161 8.34202 15.0846 8.65149C15.0796 8.69914 15.0746 8.74678 15.0695 8.79587C15.0659 8.83227 15.0623 8.86867 15.0586 8.90618C15.0956 8.90652 15.1327 8.90686 15.1709 8.90722C15.5558 8.91096 15.9407 8.9159 16.3257 8.92155C16.4694 8.92351 16.6131 8.92515 16.7569 8.92648C16.9633 8.92844 17.1696 8.9315 17.376 8.93479C17.4727 8.93535 17.4727 8.93535 17.5713 8.93592C17.6312 8.93708 17.691 8.93824 17.7526 8.93944C17.8053 8.94009 17.858 8.94074 17.9123 8.94141C18.0744 8.96956 18.1256 9.00953 18.2227 9.14055C18.2721 9.32686 18.2721 9.32686 18.3105 9.54338C18.3592 9.81628 18.4057 10.0299 18.5742 10.2538C18.785 10.3241 18.9772 10.3211 19.1965 10.3209C19.2419 10.3211 19.2873 10.3213 19.334 10.3215C19.4841 10.3221 19.6342 10.3222 19.7843 10.3223C19.8886 10.3225 19.9929 10.3227 20.0972 10.3229C20.3158 10.3232 20.5345 10.3233 20.7531 10.3233C21.0333 10.3233 21.3136 10.3241 21.5938 10.3251C21.8092 10.3257 22.0246 10.3259 22.24 10.3258C22.3433 10.3259 22.4467 10.3262 22.55 10.3266C22.6945 10.3272 22.8389 10.327 22.9834 10.3267C23.0261 10.327 23.0688 10.3273 23.1128 10.3277C23.3265 10.3263 23.4953 10.3228 23.6719 10.1952C23.8344 9.90143 23.8838 9.61537 23.9282 9.28429C23.9706 9.11809 24.0063 9.06873 24.1406 8.96477C24.2752 8.94141 24.2752 8.94141 24.4349 8.93944C24.4947 8.93828 24.5545 8.93712 24.6161 8.93592C24.6806 8.93555 24.7451 8.93517 24.8115 8.93479C24.8776 8.93373 24.9436 8.93268 25.0117 8.9316C25.2231 8.92842 25.4344 8.92644 25.6458 8.92449C25.7889 8.92254 25.9321 8.92052 26.0752 8.91842C26.4265 8.91344 26.7777 8.90944 27.1289 8.90618C27.1204 8.82122 27.1116 8.73628 27.1027 8.65136C27.0954 8.58041 27.0954 8.58041 27.0879 8.50803C27.046 8.20049 26.8828 7.99217 26.6421 7.8048C26.2295 7.54104 25.8667 7.49279 25.3796 7.49209C25.3413 7.49196 25.303 7.49183 25.2636 7.49169C25.1366 7.49132 25.0095 7.49137 24.8825 7.49142C24.7909 7.49124 24.6993 7.49104 24.6078 7.49082C24.3598 7.4903 24.1119 7.49016 23.8639 7.49013C23.7089 7.49008 23.5538 7.48996 23.3987 7.4898C22.8571 7.48926 22.3155 7.48902 21.7738 7.48907C21.2698 7.4891 20.7658 7.48849 20.2618 7.48756C19.8283 7.48679 19.3949 7.48648 18.9614 7.48652C18.7028 7.48653 18.4442 7.48637 18.1857 7.48574C17.9424 7.48518 17.6992 7.48518 17.4559 7.4856C17.3669 7.48566 17.278 7.48552 17.189 7.48517C16.2351 7.47754 16.2351 7.47754 15.4102 7.91008ZM15 9.84368C15 15.2577 15 20.6718 15 26.2499C19.0219 26.2499 23.0438 26.2499 27.1875 26.2499C27.1875 20.8359 27.1875 15.4218 27.1875 9.84368C26.4141 9.84368 25.6406 9.84368 24.8438 9.84368C24.7857 9.99836 24.7277 10.1531 24.668 10.3124C24.5259 10.6701 24.3465 10.9161 24.0234 11.1327C23.7919 11.2099 23.5701 11.2009 23.3286 11.2017C23.2755 11.2021 23.2224 11.2025 23.1677 11.2029C22.9918 11.204 22.816 11.2047 22.6401 11.2053C22.58 11.2055 22.5199 11.2058 22.458 11.206C22.1399 11.2072 21.8218 11.2081 21.5037 11.2086C21.1754 11.2093 20.8471 11.2113 20.5188 11.2136C20.2662 11.2152 20.0135 11.2156 19.7609 11.2159C19.6399 11.2161 19.5189 11.2168 19.3979 11.2179C19.2283 11.2193 19.0588 11.2193 18.8892 11.2189C18.8395 11.2196 18.7897 11.2204 18.7385 11.2211C18.3551 11.2178 18.1033 11.1212 17.8189 10.8521C17.6223 10.5866 17.515 10.3404 17.4342 10.0197C17.4131 9.90328 17.4131 9.90328 17.3438 9.84368C16.5703 9.84368 15.7969 9.84368 15 9.84368ZM15 27.1874C15 27.749 15.0323 28.213 15.4102 28.6523C15.9527 29.119 16.643 29.0796 17.3183 29.0776C17.4099 29.0777 17.5015 29.078 17.5931 29.0782C17.8405 29.0787 18.088 29.0785 18.3354 29.0782C18.5951 29.0779 18.8548 29.0781 19.1145 29.0783C19.5505 29.0785 19.9865 29.0783 20.4225 29.0777C20.9256 29.0771 21.4288 29.0773 21.9319 29.0779C22.3649 29.0785 22.7979 29.0785 23.2309 29.0782C23.4891 29.078 23.7472 29.078 24.0054 29.0784C24.2482 29.0787 24.491 29.0785 24.7337 29.0778C24.8225 29.0777 24.9113 29.0777 25.0001 29.078C25.8857 29.0935 25.8857 29.0935 26.6602 28.7109C27.1246 28.2431 27.1875 27.8456 27.1875 27.1874C23.1656 27.1874 19.1438 27.1874 15 27.1874Z" fill="#654ADA"/>
<path d="M2.58908 -0.0145997C2.68952 -0.0130135 2.68952 -0.0130135 2.79199 -0.0113953C2.95509 -0.00866561 3.11816 -0.00446328 3.28122 4.87696e-05C3.28122 0.309424 3.28122 0.618799 3.28122 0.937549C3.14345 0.94514 3.14345 0.94514 3.0029 0.952884C2.88083 0.961132 2.75875 0.969452 2.63669 0.977832C2.57634 0.980967 2.51599 0.984101 2.45381 0.987331C2.09303 1.01376 1.84723 1.06936 1.55408 1.28632C1.46481 1.34771 1.46481 1.34771 1.34763 1.34771C1.04588 1.92799 0.987349 2.40069 0.986793 3.04451C0.986504 3.11564 0.986215 3.18676 0.985917 3.26004C0.985173 3.45699 0.984687 3.65394 0.98431 3.8509C0.98384 4.06346 0.983037 4.27602 0.982276 4.48858C0.981002 4.85671 0.979938 5.22483 0.979017 5.59296C0.977686 6.12521 0.976037 6.65745 0.974311 7.1897C0.97152 8.05326 0.968984 8.91681 0.96661 9.78037C0.964303 10.6192 0.961875 11.458 0.959285 12.2968C0.959044 12.3752 0.959044 12.3752 0.958797 12.4551C0.957536 12.8637 0.956268 13.2722 0.954998 13.6808C0.948775 15.6831 0.943166 17.6853 0.93747 19.6876C4.95935 19.6876 8.98122 19.6876 13.125 19.6876C13.125 19.9969 13.125 20.3063 13.125 20.6251C9.1031 20.6251 5.08122 20.6251 0.93747 20.6251C0.912095 21.842 0.912095 21.842 1.34763 22.9102C1.34763 22.9489 1.34763 22.9876 1.34763 23.0274C1.83535 23.281 2.24727 23.3875 2.7953 23.3882C2.86178 23.3887 2.86178 23.3887 2.92962 23.3891C3.07752 23.39 3.22541 23.3905 3.37332 23.391C3.47959 23.3916 3.58586 23.3921 3.69213 23.3927C3.98022 23.3943 4.26832 23.3956 4.55641 23.3967C4.85764 23.398 5.15887 23.3996 5.4601 23.4012C6.03034 23.4041 6.60058 23.4067 7.17082 23.4093C7.8201 23.4122 8.46937 23.4154 9.11864 23.4186C10.4541 23.4253 11.7895 23.4315 13.125 23.4376C13.125 23.7469 13.125 24.0563 13.125 24.3751C12.1775 24.3751 11.23 24.3751 10.2539 24.3751C10.1379 24.8391 10.1379 24.8391 10.0195 25.3126C11.0443 25.3126 12.0691 25.3126 13.125 25.3126C13.125 25.6219 13.125 25.9313 13.125 26.2501C13.0129 26.2512 12.9008 26.2524 12.7854 26.2536C12.4147 26.2575 12.044 26.262 11.6733 26.2669C11.4486 26.2698 11.2239 26.2725 10.9992 26.2748C10.7823 26.2769 10.5654 26.2797 10.3484 26.2828C10.2658 26.2838 10.1831 26.2847 10.1004 26.2854C9.98444 26.2864 9.86845 26.2882 9.75247 26.29C9.6865 26.2907 9.62053 26.2915 9.55257 26.2923C9.37187 26.3089 9.24313 26.3434 9.082 26.4258C8.9367 26.6728 8.94339 26.8902 8.90622 27.1876C10.2984 27.1876 11.6906 27.1876 13.125 27.1876C13.125 27.4969 13.125 27.8063 13.125 28.1251C12.4873 28.1303 11.8496 28.1346 11.2119 28.1372C10.9158 28.1384 10.6197 28.1401 10.3236 28.1427C10.0379 28.1453 9.75225 28.1467 9.46654 28.1473C9.35749 28.1477 9.24843 28.1486 9.13939 28.1498C8.98674 28.1515 8.83417 28.1518 8.68152 28.1517C8.63634 28.1525 8.59115 28.1533 8.54461 28.1542C8.3391 28.1526 8.22469 28.1412 8.0579 28.0165C7.93987 27.85 7.93846 27.7413 7.93759 27.5382C7.93714 27.4354 7.93714 27.4354 7.93668 27.3306C7.93758 27.2592 7.93849 27.1878 7.93942 27.1143C7.93806 27.0086 7.93806 27.0086 7.93668 26.9008C7.93882 26.4127 7.99698 26.0788 8.31822 25.7065C8.37544 25.6583 8.37544 25.6583 8.43381 25.6092C8.4718 25.576 8.50979 25.5429 8.54894 25.5087C8.67185 25.4297 8.67185 25.4297 8.96481 25.3711C9.04216 25.0424 9.1195 24.7137 9.19919 24.3751C9.10813 24.3756 9.01707 24.3761 8.92325 24.3766C8.06376 24.3814 7.20428 24.3849 6.34479 24.3872C5.90294 24.3884 5.46111 24.39 5.01928 24.3927C4.63393 24.3951 4.24859 24.3966 3.86324 24.3971C3.65941 24.3974 3.45561 24.3981 3.25179 24.3998C3.02361 24.4017 2.79545 24.4018 2.56727 24.4017C2.50055 24.4025 2.43383 24.4033 2.36509 24.4042C1.68391 24.4007 1.13997 24.2035 0.644501 23.7305C0.0739319 23.1328 -0.0353632 22.5017 -0.0297916 21.698C-0.0300621 21.6124 -0.0304347 21.5267 -0.0308995 21.4411C-0.0318726 21.2073 -0.0313968 20.9735 -0.0306684 20.7397C-0.0301362 20.4869 -0.0309576 20.2342 -0.0316012 19.9814C-0.0326415 19.4869 -0.0324191 18.9924 -0.0317389 18.4979C-0.0312088 18.0958 -0.0311381 17.6938 -0.0313929 17.2918C-0.0314288 17.2345 -0.0314647 17.1772 -0.0315017 17.1182C-0.0315766 17.0018 -0.0316527 16.8854 -0.0317297 16.769C-0.0323975 15.6783 -0.0316305 14.5877 -0.0303703 13.497C-0.0293232 12.5619 -0.029505 11.6268 -0.0305855 10.6917C-0.0318407 9.60487 -0.0323331 8.51804 -0.0316139 7.43122C-0.0315393 7.31525 -0.0314655 7.19928 -0.0313929 7.08332C-0.0313567 7.02626 -0.0313206 6.96921 -0.0312833 6.91043C-0.0310813 6.50904 -0.0314219 6.10766 -0.031974 5.70627C-0.0326324 5.21688 -0.0324512 4.72751 -0.0312051 4.23812C-0.0305906 3.98859 -0.0303454 3.73908 -0.0311228 3.48955C-0.0318246 3.26083 -0.0314319 3.03214 -0.0301906 2.80342C-0.0299302 2.72098 -0.0300587 2.63854 -0.0306302 2.5561C-0.0354871 1.79684 0.111186 1.20324 0.644501 0.64458C1.21544 0.0995397 1.81617 -0.0381446 2.58908 -0.0145997Z" fill="#654ADA"/>
<path d="M6.85547 1.84381C6.90661 1.84359 6.95774 1.84337 7.01043 1.84313C7.11838 1.84298 7.22634 1.84341 7.33429 1.84439C7.49944 1.84564 7.66445 1.8444 7.82959 1.8429C7.93457 1.84305 8.03955 1.84335 8.14453 1.84381C8.19386 1.84334 8.24318 1.84287 8.29399 1.84238C8.5168 1.84594 8.63489 1.84851 8.81979 1.98063C8.94418 2.16576 8.9457 2.34725 8.9502 2.56342C8.95194 2.60428 8.95367 2.64514 8.95546 2.68724C8.95958 2.78753 8.96235 2.88788 8.96485 2.98822C9.05726 3.02932 9.15013 3.06941 9.24317 3.10907C9.29483 3.13151 9.34649 3.15394 9.39972 3.17705C9.56512 3.22692 9.62871 3.23322 9.78516 3.164C9.89667 3.0715 9.89667 3.0715 9.99756 2.95893C10.153 2.79328 10.2384 2.70938 10.4663 2.66596C10.9548 2.73833 11.3798 3.34349 11.7151 3.68036C11.7656 3.73063 11.8161 3.78089 11.8681 3.83268C11.916 3.88068 11.9639 3.92868 12.0133 3.97814C12.0784 4.04326 12.0784 4.04326 12.1447 4.1097C12.2666 4.24076 12.3004 4.3135 12.334 4.48969C12.2832 4.83245 12.0145 5.0362 11.7773 5.27338C11.8009 5.53998 11.9153 5.7878 12.0117 6.0351C12.0724 6.03661 12.1332 6.03812 12.1957 6.03968C12.276 6.04297 12.3563 6.04633 12.4365 6.04975C12.4765 6.05058 12.5164 6.05141 12.5576 6.05226C12.739 6.06107 12.8673 6.07799 13.0193 6.18015C13.1757 6.39899 13.1587 6.59251 13.1561 6.85541C13.1564 6.90655 13.1566 6.95768 13.1568 7.01036C13.157 7.11832 13.1565 7.22628 13.1556 7.33423C13.1543 7.49938 13.1555 7.66439 13.157 7.82953C13.1569 7.93451 13.1566 8.03949 13.1561 8.14447C13.1566 8.1938 13.1571 8.24312 13.1576 8.29393C13.154 8.51674 13.1514 8.63483 13.0193 8.81973C12.8342 8.94412 12.6527 8.94564 12.4365 8.95014C12.3752 8.95274 12.3752 8.95274 12.3127 8.9554C12.2124 8.95952 12.1121 8.96229 12.0117 8.96479C11.9706 9.0572 11.9305 9.15007 11.8909 9.24311C11.8684 9.29477 11.846 9.34643 11.8229 9.39966C11.773 9.56506 11.7667 9.62865 11.8359 9.7851C11.9284 9.89661 11.9284 9.89661 12.041 9.9975C12.2067 10.153 12.2906 10.2383 12.334 10.4663C12.2616 10.9547 11.6565 11.3797 11.3196 11.715C11.2693 11.7655 11.2191 11.816 11.1673 11.868C11.1193 11.916 11.0713 11.9639 11.0218 12.0133C10.9784 12.0566 10.935 12.1 10.8902 12.1446C10.7592 12.2666 10.6864 12.3004 10.5103 12.3339C10.1675 12.2831 9.96374 12.0145 9.72657 11.7773C9.45997 11.8008 9.21215 11.9153 8.96485 12.0117C8.96334 12.0724 8.96183 12.1331 8.96027 12.1957C8.95697 12.2759 8.95361 12.3562 8.9502 12.4365C8.94937 12.4764 8.94854 12.5164 8.94768 12.5575C8.93887 12.739 8.92196 12.8672 8.81979 13.0193C8.60096 13.1756 8.40743 13.1586 8.14453 13.1561C8.0934 13.1563 8.04227 13.1565 7.98958 13.1567C7.88163 13.1569 7.77367 13.1565 7.66571 13.1555C7.50056 13.1542 7.33556 13.1555 7.17041 13.157C7.06543 13.1568 6.96045 13.1565 6.85547 13.1561C6.80615 13.1565 6.75683 13.157 6.70601 13.1575C6.48321 13.1539 6.36512 13.1514 6.18021 13.0193C6.05583 12.8341 6.0543 12.6526 6.04981 12.4365C6.04807 12.3956 6.04633 12.3547 6.04454 12.3126C6.04042 12.2124 6.03766 12.112 6.03516 12.0117C5.94274 11.9706 5.84988 11.9305 5.75684 11.8908C5.70518 11.8684 5.65351 11.8459 5.60028 11.8228C5.43489 11.773 5.3713 11.7667 5.21485 11.8359C5.10334 11.9284 5.10334 11.9284 5.00244 12.041C4.84698 12.2066 4.76165 12.2905 4.53369 12.3339C4.04522 12.2616 3.62023 11.6564 3.28492 11.3195C3.23442 11.2693 3.18393 11.219 3.13191 11.1672C3.08398 11.1192 3.03606 11.0712 2.98668 11.0217C2.92166 10.9566 2.92166 10.9566 2.85532 10.8902C2.73338 10.7591 2.69958 10.6864 2.66602 10.5102C2.7168 10.1674 2.98548 9.96368 3.22266 9.72651C3.19914 9.45991 3.08469 9.21209 2.98828 8.96479C2.92756 8.96328 2.86683 8.96176 2.80426 8.96021C2.724 8.95691 2.64374 8.95355 2.56348 8.95014C2.52352 8.94931 2.48357 8.94848 2.4424 8.94762C2.26097 8.93881 2.13275 8.9219 1.98069 8.81973C1.82433 8.60089 1.84135 8.40737 1.84388 8.14447C1.84365 8.09334 1.84343 8.0422 1.8432 7.98952C1.84304 7.88156 1.84347 7.7736 1.84445 7.66565C1.8457 7.5005 1.84446 7.3355 1.84296 7.17035C1.84311 7.06537 1.84342 6.96039 1.84388 6.85541C1.8434 6.80609 1.84293 6.75677 1.84244 6.70595C1.846 6.48315 1.84858 6.36506 1.98069 6.18015C2.16583 6.05577 2.34731 6.05424 2.56348 6.04975C2.62477 6.04714 2.62477 6.04714 2.68731 6.04448C2.7876 6.04036 2.88794 6.03759 2.98828 6.0351C3.02938 5.94268 3.06947 5.84982 3.10913 5.75678C3.13157 5.70512 3.154 5.65345 3.17711 5.60022C3.22698 5.43483 3.23328 5.37124 3.16407 5.21479C3.07156 5.10328 3.07156 5.10328 2.95899 5.00238C2.79334 4.84692 2.70944 4.76159 2.66602 4.53363C2.73839 4.04516 3.34355 3.62017 3.68042 3.28485C3.73069 3.23436 3.78096 3.18387 3.83274 3.13185C3.88074 3.08392 3.92874 3.036 3.9782 2.98662C4.02161 2.94327 4.06503 2.89992 4.10976 2.85526C4.24082 2.73332 4.31356 2.69952 4.48975 2.66596C4.83251 2.71674 5.03627 2.98542 5.27344 3.2226C5.54004 3.19908 5.78786 3.08463 6.03516 2.98822C6.03667 2.9275 6.03818 2.86677 6.03974 2.8042C6.04304 2.72394 6.0464 2.64368 6.04981 2.56342C6.05064 2.52346 6.05147 2.48351 6.05233 2.44234C6.06113 2.26091 6.07805 2.13269 6.18021 1.98063C6.39905 1.82427 6.59257 1.84129 6.85547 1.84381ZM7.03125 2.81244C7.01192 3.12182 6.99258 3.43119 6.97266 3.74994C6.88927 3.7729 6.80589 3.79587 6.71997 3.81952C6.33697 3.93399 5.9795 4.09958 5.62271 4.27866C5.46209 4.35579 5.33489 4.39435 5.15625 4.4018C4.90018 4.30577 4.7488 4.12798 4.57032 3.92572C4.38192 4.00825 4.25849 4.10757 4.11621 4.25531C4.06229 4.31083 4.06229 4.31083 4.00727 4.36747C3.98038 4.39571 3.95349 4.42396 3.92578 4.45307C4.00112 4.61916 4.05516 4.69873 4.19312 4.8266C4.36522 5.01194 4.38614 5.08105 4.39453 5.33197C4.33853 5.51257 4.25793 5.6788 4.17481 5.84833C4.13214 5.93771 4.08972 6.0272 4.04755 6.11681C4.02682 6.16082 4.00608 6.20482 3.98472 6.25016C3.90566 6.43327 3.84714 6.62058 3.79114 6.81185C3.75 6.914 3.75 6.914 3.63282 6.9726C3.35977 6.99912 3.08632 7.01377 2.8125 7.03119C2.8125 7.34057 2.8125 7.64994 2.8125 7.96869C2.94423 7.97473 3.07596 7.98078 3.21167 7.987C3.59854 8.00475 3.59854 8.00475 3.74039 8.09801C3.82829 8.2334 3.86931 8.36305 3.9148 8.51801C4.02157 8.86169 4.16636 9.17241 4.33159 9.49167C4.40641 9.70118 4.40178 9.8081 4.33594 10.0195C4.2405 10.1435 4.2405 10.1435 4.1272 10.2465C4.07089 10.2989 4.07089 10.2989 4.01345 10.3523C3.97005 10.3906 3.97005 10.3906 3.92578 10.4296C4.00831 10.618 4.10763 10.7415 4.25537 10.8837C4.31089 10.9377 4.31089 10.9377 4.36753 10.9927C4.39578 11.0196 4.42402 11.0465 4.45313 11.0742C4.61922 10.9988 4.6988 10.9448 4.82666 10.8068C5.012 10.6347 5.08111 10.6138 5.33203 10.6054C5.51263 10.6614 5.67887 10.742 5.84839 10.8251C5.93777 10.8678 6.02726 10.9102 6.11687 10.9524C6.16088 10.9731 6.20488 10.9939 6.25022 11.0152C6.43333 11.0943 6.62064 11.1528 6.81191 11.2088C6.91407 11.2499 6.91407 11.2499 6.97266 11.3671C6.99918 11.6402 7.01383 11.9136 7.03125 12.1874C7.34063 12.1874 7.65 12.1874 7.96875 12.1874C7.9748 12.0557 7.98084 11.924 7.98706 11.7883C8.00481 11.4014 8.00481 11.4014 8.09807 11.2596C8.23346 11.1717 8.36311 11.1306 8.51807 11.0851C8.86175 10.9784 9.17247 10.8336 9.49173 10.6684C9.70124 10.5935 9.80817 10.5982 10.0195 10.664C10.1436 10.7594 10.1436 10.7594 10.2466 10.8727C10.2815 10.9103 10.3164 10.9478 10.3523 10.9865C10.3779 11.0154 10.4034 11.0444 10.4297 11.0742C10.6181 10.9916 10.7415 10.8923 10.8838 10.7446C10.9197 10.7076 10.9557 10.6706 10.9927 10.6324C11.0196 10.6042 11.0465 10.5759 11.0742 10.5468C10.9989 10.3807 10.9449 10.3012 10.8069 10.1733C10.6348 9.98794 10.6139 9.91883 10.6055 9.66791C10.6615 9.48732 10.7421 9.32108 10.8252 9.15155C10.8679 9.06218 10.9103 8.97269 10.9525 8.88308C10.9732 8.83907 10.9939 8.79506 11.0153 8.74972C11.0943 8.56661 11.1529 8.3793 11.2089 8.18803C11.25 8.08588 11.25 8.08588 11.3672 8.02729C11.6402 8.00077 11.9137 7.98612 12.1875 7.96869C12.1875 7.65932 12.1875 7.34994 12.1875 7.03119C12.0558 7.02515 11.9241 7.01911 11.7883 7.01288C11.4015 6.99514 11.4015 6.99514 11.2596 6.90187C11.1717 6.76649 11.1307 6.63683 11.0852 6.48188C10.9784 6.13819 10.8336 5.82748 10.6684 5.50821C10.5936 5.29871 10.5982 5.19178 10.6641 4.98041C10.7595 4.85636 10.7595 4.85636 10.8728 4.75336C10.9103 4.71847 10.9479 4.68357 10.9866 4.64762C11.0155 4.62209 11.0444 4.59656 11.0742 4.57025C10.9917 4.38186 10.8924 4.25843 10.7446 4.11615C10.7076 4.0802 10.6706 4.04425 10.6325 4.00721C10.5901 3.96687 10.5901 3.96687 10.5469 3.92572C10.3808 4.00106 10.3012 4.05509 10.1733 4.19306C9.988 4.36516 9.91889 4.38608 9.66797 4.39447C9.48738 4.33847 9.32114 4.25787 9.15161 4.17475C9.06224 4.13208 8.97275 4.08966 8.88314 4.04749C8.83913 4.02676 8.79512 4.00602 8.74978 3.98466C8.56667 3.9056 8.37936 3.84708 8.18809 3.79108C8.08594 3.74994 8.08594 3.74994 8.02735 3.63275C8.00083 3.35971 7.98618 3.08626 7.96875 2.81244C7.65938 2.81244 7.35 2.81244 7.03125 2.81244Z" fill="#654ADA"/>
<path d="M22.7929 13.3595C22.884 13.3903 22.884 13.3903 22.977 13.4217C24.345 13.9374 25.3133 14.9772 25.9077 16.2899C26.3862 17.4199 26.4552 18.8834 26.0156 20.0391C25.4236 21.4788 24.4051 22.5418 22.9687 23.1446C21.6248 23.6356 20.1546 23.5689 18.8514 22.9885C17.5803 22.3666 16.6352 21.3211 16.1719 19.9805C16.1488 19.9149 16.1258 19.8493 16.102 19.7816C15.7192 18.5077 15.8443 17.0864 16.4571 15.9105C17.1632 14.6153 18.2319 13.7204 19.6362 13.2752C20.6384 12.985 21.8094 13.015 22.7929 13.3595ZM18.1705 15.2553C17.4118 16.0004 16.9281 16.9805 16.9113 18.054C16.9134 19.2343 17.1876 20.1958 17.9883 21.0938C18.0424 21.1552 18.0424 21.1552 18.0977 21.2179C18.7887 21.9548 19.7518 22.4137 20.7625 22.4632C21.4747 22.4784 22.0757 22.4242 22.7344 22.1485C22.7894 22.126 22.8445 22.1035 22.9012 22.0803C23.2815 21.9075 23.5942 21.6619 23.9062 21.3868C23.9516 21.347 23.997 21.3072 24.0438 21.2662C24.7187 20.6352 25.194 19.7202 25.2643 18.7882C25.2967 17.5027 25.0788 16.4576 24.1992 15.4688C24.1645 15.4286 24.1297 15.3883 24.0939 15.3468C23.347 14.5377 22.2994 14.1261 21.2121 14.0651C20.0698 14.0408 18.9985 14.4798 18.1705 15.2553Z" fill="#654ADA"/>
<path d="M23.2031 15C23.3102 15.0723 23.3102 15.0723 23.4171 15.1709C23.4576 15.2082 23.4982 15.2454 23.5399 15.2837C23.781 15.5146 24.0187 15.7485 24.2541 15.9851C24.3299 16.0605 24.3299 16.0605 24.4071 16.1374C24.4551 16.1854 24.503 16.2334 24.5524 16.2828C24.5957 16.3263 24.6391 16.3697 24.6837 16.4144C24.8473 16.5903 24.8743 16.7395 24.8716 16.9804C24.8366 17.1423 24.7742 17.2129 24.6621 17.3339C24.6248 17.3746 24.5874 17.4153 24.5489 17.4572C24.3773 17.6371 24.2045 17.8153 24.0285 17.9907C23.9903 18.029 23.9522 18.0673 23.9128 18.1067C23.7883 18.2315 23.6636 18.356 23.5389 18.4806C23.4517 18.5678 23.3646 18.655 23.2774 18.7422C23.0956 18.9241 22.9138 19.1058 22.7318 19.2875C22.4982 19.5207 22.2649 19.7542 22.0317 19.9878C21.8522 20.1675 21.6726 20.347 21.4929 20.5265C21.4068 20.6126 21.3207 20.6988 21.2347 20.785C21.1149 20.9049 20.995 21.0246 20.875 21.1443C20.8393 21.18 20.8037 21.2158 20.7669 21.2526C20.466 21.5521 20.466 21.5521 20.1782 21.5918C19.9586 21.5887 19.8622 21.5337 19.7022 21.3858C19.6616 21.3485 19.6209 21.3111 19.579 21.2726C19.3705 21.0733 19.1644 20.872 18.9608 20.6678C18.9161 20.6231 18.8713 20.5784 18.8253 20.5324C18.7317 20.4389 18.6382 20.3453 18.5448 20.2516C18.4013 20.1078 18.2574 19.9643 18.1136 19.8208C18.0224 19.7296 17.9313 19.6384 17.8402 19.5472C17.7971 19.5042 17.754 19.4612 17.7096 19.417C17.6701 19.3772 17.6305 19.3375 17.5898 19.2966C17.5549 19.2616 17.52 19.2267 17.4841 19.1907C17.3324 19.0253 17.3129 18.8664 17.3166 18.6439C17.35 18.486 17.4057 18.4198 17.5147 18.3016C17.5519 18.2611 17.5892 18.2205 17.6275 18.1788C17.8584 17.9377 18.0923 17.7 18.3288 17.4646C18.4042 17.3888 18.4042 17.3888 18.4812 17.3116C18.5292 17.2636 18.5772 17.2157 18.6266 17.1663C18.67 17.123 18.7134 17.0796 18.7582 17.035C18.9336 16.8717 19.0822 16.845 19.3224 16.8463C19.5788 16.9025 19.7448 17.1018 19.9219 17.2851C19.9553 17.3186 19.9888 17.352 20.0232 17.3865C20.0478 17.4111 20.0723 17.4356 20.0976 17.4609C20.2915 17.3764 20.4183 17.2715 20.5665 17.1216C20.6119 17.076 20.6572 17.0305 20.704 16.9835C20.7766 16.9097 20.7766 16.9097 20.8507 16.8344C20.9008 16.784 20.9509 16.7336 21.0025 16.6817C21.1626 16.5205 21.3223 16.359 21.4819 16.1975C21.642 16.0357 21.8022 15.8741 21.9626 15.7126C22.0624 15.6121 22.162 15.5114 22.2615 15.4106C22.3065 15.3652 22.3515 15.3199 22.3978 15.2731C22.4374 15.233 22.4771 15.1929 22.5179 15.1516C22.7175 14.9645 22.9416 14.9446 23.2031 15ZM22.8056 16.3212C22.7636 16.3637 22.7215 16.4062 22.6782 16.45C22.6305 16.4979 22.5827 16.5458 22.5336 16.5952C22.482 16.6476 22.4304 16.6999 22.3773 16.7539C22.2965 16.8351 22.2157 16.9164 22.135 16.9976C22.0216 17.1118 21.9084 17.2262 21.7953 17.3406C21.5974 17.5408 21.3992 17.7406 21.2009 17.9402C21.0952 18.0466 20.9897 18.1531 20.8843 18.2599C20.8366 18.308 20.7889 18.356 20.7398 18.4056C20.6977 18.4481 20.6556 18.4907 20.6123 18.5345C20.4399 18.6966 20.2892 18.7213 20.0525 18.72C19.7961 18.6638 19.6301 18.4645 19.4531 18.2812C19.4196 18.2477 19.3862 18.2143 19.3517 18.1798C19.3272 18.1553 19.3026 18.1307 19.2773 18.1054C19.0751 18.192 18.9463 18.3069 18.7939 18.4643C18.7525 18.5068 18.7111 18.5492 18.6685 18.5929C18.6218 18.6417 18.6218 18.6417 18.5742 18.6914C18.6682 18.926 18.8332 19.0826 19.0104 19.2562C19.0415 19.2871 19.0725 19.318 19.1045 19.3498C19.2034 19.448 19.3026 19.5458 19.4018 19.6435C19.4691 19.7102 19.5363 19.7768 19.6035 19.8436C19.7679 20.0067 19.9327 20.1694 20.0976 20.332C20.3306 20.2382 20.4867 20.0759 20.6598 19.9003C20.7079 19.8523 20.7079 19.8523 20.7569 19.8033C20.8624 19.6976 20.9676 19.5916 21.0727 19.4856C21.1459 19.4122 21.2191 19.3388 21.2924 19.2654C21.4849 19.0724 21.6771 18.8791 21.8692 18.6857C22.0653 18.4883 22.2618 18.2913 22.4583 18.0942C22.8436 17.7077 23.2286 17.3207 23.6133 16.9336C23.5201 16.7367 23.4169 16.6042 23.2617 16.4502C23.2206 16.4088 23.1795 16.3674 23.1372 16.3247C22.9907 16.199 22.9518 16.1942 22.8056 16.3212Z" fill="#654ADA"/>
<path d="M8.81353 5.47897C9.32933 5.85048 9.71697 6.34185 9.84373 6.97266C9.92213 7.70022 9.85986 8.3431 9.42259 8.95019C9.02342 9.42394 8.5368 9.78885 7.90599 9.85682C7.14946 9.9093 6.51851 9.81754 5.92184 9.3148C5.42273 8.83834 5.15608 8.33156 5.12865 7.63856C5.11956 6.9053 5.28464 6.34143 5.80076 5.80078C6.60819 5.02998 7.85769 4.88292 8.81353 5.47897ZM6.3542 6.73256C6.11249 7.08336 6.11036 7.43844 6.15232 7.85156C6.25623 8.2409 6.53006 8.50627 6.85545 8.73047C7.20694 8.90277 7.6103 8.91204 7.98704 8.81149C8.34615 8.65298 8.62729 8.35496 8.79911 8.00445C8.91288 7.64596 8.90973 7.23123 8.74876 6.88843C8.55503 6.56126 8.27739 6.27347 7.91013 6.15234C7.2165 6.06464 6.80202 6.2087 6.3542 6.73256Z" fill="#654ADA"/>
<path d="M19.6875 1.875C21.6984 1.875 23.7094 1.875 25.7812 1.875C25.7812 2.18438 25.7812 2.49375 25.7812 2.8125C23.7703 2.8125 21.7594 2.8125 19.6875 2.8125C19.6875 2.50313 19.6875 2.19375 19.6875 1.875Z" fill="#654ADA"/>
<path d="M19.2188 27.6562C20.4563 27.6562 21.6937 27.6562 22.9688 27.6562C22.9688 27.9656 22.9688 28.275 22.9688 28.5938C21.7313 28.5938 20.4937 28.5938 19.2188 28.5938C19.2188 28.2844 19.2188 27.975 19.2188 27.6562Z" fill="#654ADA"/>
<path d="M19.2188 8.4375C20.4563 8.4375 21.6937 8.4375 22.9688 8.4375C22.9688 8.74688 22.9688 9.05625 22.9688 9.375C21.7313 9.375 20.4937 9.375 19.2188 9.375C19.2188 9.06563 19.2188 8.75625 19.2188 8.4375Z" fill="#654ADA"/>
<path d="M3.75 21.5625C4.67813 21.5625 5.60625 21.5625 6.5625 21.5625C6.5625 21.8719 6.5625 22.1812 6.5625 22.5C5.63437 22.5 4.70625 22.5 3.75 22.5C3.75 22.1906 3.75 21.8812 3.75 21.5625Z" fill="#654ADA"/>
<path d="M3 0C4.32 0 5.64 0 7 0C7 0.33 7 0.66 7 1C5.68 1 4.36 1 3 1C3 0.67 3 0.34 3 0Z" fill="#654ADA"/>
<path d="M26.7188 1.875C27.0281 1.875 27.3375 1.875 27.6562 1.875C27.6562 2.18438 27.6562 2.49375 27.6562 2.8125C27.3469 2.8125 27.0375 2.8125 26.7188 2.8125C26.7188 2.50313 26.7188 2.19375 26.7188 1.875Z" fill="#654ADA"/>
</g>
<defs>
<clipPath id="clip0_1_188">
<rect width="30" height="30" fill="white"/>
</clipPath>
</defs>
</svg>
