<svg width="30" height="30" viewBox="0 0 30 30" fill="none" xmlns="http://www.w3.org/2000/svg">
<path d="M12.5354 7.00091C12.5945 7.0005 12.6536 7.00009 12.7145 6.99967C12.9099 6.99863 13.1053 6.99932 13.3008 7.00011C13.4365 6.99995 13.5722 6.99972 13.708 6.99943C13.9925 6.99908 14.277 6.99959 14.5615 7.00068C14.9264 7.00202 15.2913 7.00125 15.6562 6.99984C15.9365 6.999 16.2167 6.99927 16.497 6.99987C16.6316 7.00003 16.7662 6.99984 16.9007 6.99929C17.0887 6.9987 17.2766 6.9996 17.4646 7.00091C17.5483 7.0002 17.5483 7.0002 17.6336 6.99947C18.0067 7.00428 18.0067 7.00428 18.1988 7.13319C18.2928 7.2841 18.3098 7.36305 18.3079 7.53964C18.3078 7.62056 18.3078 7.62056 18.3078 7.70311C18.3066 7.76086 18.3054 7.8186 18.3041 7.8781C18.3038 7.93759 18.3035 7.99709 18.3031 8.05838C18.3018 8.24826 18.2989 8.43806 18.2959 8.62792C18.2947 8.7567 18.2936 8.88548 18.2927 9.01427C18.2901 9.32984 18.2862 9.64538 18.2812 9.96092C18.3468 9.96743 18.4123 9.97393 18.4798 9.98064C18.7696 10.0171 19.0435 10.0922 19.3238 10.1729C19.3771 10.188 19.4303 10.2031 19.4852 10.2186C19.5971 10.2505 19.7089 10.2825 19.8207 10.3147C19.9914 10.3637 20.1623 10.412 20.3333 10.4601C20.4424 10.4913 20.5514 10.5225 20.6605 10.5537C20.7113 10.568 20.7622 10.5823 20.8146 10.597C21.0661 10.6702 21.2896 10.7417 21.5039 10.8984C21.5727 11.036 21.5697 11.1166 21.5695 11.2699C21.5697 11.3501 21.5697 11.3501 21.5698 11.4318C21.5696 11.4905 21.5694 11.5493 21.5691 11.6098C21.5692 11.6716 21.5692 11.7333 21.5692 11.7969C21.5691 12.0017 21.5687 12.2065 21.5682 12.4113C21.5681 12.553 21.568 12.6948 21.568 12.8365C21.5677 13.21 21.5672 13.5836 21.5665 13.9571C21.5659 14.3381 21.5657 14.7191 21.5654 15.1C21.5647 15.8479 21.5637 16.5958 21.5625 17.3437C21.6236 17.3432 21.6848 17.3427 21.7478 17.3422C22.3237 17.3374 22.8996 17.3339 23.4756 17.3316C23.7717 17.3304 24.0677 17.3287 24.3638 17.3261C24.6495 17.3235 24.9352 17.3221 25.2209 17.3215C25.33 17.3211 25.439 17.3202 25.5481 17.319C25.7007 17.3173 25.8533 17.317 26.006 17.3171C26.0511 17.3163 26.0963 17.3154 26.1429 17.3146C26.3496 17.3162 26.4627 17.3273 26.6296 17.454C26.7374 17.604 26.7482 17.6839 26.7478 17.8674C26.748 17.9242 26.7482 17.9809 26.7483 18.0394C26.747 18.0998 26.7457 18.1603 26.7444 18.2226C26.7436 18.2848 26.7428 18.347 26.742 18.4111C26.7328 18.8239 26.7027 19.231 26.6455 19.6399C26.6391 19.6878 26.6327 19.7357 26.6261 19.7851C26.5818 20.0606 26.5327 20.2643 26.3086 20.4492C26.1365 20.476 25.9932 20.4876 25.8215 20.4858C25.4798 20.4858 25.1994 20.4928 24.9023 20.6836C24.7938 20.8569 24.7301 21.04 24.6643 21.2329C24.6254 21.3392 24.5862 21.4455 24.5469 21.5517C24.528 21.6036 24.5091 21.6555 24.4896 21.709C24.3915 21.9653 24.2677 22.2076 24.1425 22.4517C24.0675 22.657 24.0595 22.8102 24.082 23.0273C24.1547 23.1592 24.1547 23.1592 24.2651 23.2617C24.3208 23.3204 24.3208 23.3204 24.3775 23.3803C24.4154 23.4185 24.4532 23.4567 24.4922 23.4961C24.5602 23.566 24.6274 23.6368 24.6936 23.7085C24.7225 23.7382 24.7515 23.768 24.7813 23.7987C24.8759 23.9616 24.8669 24.0722 24.8437 24.2578C24.2122 25.4571 23.0489 26.5123 21.9727 27.3047C21.8953 27.363 21.8953 27.363 21.8163 27.4225C21.6331 27.5542 21.4847 27.6458 21.2659 27.7038C20.9517 27.6169 20.7453 27.3651 20.5183 27.1406C20.4846 27.1089 20.451 27.0773 20.4163 27.0447C20.3872 27.0157 20.3581 26.9868 20.3281 26.957C20.1482 26.8578 20.0068 26.8754 19.8047 26.8945C19.6049 26.9677 19.6049 26.9677 19.4055 27.074C19.1544 27.2001 18.9056 27.3153 18.6404 27.4088C18.5928 27.4258 18.5452 27.4427 18.4962 27.4602C18.4036 27.4926 18.3105 27.5238 18.217 27.5537C17.9812 27.6374 17.8914 27.6824 17.7544 27.9009C17.6772 28.1939 17.6716 28.4652 17.6747 28.7664C17.6701 28.9809 17.6575 29.0967 17.5166 29.2623C17.3089 29.3742 17.1169 29.4247 16.886 29.458C16.8375 29.4651 16.7889 29.4721 16.7389 29.4794C15.5689 29.6225 14.2808 29.628 13.114 29.458C13.0696 29.4516 13.0253 29.4452 12.9795 29.4386C12.7184 29.3914 12.5368 29.325 12.3633 29.1211C12.3365 28.949 12.3249 28.8057 12.3267 28.634C12.3403 28.1393 12.3403 28.1393 12.1289 27.7148C11.8798 27.573 11.6175 27.4763 11.3489 27.3779C11.2062 27.3234 11.0636 27.2688 10.9211 27.214C10.8578 27.1906 10.7945 27.1671 10.7292 27.1429C10.5469 27.0703 10.5469 27.0703 10.3601 26.9757C10.1426 26.8685 10.0253 26.8531 9.78515 26.8945C9.61169 27.0138 9.46572 27.1568 9.3164 27.3047C9.24646 27.3727 9.1757 27.4399 9.104 27.5061C9.05936 27.5495 9.05936 27.5495 9.01382 27.5938C8.8507 27.6885 8.74053 27.6796 8.55468 27.6562C7.35401 27.0172 6.30063 25.8663 5.50781 24.7851C5.46899 24.7336 5.43016 24.6821 5.39016 24.629C5.25836 24.4457 5.16674 24.2974 5.10864 24.0784C5.19554 23.7642 5.44739 23.5578 5.67192 23.3308C5.70356 23.2971 5.73521 23.2635 5.76782 23.2287C5.79675 23.1997 5.82568 23.1706 5.85548 23.1406C5.95715 22.9563 5.94058 22.8256 5.91796 22.6172C5.85034 22.4221 5.76272 22.2387 5.6726 22.0532C5.4813 21.6491 5.31358 21.2544 5.18325 20.8262C5.08371 20.6604 4.98641 20.603 4.80583 20.5371C4.55622 20.4753 4.30167 20.4845 4.04605 20.4872C3.8342 20.4827 3.71578 20.4693 3.55018 20.3327C3.42906 20.1033 3.38855 19.8955 3.35449 19.6399C3.34746 19.5896 3.34043 19.5393 3.33319 19.4876C3.28027 19.0666 3.26089 18.6467 3.25561 18.2226C3.25431 18.1622 3.25301 18.1017 3.25166 18.0394C3.25183 17.9826 3.252 17.9259 3.25218 17.8674C3.25207 17.8172 3.25196 17.767 3.25185 17.7152C3.29321 17.5223 3.3585 17.463 3.51562 17.3437C3.68285 17.3218 3.82709 17.314 3.99404 17.3171C4.04208 17.3171 4.09012 17.3171 4.13962 17.317C4.29816 17.3172 4.45664 17.319 4.61517 17.3208C4.72518 17.3213 4.8352 17.3216 4.94521 17.3219C5.23459 17.3227 5.52394 17.325 5.81331 17.3276C6.10866 17.33 6.40401 17.3311 6.69937 17.3323C7.27876 17.3348 7.85812 17.3388 8.4375 17.3437C8.43728 17.3113 8.43706 17.2789 8.43684 17.2456C8.43167 16.4573 8.4278 15.6689 8.42535 14.8806C8.42413 14.4994 8.42247 14.1182 8.41982 13.737C8.41727 13.3692 8.41587 13.0015 8.41526 12.6337C8.41483 12.4932 8.41398 12.3528 8.41272 12.2123C8.41102 12.0159 8.41078 11.8195 8.41089 11.6231C8.41005 11.5648 8.4092 11.5065 8.40834 11.4464C8.41069 11.055 8.41069 11.055 8.53878 10.8668C8.67743 10.7777 8.79466 10.725 8.95294 10.6793C9.00847 10.6629 9.06401 10.6465 9.12122 10.6296C9.1808 10.6129 9.24037 10.5961 9.30175 10.5789C9.36329 10.561 9.42483 10.5432 9.48824 10.5247C9.61816 10.4872 9.74818 10.4499 9.87831 10.4131C10.0776 10.3566 10.2765 10.2989 10.4755 10.2411C10.6018 10.2047 10.7281 10.1684 10.8545 10.1321C10.9141 10.1149 10.9736 10.0977 11.035 10.08C11.0906 10.0643 11.1461 10.0486 11.2033 10.0325C11.252 10.0186 11.3008 10.0048 11.351 9.99049C11.4844 9.96092 11.4844 9.96092 11.7187 9.96092C11.7182 9.92768 11.7177 9.89443 11.7172 9.86018C11.712 9.5142 11.7084 9.16824 11.7059 8.82224C11.7047 8.6931 11.7031 8.56398 11.7011 8.43485C11.6982 8.24926 11.6969 8.06371 11.6959 7.8781C11.6946 7.82035 11.6934 7.76261 11.6922 7.70311C11.6922 7.64916 11.6922 7.59522 11.6921 7.53964C11.6916 7.49228 11.6911 7.44492 11.6906 7.39612C11.7861 6.95355 12.1666 6.99777 12.5354 7.00091ZM12.6562 7.96874C12.6562 11.0625 12.6562 14.1562 12.6562 17.3437C12.9656 17.3437 13.275 17.3437 13.5937 17.3437C13.5959 17.1935 13.5981 17.0433 13.6004 16.8885C13.6031 16.743 13.6061 16.5976 13.6091 16.4522C13.6111 16.3511 13.6127 16.25 13.614 16.1488C13.616 16.0035 13.6191 15.8583 13.6224 15.713C13.6227 15.6677 13.6231 15.6225 13.6235 15.5759C13.6321 15.2613 13.6321 15.2613 13.7273 15.1345C13.9072 14.999 14.135 15.0337 14.3518 15.0352C14.4032 15.0351 14.4545 15.0349 14.5074 15.0347C14.616 15.0346 14.7245 15.0349 14.8331 15.0357C14.9994 15.0366 15.1656 15.0357 15.3319 15.0345C15.4373 15.0347 15.5428 15.0349 15.6482 15.0352C15.698 15.0349 15.7478 15.0345 15.7991 15.0342C16.1449 15.0383 16.1449 15.0383 16.2727 15.1345C16.4004 15.3046 16.3759 15.5081 16.3776 15.713C16.3787 15.7595 16.3797 15.8061 16.3808 15.8541C16.384 16.0027 16.386 16.1514 16.3879 16.3C16.3899 16.4009 16.3919 16.5017 16.394 16.6025C16.3991 16.8496 16.4026 17.0966 16.4062 17.3437C16.7156 17.3437 17.025 17.3437 17.3437 17.3437C17.3437 14.25 17.3437 11.1562 17.3437 7.96874C15.7969 7.96874 14.25 7.96874 12.6562 7.96874ZM18.2812 10.957C18.2812 13.0646 18.2812 15.1723 18.2812 17.3437C19.0547 17.3437 19.8281 17.3437 20.625 17.3437C20.625 15.4488 20.625 13.5539 20.625 11.6015C19.4683 11.1693 19.4683 11.1693 18.2812 10.957ZM9.375 11.6015C9.375 13.4965 9.375 15.3914 9.375 17.3437C10.1484 17.3437 10.9219 17.3437 11.7187 17.3437C11.7187 15.2361 11.7187 13.1285 11.7187 10.957C10.9085 10.957 10.1548 11.3816 9.375 11.6015ZM14.5312 15.9375C14.5312 16.4015 14.5312 16.8656 14.5312 17.3437C14.8406 17.3437 15.15 17.3437 15.4687 17.3437C15.4687 16.8797 15.4687 16.4156 15.4687 15.9375C15.1594 15.9375 14.85 15.9375 14.5312 15.9375ZM4.27734 18.2812C4.26994 18.7545 4.26994 18.7545 4.33593 19.1968C4.34681 19.2459 4.35769 19.295 4.36889 19.3455C4.37735 19.381 4.38581 19.4165 4.39453 19.4531C4.48154 19.467 4.48154 19.467 4.57031 19.4813C5.20515 19.5902 5.62078 19.7273 6.00973 20.2585C6.14405 20.4697 6.22076 20.6924 6.29882 20.9289C6.44142 21.3389 6.59868 21.7297 6.78726 22.121C6.97073 22.5101 6.99195 22.963 6.8589 23.3732C6.72249 23.6575 6.56731 23.877 6.32812 24.082C6.41137 24.3373 6.53649 24.4921 6.71997 24.6863C6.89412 24.872 7.06573 25.0584 7.229 25.2539C7.63405 25.7193 8.1116 26.1274 8.61328 26.4844C8.7734 26.41 8.87593 26.3427 9.01245 26.2243C9.37819 25.9184 9.70145 25.8623 10.1724 25.8742C10.5037 25.9146 10.7761 26.0476 11.0742 26.1914C11.2119 26.2519 11.3498 26.3117 11.488 26.3708C11.5565 26.4006 11.625 26.4304 11.6956 26.461C11.8751 26.5349 12.0543 26.5968 12.2388 26.6565C12.6486 26.8037 12.9518 27.0383 13.147 27.4328C13.2708 27.7495 13.3162 28.0823 13.3594 28.418C14.2478 28.6364 15.8075 28.8345 16.6406 28.418C16.6624 28.3003 16.6785 28.1816 16.6919 28.0627C16.7692 27.527 16.9128 27.2276 17.3243 26.8761C17.5505 26.7126 17.7953 26.6283 18.0579 26.5393C18.1667 26.5003 18.2754 26.4611 18.384 26.4216C18.4364 26.4027 18.4889 26.3838 18.5429 26.3644C18.8066 26.2653 19.0589 26.1454 19.3126 26.0232C19.6999 25.8409 20.1528 25.8213 20.5607 25.9536C20.845 26.09 21.0645 26.2452 21.2695 26.4844C21.5248 26.4011 21.6796 26.276 21.8738 26.0925C22.0596 25.9184 22.2459 25.7467 22.4414 25.5835C22.9068 25.1784 23.3149 24.7009 23.6719 24.1992C23.5975 24.0391 23.5302 23.9366 23.4119 23.8C23.1059 23.4343 23.0498 23.111 23.0617 22.6401C23.1021 22.3087 23.2351 22.0364 23.3789 21.7383C23.4394 21.6006 23.4992 21.4627 23.5583 21.3244C23.5881 21.2559 23.6179 21.1874 23.6485 21.1169C23.7224 20.9374 23.7843 20.7582 23.844 20.5737C23.9912 20.1639 24.2258 19.8606 24.6204 19.6655C24.937 19.5417 25.2698 19.4963 25.6055 19.4531C25.6258 19.3678 25.6451 19.2823 25.6641 19.1968C25.6749 19.1492 25.6858 19.1016 25.697 19.0526C25.7323 18.7977 25.7227 18.5385 25.7227 18.2812C24.6398 18.2812 23.557 18.2812 22.4414 18.2812C22.3636 18.4368 22.3568 18.5919 22.3361 18.7628C22.1268 20.4195 21.414 21.8179 20.2734 23.0273C20.2376 23.067 20.2017 23.1066 20.1647 23.1475C19.017 24.3687 17.2075 25.1223 15.5511 25.2027C13.4643 25.2601 11.5162 24.7172 9.96681 23.2581C9.88656 23.1814 9.80655 23.1044 9.72656 23.0273C9.68879 22.9933 9.65103 22.9592 9.61212 22.9241C8.43905 21.836 7.83474 20.1714 7.64694 18.623C7.6312 18.4105 7.6312 18.4105 7.55859 18.2812C6.47578 18.2812 5.39297 18.2812 4.27734 18.2812ZM8.55468 18.2812C8.80702 20.1738 9.56049 21.7841 11.1013 22.972C12.5075 24.0144 14.2139 24.4719 15.9542 24.2173C17.7008 23.9177 19.2219 23.0008 20.2688 21.5655C20.9165 20.6446 21.4453 19.4256 21.4453 18.2812C17.1914 18.2812 12.9375 18.2812 8.55468 18.2812Z" fill="#654ADA"/>
<path d="M3.95142 8.52538C4.25248 8.70731 4.47419 8.9818 4.65454 9.27977C4.7071 9.52504 4.69623 9.76977 4.6875 10.0195C4.73854 10.0356 4.78958 10.0516 4.84217 10.0682C5.16047 10.179 5.4557 10.3342 5.75684 10.4846C5.82134 10.5161 5.88585 10.5477 5.9523 10.5802C6.01379 10.6108 6.07527 10.6414 6.13861 10.673C6.19468 10.7008 6.25074 10.7286 6.3085 10.7572C6.44532 10.8398 6.44532 10.8398 6.5625 11.0156C6.5766 11.188 6.5766 11.188 6.57581 11.4013C6.57582 11.4402 6.57584 11.4791 6.57586 11.5192C6.57578 11.6476 6.57487 11.776 6.57395 11.9044C6.57373 11.9934 6.57356 12.0825 6.57345 12.1716C6.573 12.406 6.57185 12.6403 6.57055 12.8747C6.56935 13.1139 6.56882 13.3531 6.56823 13.5923C6.56697 14.0615 6.56491 14.5307 6.5625 15C6.25313 15 5.94375 15 5.625 15C5.625 13.8592 5.625 12.7183 5.625 11.543C5.50899 11.5043 5.39297 11.4656 5.27344 11.4258C5.19531 11.3886 5.11809 11.3494 5.04227 11.3077C5.00216 11.2864 4.96206 11.2651 4.92073 11.2431C4.83775 11.1985 4.75505 11.1533 4.67263 11.1076C4.44736 10.9796 4.44736 10.9796 4.20044 10.9959C4.16781 11.0218 4.13518 11.0476 4.10157 11.0742C3.68304 11.3108 3.19316 11.3321 2.72828 11.2136C2.36669 11.0547 2.09974 10.7598 1.92353 10.4109C1.77824 10.0146 1.81633 9.65837 1.9336 9.2578C2.1004 8.9242 2.37818 8.65465 2.71271 8.48739C3.092 8.3679 3.58389 8.36251 3.95142 8.52538ZM2.96631 9.5288C2.84256 9.70967 2.83524 9.80438 2.8711 10.0195C2.95899 10.166 2.95899 10.166 3.10547 10.2539C3.32061 10.2898 3.41532 10.2824 3.5962 10.1587C3.71995 9.97781 3.72727 9.8831 3.69141 9.66796C3.60352 9.52147 3.60352 9.52147 3.45704 9.43358C3.2419 9.39773 3.14718 9.40504 2.96631 9.5288Z" fill="#654ADA"/>
<path d="M27.3889 8.52546C27.7302 8.73171 28.0068 9.0522 28.125 9.43366C28.1722 9.89281 28.1909 10.3489 27.8906 10.7227C27.6091 11.0183 27.3538 11.227 26.9373 11.2698C26.4983 11.2746 26.2138 11.2485 25.8398 11.0157C25.6718 10.9392 25.6718 10.9392 25.5384 11.0042C25.491 11.0291 25.4435 11.0539 25.3947 11.0796C25.3429 11.1062 25.2911 11.1328 25.2378 11.1602C25.1839 11.1887 25.13 11.2171 25.0745 11.2464C24.9677 11.3021 24.8608 11.3575 24.7538 11.4128C24.7064 11.4377 24.6591 11.4626 24.6103 11.4883C24.4922 11.543 24.4922 11.543 24.375 11.543C24.375 12.6839 24.375 13.8247 24.375 15.0001C24.0656 15.0001 23.7563 15.0001 23.4375 15.0001C23.4322 14.4846 23.4279 13.9692 23.4254 13.4537C23.4241 13.2144 23.4225 12.975 23.4198 12.7357C23.4173 12.5047 23.4159 12.2737 23.4153 12.0427C23.4148 11.9546 23.414 11.8665 23.4127 11.7784C23.411 11.6549 23.4108 11.5315 23.4109 11.4081C23.4104 11.3378 23.4099 11.2675 23.4093 11.1951C23.4433 10.9786 23.5019 10.9147 23.6719 10.7813C23.7868 10.7139 23.9045 10.651 24.0239 10.5918C24.0913 10.5582 24.1588 10.5246 24.2283 10.49C24.2632 10.4729 24.2981 10.4558 24.334 10.4382C24.4413 10.3856 24.5481 10.3323 24.6549 10.2789C25.1789 10.0196 25.1789 10.0196 25.3125 10.0196C25.3098 9.98274 25.3071 9.94588 25.3043 9.90791C25.2886 9.53766 25.3226 9.2666 25.5469 8.96491C26.031 8.45247 26.7041 8.222 27.3889 8.52546ZM26.4038 9.52888C26.2801 9.70975 26.2727 9.80446 26.3086 10.0196C26.3965 10.1661 26.3965 10.1661 26.543 10.254C26.7581 10.2898 26.8528 10.2825 27.0337 10.1588C27.1574 9.97789 27.1648 9.88318 27.1289 9.66804C27.041 9.52155 27.041 9.52155 26.8945 9.43366C26.6794 9.39781 26.5847 9.40513 26.4038 9.52888Z" fill="#654ADA"/>
<path d="M22.7014 3.36922C23.0427 3.57547 23.3193 3.89596 23.4375 4.27743C23.4847 4.73657 23.5034 5.19262 23.2031 5.56649C22.9794 5.80141 22.7594 6.00631 22.4414 6.09383C22.3631 6.09215 22.2848 6.08743 22.2068 6.08056C22.1416 6.07523 22.1416 6.07523 22.0751 6.0698C21.9862 6.06153 21.8974 6.05092 21.8091 6.03776C21.4853 6.01719 21.248 6.14313 21.0052 6.34972C20.6543 6.69125 20.617 7.05831 20.6021 7.53213C20.5988 7.80978 20.604 8.08676 20.6104 8.36434C20.6111 8.50793 20.6114 8.65151 20.6115 8.7951C20.6123 9.14481 20.6175 9.49421 20.625 9.84383C20.3156 9.84383 20.0063 9.84383 19.6875 9.84383C19.6782 9.39356 19.6707 8.94332 19.6662 8.49298C19.6641 8.28382 19.6612 8.07473 19.6566 7.86561C19.6521 7.66348 19.6496 7.46143 19.6486 7.25926C19.6475 7.14526 19.6443 7.03129 19.641 6.91733C19.6409 6.56303 19.6487 6.32623 19.8854 6.05066C20.0427 5.89854 20.2135 5.7658 20.387 5.63241C20.5714 5.45451 20.6392 5.33203 20.6502 5.08057C20.6497 4.94152 20.6437 4.80539 20.6313 4.6669C20.6034 4.3224 20.6662 4.09702 20.8594 3.80868C20.9745 3.6773 20.9745 3.6773 21.0901 3.58163C21.1281 3.54915 21.1661 3.51667 21.2052 3.48321C21.6191 3.198 22.2418 3.16555 22.7014 3.36922ZM21.7163 4.37264C21.5926 4.55351 21.5852 4.64823 21.6211 4.86336C21.709 5.00985 21.709 5.00985 21.8555 5.09774C22.0706 5.1336 22.1653 5.12628 22.3462 5.00252C22.4699 4.82165 22.4773 4.72694 22.4414 4.5118C22.3535 4.36532 22.3535 4.36532 22.207 4.27743C21.9919 4.24157 21.8972 4.24889 21.7163 4.37264Z" fill="#654ADA"/>
<path d="M8.63892 3.36903C8.97293 3.57087 9.27165 3.89757 9.375 4.27723C9.36488 4.39611 9.35446 4.51499 9.34066 4.63349C9.31102 4.93405 9.29233 5.20222 9.4598 5.46496C9.67155 5.71394 9.91265 5.92847 10.1666 6.13358C10.2539 6.21083 10.2539 6.21083 10.3125 6.32802C10.3178 6.43992 10.3194 6.55201 10.3192 6.66404C10.3191 6.76961 10.3191 6.76961 10.3191 6.87731C10.3188 6.9536 10.3185 7.0299 10.3182 7.1085C10.3181 7.18716 10.318 7.26581 10.318 7.34446C10.3177 7.55157 10.3172 7.75867 10.3165 7.96577C10.3159 8.17707 10.3157 8.38837 10.3154 8.59967C10.3147 9.01433 10.3137 9.42898 10.3125 9.84364C10.0031 9.84364 9.69375 9.84364 9.375 9.84364C9.37786 9.71072 9.37786 9.71072 9.38078 9.57511C9.38697 9.24355 9.38846 8.91211 9.38859 8.5805C9.38929 8.43751 9.39123 8.29453 9.39449 8.15158C9.44602 7.24064 9.44602 7.24064 9.08722 6.43964C8.86916 6.22746 8.64204 6.06186 8.33039 6.03322C8.19948 6.0414 8.19948 6.0414 8.07129 6.06434C7.67617 6.11132 7.42688 6.08552 7.08985 5.85927C6.95847 5.74414 6.95847 5.74414 6.8628 5.62855C6.83032 5.59056 6.79784 5.55257 6.76438 5.51343C6.50191 5.13249 6.52297 4.72422 6.5625 4.27723C6.66099 3.88702 6.94124 3.62184 7.26563 3.39833C7.663 3.19831 8.23085 3.1882 8.63892 3.36903ZM7.65381 4.37245C7.53006 4.55332 7.52274 4.64803 7.5586 4.86317C7.64649 5.00966 7.64649 5.00966 7.79297 5.09755C8.00811 5.1334 8.10282 5.12609 8.28369 5.00233C8.40745 4.82146 8.41477 4.72675 8.37891 4.51161C8.29102 4.36513 8.29102 4.36513 8.14453 4.27723C7.92939 4.24138 7.83468 4.2487 7.65381 4.37245Z" fill="#654ADA"/>
<path d="M15.8308 0.672511C16.1556 0.944309 16.3816 1.22473 16.4259 1.65647C16.4315 2.15741 16.4124 2.50161 16.0602 2.87115C15.8588 3.05746 15.7402 3.15485 15.4687 3.22271C15.4687 4.32486 15.4687 5.42701 15.4687 6.56256C15.1594 6.56256 14.85 6.56256 14.5312 6.56256C14.5312 5.46041 14.5312 4.35826 14.5312 3.22271C14.4346 3.18404 14.3379 3.14537 14.2383 3.10553C13.9382 2.89723 13.6616 2.6581 13.5937 2.28521C13.5502 1.82315 13.5248 1.37284 13.8281 0.99615C14.3826 0.42464 15.1275 0.179859 15.8308 0.672511ZM14.6851 1.56011C14.5613 1.74099 14.554 1.8357 14.5898 2.05084C14.6777 2.19732 14.6777 2.19732 14.8242 2.28521C15.0394 2.32107 15.1341 2.31375 15.3149 2.19C15.4387 2.00913 15.446 1.91441 15.4102 1.69927C15.3223 1.55279 15.3223 1.55279 15.1758 1.4649C14.9606 1.42904 14.8659 1.43636 14.6851 1.56011Z" fill="#654ADA"/>
<path d="M13.5938 13.125C14.5219 13.125 15.45 13.125 16.4062 13.125C16.4062 13.4344 16.4062 13.7437 16.4062 14.0625C15.4781 14.0625 14.55 14.0625 13.5938 14.0625C13.5938 13.7531 13.5938 13.4437 13.5938 13.125Z" fill="#654ADA"/>
<path d="M13.5938 11.25C14.5219 11.25 15.45 11.25 16.4062 11.25C16.4062 11.5594 16.4062 11.8687 16.4062 12.1875C15.4781 12.1875 14.55 12.1875 13.5938 12.1875C13.5938 11.8781 13.5938 11.5687 13.5938 11.25Z" fill="#654ADA"/>
<path d="M13.5938 9.375C14.5219 9.375 15.45 9.375 16.4062 9.375C16.4062 9.68438 16.4062 9.99375 16.4062 10.3125C15.4781 10.3125 14.55 10.3125 13.5938 10.3125C13.5938 10.0031 13.5938 9.69375 13.5938 9.375Z" fill="#654ADA"/>
<path d="M18.75 14.0625C19.2141 14.0625 19.6781 14.0625 20.1562 14.0625C20.1562 14.3719 20.1562 14.6812 20.1562 15C19.6922 15 19.2281 15 18.75 15C18.75 14.6906 18.75 14.3812 18.75 14.0625Z" fill="#654ADA"/>
<path d="M9.84375 14.0625C10.3078 14.0625 10.7719 14.0625 11.25 14.0625C11.25 14.3719 11.25 14.6812 11.25 15C10.7859 15 10.3219 15 9.84375 15C9.84375 14.6906 9.84375 14.3812 9.84375 14.0625Z" fill="#654ADA"/>
<path d="M18.75 12.1875C19.2141 12.1875 19.6781 12.1875 20.1562 12.1875C20.1562 12.4969 20.1562 12.8062 20.1562 13.125C19.6922 13.125 19.2281 13.125 18.75 13.125C18.75 12.8156 18.75 12.5062 18.75 12.1875Z" fill="#654ADA"/>
<path d="M9.84375 12.1875C10.3078 12.1875 10.7719 12.1875 11.25 12.1875C11.25 12.4969 11.25 12.8062 11.25 13.125C10.7859 13.125 10.3219 13.125 9.84375 13.125C9.84375 12.8156 9.84375 12.5062 9.84375 12.1875Z" fill="#654ADA"/>
<path d="M23.4375 15.9375C23.7469 15.9375 24.0562 15.9375 24.375 15.9375C24.375 16.2469 24.375 16.5562 24.375 16.875C24.0656 16.875 23.7562 16.875 23.4375 16.875C23.4375 16.5656 23.4375 16.2562 23.4375 15.9375Z" fill="#654ADA"/>
<path d="M5.625 15.9375C5.93438 15.9375 6.24375 15.9375 6.5625 15.9375C6.5625 16.2469 6.5625 16.5562 6.5625 16.875C6.25313 16.875 5.94375 16.875 5.625 16.875C5.625 16.5656 5.625 16.2562 5.625 15.9375Z" fill="#654ADA"/>
</svg>
