<svg width="24" height="24" viewBox="0 0 24 24" fill="none" xmlns="http://www.w3.org/2000/svg">
<path d="M10.08 7.897C11.157 5.966 11.695 5 12.5 5C13.305 5 13.843 5.966 14.92 7.897L15.198 8.397C15.504 8.946 15.658 9.22 15.896 9.401C16.134 9.582 16.431 9.649 17.026 9.784L17.566 9.906C19.657 10.379 20.703 10.616 20.951 11.416C21.2 12.216 20.487 13.049 19.061 14.716L18.693 15.146C18.288 15.62 18.086 15.857 17.994 16.15C17.904 16.443 17.934 16.759 17.995 17.39L18.051 17.966C18.267 20.19 18.374 21.302 17.723 21.796C17.072 22.29 16.093 21.84 14.136 20.939L13.629 20.705C13.073 20.449 12.795 20.321 12.5 20.321C12.205 20.321 11.927 20.449 11.37 20.705L10.864 20.939C8.907 21.839 7.928 22.291 7.277 21.796C6.626 21.302 6.734 20.19 6.949 17.966L7.005 17.391C7.066 16.759 7.097 16.443 7.005 16.151C6.915 15.857 6.712 15.621 6.307 15.147L5.938 14.715C4.513 13.049 3.8 12.215 4.048 11.415C4.298 10.615 5.343 10.379 7.434 9.906L7.974 9.784C8.569 9.649 8.866 9.582 9.104 9.401C9.343 9.221 9.496 8.946 9.802 8.397L10.08 7.897Z" stroke="#654ADA" stroke-width="1.5"/>
<path d="M4.99 2C4.99 2 5.278 3.458 5.91 4.085C6.54 4.712 8 4.99 8 4.99C8 4.99 6.542 5.278 5.915 5.91C5.288 6.54 5.01 8 5.01 8C5.01 8 4.722 6.542 4.09 5.915C3.46 5.288 2 5.01 2 5.01C2 5.01 3.458 4.722 4.085 4.09C4.712 3.46 4.99 2 4.99 2Z" stroke="#654ADA" stroke-linejoin="round"/>
<path d="M18 5H20M19 6V4" stroke="#654ADA" stroke-width="1.5" stroke-linecap="round"/>
</svg>
