<svg width="30" height="30" viewBox="0 0 30 30" fill="none" xmlns="http://www.w3.org/2000/svg">
<g clip-path="url(#clip0_1_168)">
<path d="M15.3515 -0.000100166C15.6313 0.117072 15.8815 0.271482 16.1379 0.432687C16.3095 0.540049 16.4827 0.644625 16.6562 0.74903C16.936 0.917612 17.2153 1.08708 17.4941 1.25738C17.882 1.49426 18.2701 1.73061 18.6586 1.9665C18.7605 2.02842 18.8624 2.09038 18.9643 2.15235C19.3049 2.35935 19.6462 2.56518 19.9887 2.76914C20.0225 2.78928 20.0562 2.80942 20.091 2.83017C20.2512 2.9257 20.4115 3.02101 20.572 3.11593C20.6287 3.14968 20.6854 3.18343 20.7438 3.21821C20.8179 3.26209 20.8179 3.26209 20.8934 3.30686C21.1922 3.49975 21.3741 3.64616 21.5039 3.98427C21.5297 4.21058 21.5285 4.43554 21.5276 4.66312C21.5282 4.76508 21.5282 4.76508 21.5288 4.8691C21.5299 5.0935 21.5296 5.31787 21.5293 5.54227C21.5295 5.65895 21.5297 5.77563 21.53 5.89231C21.5308 6.25899 21.5307 6.62566 21.53 6.99234C21.5294 7.36992 21.5302 7.74747 21.5317 8.12504C21.5331 8.44989 21.5334 8.77474 21.5331 9.0996C21.5329 9.29332 21.5331 9.48702 21.534 9.68075C21.5349 9.89688 21.5343 10.113 21.5333 10.3291C21.5339 10.3928 21.5344 10.4565 21.535 10.5222C21.5314 10.8948 21.4927 11.1233 21.2695 11.4257C21.0992 11.562 21.0992 11.562 20.9017 11.6811C20.8659 11.703 20.8301 11.725 20.7932 11.7476C20.6791 11.8171 20.5642 11.8851 20.4492 11.953C20.3749 11.9976 20.3007 12.0423 20.2265 12.087C20.0369 12.2008 19.8466 12.3132 19.656 12.4252C18.8786 12.8823 18.1075 13.3483 17.3437 13.828C17.4955 13.987 17.6454 14.1165 17.8293 14.2366C17.8784 14.2689 17.9276 14.3012 17.9782 14.3345C18.031 14.3688 18.0838 14.4031 18.1382 14.4385C18.1933 14.4746 18.2484 14.5107 18.3051 14.5479C18.4813 14.6635 18.6577 14.7786 18.8342 14.8937C19.0649 15.0445 19.2956 15.1956 19.5261 15.3467C19.5813 15.3828 19.6365 15.4189 19.6934 15.4562C20.1063 15.7272 20.5145 16.004 20.918 16.289C21.397 16.0336 21.8636 15.7607 22.3279 15.4796C22.4579 15.4011 22.588 15.3226 22.7181 15.2441C22.7748 15.2098 22.8314 15.1756 22.8898 15.1402C23.2076 14.9513 23.4823 14.9417 23.8476 14.9999C24.1274 15.1171 24.3776 15.2715 24.634 15.4327C24.8056 15.54 24.9788 15.6446 25.1523 15.749C25.4321 15.9176 25.7114 16.0871 25.9902 16.2574C26.378 16.4943 26.7662 16.7306 27.1547 16.9665C27.2566 17.0284 27.3585 17.0904 27.4604 17.1523C27.801 17.3594 28.1423 17.5652 28.4848 17.7691C28.5186 17.7893 28.5523 17.8094 28.5871 17.8302C28.7473 17.9257 28.9076 18.021 29.0681 18.1159C29.1248 18.1497 29.1815 18.1834 29.2399 18.2182C29.2893 18.2475 29.3387 18.2767 29.3895 18.3069C29.6883 18.4997 29.8702 18.6462 30 18.9843C30.0258 19.2106 30.0246 19.4355 30.0237 19.6631C30.0243 19.7651 30.0243 19.7651 30.0249 19.8691C30.026 20.0935 30.0257 20.3179 30.0254 20.5423C30.0256 20.659 30.0258 20.7756 30.0261 20.8923C30.0269 21.259 30.0268 21.6257 30.0261 21.9923C30.0254 22.3699 30.0263 22.7475 30.0278 23.125C30.0291 23.4499 30.0295 23.7747 30.0292 24.0996C30.029 24.2933 30.0292 24.487 30.0301 24.6807C30.031 24.8969 30.0304 25.113 30.0294 25.3291C30.0299 25.3928 30.0305 25.4565 30.0311 25.5222C30.0275 25.8948 29.989 26.1234 29.7656 26.4257C29.5924 26.5636 29.5924 26.5636 29.3925 26.6839C29.3385 26.7169 29.3385 26.7169 29.2834 26.7506C29.1712 26.819 29.0583 26.886 28.9453 26.953C28.8769 26.9945 28.8085 27.0361 28.7402 27.0778C28.5694 27.1816 28.3979 27.2843 28.2261 27.3865C28.0348 27.5004 27.8438 27.6147 27.6528 27.7289C27.6139 27.7522 27.575 27.7755 27.5348 27.7994C27.1746 28.015 26.8158 28.2331 26.4572 28.4515C25.8605 28.8151 25.2618 29.175 24.6606 29.5311C24.6087 29.5619 24.6087 29.5619 24.5558 29.5933C23.7134 30.0923 23.7134 30.0923 23.1445 29.9999C22.8115 29.857 22.5124 29.6663 22.207 29.4726C22.1179 29.4173 22.0287 29.3621 21.9395 29.3071C21.792 29.216 21.6446 29.1247 21.4977 29.0329C21.0219 28.7362 20.54 28.4504 20.0574 28.1652C19.4501 27.8062 18.8452 27.4439 18.2446 27.0739C18.1822 27.0354 18.1197 26.997 18.0554 26.9574C17.943 26.8879 17.8307 26.8181 17.7188 26.7477C17.6056 26.6772 17.4907 26.6095 17.3753 26.5426C17.1532 26.368 17.0151 26.1635 16.9718 25.8838C16.9652 25.7344 16.9658 25.5867 16.9693 25.4371C16.9695 25.3892 16.9698 25.3412 16.97 25.2918C16.9712 25.1143 16.9745 24.9369 16.9775 24.7594C16.9824 24.3618 16.9872 23.9642 16.9922 23.5546C15.6773 23.5546 14.3625 23.5546 13.0078 23.5546C13.0194 24.3434 13.0194 24.3434 13.0342 25.1322C13.035 25.2319 13.0358 25.3317 13.0364 25.4314C13.0387 25.5075 13.0387 25.5075 13.041 25.5852C13.0412 25.955 12.9575 26.2017 12.7148 26.4843C12.5607 26.6113 12.5607 26.6113 12.3933 26.7088C12.3298 26.7465 12.2664 26.7842 12.201 26.8231C12.1318 26.8627 12.0626 26.9024 11.9934 26.942C11.9208 26.9847 11.8483 27.0275 11.7758 27.0704C11.6222 27.1611 11.4682 27.2512 11.3139 27.3408C10.9515 27.5514 10.5914 27.7662 10.2311 27.9804C10.1111 28.0516 9.99105 28.1227 9.87097 28.1938C9.42302 28.459 8.97804 28.7282 8.53636 29.0038C8.44025 29.0633 8.34412 29.1227 8.24797 29.1821C8.10497 29.2705 7.96246 29.3594 7.82076 29.4498C6.7885 30.1075 6.7885 30.1075 6.32559 30.0537C5.97419 29.9446 5.67535 29.7616 5.36601 29.5671C5.19436 29.4597 5.02117 29.3552 4.8477 29.2508C4.56786 29.0822 4.28857 28.9127 4.00977 28.7424C3.62192 28.5055 3.23376 28.2692 2.84531 28.0333C2.74338 27.9714 2.64148 27.9094 2.53959 27.8475C2.19895 27.6404 1.85765 27.4346 1.51518 27.2307C1.48141 27.2105 1.44764 27.1904 1.41285 27.1696C1.25267 27.0741 1.09237 26.9788 0.931835 26.8839C0.875163 26.8501 0.818491 26.8164 0.760102 26.7816C0.686013 26.7377 0.686013 26.7377 0.610428 26.6929C0.311666 26.5001 0.129731 26.3536 -1.43051e-05 26.0155C-0.0258563 25.7892 -0.0246296 25.5643 -0.0236893 25.3367C-0.0240914 25.2687 -0.0244927 25.2007 -0.024907 25.1307C-0.0259782 24.9063 -0.0257533 24.6819 -0.0254202 24.4575C-0.0256199 24.3408 -0.02582 24.2242 -0.0260854 24.1075C-0.0269074 23.7408 -0.0268177 23.3741 -0.0261497 23.0075C-0.0254771 22.6299 -0.0263013 22.2523 -0.0278717 21.8748C-0.029172 21.5499 -0.0295582 21.2251 -0.0292146 20.9002C-0.0290176 20.7065 -0.0292576 20.5128 -0.0301677 20.3191C-0.0310401 20.1029 -0.0304164 19.8868 -0.0294113 19.6707C-0.030261 19.5751 -0.030261 19.5751 -0.0311279 19.4776C-0.0275025 19.105 0.0110196 18.8764 0.234361 18.5741C0.407596 18.4362 0.407596 18.4362 0.607438 18.3159C0.661458 18.2829 0.661458 18.2829 0.71657 18.2492C0.82875 18.1808 0.94166 18.1138 1.05467 18.0468C1.12311 18.0053 1.19149 17.9637 1.25981 17.922C1.43062 17.8182 1.60211 17.7155 1.7739 17.6133C1.96516 17.4994 2.15615 17.3851 2.34717 17.2709C2.38609 17.2476 2.42502 17.2243 2.46512 17.2003C2.82542 16.9848 3.18419 16.7667 3.54275 16.5483C4.13946 16.1847 4.73817 15.8248 5.33934 15.4686C5.39123 15.4379 5.39123 15.4379 5.44416 15.4065C6.28656 14.9075 6.28656 14.9075 6.85545 14.9999C7.13853 15.1214 7.394 15.275 7.65399 15.4394C7.81058 15.5384 7.96842 15.6352 8.12644 15.7319C8.42647 15.9159 8.72522 16.102 9.02342 16.289C9.44495 16.0222 9.86393 15.7519 10.2804 15.4773C10.3358 15.4409 10.3911 15.4045 10.4481 15.3669C10.564 15.2906 10.6798 15.2143 10.7955 15.138C10.972 15.0217 11.1485 14.9055 11.3251 14.7893C11.4383 14.7147 11.5515 14.6401 11.6647 14.5655C11.717 14.5311 11.7692 14.4967 11.8231 14.4613C12.1051 14.2752 12.3827 14.085 12.6562 13.8866C12.4582 13.7227 12.2576 13.5813 12.0376 13.4485C11.9734 13.4097 11.9093 13.3709 11.8433 13.3309C11.7737 13.2891 11.7041 13.2473 11.6345 13.2055C11.5624 13.1619 11.4902 13.1183 11.4181 13.0746C11.0241 12.8365 10.6291 12.6001 10.2338 12.3643C10.1537 12.3165 10.0736 12.2687 9.99352 12.2208C9.84 12.1292 9.68629 12.0378 9.53247 11.9466C9.46174 11.9044 9.39101 11.8622 9.32028 11.82C9.25862 11.7834 9.19695 11.7468 9.13342 11.7091C8.82296 11.5109 8.63083 11.3658 8.49608 11.0155C8.47021 10.7892 8.47146 10.5643 8.4724 10.3367C8.472 10.2687 8.4716 10.2007 8.47119 10.1307C8.47011 9.9063 8.47034 9.68193 8.47067 9.45753C8.47047 9.34085 8.47027 9.22417 8.47001 9.10749C8.46919 8.74081 8.46928 8.37414 8.46994 8.00746C8.47062 7.62988 8.46979 7.25233 8.46822 6.87476C8.46692 6.54991 8.46653 6.22506 8.46688 5.90021C8.46708 5.70648 8.46684 5.51278 8.46593 5.31905C8.46505 5.10292 8.46568 4.88684 8.46668 4.67071C8.46583 4.57513 8.46583 4.57513 8.46497 4.47761C8.46859 4.10501 8.50722 3.87651 8.73045 3.57412C8.90137 3.43738 8.90137 3.43738 9.09941 3.318C9.13529 3.29603 9.17117 3.27406 9.20814 3.25142C9.32178 3.1822 9.43619 3.11442 9.55077 3.04677C9.62347 3.0031 9.69614 2.95937 9.76878 2.9156C9.95419 2.80434 10.1404 2.6944 10.3268 2.58486C10.9572 2.21429 11.5842 1.83893 12.2058 1.45376C12.7433 1.12086 13.2841 0.794277 13.8281 0.472312C13.8803 0.441393 13.8803 0.441393 13.9336 0.40985C14.7802 -0.0911389 14.7802 -0.0911389 15.3515 -0.000100166ZM14.7056 1.18619C14.6564 1.21541 14.6071 1.24462 14.5563 1.27471C14.5021 1.30721 14.4479 1.33971 14.3921 1.37319C14.3351 1.40712 14.2781 1.44106 14.2194 1.47602C13.5886 1.85255 12.961 2.23431 12.3336 2.61645C12.0756 2.7736 11.8173 2.93041 11.559 3.08706C11.4844 3.13228 11.4098 3.1775 11.3353 3.22273C11.2281 3.28772 11.1209 3.3527 11.0138 3.41766C10.6417 3.64316 10.2705 3.86976 9.90233 4.10146C10.1161 4.28052 10.336 4.42614 10.5764 4.56724C10.6315 4.59974 10.6315 4.59974 10.6877 4.63291C10.7667 4.67948 10.8458 4.72596 10.9249 4.77235C11.1366 4.89649 11.3478 5.02144 11.559 5.14631C11.6234 5.18439 11.6234 5.18439 11.6892 5.22324C12.0706 5.44877 12.4503 5.67717 12.8289 5.90732C12.9304 5.96884 13.0321 6.03 13.1338 6.09109C13.4503 6.28217 13.7614 6.47724 14.0659 6.68691C14.1213 6.72408 14.1766 6.76125 14.2336 6.79955C14.3358 6.86859 14.4367 6.93949 14.536 7.01258C14.6732 7.10427 14.781 7.16763 14.9414 7.20693C15.1658 7.156 15.3368 7.03956 15.5273 6.91396C15.644 6.84472 15.7607 6.7756 15.8775 6.7066C15.9736 6.64776 16.0696 6.58892 16.1655 6.52979C16.3443 6.41957 16.5236 6.31019 16.7029 6.20077C16.7404 6.17782 16.778 6.15487 16.8167 6.13122C17.2562 5.86328 17.6991 5.60131 18.1421 5.33926C18.7972 4.95147 19.45 4.56033 20.0976 4.16006C19.9399 3.97909 19.7429 3.86948 19.5378 3.75036C19.4998 3.72798 19.4618 3.70559 19.4226 3.68253C19.3411 3.63454 19.2595 3.58665 19.1778 3.53887C18.9625 3.41289 18.7478 3.28602 18.533 3.15916C18.4905 3.13405 18.4479 3.10895 18.4041 3.08309C18.0749 2.8884 17.7486 2.6893 17.4243 2.48647C16.9483 2.18948 16.4695 1.89708 15.989 1.6074C15.9087 1.55891 15.8284 1.51034 15.7481 1.46167C15.636 1.3937 15.5237 1.32606 15.4113 1.25852C15.3461 1.21918 15.2809 1.17985 15.2137 1.13932C14.9841 1.01392 14.9196 1.05883 14.7056 1.18619ZM9.49217 5.15615C9.48761 5.86822 9.48589 6.58024 9.48777 7.29232C9.48855 7.62299 9.48837 7.95359 9.48595 8.28425C9.48365 8.60341 9.48392 8.92247 9.48596 9.24164C9.48629 9.36335 9.48569 9.48507 9.48416 9.60677C9.44588 10.2449 9.44588 10.2449 9.66592 10.8145C9.80232 10.907 9.92272 10.9628 10.0781 11.0155C10.1395 11.0534 10.2009 11.0912 10.2642 11.1302C10.3248 11.1661 10.3855 11.2019 10.448 11.2389C10.8395 11.4718 11.2291 11.7078 11.6183 11.9446C11.9058 12.1195 12.1936 12.294 12.4814 12.4685C12.5605 12.5164 12.6396 12.5644 12.7187 12.6124C12.9635 12.761 13.2085 12.9093 13.4537 13.0572C13.5322 13.1047 13.6107 13.1522 13.6891 13.1998C13.7983 13.2661 13.9077 13.3321 14.0172 13.398C14.0798 13.4358 14.1423 13.4736 14.2068 13.5126C14.3444 13.603 14.3444 13.603 14.4726 13.5936C14.4849 12.8893 14.4942 12.1849 14.5 11.4804C14.5027 11.1533 14.5064 10.8262 14.5124 10.4991C14.5182 10.1834 14.5213 9.86775 14.5227 9.55198C14.5236 9.43157 14.5256 9.31116 14.5284 9.19078C14.5732 8.56054 14.5732 8.56054 14.3605 7.99604C14.2234 7.90294 14.101 7.84787 13.9453 7.79287C13.8609 7.7435 13.7773 7.69265 13.6951 7.63975C13.6065 7.58691 13.5177 7.5342 13.4289 7.48159C12.9765 7.21188 12.5256 6.93984 12.0757 6.66609C11.4873 6.30824 10.8986 5.95111 10.3088 5.5956C10.2468 5.55804 10.1848 5.52048 10.1209 5.48178C10.0638 5.44743 10.0067 5.41309 9.94788 5.37771C9.89787 5.34753 9.84786 5.31736 9.79634 5.28627C9.66421 5.20746 9.66421 5.20746 9.49217 5.15615ZM20.0354 5.37954C19.5409 5.69246 19.0376 5.99005 18.5339 6.28774C17.8422 6.69673 17.1553 7.11215 16.474 7.53832C16.2221 7.69536 15.9684 7.8497 15.715 8.00436C15.5922 8.07522 15.5922 8.07522 15.5273 8.14443C15.5217 8.31564 15.52 8.48546 15.5207 8.65668C15.5207 8.71041 15.5207 8.76414 15.5207 8.8195C15.5207 8.998 15.5211 9.17649 15.5216 9.35499C15.5217 9.47839 15.5218 9.60179 15.5219 9.7252C15.5221 10.0507 15.5227 10.3762 15.5233 10.7017C15.5239 11.0335 15.5242 11.3654 15.5245 11.6972C15.5251 12.3489 15.5261 13.0006 15.5273 13.6522C15.6561 13.5789 15.7849 13.5056 15.9137 13.4322C15.9675 13.4015 15.9675 13.4015 16.0225 13.3702C16.3915 13.1598 16.7542 12.9398 17.1167 12.7184C17.1871 12.6755 17.2576 12.6326 17.3281 12.5897C17.4743 12.5006 17.6205 12.4116 17.7666 12.3225C18.095 12.1223 18.4236 11.9227 18.7523 11.7231C18.8521 11.6625 18.9518 11.6019 19.0516 11.5413C19.1144 11.5031 19.1772 11.465 19.2419 11.4257C19.3002 11.3887 19.3585 11.3518 19.4186 11.3138C19.5609 11.2268 19.7016 11.1591 19.8564 11.0972C20.1054 10.9895 20.3319 10.8757 20.5078 10.664C20.6611 10.2712 20.6015 9.81975 20.5808 9.40763C20.5779 9.28491 20.5753 9.16217 20.5731 9.03943C20.5663 8.71759 20.5542 8.39617 20.541 8.07454C20.5284 7.74586 20.5209 7.41707 20.5129 7.08826C20.4966 6.44401 20.4747 5.80009 20.4492 5.15615C20.3106 5.15615 20.1521 5.30493 20.0354 5.37954ZM13.4831 14.6174C13.4125 14.665 13.4125 14.665 13.3406 14.7136C13.2894 14.7486 13.2382 14.7835 13.1854 14.8195C13.1322 14.8556 13.0789 14.8916 13.024 14.9288C12.8524 15.045 12.6811 15.1616 12.5098 15.2782C12.3423 15.3919 12.1748 15.5054 12.0073 15.6189C11.8969 15.6938 11.7865 15.7687 11.6762 15.8437C11.4105 16.0242 11.1441 16.2036 10.8758 16.3804C10.8267 16.4128 10.7776 16.4452 10.727 16.4786C10.6347 16.5393 10.5423 16.5998 10.4498 16.6601C10.2297 16.7929 10.2297 16.7929 10.0781 16.9921C10.1247 17.0192 10.1712 17.0463 10.2192 17.0742C10.6314 17.3144 11.043 17.5553 11.4539 17.7976C11.6177 17.8943 11.7816 17.9907 11.946 18.0863C12.0771 18.1625 12.2075 18.2399 12.3376 18.3178C12.3737 18.3384 12.4098 18.359 12.447 18.3802C12.698 18.5332 12.8514 18.7094 12.9492 18.9843C12.9845 19.2539 12.9847 19.5218 12.9849 19.7934C12.9858 19.8621 12.9867 19.9308 12.9877 20.0015C12.9908 20.2569 12.9918 20.5123 12.9931 20.7677C12.998 21.3393 13.0028 21.911 13.0078 22.4999C14.3226 22.4999 15.6375 22.4999 16.9922 22.4999C17.0022 21.3614 17.0022 21.3614 17.0096 20.2229C17.0113 20.0797 17.0132 19.9365 17.0151 19.7934C17.0151 19.7196 17.0152 19.6458 17.0153 19.5697C17.0218 19.1698 17.0297 18.8907 17.2851 18.5741C17.4465 18.4454 17.4465 18.4454 17.6319 18.3368C17.6653 18.3168 17.6988 18.2968 17.7332 18.2762C17.8409 18.2122 17.9493 18.1496 18.0578 18.0871C18.1321 18.0433 18.2063 17.9994 18.2804 17.9555C18.4619 17.8481 18.644 17.7419 18.8263 17.6359C18.9698 17.5524 19.1127 17.4677 19.2556 17.383C19.4771 17.2518 19.6992 17.1215 19.9219 16.9921C19.6691 16.7132 19.3778 16.5212 19.0631 16.3173C18.9806 16.2633 18.9806 16.2633 18.8964 16.2081C18.7209 16.0931 18.545 15.9786 18.3691 15.8642C18.1954 15.7507 18.0217 15.6372 17.8481 15.5235C17.736 15.4502 17.6238 15.3771 17.5115 15.3041C17.2735 15.1489 17.0376 14.9929 16.8088 14.8242C16.7738 14.7986 16.7388 14.773 16.7027 14.7466C16.6137 14.6807 16.5258 14.6135 16.4379 14.5461C16.2916 14.4537 16.2916 14.4537 16.1318 14.513C15.9852 14.5959 15.8423 14.6836 15.6994 14.7728C15.3425 14.9656 15.0481 15.0338 14.6484 14.9413C14.4176 14.8407 14.2058 14.711 13.9943 14.5751C13.7552 14.4275 13.7023 14.4685 13.4831 14.6174ZM6.09511 16.2519C6.04259 16.2827 6.04259 16.2827 5.98902 16.3141C5.87484 16.3811 5.76089 16.4485 5.64696 16.516C5.56846 16.5623 5.48996 16.6085 5.41145 16.6548C4.98325 16.9075 4.55746 17.1634 4.1375 17.4297C3.84158 17.6172 3.54179 17.7977 3.24095 17.9772C2.62496 18.3448 2.01515 18.7222 1.40624 19.1015C1.62029 19.2809 1.84358 19.4292 2.08441 19.5693C2.12147 19.5911 2.15854 19.613 2.19672 19.6354C2.27626 19.6823 2.35586 19.729 2.4355 19.7757C2.6477 19.9 2.85942 20.0252 3.07112 20.1504C3.11386 20.1757 3.1566 20.201 3.20064 20.227C3.59268 20.4592 3.98118 20.6968 4.36888 20.9362C4.46062 20.9922 4.46062 20.9922 4.5542 21.0493C4.86431 21.2393 5.16966 21.4338 5.47095 21.6375C5.53137 21.6772 5.59179 21.7169 5.65404 21.7578C5.76806 21.8329 5.88091 21.9098 5.99224 21.9888C6.26829 22.1735 6.26829 22.1735 6.58685 22.1781C6.74557 22.1021 6.88538 22.0125 7.03124 21.914C7.15261 21.8418 7.27416 21.77 7.39584 21.6984C7.49488 21.6378 7.59391 21.5773 7.69275 21.5165C7.83645 21.428 7.98047 21.3401 8.12448 21.2522C8.19864 21.2069 8.27279 21.1615 8.34693 21.1162C8.70184 20.8992 9.05834 20.6848 9.41527 20.4711C9.50319 20.4184 9.50319 20.4184 9.59288 20.3647C9.71191 20.2934 9.83095 20.2221 9.94999 20.1508C10.287 19.9489 10.6238 19.7467 10.9607 19.5446C11.0847 19.4702 11.2086 19.3958 11.3326 19.3214C11.3847 19.2902 11.4367 19.259 11.4903 19.2268C11.527 19.2048 11.5637 19.1827 11.6015 19.1601C11.4445 18.9804 11.2496 18.871 11.0458 18.7524C11.0081 18.7302 10.9704 18.708 10.9316 18.6851C10.8506 18.6373 10.7695 18.5897 10.6883 18.5422C10.4736 18.4164 10.2594 18.2898 10.0452 18.1633C10.0024 18.1381 9.95961 18.1128 9.91555 18.0868C9.56271 17.8786 9.21189 17.6672 8.86229 17.4535C8.81048 17.4219 8.75867 17.3903 8.70529 17.3577C8.46616 17.2117 8.2272 17.0655 7.98839 16.919C7.7984 16.8024 7.60825 16.6861 7.41802 16.5699C7.3437 16.5245 7.26943 16.4789 7.19522 16.4333C7.0921 16.3698 6.98879 16.3067 6.88544 16.2436C6.8259 16.2071 6.76635 16.1706 6.70501 16.133C6.44615 15.9906 6.33719 16.1095 6.09511 16.2519ZM23.0347 16.2853C22.9914 16.311 22.9482 16.3367 22.9037 16.3631C22.3097 16.7171 21.7195 17.0774 21.1289 17.4369C20.8718 17.5935 20.6145 17.7497 20.3572 17.9058C20.3208 17.9278 20.2845 17.9499 20.247 17.9726C20.0737 18.0777 19.9004 18.1828 19.7271 18.2879C19.2831 18.5574 18.8404 18.8288 18.3984 19.1015C18.6234 19.2851 18.8536 19.4373 19.1052 19.5812C19.5604 19.8453 20.0108 20.1167 20.4602 20.3905C20.91 20.6645 21.3603 20.9377 21.8122 21.2083C21.8521 21.2322 21.892 21.2561 21.9331 21.2807C22.1264 21.3965 22.3198 21.5121 22.5133 21.6275C22.5838 21.6697 22.6543 21.7118 22.7247 21.754C22.7861 21.7906 22.8475 21.8272 22.9107 21.8649C23.0859 21.9726 23.0859 21.9726 23.266 22.1107C23.4275 22.2262 23.4275 22.2262 23.5858 22.1749C23.6336 22.1468 23.6813 22.1187 23.7305 22.0897C23.7813 22.061 23.8322 22.0323 23.8846 22.0027C23.9398 21.9686 23.9951 21.9346 24.052 21.8995C24.1155 21.8607 24.1789 21.8219 24.2443 21.7819C24.278 21.7611 24.3117 21.7403 24.3465 21.7189C24.5296 21.6061 24.7132 21.4941 24.8968 21.382C24.9546 21.3467 24.9546 21.3467 25.0136 21.3107C25.4491 21.0453 25.8879 20.7856 26.3269 20.526C27.0862 20.0767 27.8416 19.6214 28.5937 19.1601C28.4425 18.9901 28.2689 18.887 28.0739 18.7714C28.0396 18.751 28.0054 18.7305 27.97 18.7095C27.8959 18.6653 27.8216 18.6212 27.7473 18.5773C27.5884 18.4832 27.4297 18.3886 27.2711 18.294C27.1889 18.245 27.1068 18.1961 27.0247 18.1472C26.656 17.9276 26.289 17.7052 25.9225 17.4821C25.6556 17.3195 25.3883 17.1574 25.1211 16.9952C25.0166 16.9317 24.9121 16.8682 24.8077 16.8047C24.6026 16.6801 24.3972 16.5559 24.1919 16.4318C24.098 16.3747 24.098 16.3747 24.0023 16.3164C23.9451 16.2819 23.8878 16.2474 23.8289 16.2118C23.7786 16.1813 23.7282 16.1509 23.6764 16.1195C23.4227 15.9843 23.2566 16.1522 23.0347 16.2853ZM0.996079 20.1561C0.995331 20.3339 0.994658 20.5117 0.99402 20.6894C0.993782 20.7459 0.993545 20.8023 0.993301 20.8605C0.992221 21.178 0.992694 21.4955 0.995693 21.813C1.00065 22.4101 1.00217 23.0029 0.961756 23.5989C0.817075 24.8166 0.817075 24.8166 1.19778 25.9193C1.53366 26.2393 1.96785 26.4125 2.39564 26.5749C2.79006 26.7249 3.13331 26.9329 3.48767 27.1597C3.65425 27.2656 3.8233 27.3674 3.99214 27.4696C4.0581 27.5098 4.12406 27.55 4.19201 27.5914C4.53503 27.8004 4.87837 28.0088 5.22215 28.2165C5.28471 28.2545 5.34727 28.2926 5.41173 28.3318C5.46896 28.3663 5.52619 28.4009 5.58516 28.4364C5.63547 28.4669 5.68579 28.4974 5.73762 28.5288C5.85361 28.6028 5.85361 28.6028 5.97655 28.5936C5.98877 27.8893 5.99814 27.1849 6.00387 26.4804C6.00662 26.1533 6.01035 25.8262 6.01633 25.4991C6.02206 25.1834 6.02521 24.8677 6.02658 24.552C6.02755 24.4316 6.02946 24.3112 6.0323 24.1908C6.07679 23.5619 6.07679 23.5619 5.86669 22.9974C5.72972 22.9043 5.60512 22.8472 5.4492 22.7929C5.39367 22.7583 5.33813 22.7237 5.2809 22.6881C5.23274 22.6594 5.18457 22.6308 5.13495 22.6013C5.079 22.5679 5.02306 22.5345 4.96542 22.5001C4.90633 22.465 4.84724 22.4299 4.78636 22.3937C4.65618 22.316 4.52602 22.2383 4.39589 22.1605C4.36236 22.1404 4.32883 22.1204 4.29429 22.0998C3.94734 21.8923 3.60205 21.682 3.25679 21.4718C2.70633 21.1366 2.15477 20.8033 1.60033 20.4748C1.54567 20.4423 1.49101 20.4098 1.43469 20.3763C1.38519 20.3471 1.3357 20.3179 1.2847 20.2878C1.24144 20.2622 1.19819 20.2366 1.15362 20.2103C1.0649 20.1515 1.0649 20.1515 0.996079 20.1561ZM11.6855 20.2836C11.6171 20.3266 11.6171 20.3266 11.5472 20.3704C11.4962 20.4024 11.4453 20.4344 11.3928 20.4674C10.8421 20.8113 10.2855 21.1442 9.72655 21.4745C9.1783 21.7987 8.63114 22.1243 8.08959 22.4596C8.04257 22.4887 7.99555 22.5178 7.94711 22.5477C7.86218 22.6006 7.77799 22.6547 7.69486 22.7104C7.55858 22.7929 7.55858 22.7929 7.42016 22.842C7.23851 22.9201 7.15108 22.9851 7.03124 23.1444C6.92816 23.5424 6.97021 23.9766 6.97974 24.3836C6.98072 24.5066 6.98147 24.6296 6.982 24.7525C6.98401 25.0757 6.98919 25.3987 6.99503 25.7218C7.00043 26.0517 7.00283 26.3816 7.00549 26.7116C7.01114 27.3585 7.02013 28.0054 7.03124 28.6522C7.16004 28.5789 7.28881 28.5056 7.41756 28.4322C7.47145 28.4015 7.47145 28.4015 7.52644 28.3702C7.89536 28.1598 8.25815 27.9398 8.62059 27.7184C8.69097 27.6755 8.76136 27.6326 8.83175 27.5898C8.97786 27.5008 9.12395 27.4118 9.27001 27.3227C9.49198 27.1875 9.71417 27.0526 9.93643 26.9178C9.97274 26.8958 10.0091 26.8737 10.0465 26.851C10.2196 26.7461 10.3927 26.6411 10.5658 26.5361C10.8968 26.3352 11.2276 26.1338 11.5578 25.9315C11.6525 25.8736 11.6525 25.8736 11.7491 25.8145C11.8859 25.7355 11.8859 25.7355 11.9531 25.664C11.9587 25.4928 11.9605 25.3229 11.9598 25.1517C11.9598 25.098 11.9598 25.0443 11.9598 24.9889C11.9597 24.8104 11.9593 24.6319 11.9588 24.4534C11.9587 24.33 11.9586 24.2066 11.9586 24.0832C11.9584 23.7577 11.9578 23.4322 11.9571 23.1067C11.9565 22.7749 11.9563 22.443 11.956 22.1111C11.9553 21.4595 11.9543 20.8078 11.9531 20.1561C11.8495 20.1561 11.7712 20.2296 11.6855 20.2836ZM18.0469 20.1561C18.0346 20.8682 18.0253 21.5802 18.0195 22.2923C18.0168 22.623 18.0131 22.9536 18.0071 23.2842C18.0013 23.6034 17.9982 23.9225 17.9968 24.2416C17.9959 24.3634 17.994 24.4851 17.9911 24.6068C17.9467 25.2391 17.9467 25.2391 18.1531 25.8097C18.2908 25.9037 18.4175 25.9598 18.5742 26.0155C18.646 26.0572 18.7169 26.1005 18.7867 26.1455C18.8552 26.186 18.9239 26.2264 18.9926 26.2666C19.07 26.3123 19.1474 26.3579 19.2247 26.4036C19.2644 26.4269 19.3041 26.4502 19.345 26.4743C19.9363 26.8222 20.5261 27.1722 21.1084 27.5353C21.5159 27.7892 21.9243 28.0413 22.3352 28.2897C22.3854 28.3203 22.4356 28.3509 22.4873 28.3825C22.5334 28.4103 22.5795 28.438 22.627 28.4666C22.6677 28.4912 22.7083 28.5158 22.7502 28.5412C22.8499 28.6026 22.8499 28.6026 22.9687 28.5936C22.981 27.8893 22.9903 27.1849 22.9961 26.4804C22.9988 26.1533 23.0025 25.8262 23.0085 25.4991C23.0143 25.1834 23.0174 24.8677 23.0188 24.552C23.0197 24.4316 23.0216 24.3112 23.0245 24.1908C23.0689 23.5627 23.0689 23.5627 22.8601 22.9982C22.7229 22.905 22.5973 22.848 22.4414 22.7929C22.3811 22.755 22.3209 22.7172 22.2588 22.6783C22.204 22.6451 22.1492 22.6119 22.0928 22.5777C22.0295 22.5393 21.9662 22.5009 21.9009 22.4613C21.8333 22.4205 21.7656 22.3796 21.698 22.3388C21.6264 22.2954 21.5549 22.2521 21.4833 22.2087C20.9119 21.8628 20.3388 21.5195 19.7655 21.1765C19.2918 20.8931 18.8198 20.6075 18.3544 20.3108C18.2113 20.2027 18.2113 20.2027 18.0469 20.1561ZM28.4498 20.4315C28.3926 20.4654 28.3926 20.4654 28.3343 20.5001C28.2094 20.5744 28.0848 20.6491 27.9602 20.7238C27.8738 20.7754 27.7874 20.8269 27.7009 20.8785C27.1922 21.1824 26.6857 21.4899 26.183 21.8037C25.8849 21.9898 25.5855 22.1736 25.285 22.3557C25.2473 22.3786 25.2095 22.4014 25.1706 22.425C24.9831 22.5386 24.7955 22.652 24.6078 22.7653C24.5397 22.8065 24.4715 22.8478 24.4034 22.889C24.3125 22.9439 24.3125 22.9439 24.2197 22.9998C24.0894 23.074 24.0894 23.074 24.0234 23.1444C24.0178 23.3156 24.0161 23.4855 24.0168 23.6567C24.0168 23.7104 24.0168 23.7641 24.0167 23.8195C24.0168 23.998 24.0172 24.1765 24.0177 24.355C24.0178 24.4784 24.0179 24.6018 24.018 24.7252C24.0182 25.0507 24.0188 25.3762 24.0194 25.7017C24.02 26.0335 24.0203 26.3654 24.0206 26.6972C24.0212 27.3489 24.0222 28.0006 24.0234 28.6522C24.1519 28.5792 24.2803 28.506 24.4087 28.4328C24.4445 28.4124 24.4803 28.3921 24.5172 28.3711C24.8619 28.1745 25.2011 27.9696 25.5397 27.7627C25.7181 27.6536 25.8967 27.5449 26.0753 27.4362C26.1107 27.4147 26.146 27.3932 26.1824 27.371C26.4372 27.2158 26.6924 27.0614 26.9489 26.9091C27.042 26.853 27.1342 26.7955 27.2256 26.7366C27.4877 26.5703 27.7316 26.4549 28.0277 26.3598C28.4411 26.2074 28.7745 26.0552 29.0039 25.664C29.2162 24.8809 29.0837 23.9812 29.0284 23.1835C29.0025 22.7995 28.9916 22.4162 28.9856 22.0314C28.9842 21.9412 28.9842 21.9412 28.9827 21.8492C28.9809 21.7315 28.9791 21.6138 28.9774 21.4961C28.9729 21.2233 28.9656 20.9505 28.9581 20.6778C28.9568 20.6305 28.9555 20.5832 28.9542 20.5345C28.9513 20.4279 28.9483 20.3213 28.9453 20.2147C28.7546 20.2147 28.6094 20.3355 28.4498 20.4315Z" fill="#654ADA"/>
</g>
<defs>
<clipPath id="clip0_1_168">
<rect width="30" height="30" fill="white"/>
</clipPath>
</defs>
</svg>
