<svg width="51" height="43" viewBox="0 0 51 43" fill="none" xmlns="http://www.w3.org/2000/svg">
<path d="M16.6269 5.9173C17.7202 4.03071 17.0714 1.61834 15.1777 0.529112C13.2841 -0.560112 10.8627 0.0862819 9.76938 1.97287L0.531253 17.9141C-0.562049 19.8007 0.0867652 22.2131 1.98042 23.3023C3.87407 24.3915 6.29548 23.7451 7.38878 21.8585L16.6269 5.9173Z" fill="url(#paint0_linear_1_1488)"/>
<path d="M27.5523 5.95017C28.6456 4.06358 27.9968 1.65121 26.1032 0.561982C24.2095 -0.527242 21.7881 0.119152 20.6948 2.00574L11.4567 17.947C10.3634 19.8336 11.0122 22.2459 12.9058 23.3352C14.7995 24.4244 17.2209 23.778 18.3142 21.8914L27.5523 5.95017Z" fill="url(#paint1_linear_1_1488)"/>
<path d="M49.6578 5.95018C50.7511 4.06359 50.1023 1.65121 48.2087 0.561982C46.315 -0.527242 43.8936 0.119153 42.8003 2.00574L23.0142 36.1484C21.9209 38.035 22.5697 40.4474 24.4634 41.5366C26.3571 42.6258 28.7785 41.9794 29.8718 40.0928L49.6578 5.95018Z" fill="url(#paint2_linear_1_1488)"/>
<path d="M38.5061 5.95017C39.5994 4.06358 38.9506 1.65121 37.0569 0.561982C35.1633 -0.527242 32.7419 0.119153 31.6486 2.00574L27.0109 10.0085C25.9176 11.8951 26.5664 14.3075 28.46 15.3967C30.3537 16.4859 32.7751 15.8395 33.8684 13.9529L38.5061 5.95017Z" fill="url(#paint3_linear_1_1488)"/>
<path d="M29.867 19.824C29.867 22.0024 28.0944 23.7684 25.9078 23.7684C23.7212 23.7684 21.9486 22.0024 21.9486 19.824C21.9486 17.6455 23.7212 15.8795 25.9078 15.8795C28.0944 15.8795 29.867 17.6455 29.867 19.824Z" fill="url(#paint4_linear_1_1488)"/>
<defs>
<linearGradient id="paint0_linear_1_1488" x1="0.00336549" y1="4.47354" x2="31.2414" y2="42.1919" gradientUnits="userSpaceOnUse">
<stop stop-color="#7A73E4"/>
<stop offset="1" stop-color="#524ADF"/>
</linearGradient>
<linearGradient id="paint1_linear_1_1488" x1="0.00336549" y1="4.47354" x2="31.2414" y2="42.1919" gradientUnits="userSpaceOnUse">
<stop stop-color="#7A73E4"/>
<stop offset="1" stop-color="#524ADF"/>
</linearGradient>
<linearGradient id="paint2_linear_1_1488" x1="0.00336549" y1="4.47354" x2="31.2414" y2="42.1919" gradientUnits="userSpaceOnUse">
<stop stop-color="#7A73E4"/>
<stop offset="1" stop-color="#524ADF"/>
</linearGradient>
<linearGradient id="paint3_linear_1_1488" x1="0.00336549" y1="4.47354" x2="31.2414" y2="42.1919" gradientUnits="userSpaceOnUse">
<stop stop-color="#7A73E4"/>
<stop offset="1" stop-color="#524ADF"/>
</linearGradient>
<linearGradient id="paint4_linear_1_1488" x1="0.00336549" y1="4.47354" x2="31.2414" y2="42.1919" gradientUnits="userSpaceOnUse">
<stop stop-color="#7A73E4"/>
<stop offset="1" stop-color="#524ADF"/>
</linearGradient>
</defs>
</svg>
