<svg width="103" height="19" viewBox="0 0 103 19" fill="none" xmlns="http://www.w3.org/2000/svg">
<path d="M20.2817 18.7793C18.3926 18.7793 17.0282 18.3354 16.1886 17.4475C15.3665 16.5418 14.9555 15.0767 14.9555 13.0523V3.62268L9.20941 17.5807H8.34357L1.31188 3.08993V17.5807H0V0H3.20099L9.5505 13.0789L14.9292 0H18.3663V13.0523C18.3663 14.7216 18.5063 15.9469 18.7861 16.7283C19.066 17.5096 19.5645 17.9713 20.2817 18.1134V18.7793Z" fill="#6058E1"/>
<path d="M26.1659 3.77877C25.5649 3.77877 25.0975 3.56884 24.7637 3.14898C24.4465 2.72911 24.2879 2.21382 24.2879 1.60311C24.2879 1.10691 24.4131 0.715675 24.6635 0.429405C24.9306 0.143135 25.2644 0 25.6651 0C26.266 0 26.7251 0.209932 27.0422 0.629795C27.3761 1.04966 27.543 1.56494 27.543 2.17565C27.543 2.67186 27.4095 3.06309 27.1424 3.34936C26.892 3.63563 26.5665 3.77877 26.1659 3.77877ZM24.5383 9.04615C24.5383 8.07283 24.4215 7.35715 24.1878 6.89912C23.9541 6.422 23.4867 6.18344 22.7856 6.18344H22.5352V5.32463H25.5399C26.1408 5.32463 26.5999 5.43914 26.917 5.66815C27.2342 5.89717 27.4595 6.27887 27.5931 6.81324C27.7266 7.32852 27.7934 8.07283 27.7934 9.04615V18.7793H24.5383V9.04615Z" fill="#6058E1"/>
<path d="M35.6015 1.28041H33.7757C32.8157 1.28041 32.0785 1.54598 31.5642 2.07711C31.067 2.60824 30.8184 3.48082 30.8184 4.69484H30.0469V2.27628C30.0469 0.758761 30.7755 0 32.2328 0H44.3192V1.28041H38.9446V18.7793H35.6015V1.28041Z" fill="#6058E1"/>
<path d="M60.5975 18.7793C59.6539 18.7793 58.7962 18.4804 58.0242 17.8824C57.2521 17.2658 56.4458 16.21 55.6052 14.7152L53.0319 10.0343H52.0025V18.4991H48.6314V3.64375C48.6314 2.69077 48.5113 1.99005 48.2712 1.54159C48.031 1.07444 47.5506 0.840865 46.8301 0.840865H46.5727V0H53.6752C55.4594 0 57.0634 0.355032 58.4874 1.0651C59.9113 1.77516 60.6232 3.13923 60.6232 5.15731C60.6232 7.49305 59.2336 9.04398 56.4544 9.8101L59.1564 14.7152C60.1686 16.5651 61.2323 17.5928 62.3474 17.7983V18.4991C62.2101 18.5738 61.9614 18.6392 61.6011 18.6953C61.2408 18.7513 60.9063 18.7793 60.5975 18.7793ZM53.5465 8.91318C54.5072 8.91318 55.3221 8.60486 55.9912 7.98823C56.6774 7.35291 57.0205 6.36255 57.0205 5.01717C57.0205 3.69047 56.686 2.70946 56.0169 2.07414C55.3479 1.43882 54.5673 1.12116 53.6752 1.12116C53.1777 1.12116 52.7917 1.15853 52.5172 1.23327L52.0025 1.31736V8.91318H53.5465Z" fill="#6058E1"/>
<path d="M81.3336 18.7793C80.2001 18.7793 79.1746 18.5342 78.257 18.044C77.3394 17.5349 76.5927 16.5545 76.0169 15.1027L75.3962 13.5189H68.2173L66.0043 18.6662H64.6009L72.5624 0H73.7769L79.8223 15.1027C80.506 16.8562 81.4416 17.7989 82.6291 17.9309V18.6379C82.3052 18.7322 81.8734 18.7793 81.3336 18.7793ZM68.7841 12.2462H74.8834L71.9147 4.86453L68.7841 12.2462Z" fill="#6058E1"/>
<path d="M101.615 18.7793C100.482 18.7793 99.4563 18.5342 98.5387 18.044C97.6211 17.5349 96.8744 16.5545 96.2986 15.1027L95.6779 13.5189H88.499L86.286 18.6662H84.8826L92.8441 0H94.0586L100.104 15.1027C100.788 16.8562 101.723 17.7989 102.911 17.9309V18.6379C102.587 18.7322 102.155 18.7793 101.615 18.7793ZM89.0658 12.2462H95.1651L92.1964 4.86453L89.0658 12.2462Z" fill="#6058E1"/>
</svg>
