<svg width="192" height="139" viewBox="0 0 192 139" fill="none" xmlns="http://www.w3.org/2000/svg">
<g filter="url(#filter0_d_1_457)">
<path d="M112.756 52.4516C103.321 45.744 88.0705 45.744 78.6965 52.4518C78.6522 52.4835 78.6094 52.5141 78.5666 52.5469C72.5309 56.9294 70.476 63.0567 72.3868 68.6385C73.4028 71.6098 75.5431 74.428 78.8045 76.7466C88.2414 83.4553 103.495 83.4553 112.87 76.7464C122.245 70.0386 122.193 59.1603 112.756 52.4516Z" fill="white"/>
<path d="M117.15 49.3077C105.29 40.8761 86.0573 40.8763 74.2741 49.308C73.9578 49.5344 73.6492 49.7638 73.3513 49.9967L73.9535 50.2919C74.2223 50.0819 74.5002 49.8764 74.786 49.672C86.2866 41.4426 105.065 41.4424 116.641 49.6718C128.22 57.9034 128.281 71.2969 116.781 79.5264C105.277 87.7581 86.4983 87.7583 74.9194 79.5267C70.6722 76.5074 67.9731 72.7927 66.8303 68.8924L66.1023 68.9241C67.2626 72.948 70.0344 76.7795 74.4108 79.8907C86.2726 88.3233 105.508 88.3233 117.293 79.8904C129.076 71.4585 129.012 57.7403 117.15 49.3077Z" fill="white"/>
<path d="M121.432 46.2433C107.198 36.1238 84.1059 36.124 69.964 46.2436C69.3834 46.6591 68.8259 47.0865 68.293 47.5226L69.8966 48.3054C70.3564 47.9349 70.8343 47.5707 71.3309 47.2155C84.7242 37.6315 106.593 37.6315 120.074 47.2152C133.558 56.8012 133.629 72.3986 120.236 81.9826C106.84 91.5687 84.9709 91.5689 71.4867 81.9829C66.3646 78.3415 63.1805 73.8333 61.9328 69.1152L59.9958 69.2025C61.2834 74.2433 64.6605 79.0674 70.1286 82.9546C84.3662 93.0762 107.458 93.0761 121.603 82.9543C135.745 72.8347 135.67 56.3649 121.432 46.2433Z" fill="white"/>
<path d="M130.193 39.9742C111.095 26.3971 80.1191 26.3973 61.145 39.9745C42.1677 53.5541 42.2687 75.6471 61.367 89.2242C69.4046 94.9382 79.5448 98.2482 90.0081 99.1512L89.9073 96.2008C80.5291 95.3023 71.4678 92.2885 64.2529 87.1593C46.757 74.7214 46.6643 54.48 64.0498 42.0396C81.432 29.6013 109.812 29.6013 127.308 42.0393C138.644 50.0981 142.676 61.4287 139.385 71.7921L143.264 72.7913C147.056 61.3872 142.69 48.8583 130.193 39.9742Z" fill="white"/>
<path d="M58.228 91.4731C37.3845 76.6553 37.2727 52.5453 57.9808 37.7272C78.6889 22.9091 112.494 22.909 133.338 37.7268C154.182 52.5446 154.29 76.6546 133.582 91.4727C112.874 106.291 79.0715 106.291 58.228 91.4731ZM134.016 37.2414C123.736 29.9337 110.095 25.9087 95.6052 25.9087C81.115 25.9088 67.5107 29.934 57.2979 37.2419C47.0851 44.5498 41.4862 54.266 41.5348 64.5997C41.5821 74.9346 47.2684 84.6518 57.5479 91.9595C67.8274 99.2673 81.4701 103.291 95.9603 103.291C110.448 103.291 124.053 99.2672 134.266 91.9591C144.479 84.6512 150.076 74.9339 150.031 64.6002C149.984 54.2654 144.296 44.5493 134.016 37.2414Z" fill="white"/>
<path d="M164.865 47.2185L163.205 47.5706C170.593 62.4005 168.118 79.1774 155.757 92.6509L157.144 93.356C164.953 84.8948 169.121 74.9787 169.072 64.599C169.044 58.5864 167.603 52.7281 164.865 47.2185ZM144.837 25.8744C131.291 17.1181 113.921 12.3269 95.5433 12.3269C75.9675 12.3271 57.5861 17.7635 43.7893 27.636C29.9895 37.5107 22.4274 50.6388 22.4927 64.5996C22.555 78.5628 30.2386 91.6896 44.1256 101.562C58.0157 111.436 76.4453 116.874 96.0211 116.871C107.743 116.874 119.033 114.923 129.171 111.238L128.326 110.169C101.508 119.85 67.8 116.697 45.3142 100.711C17.3049 80.7991 17.1568 48.3997 44.9856 28.4861C71.968 9.17837 115.496 8.59111 143.647 26.7256L144.837 25.8744Z" fill="white"/>
<path d="M155.063 22.1782C147.01 16.4534 137.625 12.0194 127.178 9.0013C117.089 6.08693 106.433 4.60898 95.5078 4.60913C84.5826 4.60913 73.9417 6.08617 63.8775 9.00161C53.4581 12.0199 44.1135 16.4539 36.113 22.1789C28.1092 27.906 21.9262 34.5833 17.7269 42.0256C13.672 49.2132 11.6347 56.8086 11.6717 64.5997C11.7075 72.3919 13.8128 79.9882 17.9334 87.1737C18.2008 87.6405 18.4757 88.1039 18.7582 88.5641L20.3842 88.1814C7.11365 66.6569 12.7346 40.6141 37.3094 23.0292C69.341 0.108465 121.634 0.108173 153.875 23.0286C186.118 45.9502 186.288 83.2471 154.257 106.168C134.325 120.431 106.547 125.821 80.6379 122.332L80.2265 123.53C85.4148 124.235 90.7044 124.591 96.0565 124.589C106.98 124.59 117.623 123.112 127.688 120.198C138.109 117.178 147.449 112.746 155.453 107.018C163.454 101.293 169.641 94.6151 173.839 87.1738C177.892 79.9851 179.928 72.3908 179.893 64.5988C179.859 56.8077 177.752 49.2124 173.631 42.0247C169.367 34.5845 163.119 27.9052 155.063 22.1782Z" fill="white"/>
<path d="M160.468 18.3104C151.68 12.063 141.443 7.22346 130.041 3.9321C123.683 2.09447 117.115 0.781731 110.403 0L110.524 0.393546C128.68 2.53722 146.116 8.59108 160.129 18.5531C195.844 43.9431 196.033 85.2562 160.553 110.644C125.071 136.035 67.1466 136.035 31.4319 110.645C-4.27983 85.2574 -4.46866 43.9442 31.0139 18.5539C35.2701 15.5084 39.8529 12.8278 44.6796 10.5147L44.566 10.1398C39.6033 12.5131 34.9608 15.2428 30.6726 18.3113C21.9386 24.561 15.1866 31.8472 10.6088 39.9684C6.18448 47.8108 3.96313 56.0992 4.00046 64.601C4.03929 73.1015 6.33944 81.3899 10.8339 89.2334C15.4876 97.3535 22.3046 104.641 31.0926 110.888C39.8837 117.138 50.1213 121.975 61.5229 125.269C72.5346 128.449 84.1614 130.061 96.0812 130.062C108.001 130.061 119.613 128.448 130.596 125.268C141.966 121.975 152.161 117.137 160.894 110.887C169.625 104.64 176.376 97.3526 180.955 89.2325C185.378 81.3889 187.602 73.1004 187.564 64.5999C187.523 56.0983 185.226 47.8099 180.73 39.9674C176.076 31.8448 169.259 24.5601 160.468 18.3104Z" fill="white"/>
</g>
<defs>
<filter id="filter0_d_1_457" x="0" y="0" width="191.564" height="138.062" filterUnits="userSpaceOnUse" color-interpolation-filters="sRGB">
<feFlood flood-opacity="0" result="BackgroundImageFix"/>
<feColorMatrix in="SourceAlpha" type="matrix" values="0 0 0 0 0 0 0 0 0 0 0 0 0 0 0 0 0 0 127 0" result="hardAlpha"/>
<feOffset dy="4"/>
<feGaussianBlur stdDeviation="2"/>
<feComposite in2="hardAlpha" operator="out"/>
<feColorMatrix type="matrix" values="0 0 0 0 0 0 0 0 0 0 0 0 0 0 0 0 0 0 0.25 0"/>
<feBlend mode="normal" in2="BackgroundImageFix" result="effect1_dropShadow_1_457"/>
<feBlend mode="normal" in="SourceGraphic" in2="effect1_dropShadow_1_457" result="shape"/>
</filter>
</defs>
</svg>
