<svg width="38" height="38" viewBox="0 0 38 38" fill="none" xmlns="http://www.w3.org/2000/svg">
<circle cx="19" cy="19" r="19" fill="white"/>
<circle cx="19" cy="19" r="18.5" stroke="#5B3EDA" stroke-opacity="0.28"/>
<path d="M28 28L22.803 22.803M22.803 22.803C24.2096 21.3964 24.9998 19.4887 24.9998 17.4995C24.9998 15.5103 24.2096 13.6026 22.803 12.196C21.3965 10.7894 19.4887 9.99922 17.4995 9.99922C15.5104 9.99922 13.6026 10.7894 12.196 12.196C10.7895 13.6026 9.99927 15.5103 9.99927 17.4995C9.99927 19.4887 10.7895 21.3964 12.196 22.803C13.6026 24.2096 15.5104 24.9998 17.4995 24.9998C19.4887 24.9998 21.3965 24.2096 22.803 22.803Z" stroke="black" stroke-width="1.5" stroke-linecap="round" stroke-linejoin="round"/>
</svg>
