<svg width="42" height="14" viewBox="0 0 42 14" fill="none" xmlns="http://www.w3.org/2000/svg">
<path d="M6.35606 3.164C6.28139 2.44533 6.02006 1.92733 5.57206 1.61C5.13339 1.28333 4.56872 1.12 3.87806 1.12C3.59806 1.12 3.32272 1.148 3.05206 1.204C2.78139 1.26 2.53872 1.35333 2.32406 1.484C2.11872 1.61467 1.95072 1.792 1.82006 2.016C1.69872 2.23067 1.63806 2.50133 1.63806 2.828C1.63806 3.136 1.72672 3.388 1.90406 3.584C2.09072 3.77067 2.33339 3.92467 2.63206 4.046C2.94006 4.16733 3.28539 4.27 3.66806 4.354C4.05072 4.42867 4.43806 4.51267 4.83006 4.606C5.23139 4.69933 5.62339 4.81133 6.00606 4.942C6.38872 5.06333 6.72939 5.23133 7.02806 5.446C7.33606 5.66067 7.57872 5.93133 7.75606 6.258C7.94272 6.58467 8.03606 6.99533 8.03606 7.49C8.03606 8.022 7.91472 8.47933 7.67206 8.862C7.43872 9.23533 7.13539 9.54333 6.76206 9.786C6.38872 10.0193 5.96872 10.1873 5.50206 10.29C5.04472 10.402 4.58739 10.458 4.13006 10.458C3.57006 10.458 3.03806 10.388 2.53406 10.248C2.03939 10.108 1.60072 9.898 1.21806 9.618C0.844722 9.32867 0.546056 8.96467 0.322056 8.526C0.107389 8.078 5.56707e-05 7.55067 5.56707e-05 6.944H1.26006C1.26006 7.364 1.33939 7.728 1.49806 8.036C1.66606 8.33467 1.88072 8.582 2.14206 8.778C2.41272 8.974 2.72539 9.11867 3.08006 9.212C3.43472 9.30533 3.79872 9.352 4.17206 9.352C4.47072 9.352 4.76939 9.324 5.06806 9.268C5.37606 9.212 5.65139 9.11867 5.89406 8.988C6.13672 8.848 6.33272 8.66133 6.48206 8.428C6.63139 8.19467 6.70606 7.896 6.70606 7.532C6.70606 7.18667 6.61272 6.90667 6.42606 6.692C6.24872 6.47733 6.00606 6.30467 5.69806 6.174C5.39939 6.034 5.05872 5.922 4.67606 5.838C4.29339 5.754 3.90139 5.67 3.50006 5.586C3.10806 5.49267 2.72072 5.39 2.33806 5.278C1.95539 5.15667 1.61006 5.00267 1.30206 4.816C1.00339 4.62 0.760722 4.37267 0.574056 4.074C0.396722 3.766 0.308056 3.38333 0.308056 2.926C0.308056 2.422 0.410722 1.988 0.616056 1.624C0.821389 1.25067 1.09206 0.947332 1.42806 0.713999C1.77339 0.471332 2.16072 0.293999 2.59006 0.181998C3.02872 0.0606656 3.47672 -8.34465e-07 3.93406 -8.34465e-07C4.44739 -8.34465e-07 4.92339 0.0606656 5.36206 0.181998C5.80072 0.303332 6.18339 0.494665 6.51006 0.755999C6.84606 1.01733 7.10739 1.34867 7.29406 1.75C7.49006 2.142 7.59739 2.61333 7.61606 3.164H6.35606ZM10.7162 1.694H9.52618V0.237999H10.7162V1.694ZM9.52618 2.996H10.7162V10.234H9.52618V2.996ZM18.8037 9.618C18.8037 10.8033 18.533 11.69 17.9917 12.278C17.4504 12.866 16.601 13.16 15.4437 13.16C15.1077 13.16 14.7624 13.1227 14.4077 13.048C14.0624 12.9733 13.745 12.852 13.4557 12.684C13.1757 12.516 12.9424 12.2967 12.7557 12.026C12.569 11.7553 12.4664 11.424 12.4477 11.032H13.6377C13.647 11.2467 13.7124 11.4287 13.8337 11.578C13.9644 11.7273 14.1184 11.8487 14.2957 11.942C14.4824 12.0353 14.683 12.1007 14.8977 12.138C15.1124 12.1847 15.3177 12.208 15.5137 12.208C15.9057 12.208 16.237 12.138 16.5077 11.998C16.7784 11.8673 17.0024 11.6807 17.1797 11.438C17.357 11.2047 17.483 10.92 17.5577 10.584C17.6417 10.248 17.6837 9.87933 17.6837 9.478V9.002H17.6557C17.4504 9.45 17.1377 9.78133 16.7177 9.996C16.307 10.2013 15.8684 10.304 15.4017 10.304C14.8604 10.304 14.389 10.206 13.9877 10.01C13.5864 9.814 13.2504 9.55267 12.9797 9.226C12.709 8.89 12.5037 8.50267 12.3637 8.064C12.233 7.616 12.1677 7.14467 12.1677 6.65C12.1677 6.22067 12.2237 5.782 12.3357 5.334C12.4477 4.87667 12.6344 4.466 12.8957 4.102C13.157 3.72867 13.5024 3.42533 13.9317 3.192C14.361 2.94933 14.8884 2.828 15.5137 2.828C15.971 2.828 16.391 2.93067 16.7737 3.136C17.1564 3.332 17.455 3.63067 17.6697 4.032H17.6837V2.996H18.8037V9.618ZM15.4717 9.268C15.8637 9.268 16.195 9.18867 16.4657 9.03C16.7457 8.862 16.9697 8.64733 17.1377 8.386C17.3057 8.11533 17.427 7.812 17.5017 7.476C17.5857 7.14 17.6277 6.804 17.6277 6.468C17.6277 6.15067 17.5904 5.838 17.5157 5.53C17.441 5.222 17.3197 4.94667 17.1517 4.704C16.993 4.452 16.783 4.25133 16.5217 4.102C16.2604 3.95267 15.943 3.878 15.5697 3.878C15.187 3.878 14.8604 3.95267 14.5897 4.102C14.319 4.242 14.095 4.43333 13.9177 4.676C13.7497 4.91867 13.6237 5.19867 13.5397 5.516C13.465 5.83333 13.4277 6.16467 13.4277 6.51C13.4277 6.83667 13.4604 7.16333 13.5257 7.49C13.591 7.81667 13.703 8.11533 13.8617 8.386C14.0204 8.64733 14.2304 8.862 14.4917 9.03C14.753 9.18867 15.0797 9.268 15.4717 9.268ZM20.5988 2.996H21.7188V4.144H21.7468C22.2414 3.26667 23.0254 2.828 24.0988 2.828C24.5748 2.828 24.9714 2.89333 25.2888 3.024C25.6061 3.15467 25.8628 3.33667 26.0588 3.57C26.2548 3.80333 26.3901 4.08333 26.4648 4.41C26.5488 4.72733 26.5908 5.082 26.5908 5.474V10.234H25.4008V5.334C25.4008 4.886 25.2701 4.53133 25.0088 4.27C24.7474 4.00867 24.3881 3.878 23.9308 3.878C23.5668 3.878 23.2494 3.934 22.9788 4.046C22.7174 4.158 22.4981 4.31667 22.3208 4.522C22.1434 4.72733 22.0081 4.97 21.9148 5.25C21.8308 5.52067 21.7888 5.81933 21.7888 6.146V10.234H20.5988V2.996ZM33.5345 1.694H32.3445V0.237999H33.5345V1.694ZM32.3445 2.996H33.5345V10.234H32.3445V2.996ZM35.3781 2.996H36.4981V4.144H36.5261C37.0207 3.26667 37.8047 2.828 38.8781 2.828C39.3541 2.828 39.7507 2.89333 40.0681 3.024C40.3854 3.15467 40.6421 3.33667 40.8381 3.57C41.0341 3.80333 41.1694 4.08333 41.2441 4.41C41.3281 4.72733 41.3701 5.082 41.3701 5.474V10.234H40.1801V5.334C40.1801 4.886 40.0494 4.53133 39.7881 4.27C39.5267 4.00867 39.1674 3.878 38.7101 3.878C38.3461 3.878 38.0287 3.934 37.7581 4.046C37.4967 4.158 37.2774 4.31667 37.1001 4.522C36.9227 4.72733 36.7874 4.97 36.6941 5.25C36.6101 5.52067 36.5681 5.81933 36.5681 6.146V10.234H35.3781V2.996Z" fill="white"/>
</svg>
